<?xml version="1.0" encoding="UTF-8"?>
<svg width="373px" height="255px" viewBox="0 0 373 255" version="1.1" xmlns="http://www.w3.org/2000/svg" xmlns:xlink="http://www.w3.org/1999/xlink">
    <!-- Generator: Sketch 42 (36781) - http://www.bohemiancoding.com/sketch -->
    <title>Step4</title>
    <desc>Created with Sketch.</desc>
    <defs></defs>
    <g id="homepage" stroke="none" stroke-width="1" fill="none" fill-rule="evenodd">
        <g id="6steps" transform="translate(-855.000000, -1930.000000)">
            <g id="Group-2" transform="translate(829.000000, 630.000000)">
                <g id="Step4" transform="translate(28.000000, 1302.000000)">
                    <g id="step_4">
                        <g id="artwork">
                            <g id="Group">
                                <path d="M148.373201,144.777156 C134.340524,150.225871 135.714815,171.988897 118.458709,173.222063 C106.055752,174.108401 93.0891761,166.684275 90.6898194,154.95496 L90.6822822,154.953285 C88.8649684,145.691139 80.7054808,138.704318 70.9137607,138.704318 C59.7871106,138.704318 50.7675395,147.726868 50.7675395,158.857192" id="Shape" stroke="#C3BBBB" stroke-width="1.58" stroke-linecap="round" stroke-dasharray="4.7401,6.3202"></path>
                                <path d="M146.249372,92.3290828 C139.831826,75.7735 138.97928,59.3259868 140.384558,49.3743742 C143.781343,25.320106 155.108149,17.7761821 178.74914,17.7761821" id="Shape" stroke="#C3BBBB" stroke-width="1.58" stroke-linecap="round" stroke-dasharray="4.7401,6.3202"></path>
                                <path d="M139.993458,83.2018146 C135.250018,80.7572649 129.868424,79.3774934 124.165242,79.3774934 C115.356713,79.3774934 107.316984,82.6690066 101.207628,88.0884007 L101.13393,87.9995993 C95.1359571,92.9883907 87.4270293,95.9875298 79.0171377,95.9875298 C58.394395,95.9875298 44.1908736,79.6723808 44.1908736,55.8459801" id="Shape" stroke="#C3BBBB" stroke-width="1.58" stroke-linecap="round" stroke-dasharray="4.7401,6.3202"></path>
                                <g transform="translate(118.920993, 56.966887)" stroke-linejoin="round">
                                    <path d="M24.8117765,19.1484139 C49.0741716,-5.12199338 68.0906433,-5.34567219 92.5774808,19.1484139" id="Shape" stroke="#64B5F6" stroke-width="3"></path>
                                    <path d="M98.091395,92.4522318 C122.35379,68.1818245 122.577395,49.1590728 98.091395,24.664149" id="Shape" stroke="#64B5F6" stroke-width="3"></path>
                                    <path d="M19.2970248,24.664149 C-4.9653702,48.9345563 -5.18897517,67.9573079 19.2970248,92.4522318" id="Shape" stroke="#64B5F6" stroke-width="3"></path>
                                    <path d="M92.5766433,97.9688046 C68.3142483,122.239212 49.2977765,122.462891 24.8109391,97.9688046" id="Shape" stroke="#64B5F6" stroke-width="3"></path>
                                    <path d="M90.5801106,26.9981159 C73.0685756,9.48079801 44.6699074,9.48079801 27.1583725,26.9981159 C9.64683747,44.5154338 9.64683747,72.9151026 27.1583725,90.440798 C44.6699074,107.958116 73.0685756,107.958116 90.5801106,90.440798 C108.091646,72.9151026 108.091646,44.5154338 90.5801106,26.9981159 Z M78.2274018,78.1007649 C67.4407652,88.8909636 49.9459797,88.8909636 39.1593431,78.1007649 C28.3727065,67.3021887 28.3727065,49.8100033 39.1593431,39.0198046 C49.9459797,28.229606 67.4407652,28.229606 78.2274018,39.0198046 C89.0140384,49.8100033 89.0140384,67.3021887 78.2274018,78.1007649 Z" id="Shape" stroke="#464354" stroke-width="3" fill="#64B5F6" fill-rule="nonzero"></path>
                                    <ellipse id="Oval" stroke="#D2DBE0" stroke-width="0.99999041" transform="translate(58.692278, 58.559017) rotate(-45.000000) translate(-58.692278, -58.559017) " cx="58.6922783" cy="58.5590168" rx="31.8328347" ry="31.8433469"></ellipse>
                                    <ellipse id="Oval" stroke="#D2DBE0" stroke-width="0.99999041" transform="translate(58.692278, 58.559017) rotate(-45.000000) translate(-58.692278, -58.559017) " cx="58.6922783" cy="58.5590168" rx="41.3539601" ry="41.3676165"></ellipse>
                                    <path d="M99.8341738,32.5540629 L82.7371874,49.6566954 C81.4960542,46.288947 79.5212957,43.1323113 76.8170993,40.4272219 C74.1129029,37.7221325 70.9564718,35.7467219 67.5906727,34.5051788 L84.6876591,17.4025464 C85.6984876,16.3913841 87.3399323,16.3913841 88.3515982,17.4025464 L99.8383612,28.8931026 C100.84919,29.9042649 100.845002,31.5429007 99.8341738,32.5540629 Z" id="Shape" stroke="#464354" stroke-width="3" fill="#D2DBE0" fill-rule="nonzero"></path>
                                    <path d="M49.7960722,82.6086887 L32.6990858,99.7113212 C31.6882573,100.722483 30.0501625,100.726672 29.0393341,99.7155099 L17.5525711,88.2249536 C16.5417427,87.2137914 16.5417427,85.5718046 17.5525711,84.5598046 L34.6495576,67.4571722 C35.8906907,70.8249205 37.8654492,73.9815563 40.5696456,76.6866457 C43.2730045,79.3917351 46.4294357,81.3671457 49.7960722,82.6086887 Z" id="Shape" stroke="#464354" stroke-width="3" fill="#D2DBE0" fill-rule="nonzero"></path>
                                    <path d="M40.5688081,40.4272219 C37.8646117,43.1323113 35.8898533,46.2897848 34.6487201,49.6566954 L17.5517336,32.5540629 C16.5409052,31.5429007 16.5409052,29.9009139 17.5517336,28.8889139 L29.0343093,17.4025464 C30.0451377,16.3913841 31.6865824,16.3913841 32.6982483,17.4025464 L49.7952348,34.5051788 C46.4294357,35.7467219 43.2730045,37.7221325 40.5688081,40.4272219 Z" id="Shape" stroke="#464354" stroke-width="3" fill="#D2DBE0" fill-rule="nonzero"></path>
                                    <path d="M99.8333363,88.2249536 L88.3507607,99.7113212 C87.3399323,100.722483 85.7018375,100.726672 84.691009,99.7155099 L67.5898352,82.6086887 C70.9564718,81.3671457 74.1120655,79.3917351 76.8162619,76.6866457 C79.5204582,73.9815563 81.4952167,70.8240828 82.7363499,67.4571722 L99.8375237,84.5639934 C100.848352,85.5751556 100.845002,87.2137914 99.8333363,88.2249536 Z" id="Shape" stroke="#464354" stroke-width="3" fill="#D2DBE0" fill-rule="nonzero"></path>
                                    <path d="M93.966009,26.3756689 L90.8656885,23.2743245 C90.360693,22.7691623 90.360693,21.9506821 90.8656885,21.4455199 L94.872991,17.436894 C95.3779865,16.9317318 96.1961964,16.9317318 96.7011919,17.436894 L99.8015124,20.5382384 C100.306508,21.0434007 100.306508,21.8618808 99.8015124,22.367043 L95.7942099,26.3756689 C95.2892144,26.8808311 94.4710045,26.8808311 93.966009,26.3756689 Z" id="Shape" stroke="#464354" stroke-width="3" fill="#8D8C94" fill-rule="nonzero"></path>
                                    <path d="M26.5227314,93.8420563 L23.4224108,90.7407119 C22.9174153,90.2355497 22.0992054,90.2355497 21.5942099,90.7407119 L17.5869074,94.7493377 C17.081912,95.2545 17.081912,96.0729801 17.5869074,96.5781424 L20.687228,99.6794868 C21.1922235,100.184649 22.0104334,100.184649 22.5154289,99.6794868 L26.5227314,95.6708609 C27.0277269,95.1656987 27.0277269,94.3472185 26.5227314,93.8420563 Z" id="Shape" stroke="#464354" stroke-width="3" fill="#8D8C94" fill-rule="nonzero"></path>
                                    <path d="M90.866526,93.8420563 L93.9668465,90.7407119 C94.471842,90.2355497 95.2900519,90.2355497 95.7950474,90.7407119 L99.8023499,94.7493377 C100.307345,95.2545 100.307345,96.0729801 99.8023499,96.5781424 L96.7020293,99.6794868 C96.1970339,100.184649 95.3788239,100.184649 94.8738284,99.6794868 L90.866526,95.6708609 C90.3615305,95.1656987 90.3615305,94.3472185 90.866526,93.8420563 Z" id="Shape" stroke="#464354" stroke-width="3" fill="#8D8C94" fill-rule="nonzero"></path>
                                    <path d="M23.4224108,26.3756689 L26.5227314,23.2743245 C27.0277269,22.7691623 27.0277269,21.9506821 26.5227314,21.4455199 L22.5154289,17.436894 C22.0104334,16.9317318 21.1922235,16.9317318 20.687228,17.436894 L17.5869074,20.5382384 C17.081912,21.0434007 17.081912,21.8618808 17.5869074,22.367043 L21.5942099,26.3756689 C22.0992054,26.8808311 22.9174153,26.8808311 23.4224108,26.3756689 Z" id="Shape" stroke="#464354" stroke-width="3" fill="#8D8C94" fill-rule="nonzero"></path>
                                </g>
                                <path d="M370.606388,189.090692 C370.606388,213.287377 357.128955,234.334129 337.280874,245.128517 C328.242878,250.039397 317.895077,252.83245 306.885673,252.83245 C295.882968,252.83245 285.528467,250.039397 276.497172,245.135219 C256.641553,234.334129 243.164957,213.287377 243.164957,189.090692 C243.164957,153.887669 271.694271,125.348934 306.885673,125.348934 C342.077074,125.348934 370.606388,153.887669 370.606388,189.090692 Z" id="Shape" fill="#D2DBE0" fill-rule="nonzero"></path>
                                <g transform="translate(0.000000, 10.890728)">
                                    <ellipse id="Oval" fill="#D2DBE0" fill-rule="nonzero" cx="31.9595982" cy="32.2901722" rx="31.8063409" ry="31.8168444"></ellipse>
                                    <g transform="translate(11.724605, 7.539735)" fill-rule="nonzero">
                                        <rect id="Rectangle-path" fill="#FFFFFF" x="14.5711716" y="27.1204272" width="11.3268059" height="11.9555066"></rect>
                                        <path d="M39.3008758,45.8918543 L39.3008758,50.2246887 C33.9871174,54.2090199 27.3853273,56.5672815 20.2366682,56.5672815 C12.8267178,56.5672815 6.00802257,54.035606 0.597954853,49.7815199 L0.597954853,45.8918543 C0.597954853,40.4280596 5.03320542,35.9997219 10.4951964,35.9997219 L29.412009,35.9997219 C34.874,36.0005596 39.3008758,40.4288974 39.3008758,45.8918543 Z" id="Shape" fill="#8D8C94"></path>
                                        <ellipse id="Oval" fill="#FFFFFF" cx="20.2349932" cy="15.439702" rx="14.7009797" ry="14.7058344"></ellipse>
                                        <path d="M33.1395959,8.39088742 L33.1328962,8.39088742 C33.1127968,8.35151325 33.093535,8.30459934 33.0667359,8.26522517 C33.0926975,8.30459934 33.1127968,8.3506755 33.1395959,8.39088742 Z" id="Shape" fill="#464354"></path>
                                        <path d="M34.9393228,15.439702 C34.9393228,15.8099868 34.9259233,16.1744073 34.8932619,16.5388278 L34.1060384,16.5388278 C32.4654312,16.5388278 31.135526,15.2151854 31.135526,13.5740364 L31.135526,10.393106 L9.3344605,10.393106 L9.3344605,13.5740364 C9.3344605,15.2151854 8.0045553,16.5388278 6.37064786,16.5388278 L5.58342438,16.5388278 C5.54992551,16.1744073 5.53736343,15.8108245 5.53736343,15.439702 C5.53736343,12.8854073 6.18556659,10.482745 7.34379007,8.39088742 L7.33039052,8.39088742 C9.82438149,3.82432119 14.6674808,0.733029801 20.2383431,0.733029801 C24.8829616,0.733029801 29.0250971,2.89023179 31.7108691,6.25965563 C31.8364898,6.41882781 31.9621106,6.57716225 32.0810316,6.73633444 C32.0810316,6.74303642 32.0944312,6.74973841 32.0944312,6.74973841 C32.2066524,6.9089106 32.3197111,7.07394702 32.4319323,7.23311921 C32.5441535,7.39899338 32.6505124,7.5640298 32.7560339,7.72990397 C32.7560339,7.73660596 32.7627336,7.74330795 32.7694334,7.75000993 C32.8690926,7.92258609 32.974614,8.0943245 33.0675734,8.26606291 C33.0943725,8.30543709 33.1136343,8.35235099 33.1337336,8.39172517 L33.1404334,8.39172517 C34.2902822,10.4819073 34.9393228,12.8845695 34.9393228,15.439702 Z" id="Shape" fill="#464354"></path>
                                    </g>
                                    <path d="M63.7667765,32.2901722 C63.7667765,42.7125993 58.7662325,51.9613411 51.0254808,57.7644238 C45.7117223,61.748755 39.1099323,64.1070166 31.9612731,64.1070166 C24.5513228,64.1070166 17.7326275,61.5753411 12.3225598,57.321255 C4.91260948,51.5005795 0.15493228,42.4520596 0.15493228,32.2901722 C0.15493228,14.7158874 14.3927901,0.473327815 31.9612731,0.473327815 C49.5297562,0.473327815 63.7667765,14.7158874 63.7667765,32.2901722 Z" id="Shape" stroke="#C3BBBB" stroke-width="2.3701"></path>
                                </g>
                                <g transform="translate(16.749436, 151.632450)">
                                    <ellipse id="Oval" fill="#D2DBE0" fill-rule="nonzero" cx="40.0621377" cy="40.230351" rx="39.5529549" ry="39.5660166"></ellipse>
                                    <g transform="translate(15.074492, 10.052980)" fill-rule="nonzero">
                                        <rect id="Rectangle-path" fill="#FFFFFF" x="17.9445079" y="33.1254073" width="14.0854379" height="14.8666821"></rect>
                                        <path d="M48.6973093,56.4692649 L48.6973093,61.8568245 C42.0888194,66.812106 33.879921,69.7442252 24.9893205,69.7442252 C15.7746185,69.7442252 7.2952167,66.5959669 0.567805869,61.3055861 L0.567805869,56.4692649 C0.567805869,49.6751258 6.08339503,44.1677682 12.8761287,44.1677682 L36.3998736,44.1677682 C43.1917698,44.1677682 48.6973093,49.6742881 48.6973093,56.4692649 Z" id="Shape" fill="#64B5F6"></path>
                                        <path d="M43.2696546,18.5963377 C43.2696546,28.6962318 35.0850429,36.8894106 24.9893205,36.8894106 C22.5413905,36.8894106 20.2056817,36.4060298 18.0684537,35.5255563 C18.061754,35.5255563 18.061754,35.5188543 18.0550542,35.5188543 C11.3988284,32.7919834 6.70814898,26.2399536 6.70814898,18.5955 C6.70814898,8.49560596 14.8927607,0.309129139 24.9884831,0.309129139 C32.0483702,0.309129139 38.1610767,4.30686424 41.211149,10.1568609 C41.448991,10.6201358 41.6742709,11.0968146 41.8727517,11.5801954 C42.7730339,13.7449371 43.2696546,16.1149272 43.2696546,18.5963377 Z" id="Shape" fill="#FFFFFF"></path>
                                        <path d="M41.2119865,10.1576987 C39.386298,11.508149 37.367991,12.6198411 35.2173634,13.4466987 C34.3899413,23.7384371 27.4632122,32.3027384 18.0550542,35.5188543 C11.3988284,32.7919834 6.70814898,26.2399536 6.70814898,18.5955 C6.70814898,8.49560596 14.8927607,0.309129139 24.9884831,0.309129139 C32.0483702,0.309966887 38.1619142,4.30770199 41.2119865,10.1576987 Z" id="Shape" fill="#464354"></path>
                                    </g>
                                    <path d="M79.6167675,40.2311887 C79.6167675,53.1928311 73.397702,64.6934404 63.7718014,71.9098046 C57.1633115,76.8650861 48.9544131,79.7972053 40.0638126,79.7972053 C30.8491106,79.7972053 22.3697088,76.648947 15.642298,71.3585662 C6.42759594,64.1204205 0.510857788,52.8686225 0.510857788,40.2320265 C0.510857788,18.3776854 18.2158488,0.666009934 40.0638126,0.666009934 C61.9117765,0.666009934 79.6167675,18.3768477 79.6167675,40.2311887 Z" id="Shape" stroke="#C3BBBB" stroke-width="2.3701"></path>
                                </g>
                                <g transform="translate(171.681716, 0.000000)">
                                    <ellipse id="Oval" fill="#D2DBE0" fill-rule="nonzero" cx="24.8762619" cy="24.3583709" rx="24.1962348" ry="24.2042252"></ellipse>
                                    <g transform="translate(10.049661, 5.864238)" fill-rule="nonzero">
                                        <rect id="Rectangle-path" fill="#FFFFFF" x="11.2011851" y="20.2961291" width="8.61674718" height="9.09459603"></rect>
                                        <path d="M30.0133138,34.5763874 L30.0133138,37.8720894 C25.9708375,40.9030629 20.9493567,42.6966821 15.5108149,42.6966821 C9.87379233,42.6966821 4.6864921,40.7706987 0.571155756,37.5344768 L0.571155756,34.5763874 C0.571155756,30.4203179 3.94532957,27.050894 8.10002709,27.050894 L22.4903047,27.050894 C26.6458397,27.0517318 30.0133138,30.4203179 30.0133138,34.5763874 Z" id="Shape" fill="#464354"></path>
                                        <ellipse id="Oval" fill="#FFFFFF" cx="15.50914" cy="11.4101325" rx="11.1835982" ry="11.1872914"></ellipse>
                                        <path d="M4.75851467,14.5030993 C9.73895937,14.5030993 9.25825056,6.0460298 9.25825056,6.0460298 L25.3259842,6.0460298 L25.3268217,6.0477053 C23.4282731,2.57691391 19.7433973,0.22284106 15.50914,0.22284106 C9.33278555,0.22284106 4.32554176,5.23173841 4.32554176,11.4101325 C4.32554176,12.4841258 4.47712415,13.5229338 4.75935214,14.5056126 L4.75851467,14.5030993 Z" id="Shape" fill="#464354"></path>
                                    </g>
                                    <path d="M49.7558736,24.3583709 C49.7558736,32.2868212 45.9512393,39.3222318 40.0629752,43.7371656 C36.0204989,46.7681391 30.9990181,48.5617583 25.5604763,48.5617583 C19.9234537,48.5617583 14.7361535,46.6357748 10.6208172,43.399553 C4.98379458,38.972053 1.36507901,32.0891126 1.36507901,24.3583709 C1.36507901,10.9895828 12.1961016,0.154983444 25.5604763,0.154983444 C38.924851,0.154983444 49.7558736,10.988745 49.7558736,24.3583709 Z" id="Shape" stroke="#C3BBBB" stroke-width="2.3701"></path>
                                </g>
                                <rect id="Rectangle-path" stroke="#FFFFFF" stroke-width="2.3701" fill="#FFFFFF" fill-rule="nonzero" transform="translate(306.887850, 141.407062) rotate(180.000000) translate(-306.887850, -141.407062) " x="298.889995" y="132.96549" width="15.9957111" height="16.8831424"></rect>
                                <path d="M337.280874,166.866066 L337.280874,245.128517 C328.242878,250.039397 317.895077,252.83245 306.885673,252.83245 C295.882968,252.83245 285.528467,250.039397 276.497172,245.135219 L276.497172,166.866066 C276.497172,155.343675 285.839169,145.998593 297.357756,145.998593 L316.412752,145.998593 C327.938876,145.998593 337.280874,155.343675 337.280874,166.866066 Z" id="Shape" fill="#8D8C94" fill-rule="nonzero"></path>
                                <g transform="translate(286.415350, 95.503311)" fill-rule="nonzero" stroke-width="2.3701">
                                    <ellipse id="Oval" stroke="#FFFFFF" fill="#FFFFFF" cx="20.4703228" cy="20.9462219" rx="20.4502235" ry="20.4569768"></ellipse>
                                    <path d="M18.4243792,7.9418543 C19.439395,5.16974503 20.9468442,2.72603311 22.7901196,0.63752649 C24.3654041,0.820155629 25.9457133,1.1661457 27.5025734,1.73581457 C38.1074786,5.62045364 43.5577449,17.3698742 39.6735508,27.9807947 C38.2088126,31.981043 35.6235372,35.2457483 32.4042957,37.5554205 L32.1162054,37.4657815 C20.1847449,33.0952483 14.0552889,19.877255 18.4243792,7.9418543 Z" id="Shape" stroke="#464354" fill="#464354"></path>
                                    <path d="M27.5017359,1.73665232 C30.3952009,2.79640397 32.8883544,4.4551457 34.9301106,6.50511589 C29.0368217,14.6019536 18.3054582,18.1866788 8.43585327,14.5717947 C6.23330248,13.765043 4.23258239,12.653351 2.45546727,11.3079272 C7.18132054,2.44873841 17.8088375,-1.81456291 27.5017359,1.73665232 Z" id="Shape" stroke="#464354" fill="#464354"></path>
                                </g>
                                <path d="M320.118564,161.498613 C320.118564,194.464848 293.309418,221.282848 260.354065,221.282848 C227.398713,221.282848 200.589567,194.464848 200.589567,161.498613 L227.054512,161.498613 C227.054512,179.86457 241.994172,194.809162 260.354065,194.809162 C278.713959,194.809162 293.653619,179.86457 293.653619,161.498613 C293.653619,154.18507 299.582081,148.262189 306.885673,148.262189 C314.196801,148.262189 320.118564,154.185907 320.118564,161.498613 Z" id="Shape" fill="#C3BBBB" fill-rule="nonzero"></path>
                                <g transform="translate(308.189616, 43.562914)" fill-rule="nonzero" id="Shape">
                                    <path d="M13.2747652,37.4934272 C15.8466411,38.4786192 18.6747833,39.0231556 21.6427833,39.0231556 C33.5030587,39.0231556 43.1172348,30.3281656 43.1172348,19.6024735 C43.1172348,8.87678146 33.5030587,0.181791391 21.6427833,0.181791391 C9.7825079,0.181791391 0.168331828,8.87678146 0.168331828,19.6024735 C0.168331828,23.5775894 1.48902483,27.2745728 3.75522348,30.3524603 L3.75522348,43.3342086 L13.2747652,37.4934272 Z" stroke="#C3BBBB" stroke-width="3.1601" stroke-linejoin="round" fill="#EBE8E3"></path>
                                    <path d="M19.7048736,25.0051126 L19.7048736,23.6772815 C19.7048736,22.3812848 19.9636524,21.7337053 20.5465327,20.9236026 L23.1041716,17.4260033 C23.8813454,16.3897086 24.2046095,15.6449503 24.2046095,14.7703411 C24.2046095,13.3771656 23.2331422,12.3408709 21.6796321,12.3408709 C20.1579458,12.3408709 19.21914,13.2808245 18.9276998,14.9320265 C18.8950384,15.1263841 18.7660677,15.2235629 18.5717743,15.1908907 L15.6582099,14.7368311 C15.4320926,14.7041589 15.3667698,14.5433113 15.3994312,14.3481159 C15.9178262,11.1093808 18.2485102,9.10129801 21.8102777,9.10129801 C25.3720451,9.10129801 27.8970226,11.4335894 27.8970226,14.7368311 C27.8970226,16.1300066 27.4757743,17.3279868 26.5696298,18.5259669 L24.011991,22.0235662 C23.5262573,22.6384735 23.3646253,23.0925331 23.3646253,24.0643212 L23.3646253,25.0034371 C23.3646253,25.1977947 23.2348172,25.3276457 23.0405237,25.3276457 L20.0298126,25.3276457 C19.8338442,25.3284834 19.7048736,25.1994702 19.7048736,25.0051126 Z M19.5750655,27.8551325 C19.5750655,27.6607748 19.7048736,27.5309238 19.899167,27.5309238 L23.136833,27.5309238 C23.3311264,27.5309238 23.4609345,27.6599371 23.4609345,27.8551325 L23.4609345,31.1583742 C23.4609345,31.3527318 23.3311264,31.4825828 23.136833,31.4825828 L19.899167,31.4825828 C19.7048736,31.4825828 19.5750655,31.3535695 19.5750655,31.1583742 L19.5750655,27.8551325 Z" fill="#C3BBBB"></path>
                                </g>
                                <g transform="translate(298.139955, 34.347682)" id="Shape" stroke="#C3BBBB" stroke-width="2.3701" stroke-linejoin="round">
                                    <path d="M31.6924447,0.795023179 L31.6924447,4.76595033"></path>
                                    <g transform="translate(0.000000, 30.158940)">
                                        <path d="M58.8583544,0.814291391 L62.2383905,0.814291391"></path>
                                        <path d="M0.736975169,0.814291391 L4.11701129,0.814291391"></path>
                                    </g>
                                    <path d="M50.841237,11.6128675 L53.232219,9.22193377"></path>
                                    <path d="M12.5436524,11.6128675 L10.1535079,9.22193377"></path>
                                </g>
                                <path d="M224.240607,149.493679 L224.240607,163.052636 L203.404309,163.052636 L203.404309,149.493679 C203.404309,143.735834 208.066515,139.072089 213.822458,139.072089 C219.578402,139.072089 224.240607,143.735834 224.240607,149.493679 Z" id="Shape" fill="#FFFFFF" fill-rule="nonzero"></path>
                            </g>
                        </g>
                    </g>
                </g>
            </g>
        </g>
    </g>
</svg>