<?xml version="1.0" encoding="UTF-8"?>
<svg width="426px" height="328px" viewBox="0 0 426 328" version="1.1" xmlns="http://www.w3.org/2000/svg" xmlns:xlink="http://www.w3.org/1999/xlink">
    <!-- Generator: Sketch 42 (36781) - http://www.bohemiancoding.com/sketch -->
    <title>Step1</title>
    <desc>Created with Sketch.</desc>
    <defs></defs>
    <g id="homepage" stroke="none" stroke-width="1" fill="none" fill-rule="evenodd">
        <g id="6steps" transform="translate(-829.000000, -628.000000)">
            <g id="Group-2" transform="translate(829.000000, 630.000000)">
                <g id="Step1">
                    <g id="step_1">
                        <g id="artwork">
                            <g id="Group">
                                <g transform="translate(92.404639, 0.000000)">
                                    <g transform="translate(0.000000, 34.963918)" fill-rule="nonzero">
                                        <rect id="Rectangle-path" stroke="#FFFFFF" stroke-width="3" fill="#FFFFFF" x="12.9091778" y="21.4395412" width="9.19717526" height="9.70415206"></rect>
                                        <path d="M22.9854459,28.9309768 L12.0300851,28.9309768 C5.40525515,28.9309768 0.0341314433,34.3021005 0.0341314433,40.9277629 L0.0341314433,63.0982165 L0.0341314433,90.3376057 L34.9813995,90.3376057 L34.9813995,63.0982165 L34.9813995,40.9277629 C34.9813995,34.3021005 29.6102758,28.9309768 22.9854459,28.9309768 Z" id="Shape" fill="#C3BBBB"></path>
                                        <path d="M15.6713273,90.1386443 L15.6713273,85.1845902 L3.91179639,85.1845902 L3.91179639,90.1386443 C3.91179639,93.3719742 6.55823196,96.0175773 9.79239433,96.0175773 C13.0265567,96.0175773 15.6713273,93.3719742 15.6713273,90.1386443 Z" id="Shape" fill="#FFFFFF"></path>
                                        <path d="M15.6788196,36.3283428 L15.6788196,85.1845902 L3.91096392,85.1845902 L3.91096392,36.3283428 C3.91096392,33.0925155 6.54824227,30.4552371 9.80571392,30.4552371 C13.0423737,30.4552371 15.6788196,33.0925155 15.6788196,36.3283428 Z" id="Shape" fill="#C3BBBB"></path>
                                        <g transform="translate(4.994845, 0.000000)" stroke-width="3">
                                            <ellipse id="Oval" stroke="#FFFFFF" fill="#FFFFFF" cx="12.5145851" cy="11.9468376" rx="11.7586985" ry="11.7586985"></ellipse>
                                            <path d="M13.6908711,4.47205155 C13.1073067,2.87869588 12.240701,1.47431186 11.1809613,0.273884021 C10.2752294,0.378775773 9.367,0.577737113 8.47125773,0.905731959 C2.37338402,3.13842784 -0.760048969,9.89229124 1.47264691,15.9909974 C2.31427835,18.2902912 3.80107732,20.1666881 5.6525,21.4944845 L5.81816237,21.4428711 C12.6785825,18.9296314 16.2032784,11.3316392 13.6908711,4.47205155 Z" id="Shape" stroke="#8D8C94" fill="#8D8C94"></path>
                                            <path d="M8.47125773,0.904899485 C6.80714175,1.51427062 5.37445361,2.46745361 4.20066495,3.64540464 C7.58883505,8.29976804 13.7599665,10.3601418 19.4341108,8.28228608 C20.7003041,7.81859794 21.8507835,7.18009021 22.8722294,6.40672165 C20.1550335,1.3144768 14.0446727,-1.13632732 8.47125773,0.904899485 Z" id="Shape" stroke="#8D8C94" fill="#8D8C94"></path>
                                        </g>
                                    </g>
                                    <g transform="translate(47.451031, 34.963918)" fill-rule="nonzero">
                                        <rect id="Rectangle-path" stroke="#FFFFFF" stroke-width="3" fill="#FFFFFF" transform="translate(23.568761, 27.428028) rotate(180.000000) translate(-23.568761, -27.428028) " x="18.9701729" y="22.5759518" width="9.19717526" height="9.70415206"></rect>
                                        <rect id="Rectangle-path" fill="#C3BBBB" x="10.0671108" y="30.0581469" width="27.569049" height="61.4149536"></rect>
                                        <path d="M37.6353273,30.0581469 L37.6353273,86.3200851 L46.8766237,86.3200851 L46.8766237,39.2986108 C46.8766237,34.2238479 42.7100902,30.0581469 37.6353273,30.0581469 Z" id="Shape" fill="#C3BBBB"></path>
                                        <path d="M10.0646134,30.0581469 L10.0646134,86.3200851 L0.82331701,86.3200851 L0.82331701,39.2986108 C0.82331701,34.2238479 4.98985052,30.0581469 10.0646134,30.0581469 Z" id="Shape" fill="#C3BBBB"></path>
                                        <path d="M37.6353273,90.2809974 L37.6353273,86.3192526 L47.0389562,86.3192526 L47.0389562,90.2809974 C47.0389562,92.8666624 44.9228067,94.9819794 42.3371418,94.9819794 C39.7514768,94.9828119 37.6353273,92.8666624 37.6353273,90.2809974 Z" id="Shape" fill="#EBE8E3"></path>
                                        <path d="M0.74256701,90.2809974 L0.74256701,86.3192526 L10.1461959,86.3192526 L10.1461959,90.2809974 C10.1461959,92.8666624 8.03004639,94.9819794 5.44438144,94.9819794 C2.85871649,94.9828119 0.74256701,92.8666624 0.74256701,90.2809974 Z" id="Shape" fill="#FFFFFF"></path>
                                        <g transform="translate(10.822165, 0.000000)" id="Shape">
                                            <path d="M0.0524458763,12.9882629 C0.0524458763,20.0468119 5.74656959,25.790884 12.7485103,25.790884 C18.2803015,25.790884 22.997933,22.1995902 24.7311443,17.2122371 C24.7810928,17.0748789 24.8310412,16.9308608 24.8751624,16.7926701 L24.9500851,16.5296082 C24.9625722,16.4921469 24.969232,16.4546856 24.9817191,16.4172242 C25.0133531,16.3106675 25.0383273,16.2041108 25.0633015,16.0983866 C25.1007629,15.9543686 25.1323969,15.8103505 25.1631985,15.6605052 C25.1948325,15.535634 25.2198067,15.4099304 25.2381211,15.279232 C25.2447809,15.2417706 25.2506082,15.2043093 25.2564356,15.1668479 C25.2814098,15.0419768 25.3005567,14.9162732 25.3188711,14.7914021 L25.3188711,14.7789149 C25.3438454,14.6224098 25.3629923,14.4600773 25.3754794,14.2969124 C25.4004536,14.083799 25.4196005,13.8648582 25.4254278,13.6459175 C25.4379149,13.4269768 25.4437423,13.2080361 25.4437423,12.9890954 C25.4437423,5.93054639 19.7437912,0.186474227 12.7476778,0.186474227 C12.5287371,0.186474227 12.3156237,0.193134021 12.1033428,0.205621134 L12.0908557,0.205621134 C11.8777423,0.211448454 11.6654613,0.230595361 11.4523479,0.255569588 C11.2392345,0.274716495 11.0269536,0.299690722 10.8205,0.337152062 C10.6073866,0.368786082 10.400933,0.406247423 10.1944794,0.449536082 L10.1819923,0.449536082 C9.97553866,0.493657216 9.77491237,0.536945876 9.58094588,0.593554124 C9.37449227,0.643502577 9.17386598,0.700110825 8.97407216,0.762546392 C8.96741237,0.769206186 8.96158505,0.769206186 8.94909794,0.769206186 C8.76095876,0.831641753 8.57365206,0.900737113 8.38634536,0.969832474 C8.19820619,1.03892784 8.01089948,1.11385052 7.82359278,1.1887732 C7.54221649,1.30781701 7.27332732,1.43268814 7.00360567,1.57670619 C6.71556959,1.72072423 6.44085309,1.87722938 6.17113144,2.04622165 C5.80817268,2.26516237 5.45187371,2.50325 5.10722938,2.77213918 C4.96321134,2.87869588 4.82585309,2.9910799 4.69432216,3.10346392 C4.37548454,3.35403866 4.06830155,3.63541495 3.77443814,3.94176546 C3.6304201,4.08578351 3.49306186,4.23562887 3.35487113,4.3863067 C3.21751289,4.53615206 3.08598196,4.69265722 2.95445103,4.84916237 C2.7163634,5.13719845 2.49742268,5.43772165 2.29096907,5.74407216 C2.24102062,5.79402062 2.2093866,5.84396907 2.18441237,5.89391753 C2.09700258,6.03127577 2.00293299,6.16946649 1.92135052,6.31348454 C1.87140206,6.3759201 1.83394072,6.43252835 1.80896649,6.49496392 C1.73404381,6.62649485 1.65912113,6.75802577 1.58336598,6.8895567 C1.35193814,7.32743814 1.13882474,7.7778067 0.957345361,8.24149485 C0.371283505,9.70914691 0.0524458763,11.3116598 0.0524458763,12.9882629 Z" fill="#FFFFFF"></path>
                                            <path d="M0.959842784,8.23899742 L18.3677113,8.23899742 C18.3926856,10.0096701 18.6990361,13.7141804 20.6262139,15.7537423 C21.5394381,16.7177474 22.69075,17.2114046 24.0485155,17.2114046 L24.7552861,17.2114046 L24.8743299,16.7918376 L24.9492526,16.5287758 C24.9617397,16.4913144 24.9683995,16.4538531 24.9808866,16.4163918 C25.0125206,16.3098351 25.0374948,16.2032784 25.0624691,16.0975541 C25.0999304,15.9535361 25.1315644,15.809518 25.162366,15.6596727 C25.194,15.5348015 25.2189742,15.4090979 25.2372887,15.2783995 C25.2439485,15.2409381 25.2497758,15.2034768 25.2556031,15.1660155 C25.2805773,15.0411443 25.2997242,14.9154407 25.3180387,14.7905696 L25.3180387,14.7780825 C25.3430129,14.6215773 25.3621598,14.4592448 25.3746469,14.2960799 C25.3996211,14.0829665 25.418768,13.8640258 25.4245954,13.6450851 C25.4370825,13.4261443 25.4429098,13.2072036 25.4429098,12.9882629 C25.4429098,5.92971392 19.7429588,0.185641753 12.7468454,0.185641753 C12.5279046,0.185641753 12.3147912,0.192301546 12.1025103,0.20478866 L12.0900232,0.20478866 C11.8769098,0.210615979 11.6646289,0.229762887 11.4515155,0.254737113 C11.2384021,0.273884021 11.0261211,0.298858247 10.8196675,0.336319588 C10.6065541,0.367953608 10.4001005,0.405414948 10.1936469,0.448703608 L10.1811598,0.448703608 C9.97470619,0.492824742 9.7740799,0.536113402 9.5801134,0.592721649 C9.37365979,0.642670103 9.17303351,0.699278351 8.97323969,0.761713918 C8.9665799,0.768373711 8.96075258,0.768373711 8.94826546,0.768373711 C8.76012629,0.830809278 8.57281959,0.899904639 8.38551289,0.969 C8.19737371,1.03809536 8.01006701,1.11301804 7.82276031,1.18794072 C7.54138402,1.30698454 7.27249485,1.43185567 7.0027732,1.57587371 C6.72139691,1.71989175 6.44002062,1.86973711 6.17029897,2.04538918 C5.80734021,2.2643299 5.45104124,2.50241753 5.10639691,2.7713067 C4.96237887,2.8778634 4.82502062,2.99024742 4.69348969,3.10263144 C4.37465206,3.35320619 4.06746907,3.63458247 3.77360567,3.94093299 C3.62958763,4.08495103 3.49222938,4.23479639 3.35403866,4.38547423 C3.21668041,4.53531959 3.08514948,4.69182474 2.95361856,4.8483299 C2.70970361,5.13636598 2.49076289,5.43688918 2.2901366,5.74323969 C2.24018814,5.79318814 2.20855412,5.8431366 2.1835799,5.89308505 C2.0961701,6.0304433 2.00210052,6.16863402 1.92051804,6.31265206 C1.87056959,6.37508763 1.83310825,6.43169588 1.80813402,6.49413144 C1.73321134,6.61317526 1.66411598,6.73221907 1.59502062,6.85709021 L1.58253351,6.88872423 C1.35360309,7.3257732 1.14132216,7.77614175 0.959842784,8.23899742 Z" fill="#8D8C94"></path>
                                        </g>
                                    </g>
                                    <g transform="translate(23.309278, 0.000000)" fill-rule="nonzero">
                                        <path d="M24.5097062,30.5243325 C22.4335155,31.3193454 20.1508711,31.7588918 17.7541778,31.7588918 C8.17989175,31.7588918 0.418734536,24.7419665 0.418734536,16.086732 C0.418734536,7.43149742 8.17989175,0.414572165 17.7541778,0.414572165 C27.3284639,0.414572165 35.0896211,7.43149742 35.0896211,16.086732 C35.0896211,19.2950876 34.0232216,22.2778428 32.1942758,24.7619459 L32.1942758,35.2378015 L24.5097062,30.5243325 Z" id="Shape" stroke="#C3BBBB" stroke-width="3" stroke-linejoin="round" fill="#EBE8E3"></path>
                                        <g transform="translate(6.659794, 14.984536)" id="Oval" fill="#C3BBBB">
                                            <ellipse cx="2.46911856" cy="2.84123454" rx="2.13279897" ry="2.13279897"></ellipse>
                                            <ellipse cx="11.0952165" cy="2.84123454" rx="2.13279897" ry="2.13279897"></ellipse>
                                            <ellipse cx="19.720482" cy="2.84123454" rx="2.13279897" ry="2.13279897"></ellipse>
                                        </g>
                                    </g>
                                    <path d="M58.3481186,77.8613144 L58.3481186,126.436186" id="Shape" stroke="#8D8C94" stroke-width="2"></path>
                                </g>
                                <g transform="translate(0.000000, 143.185567)" fill-rule="nonzero">
                                    <rect id="Rectangle-path" stroke="#FFFFFF" stroke-width="3" fill="#FFFFFF" transform="translate(102.419054, 35.555474) rotate(180.000000) translate(-102.419054, -35.555474) " x="96.300785" y="29.1000523" width="12.2365387" height="12.9108428"></rect>
                                    <path d="M95.1309923,39.0663505 L109.706784,39.0663505 C118.520188,39.0663505 125.666147,46.2114768 125.666147,55.0265464 L125.666147,84.5227732 L125.666147,120.762041 L79.1724613,120.762041 L79.1724613,84.5227732 L79.1724613,55.0265464 C79.1716289,46.2114768 86.3175876,39.0663505 95.1309923,39.0663505 Z" id="Shape" fill="#C3BBBB"></path>
                                    <path d="M104.851794,48.9078608 L104.851794,113.906616 L120.508137,113.906616 L120.508137,48.9078608 C120.508137,44.6031366 117.00009,41.0942577 112.665397,41.0942577 C108.35984,41.0942577 104.851794,44.6031366 104.851794,48.9078608 Z" id="Shape" fill="#C3BBBB"></path>
                                    <g transform="translate(86.577320, 0.000000)" stroke-width="3">
                                        <ellipse id="Oval" stroke="#FFFFFF" fill="#FFFFFF" cx="15.8394871" cy="16.4696701" rx="15.6438557" ry="15.6438557"></ellipse>
                                        <path d="M14.2744356,6.52576546 C15.051134,4.40545361 16.2041108,2.53738144 17.6143222,0.939863402 C18.8197448,1.07971907 20.0284974,1.3436134 21.2189356,1.7798299 C29.3313969,4.75093041 33.5004278,13.7358247 30.5293273,21.8491186 C29.408817,24.9076289 27.4308582,27.4050515 24.9683995,29.1707294 L24.7477938,29.1024665 C15.6213789,25.7609149 10.9320515,15.6521804 14.2744356,6.52576546 Z" id="Shape" stroke="#8D8C94" fill="#8D8C94"></path>
                                        <path d="M21.2189356,1.7798299 C23.4324845,2.59065979 25.339683,3.85935052 26.9014046,5.42606701 C22.3935567,11.6180103 14.1836959,14.3593479 6.63481959,11.594701 C4.94989175,10.9778376 3.41980412,10.1278814 2.06037371,9.0989433 C5.67414433,2.32510052 13.8040876,-0.934868557 21.2189356,1.7798299 Z" id="Shape" stroke="#8D8C94" fill="#8D8C94"></path>
                                    </g>
                                    <rect id="Rectangle-path" stroke="#FFFFFF" stroke-width="3" fill="#FFFFFF" x="25.1074227" y="30.6109098" width="12.2365387" height="12.9108428"></rect>
                                    <rect id="Rectangle-path" fill="#C3BBBB" x="12.5112552" y="40.5656366" width="36.677982" height="81.7065129"></rect>
                                    <path d="M12.5112552,40.5656366 L12.5112552,115.417557 L0.216443299,115.417557 L0.216443299,52.8604485 C0.216443299,46.10825 5.75988918,40.5656366 12.5112552,40.5656366 Z" id="Shape" fill="#C3BBBB"></path>
                                    <path d="M49.1917345,40.5656366 L49.1917345,115.417557 L61.4865464,115.417557 L61.4865464,52.8604485 C61.4865464,46.10825 55.9431005,40.5656366 49.1917345,40.5656366 Z" id="Shape" fill="#C3BBBB"></path>
                                    <g transform="translate(14.152062, 0.000000)" id="Shape">
                                        <path d="M33.962451,17.8557397 C33.962451,27.246049 26.3869356,34.8881624 17.071549,34.8881624 C9.7124768,34.8881624 3.43562113,30.1097603 1.12966753,23.4749407 C1.06306959,23.2917964 0.996471649,23.1003273 0.938198454,22.917183 L0.838301546,22.5675438 C0.821652062,22.5175954 0.81332732,22.4676469 0.796677835,22.4176985 C0.755054124,22.2761778 0.721755155,22.1346572 0.688456186,21.9931366 C0.638507732,21.8016675 0.596884021,21.6101985 0.555260309,21.4104046 C0.513636598,21.2439098 0.480337629,21.0774149 0.455363402,20.9025954 C0.44703866,20.8526469 0.438713918,20.8026985 0.430389175,20.75275 C0.397090206,20.5862552 0.372115979,20.4197603 0.347141753,20.2532655 L0.347141753,20.236616 C0.313842784,20.0284974 0.288868557,19.8120541 0.272219072,19.5956108 C0.238920103,19.3125696 0.213945876,19.0212036 0.205621134,18.7298376 C0.188971649,18.4384716 0.180646907,18.1471057 0.180646907,17.8557397 C0.180646907,8.46543041 7.76448711,0.82331701 17.071549,0.82331701 C17.3629149,0.82331701 17.6459562,0.831641753 17.9289974,0.848291237 L17.9456469,0.848291237 C18.2286881,0.856615979 18.5117294,0.881590206 18.7947706,0.914889175 C19.0778119,0.939863402 19.3608531,0.973162371 19.6355696,1.02311082 C19.9186108,1.06473454 20.1933273,1.11468299 20.4680438,1.17295619 L20.4846933,1.17295619 C20.7594098,1.23122938 21.0258015,1.28950258 21.2838686,1.36442526 C21.5585851,1.4310232 21.8249768,1.50594588 22.0913686,1.5891933 C22.0996933,1.59751804 22.108018,1.59751804 22.1246675,1.59751804 C22.3744098,1.68076546 22.6241521,1.77233763 22.8738943,1.86390979 C23.1236366,1.95548196 23.3733789,2.05537887 23.6231211,2.15527577 C23.9977345,2.31344588 24.3556985,2.47994072 24.7136624,2.67140979 C25.0966005,2.86287887 25.4628892,3.07099742 25.8208531,3.29576546 C26.3036881,3.58713144 26.7781985,3.90347165 27.2360593,4.26143557 C27.4275284,4.40295619 27.6106727,4.55280155 27.7854923,4.70264691 C28.2100541,5.0356366 28.6179665,5.41025 29.0092294,5.81816237 C29.2006985,6.00963144 29.3838428,6.20942526 29.5669871,6.40921907 C29.7501314,6.60901289 29.924951,6.81713144 30.0997706,7.02525 C30.4161108,7.40818814 30.7074768,7.80777577 30.9821933,8.21568814 C31.0487912,8.28228608 31.0904149,8.34888402 31.1237139,8.41548196 C31.2402603,8.59862629 31.3651314,8.78177062 31.4733531,8.97323969 C31.539951,9.05648711 31.5898995,9.13140979 31.6231985,9.21465722 C31.7230954,9.3894768 31.8229923,9.56429639 31.9228892,9.73911598 C32.2309046,10.3218479 32.5139459,10.9212294 32.7553634,11.5372603 C33.5378892,13.4935747 33.962451,15.6247088 33.962451,17.8557397 Z" fill="#FFFFFF"></path>
                                        <path d="M32.7553634,11.5372603 L9.59593041,11.5372603 C9.56263144,13.8931624 9.15471907,18.8214098 6.59069845,21.5352758 C5.37528608,22.8172861 3.84353351,23.4749407 2.03706443,23.4749407 L1.09636856,23.4749407 L0.938198454,22.917183 L0.838301546,22.5675438 C0.821652062,22.5175954 0.81332732,22.4676469 0.796677835,22.4176985 C0.755054124,22.2761778 0.721755155,22.1346572 0.688456186,21.9931366 C0.638507732,21.8016675 0.596884021,21.6101985 0.555260309,21.4104046 C0.513636598,21.2439098 0.480337629,21.0774149 0.455363402,20.9025954 C0.44703866,20.8526469 0.438713918,20.8026985 0.430389175,20.75275 C0.397090206,20.5862552 0.372115979,20.4197603 0.347141753,20.2532655 L0.347141753,20.236616 C0.313842784,20.0284974 0.288868557,19.8120541 0.272219072,19.5956108 C0.238920103,19.3125696 0.213945876,19.0212036 0.205621134,18.7298376 C0.188971649,18.4384716 0.180646907,18.1471057 0.180646907,17.8557397 C0.180646907,8.46543041 7.76448711,0.82331701 17.071549,0.82331701 C17.3629149,0.82331701 17.6459562,0.831641753 17.9289974,0.848291237 L17.9456469,0.848291237 C18.2286881,0.856615979 18.5117294,0.881590206 18.7947706,0.914889175 C19.0778119,0.939863402 19.3608531,0.973162371 19.6355696,1.02311082 C19.9186108,1.06473454 20.1933273,1.11468299 20.4680438,1.17295619 L20.4846933,1.17295619 C20.7594098,1.23122938 21.0258015,1.28950258 21.2838686,1.36442526 C21.5585851,1.4310232 21.8249768,1.50594588 22.0913686,1.5891933 C22.0996933,1.59751804 22.108018,1.59751804 22.1246675,1.59751804 C22.3744098,1.68076546 22.6241521,1.77233763 22.8738943,1.86390979 C23.1236366,1.95548196 23.3733789,2.05537887 23.6231211,2.15527577 C23.9977345,2.31344588 24.3556985,2.47994072 24.7136624,2.67140979 C25.0882758,2.86287887 25.4628892,3.06267268 25.8208531,3.29576546 C26.3036881,3.58713144 26.7781985,3.90347165 27.2360593,4.26143557 C27.4275284,4.40295619 27.6106727,4.55280155 27.7854923,4.70264691 C28.2100541,5.0356366 28.6179665,5.41025 29.0092294,5.81816237 C29.2006985,6.00963144 29.3838428,6.20942526 29.5669871,6.40921907 C29.7501314,6.60901289 29.924951,6.81713144 30.0997706,7.02525 C30.4244356,7.40818814 30.7158015,7.80777577 30.9821933,8.21568814 C31.0487912,8.28228608 31.0904149,8.34888402 31.1237139,8.41548196 C31.2402603,8.59862629 31.3651314,8.78177062 31.4733531,8.97323969 C31.539951,9.05648711 31.5898995,9.13140979 31.6231985,9.21465722 C31.7230954,9.37282732 31.8146675,9.53099742 31.9062397,9.69749227 L31.9228892,9.73911598 C32.2309046,10.3218479 32.5139459,10.9212294 32.7553634,11.5372603 Z" fill="#8D8C94"></path>
                                    </g>
                                    <path d="M104.862616,120.497314 L104.862616,113.906616 L120.508137,113.906616 L120.508137,120.497314 C120.508137,124.798709 116.986771,128.319242 112.685376,128.319242 C108.382317,128.319242 104.862616,124.798709 104.862616,120.497314 Z" id="Shape" fill="#FFFFFF"></path>
                                    <path d="M12.5112552,120.687119 L12.5112552,115.416724 L0.000832474227,115.416724 L0.000832474227,120.687119 C0.000832474227,124.126902 2.81626031,126.941497 6.25687629,126.941497 C9.69749227,126.941497 12.5112552,124.126902 12.5112552,120.687119 Z" id="Shape" fill="#FFFFFF"></path>
                                    <path d="M61.5939356,120.687119 L61.5939356,115.416724 L49.0835129,115.416724 L49.0835129,120.687119 C49.0835129,124.126902 51.8989407,126.941497 55.3395567,126.941497 C58.7793402,126.941497 61.5939356,124.126902 61.5939356,120.687119 Z" id="Shape" fill="#FFFFFF"></path>
                                </g>
                                <path d="M360.764361,152.705742 C360.764361,173.184608 354.937041,192.306541 344.839129,208.48984 C335.798459,222.983216 323.344644,235.129015 308.593201,243.786747 C292.934361,252.993912 274.678201,258.271799 255.198304,258.271799 C196.900134,258.271799 149.632247,211.012237 149.632247,152.705742 C149.632247,94.3992474 196.900134,47.1396856 255.198304,47.1396856 C313.504799,47.1396856 360.764361,94.3992474 360.764361,152.705742 Z" id="Shape" stroke="#464354" stroke-width="4" fill="#EBE8E3" fill-rule="nonzero"></path>
                                <g transform="translate(149.012887, 46.618557)" stroke="#464354">
                                    <rect id="Rectangle-path" stroke-width="3.9999746" fill="#EBE8E3" fill-rule="nonzero" transform="translate(230.281206, 232.380960) rotate(-44.854148) translate(-230.281206, -232.380960) " x="218.185016" y="182.896925" width="24.1923799" height="98.96807"></rect>
                                    <path d="M213.308201,179.444814 L177.453536,215.12466 L159.580314,197.168191 C174.331758,188.510459 186.785572,176.36466 195.826242,161.871284 L213.308201,179.444814 Z" id="Shape" stroke-width="4" fill="#EBE8E3" fill-rule="nonzero"></path>
                                    <path d="M211.751474,106.087186 C211.751474,126.566052 205.924155,145.687985 195.826242,161.871284 C186.785572,176.36466 174.331758,188.510459 159.580314,197.168191 C143.921474,206.375356 125.665314,211.653242 106.185418,211.653242 C47.8872474,211.653242 0.619360825,164.39368 0.619360825,106.087186 C0.619360825,47.7806907 47.8872474,0.521128866 106.185418,0.521128866 C164.491912,0.521128866 211.751474,47.7806907 211.751474,106.087186 Z" id="Shape" stroke-width="4"></path>
                                </g>
                                <path d="M255.200802,236.278662 C209.118358,236.278662 171.627049,198.787353 171.627049,152.70491 C171.627049,106.622466 209.118358,69.1319897 255.200802,69.1319897 C301.283245,69.1319897 338.774554,106.623299 338.774554,152.705742 C338.774554,198.788186 301.283245,236.278662 255.200802,236.278662 Z" id="Shape" stroke="#64B5F6" stroke-width="4" fill="#BBDEFB" fill-rule="nonzero"></path>
                                <g transform="translate(7.492268, 85.744845)" stroke="#C3BBBB" id="Shape" stroke-width="3" stroke-linejoin="round">
                                    <path d="M36.5872423,45.7802552 C33.4812809,46.9690284 30.0664716,47.626683 26.4810052,47.626683 C12.1574536,47.626683 0.546935567,37.129183 0.546935567,24.1800464 C0.546935567,11.2309098 12.1582861,0.733409794 26.4810052,0.733409794 C40.8037242,0.733409794 52.4150747,11.2309098 52.4150747,24.1800464 C52.4150747,28.9792603 50.8200541,33.4421546 48.0828789,37.1583196 L48.0828789,52.8304794 L36.5872423,45.7802552 Z" fill="#EBE8E3" fill-rule="nonzero"></path>
                                    <g transform="translate(7.492268, 18.314433)" stroke-linecap="round">
                                        <path d="M37.3031701,3.88931959 C33.6419485,3.88931959 33.6419485,0.55942268 29.9798943,0.55942268 C26.3170077,0.55942268 26.3170077,3.88931959 22.6541211,3.88931959 C18.992067,3.88931959 18.992067,0.55942268 15.3308454,0.55942268 C11.6662938,0.55942268 11.6662938,3.88931959 8.00257474,3.88931959 C4.33885567,3.88931959 4.3380232,0.55942268 0.674304124,0.55942268"></path>
                                        <path d="M37.3031701,13.0465361 C33.6419485,13.0465361 33.6419485,9.71663918 29.9798943,9.71663918 C26.3170077,9.71663918 26.3170077,13.0465361 22.6541211,13.0465361 C18.992067,13.0465361 18.992067,9.71663918 15.3308454,9.71663918 C11.6662938,9.71663918 11.6662938,13.0465361 8.00257474,13.0465361 C4.33885567,13.0465361 4.3380232,9.71663918 0.674304124,9.71663918"></path>
                                    </g>
                                </g>
                                <g transform="translate(186.474227, 59.105670)">
                                    <g transform="translate(0.000000, 72.425258)">
                                        <g transform="translate(46.618557, 0.000000)" fill-rule="nonzero">
                                            <rect id="Rectangle-path" stroke="#FFFFFF" stroke-width="3" fill="#FFFFFF" transform="translate(30.598922, 36.680896) rotate(180.000000) translate(-30.598922, -36.680896) " x="24.4806528" y="30.2254742" width="12.2365387" height="12.9108428"></rect>
                                            <path d="M61.6064227,52.4758454 L61.6064227,115.027959 L49.3107784,115.027959 L49.3107784,121.887546 L12.6319639,121.887546 L12.6319639,115.027959 L0.336319588,115.027959 L0.336319588,52.4758454 C0.336319588,45.7244794 5.88059794,40.180201 12.6319639,40.180201 L49.3107784,40.180201 C56.0621443,40.180201 61.6064227,45.7244794 61.6064227,52.4758454 Z" id="Shape" stroke="#464354" stroke-width="3" fill="#464354"></path>
                                            <g transform="translate(13.319588, 0.000000)" id="Shape">
                                                <path d="M0.388765464,17.7233763 C0.388765464,27.1136856 7.96428093,34.755799 17.2796675,34.755799 C24.6387397,34.755799 30.9155954,29.9773969 33.221549,23.3425773 C33.2881469,23.159433 33.3547448,22.9679639 33.413018,22.7848196 L33.5129149,22.4351804 C33.5295644,22.385232 33.5378892,22.3352835 33.5545387,22.2853351 C33.5961624,22.1438144 33.6294613,22.0022938 33.6627603,21.8607732 C33.7127088,21.6693041 33.7543325,21.4778351 33.7959562,21.2780412 C33.8375799,21.1115464 33.8708789,20.9450515 33.8958531,20.770232 C33.9041778,20.7202835 33.9125026,20.6703351 33.9208273,20.6203866 C33.9541263,20.4538918 33.9791005,20.2873969 34.0040747,20.1209021 L34.0040747,20.1042526 C34.0373737,19.896134 34.0623479,19.6796907 34.0789974,19.4632474 C34.1122964,19.1802062 34.1372706,18.8888402 34.1455954,18.5974742 C34.1622448,18.3061082 34.1705696,18.0147423 34.1705696,17.7233763 C34.1705696,8.33306701 26.5867294,0.690953608 17.2796675,0.690953608 C16.9883015,0.690953608 16.7052603,0.699278351 16.4222191,0.715927835 L16.4055696,0.715927835 C16.1225284,0.724252577 15.8394871,0.749226804 15.5564459,0.782525773 C15.2734046,0.8075 14.9903634,0.840798969 14.7156469,0.890747423 C14.4326057,0.932371134 14.1578892,0.982319588 13.8831727,1.04059278 L13.8665232,1.04059278 C13.5918067,1.09886598 13.3254149,1.15713918 13.0673479,1.23206186 C12.7926314,1.29865979 12.5262397,1.37358247 12.2598479,1.4568299 C12.2515232,1.46515464 12.2431985,1.46515464 12.226549,1.46515464 C11.9768067,1.54840206 11.7270644,1.63997423 11.4773222,1.73154639 C11.2275799,1.82311856 10.9778376,1.92301546 10.7280954,2.02291237 C10.353482,2.18108247 9.99551804,2.34757732 9.63755412,2.53904639 C9.25461598,2.73051546 8.88832732,2.93863402 8.5303634,3.16340206 C8.04752835,3.45476804 7.57301804,3.77110825 7.11515722,4.12907216 C6.92368814,4.27059278 6.74054381,4.42043814 6.56572423,4.57028351 C6.14116237,4.9032732 5.73325,5.2778866 5.34198711,5.68579897 C5.15051804,5.87726804 4.96737371,6.07706186 4.78422938,6.27685567 C4.60108505,6.47664948 4.42626546,6.68476804 4.25144588,6.8928866 C3.93510567,7.27582474 3.64373969,7.67541237 3.3690232,8.08332474 C3.30242526,8.14992268 3.26080155,8.21652062 3.22750258,8.28311856 C3.11095619,8.46626289 2.98608505,8.64940722 2.8778634,8.84087629 C2.81126546,8.92412371 2.76131701,8.99904639 2.72801804,9.08229381 C2.62812113,9.2571134 2.52822423,9.43193299 2.42832732,9.60675258 C2.12031186,10.1894845 1.83727062,10.788866 1.59585309,11.4048969 C0.81332732,13.3612113 0.388765464,15.4923454 0.388765464,17.7233763 Z" fill="#FFFFFF"></path>
                                                <path d="M1.59585309,11.4048969 L24.7552861,11.4048969 C24.7885851,13.760799 25.1964974,18.6890464 27.760518,21.4029124 C28.9759304,22.6849227 30.507683,23.3425773 32.3141521,23.3425773 L33.2548479,23.3425773 L33.413018,22.7848196 L33.5129149,22.4351804 C33.5295644,22.385232 33.5378892,22.3352835 33.5545387,22.2853351 C33.5961624,22.1438144 33.6294613,22.0022938 33.6627603,21.8607732 C33.7127088,21.6693041 33.7543325,21.4778351 33.7959562,21.2780412 C33.8375799,21.1115464 33.8708789,20.9450515 33.8958531,20.770232 C33.9041778,20.7202835 33.9125026,20.6703351 33.9208273,20.6203866 C33.9541263,20.4538918 33.9791005,20.2873969 34.0040747,20.1209021 L34.0040747,20.1042526 C34.0373737,19.896134 34.0623479,19.6796907 34.0789974,19.4632474 C34.1122964,19.1802062 34.1372706,18.8888402 34.1455954,18.5974742 C34.1622448,18.3061082 34.1705696,18.0147423 34.1705696,17.7233763 C34.1705696,8.33306701 26.5867294,0.690953608 17.2796675,0.690953608 C16.9883015,0.690953608 16.7052603,0.699278351 16.4222191,0.715927835 L16.4055696,0.715927835 C16.1225284,0.724252577 15.8394871,0.749226804 15.5564459,0.782525773 C15.2734046,0.8075 14.9903634,0.840798969 14.7156469,0.890747423 C14.4326057,0.932371134 14.1578892,0.982319588 13.8831727,1.04059278 L13.8665232,1.04059278 C13.5918067,1.09886598 13.3254149,1.15713918 13.0673479,1.23206186 C12.7926314,1.29865979 12.5262397,1.37358247 12.2598479,1.4568299 C12.2515232,1.46515464 12.2431985,1.46515464 12.226549,1.46515464 C11.9768067,1.54840206 11.7270644,1.63997423 11.4773222,1.73154639 C11.2275799,1.82311856 10.9778376,1.92301546 10.7280954,2.02291237 C10.353482,2.18108247 9.99551804,2.34757732 9.63755412,2.53904639 C9.26294072,2.73051546 8.88832732,2.93030928 8.5303634,3.16340206 C8.04752835,3.45476804 7.57301804,3.77110825 7.11515722,4.12907216 C6.92368814,4.27059278 6.74054381,4.42043814 6.56572423,4.57028351 C6.14116237,4.9032732 5.73325,5.2778866 5.34198711,5.68579897 C5.15051804,5.87726804 4.96737371,6.07706186 4.78422938,6.27685567 C4.60108505,6.47664948 4.42626546,6.68476804 4.25144588,6.8928866 C3.92678093,7.27582474 3.63541495,7.67541237 3.3690232,8.08332474 C3.30242526,8.14992268 3.26080155,8.21652062 3.22750258,8.28311856 C3.11095619,8.46626289 2.98608505,8.64940722 2.8778634,8.84087629 C2.81126546,8.92412371 2.76131701,8.99904639 2.72801804,9.08229381 C2.62812113,9.24046392 2.53654897,9.39863402 2.4449768,9.56512887 L2.42832732,9.60675258 C2.11947938,10.1894845 1.83727062,10.788866 1.59585309,11.4048969 Z" fill="#464354"></path>
                                            </g>
                                        </g>
                                        <g transform="translate(90.739691, 1.664948)" stroke-width="3">
                                            <rect id="Rectangle-path" stroke="#FFFFFF" fill="#FFFFFF" fill-rule="nonzero" transform="translate(23.512818, 35.006540) rotate(180.000000) translate(-23.512818, -35.006540) " x="17.394549" y="28.5511188" width="12.2365387" height="12.9108428"></rect>
                                            <path d="M16.2257552,38.5169175 L30.8015464,38.5169175 C39.614951,38.5169175 46.7609098,45.6620438 46.7609098,54.4771134 L46.7609098,83.9733402 L46.7609098,120.212608 L0.267224227,120.212608 L0.267224227,83.9733402 L0.267224227,54.4771134 C0.266391753,45.6620438 7.41151804,38.5169175 16.2257552,38.5169175 Z" id="Shape" stroke="#C3BBBB" fill="#C3BBBB" fill-rule="nonzero"></path>
                                            <g transform="translate(7.492268, 0.000000)" fill-rule="nonzero">
                                                <ellipse id="Oval" stroke="#FFFFFF" fill="#FFFFFF" cx="16.0193015" cy="15.9210696" rx="15.6438557" ry="15.6438557"></ellipse>
                                                <path d="M14.45425,5.97633247 C15.2309485,3.85602062 16.3839253,1.98794845 17.7941366,0.390430412 C18.9995593,0.530286082 20.2083119,0.794180412 21.39875,1.23039691 C29.5112113,4.20149742 33.6802423,13.1863918 30.7091418,21.2996856 C29.5886314,24.3581959 27.6106727,26.8556186 25.1482139,28.6212964 L24.9276082,28.5530335 C15.8011933,25.211482 11.111866,15.1035799 14.45425,5.97633247 Z" id="Shape" stroke="#464354" fill="#464354"></path>
                                                <path d="M21.3979175,1.23122938 C23.6114665,2.04205928 25.5186649,3.31075 27.0803866,4.87746649 C22.5725387,11.0694098 14.3626778,13.8107474 6.81380155,11.0461005 C5.12887371,10.4292371 3.59878608,9.57928093 2.23935567,8.55034278 C5.85395876,1.77566753 13.9830696,-1.48430155 21.3979175,1.23122938 Z" id="Shape" stroke="#464354" fill="#464354"></path>
                                            </g>
                                            <path d="M29.9474278,113.36301 L29.9474278,55.7641186" id="Shape" stroke="#464354"></path>
                                        </g>
                                        <g>
                                            <rect id="Rectangle-path" stroke="#FFFFFF" stroke-width="3" fill="#FFFFFF" fill-rule="nonzero" x="25.0599716" y="30.2246418" width="12.2365387" height="12.9108428"></rect>
                                            <path d="M61.4399278,52.4758454 L61.4399278,115.027959 L49.1442835,115.027959 L49.1442835,121.887546 L12.4654691,121.887546 L12.4654691,115.027959 L0.169824742,115.027959 L0.169824742,52.4758454 C0.169824742,45.7244794 5.71410309,40.180201 12.4654691,40.180201 L49.1442835,40.180201 C55.8956495,40.180201 61.4399278,45.7244794 61.4399278,52.4758454 Z" id="Shape" stroke="#8D8C94" stroke-width="3" fill="#8D8C94" fill-rule="nonzero"></path>
                                            <path d="M12.4654691,115.027959 L12.4654691,57.429067" id="Shape" stroke="#464354" stroke-width="3"></path>
                                            <g transform="translate(14.152062, 0.000000)" id="Shape" fill-rule="nonzero">
                                                <path d="M33.9166649,17.4678067 C33.9166649,26.858116 26.3411495,34.5002294 17.0257629,34.5002294 C9.66669072,34.5002294 3.38983505,29.7218273 1.08388144,23.0870077 C1.01728351,22.9038634 0.950685567,22.7123943 0.892412371,22.52925 L0.792515464,22.1796108 C0.775865979,22.1296624 0.767541237,22.0797139 0.750891753,22.0297655 C0.709268041,21.8882448 0.675969072,21.7467242 0.642670103,21.6052036 C0.592721649,21.4137345 0.551097938,21.2222655 0.509474227,21.0224716 C0.467850515,20.8559768 0.434551546,20.689482 0.40957732,20.5146624 C0.401252577,20.4647139 0.392927835,20.4147655 0.384603093,20.364817 C0.351304124,20.1983222 0.326329897,20.0318273 0.30135567,19.8653325 L0.30135567,19.848683 C0.268056701,19.6405644 0.243082474,19.4241211 0.22643299,19.2076778 C0.193134021,18.9246366 0.168159794,18.6332706 0.159835052,18.3419046 C0.143185567,18.0505387 0.134860825,17.7591727 0.134860825,17.4678067 C0.134860825,8.07749742 7.71870103,0.435384021 17.0257629,0.435384021 C17.3171289,0.435384021 17.6001701,0.443708763 17.8832113,0.460358247 L17.8998608,0.460358247 C18.1829021,0.46868299 18.4659433,0.493657216 18.7489845,0.526956186 C19.0320258,0.551930412 19.315067,0.585229381 19.5897835,0.635177835 C19.8728247,0.676801546 20.1475412,0.72675 20.4222577,0.785023196 L20.4389072,0.785023196 C20.7136237,0.843296392 20.9800155,0.901569588 21.2380825,0.976492268 C21.512799,1.04309021 21.7791907,1.11801289 22.0455825,1.20126031 C22.0539072,1.20958505 22.062232,1.20958505 22.0788814,1.20958505 C22.3286237,1.29283247 22.578366,1.38440464 22.8281082,1.4759768 C23.0778505,1.56754897 23.3275928,1.66744588 23.5773351,1.76734278 C23.9519485,1.92551289 24.3099124,2.09200773 24.6678763,2.2834768 C25.0508144,2.47494588 25.4171031,2.68306443 25.775067,2.90783247 C26.2579021,3.19919845 26.7324124,3.51553866 27.1902732,3.87350258 C27.3817423,4.0150232 27.5648866,4.16486856 27.7397062,4.31471392 C28.164268,4.64770361 28.5721804,5.02231701 28.9634433,5.43022938 C29.1549124,5.62169845 29.3380567,5.82149227 29.521201,6.02128608 C29.7043454,6.2210799 29.8791649,6.42919845 30.0539845,6.63731701 C30.3703247,7.02025515 30.6616907,7.41984278 30.9364072,7.82775515 C31.0030052,7.89435309 31.0446289,7.96095103 31.0779278,8.02754897 C31.1944742,8.2106933 31.3193454,8.39383763 31.427567,8.5853067 C31.4941649,8.66855412 31.5441134,8.7434768 31.5774124,8.82672423 C31.6773093,9.00154381 31.7772062,9.1763634 31.8771031,9.35118299 C32.1851186,9.93391495 32.4681598,10.5332964 32.7095773,11.1493273 C33.4921031,13.1056418 33.9166649,15.2367758 33.9166649,17.4678067 Z" fill="#FFFFFF"></path>
                                                <path d="M32.7095773,11.1493273 L9.55014433,11.1493273 C9.51684536,13.5052294 9.10893299,18.4334768 6.54491237,21.1473428 C5.3295,22.4293531 3.79774742,23.0870077 1.99127835,23.0870077 L1.05058247,23.0870077 L0.892412371,22.52925 L0.792515464,22.1796108 C0.775865979,22.1296624 0.767541237,22.0797139 0.750891753,22.0297655 C0.709268041,21.8882448 0.675969072,21.7467242 0.642670103,21.6052036 C0.592721649,21.4137345 0.551097938,21.2222655 0.509474227,21.0224716 C0.467850515,20.8559768 0.434551546,20.689482 0.40957732,20.5146624 C0.401252577,20.4647139 0.392927835,20.4147655 0.384603093,20.364817 C0.351304124,20.1983222 0.326329897,20.0318273 0.30135567,19.8653325 L0.30135567,19.848683 C0.268056701,19.6405644 0.243082474,19.4241211 0.22643299,19.2076778 C0.193134021,18.9246366 0.168159794,18.6332706 0.159835052,18.3419046 C0.143185567,18.0505387 0.134860825,17.7591727 0.134860825,17.4678067 C0.134860825,8.07749742 7.71870103,0.435384021 17.0257629,0.435384021 C17.3171289,0.435384021 17.6001701,0.443708763 17.8832113,0.460358247 L17.8998608,0.460358247 C18.1829021,0.46868299 18.4659433,0.493657216 18.7489845,0.526956186 C19.0320258,0.551930412 19.315067,0.585229381 19.5897835,0.635177835 C19.8728247,0.676801546 20.1475412,0.72675 20.4222577,0.785023196 L20.4389072,0.785023196 C20.7136237,0.843296392 20.9800155,0.901569588 21.2380825,0.976492268 C21.512799,1.04309021 21.7791907,1.11801289 22.0455825,1.20126031 C22.0539072,1.20958505 22.062232,1.20958505 22.0788814,1.20958505 C22.3286237,1.29283247 22.578366,1.38440464 22.8281082,1.4759768 C23.0778505,1.56754897 23.3275928,1.66744588 23.5773351,1.76734278 C23.9519485,1.92551289 24.3099124,2.09200773 24.6678763,2.2834768 C25.0424897,2.47494588 25.4171031,2.67473969 25.775067,2.90783247 C26.2579021,3.19919845 26.7324124,3.51553866 27.1902732,3.87350258 C27.3817423,4.0150232 27.5648866,4.16486856 27.7397062,4.31471392 C28.164268,4.64770361 28.5721804,5.02231701 28.9634433,5.43022938 C29.1549124,5.62169845 29.3380567,5.82149227 29.521201,6.02128608 C29.7043454,6.2210799 29.8791649,6.42919845 30.0539845,6.63731701 C30.3786495,7.02025515 30.6700155,7.41984278 30.9364072,7.82775515 C31.0030052,7.89435309 31.0446289,7.96095103 31.0779278,8.02754897 C31.1944742,8.2106933 31.3193454,8.39383763 31.427567,8.5853067 C31.4941649,8.66855412 31.5441134,8.7434768 31.5774124,8.82672423 C31.6773093,8.98489433 31.7688814,9.14306443 31.8604536,9.30955928 L31.8771031,9.35118299 C32.185951,9.93391495 32.4681598,10.5332964 32.7095773,11.1493273 Z" fill="#464354"></path>
                                            </g>
                                        </g>
                                    </g>
                                    <g transform="translate(4.994845, 12.487113)" stroke="#464354" fill-rule="nonzero" stroke-width="3" fill="#EBE8E3" stroke-linejoin="round">
                                        <path d="M36.1826598,45.5962784 C33.0766985,46.7850515 29.6618892,47.4427062 26.0764227,47.4427062 C11.7528711,47.4427062 0.142353093,36.9452062 0.142353093,23.9960696 C0.142353093,11.046933 11.7537036,0.54943299 26.0764227,0.54943299 C40.3991418,0.54943299 52.0104923,11.046933 52.0104923,23.9960696 C52.0104923,28.7952835 50.4154716,33.2581778 47.6782964,36.9743428 L47.6782964,52.6465026 L36.1826598,45.5962784 Z" id="Shape"></path>
                                        <g transform="translate(9.157216, 23.309278)" id="Oval">
                                            <ellipse cx="4.01419072" cy="3.28993814" rx="3.19087371" ry="3.19087371"></ellipse>
                                            <ellipse cx="16.9192062" cy="3.28993814" rx="3.19087371" ry="3.19087371"></ellipse>
                                            <ellipse cx="29.8242216" cy="3.28993814" rx="3.19087371" ry="3.19087371"></ellipse>
                                        </g>
                                    </g>
                                    <g transform="translate(67.430412, 0.000000)" stroke="#464354" id="Shape" stroke-width="3" stroke-linejoin="round">
                                        <path d="M16.4363711,45.2091778 C19.5423325,46.397951 22.9571418,47.0556057 26.5426082,47.0556057 C40.8661598,47.0556057 52.4766778,36.5581057 52.4766778,23.6089691 C52.4766778,10.6598325 40.8653273,0.162332474 26.5426082,0.162332474 C12.2190567,0.162332474 0.60853866,10.6598325 0.60853866,23.6089691 C0.60853866,28.408183 2.20355928,32.8710773 4.94073454,36.5872423 L4.94073454,52.2594021 L16.4363711,45.2091778 Z" fill="#EBE8E3" fill-rule="nonzero"></path>
                                        <g transform="translate(9.157216, 19.146907)" stroke-linecap="round">
                                            <path d="M0.319670103,0.820819588 C3.98089175,0.820819588 3.98089175,4.15071649 7.64294588,4.15071649 C11.3058325,4.15071649 11.3058325,0.820819588 14.9687191,0.820819588 C18.6307732,0.820819588 18.6307732,4.15071649 22.2919948,4.15071649 C25.9565464,4.15071649 25.9565464,0.820819588 29.6202655,0.820819588 C33.284817,0.820819588 33.284817,4.15071649 36.9485361,4.15071649"></path>
                                            <path d="M0.319670103,9.97803608 C3.98089175,9.97803608 3.98089175,13.307933 7.64294588,13.307933 C11.3058325,13.307933 11.3058325,9.97803608 14.9687191,9.97803608 C18.6307732,9.97803608 18.6307732,13.307933 22.2919948,13.307933 C25.9565464,13.307933 25.9565464,9.97803608 29.6202655,9.97803608 C33.284817,9.97803608 33.284817,13.307933 36.9485361,13.307933"></path>
                                        </g>
                                    </g>
                                    <g transform="translate(93.237113, 19.979381)" stroke="#464354" id="Shape" stroke-width="3" stroke-linejoin="round">
                                        <path d="M16.4363711,45.6254149 C19.5423325,46.8141881 22.9571418,47.4718428 26.5426082,47.4718428 C40.8661598,47.4718428 52.4766778,36.9743428 52.4766778,24.0252062 C52.4766778,11.0760696 40.8653273,0.578569588 26.5426082,0.578569588 C12.2190567,0.578569588 0.60853866,11.0760696 0.60853866,24.0252062 C0.60853866,28.8244201 2.20355928,33.2873144 4.94073454,37.0034794 L4.94073454,52.6756392 L16.4363711,45.6254149 Z" fill="#EBE8E3" fill-rule="nonzero"></path>
                                        <g transform="translate(9.157216, 23.309278)">
                                            <path d="M0.388765464,0.127368557 L38.8906985,0.127368557"></path>
                                            <path d="M0.388765464,6.50911598 L38.8906985,6.50911598"></path>
                                        </g>
                                    </g>
                                </g>
                                <path d="M255.200802,236.278662 C209.118358,236.278662 171.627049,198.787353 171.627049,152.70491 C171.627049,106.622466 209.118358,69.1319897 255.200802,69.1319897 C301.283245,69.1319897 338.774554,106.623299 338.774554,152.705742 C338.774554,198.788186 301.283245,236.278662 255.200802,236.278662 Z" id="Shape" stroke="#64B5F6" stroke-width="4"></path>
                                <path d="M13.7599665,197.43708 L13.7599665,265.457716" id="Shape" stroke="#8D8C94" stroke-width="3"></path>
                                <path d="M47.9430232,197.43708 L47.9430232,265.457716" id="Shape" stroke="#8D8C94" stroke-width="3"></path>
                                <path d="M103.603082,197.43708 L103.603082,263.682881" id="Shape" stroke="#8D8C94" stroke-width="3"></path>
                                <path d="M108.915933,78.6829665 L108.915933,125.300691" id="Shape" stroke="#8D8C94" stroke-width="2"></path>
                            </g>
                        </g>
                    </g>
                </g>
            </g>
        </g>
    </g>
</svg>