<?xml version="1.0" encoding="UTF-8"?>
<svg width="385px" height="277px" viewBox="0 0 385 277" version="1.1" xmlns="http://www.w3.org/2000/svg" xmlns:xlink="http://www.w3.org/1999/xlink">
    <!-- Generator: Sketch 42 (36781) - http://www.bohemiancoding.com/sketch -->
    <title>Step3</title>
    <desc>Created with Sketch.</desc>
    <defs></defs>
    <g id="homepage" stroke="none" stroke-width="1" fill="none" fill-rule="evenodd">
        <g id="6steps" transform="translate(-849.000000, -2361.000000)">
            <g id="Group-2" transform="translate(829.000000, 630.000000)">
                <g id="Step3" transform="translate(20.000000, 1732.000000)">
                    <g id="artwork">
                        <g>
                            <g id="Group">
                                <path d="M179.648374,181.916355 L179.648374,192.628505 C179.648374,195.311682 177.471281,197.486838 174.785713,197.486838 L145.779521,197.486838 C139.566359,197.486838 134.528775,202.519081 134.528775,208.72757 L134.528775,208.72757 C134.528775,214.935202 139.565501,219.968302 145.779521,219.968302 L153.356047,219.968302 C159.569209,219.968302 164.606793,225.000545 164.606793,231.209034 L164.606793,231.209034 C164.606793,237.416667 159.570067,242.449766 153.356047,242.449766 L104.334143,242.449766 C98.12098,242.449766 93.0833964,237.417523 93.0833964,231.209034 L93.0833964,222.512695" id="Shape" stroke="#C3BBBB" stroke-width="1.5769" stroke-linecap="round" stroke-dasharray="9.461499999999999"></path>
                                <path d="M358.648508,124.92796 L358.648508,196.034735 L358.648508,204.731075 C358.648508,210.938707 353.611782,215.971807 347.397762,215.971807 L311.477862,215.971807 C305.264699,215.971807 300.227116,210.939564 300.227116,204.731075 L300.227116,204.731075 C300.227116,198.523442 305.263842,193.490343 311.477862,193.490343 L323.73441,193.490343 C329.947572,193.490343 334.985156,188.4581 334.985156,182.249611 L334.985156,182.249611 C334.985156,176.041978 329.94843,171.008879 323.73441,171.008879 L276.946192,171.008879 C274.260624,171.008879 272.08353,168.833723 272.08353,166.150545 L272.08353,155.439252" id="Shape" stroke="#C3BBBB" stroke-width="1.5769" stroke-linecap="round" stroke-dasharray="9.461499999999999"></path>
                                <path d="M169.235367,67.2173676 L169.235367,50.4937695 C169.235367,47.8105919 167.058274,45.6354361 164.372706,45.6354361 L113.508976,45.6354361 C107.295813,45.6354361 102.258229,40.6031931 102.258229,34.394704 L102.258229,34.394704 C102.258229,28.1870717 107.294955,23.153972 113.508976,23.153972 L141.038619,23.153972 C147.251782,23.153972 152.289365,18.121729 152.289365,11.9132399 L152.289365,11.9132399 C152.289365,5.70560748 147.252639,0.672507788 141.038619,0.672507788 L46.5798552,0.672507788 C40.3666927,0.672507788 35.3291091,5.70475078 35.3291091,11.9132399 L35.3291091,20.6095794" id="Shape" stroke="#C3BBBB" stroke-width="1.5769" stroke-linecap="round" stroke-dasharray="9.461499999999999"></path>
                                <ellipse id="Oval" fill="#C3BBBB" fill-rule="nonzero" cx="35.3299666" cy="66.2715732" rx="35.3291091" ry="35.2976636"></ellipse>
                                <ellipse id="Oval" fill="#C3BBBB" fill-rule="nonzero" cx="63.2969154" cy="179.669237" rx="35.3291091" ry="35.2976636"></ellipse>
                                <ellipse id="Oval" fill="#C3BBBB" fill-rule="nonzero" cx="349.498541" cy="41.3956386" rx="35.3291091" ry="35.2976636"></ellipse>
                                <g transform="translate(199.788419, 29.984424)" fill-rule="nonzero" id="Rectangle-path">
                                    <rect fill="#8D8C94" x="13.2314811" y="9.44166667" width="14.200412" height="26.1652648"></rect>
                                    <rect fill="#C3BBBB" transform="translate(20.332116, 9.441324) rotate(-90.000000) translate(-20.332116, -9.441324) " x="13.2319098" y="-10.2832866" width="14.200412" height="39.4492212"></rect>
                                    <rect fill="#EBE8E3" transform="translate(20.332030, 5.102664) rotate(-90.000000) translate(-20.332030, -5.102664) " x="15.98899" y="-14.621947" width="8.68608018" height="39.4492212"></rect>
                                </g>
                                <path d="M305.852918,144.371573 C305.852918,160.988084 301.12059,176.503738 292.919833,189.634346 C285.577394,201.394237 275.463641,211.249688 263.484053,218.274611 C250.767049,225.745016 235.94069,230.027648 220.120535,230.027648 C172.775824,230.027648 134.388151,191.680997 134.388151,144.371573 C134.388151,97.0621495 172.775824,58.7154984 220.120535,58.7154984 C267.472105,58.7154984 305.852918,97.0612928 305.852918,144.371573 Z" id="Shape" stroke="#464354" stroke-width="3.1538" fill="#C3BBBB" fill-rule="nonzero"></path>
                                <path d="M220.122249,212.182632 C182.697506,212.182632 152.249922,181.76215 152.249922,144.370717 C152.249922,106.979283 182.697506,76.5588006 220.122249,76.5588006 C257.546993,76.5588006 287.994577,106.979283 287.994577,144.370717 C287.994577,181.76215 257.546993,212.182632 220.122249,212.182632 Z" id="Shape" fill="#D2DBE0" fill-rule="nonzero"></path>
                                <path d="M287.992004,144.370717 L220.121392,144.370717 L220.121392,76.560514 C257.548708,76.560514 287.992004,106.976713 287.992004,144.370717 Z" id="Shape" fill="#64B5F6" fill-rule="nonzero"></path>
                                <path d="M220.122249,185.16324 C197.60961,185.16324 179.293385,166.863318 179.293385,144.370717 C179.293385,121.878115 197.60961,103.578193 220.122249,103.578193 C242.635746,103.578193 260.951114,121.878115 260.951114,144.370717 C260.951114,166.863318 242.635746,185.16324 220.122249,185.16324 Z" id="Shape" fill="#D2DBE0" fill-rule="nonzero"></path>
                                <g transform="translate(151.770601, 76.246106)" id="Shape" stroke="#464354" stroke-width="3.1538">
                                    <path d="M68.3516481,0.313551402 L68.3516481,13.7628505"></path>
                                    <path d="M68.3516481,122.487227 L68.3516481,135.936526"></path>
                                    <path d="M0.480178174,68.1246106 L13.9414588,68.1246106"></path>
                                    <path d="M122.762695,68.1246106 L136.223976,68.1246106"></path>
                                </g>
                                <g transform="translate(171.492205, 95.950156)" id="Shape" stroke="#464354" stroke-width="3.1538">
                                    <path d="M96.6229955,0.471183801 L87.1043207,9.98138629"></path>
                                    <path d="M10.1566258,86.8605919 L0.637951002,96.3707944"></path>
                                    <path d="M0.637951002,0.471183801 L10.1566258,9.98138629"></path>
                                    <path d="M87.1043207,86.8605919 L96.6229955,96.3707944"></path>
                                </g>
                                <g transform="translate(156.915367, 81.386293)" id="Shape" stroke="#464354" stroke-width="3.1538">
                                    <path d="M36.8991203,125.495093 L42.1167706,113.096963"></path>
                                    <path d="M84.2969933,12.8727414 L89.5155011,0.474610592"></path>
                                    <path d="M0.641380846,36.7000779 L13.0505568,41.9130841"></path>
                                    <path d="M113.364065,84.0557632 L125.773241,89.2687695"></path>
                                </g>
                                <g transform="translate(156.915367, 81.386293)" id="Shape" stroke="#464354" stroke-width="3.1538">
                                    <path d="M88.8458241,125.771807 L83.7602227,113.318847"></path>
                                    <path d="M42.6535412,12.65 L37.5687973,0.197040498"></path>
                                    <path d="M0.363563474,88.5996885 L12.8276169,83.5194704"></path>
                                    <path d="M113.586147,42.4493769 L126.0502,37.3691589"></path>
                                </g>
                                <g transform="translate(180.924276, 119.937695)" fill-rule="nonzero">
                                    <rect id="Rectangle-path" stroke="#FFFFFF" stroke-width="2.3654" fill="#FFFFFF" transform="translate(38.725598, 45.822967) rotate(180.000000) translate(-38.725598, -45.822967) " x="30.9527138" y="37.6286527" width="15.5457684" height="16.3886293"></rect>
                                    <path d="M78.1207016,65.8732087 L78.1207016,145.275389 L62.4986192,145.275389 L62.4986192,153.982866 L15.8981849,153.982866 L15.8981849,145.275389 L0.27610245,145.275389 L0.27610245,65.8732087 C0.27610245,57.3028037 7.32014477,50.2650312 15.8981849,50.2650312 L62.4986192,50.2650312 C71.0766592,50.2650312 78.1207016,57.3028037 78.1207016,65.8732087 Z" id="Shape" stroke="#464354" stroke-width="2.3654" fill="#464354"></path>
                                    <g transform="translate(17.149220, 0.000000)" id="Shape">
                                        <path d="M0.115757238,21.7584112 C0.115757238,33.6785047 9.74075724,43.3788941 21.5754343,43.3788941 C30.9251893,43.3788941 38.9004343,37.3134735 41.8295212,28.8912773 C41.9144098,28.6591121 41.998441,28.41581 42.0730401,28.1836449 L42.1999443,27.7398754 C42.2213808,27.6764798 42.2316704,27.6130841 42.2531069,27.5496885 C42.3062695,27.3697819 42.3482851,27.1907321 42.3911581,27.0108255 C42.4546102,26.7675234 42.5069154,26.5250779 42.560078,26.2714953 C42.6132405,26.059891 42.6552561,25.8491433 42.6869822,25.6272586 C42.6972717,25.5638629 42.7084187,25.5004673 42.7187082,25.4370717 C42.7607238,25.2254673 42.7924499,25.0147196 42.8241759,24.8031153 L42.8241759,24.7816978 C42.8661915,24.5178349 42.8979176,24.2428349 42.9193541,23.9678349 C42.9613697,23.6088785 42.9930958,23.238785 43.0042428,22.8686916 C43.0256793,22.4985981 43.0359688,22.1293614 43.0359688,21.7592679 C43.0359688,9.83917445 33.4006793,0.138785047 21.5762918,0.138785047 C21.2058686,0.138785047 20.8465924,0.149065421 20.4873163,0.170482866 L20.4658797,0.170482866 C20.1066036,0.18076324 19.7464699,0.212461059 19.3871938,0.25529595 C19.0279176,0.286993769 18.667784,0.328971963 18.3187973,0.392367601 C17.9595212,0.445482866 17.6096771,0.508878505 17.2615479,0.582554517 L17.2401114,0.582554517 C16.8911247,0.65623053 16.5524276,0.73076324 16.2248775,0.825856698 C15.8758909,0.910669782 15.5371938,1.00576324 15.1993541,1.11113707 C15.1890646,1.12141745 15.1779176,1.12141745 15.1573385,1.12141745 C14.840078,1.22679128 14.5228174,1.34330218 14.2055568,1.45981308 C13.8882962,1.57632399 13.5710356,1.70311526 13.2537751,1.82990654 C12.7778842,2.03037383 12.3234298,2.24197819 11.868118,2.48528037 C11.3819376,2.72858255 10.9163363,2.99244548 10.461882,3.27772586 C9.84879733,3.64781931 9.24514477,4.04875389 8.66378619,4.50366044 C8.42026726,4.68356698 8.18789532,4.87375389 7.96581292,5.06394081 C7.42646993,5.48629283 6.90856347,5.96176012 6.41123608,6.48006231 C6.16771715,6.72336449 5.93534521,6.97694704 5.70297327,7.2305296 C5.47060134,7.48411215 5.24851893,7.74797508 5.02643653,8.0126947 C4.62428731,8.49844237 4.2547216,9.00560748 3.90487751,9.52390966 C3.82084633,9.60872274 3.76768374,9.69267913 3.72481069,9.77749221 C3.57646993,10.0096573 3.41783964,10.2426791 3.28064588,10.4851246 C3.19575724,10.5904984 3.13230512,10.6855919 3.09028953,10.7918224 C2.9633853,11.0137072 2.83648107,11.2355919 2.70957684,11.4574766 C2.31771715,12.1968069 1.95844098,12.9584112 1.65232739,13.7397196 C0.655100223,16.2207165 0.115757238,18.9261682 0.115757238,21.7584112 Z" fill="#FFFFFF"></path>
                                        <path d="M1.64975501,13.7380062 L31.0743875,13.7380062 C31.1164031,16.7287383 31.635167,22.9843458 34.8926615,26.4291277 C36.4369488,28.0568536 38.3833853,28.8912773 40.677951,28.8912773 L41.8732517,28.8912773 L42.0738976,28.1836449 L42.2008018,27.7398754 C42.2222383,27.6764798 42.2325278,27.6130841 42.2539644,27.5496885 C42.3071269,27.3697819 42.3491425,27.1907321 42.3920156,27.0108255 C42.4554677,26.7675234 42.5077728,26.5250779 42.5609354,26.2714953 C42.614098,26.059891 42.6561136,25.8491433 42.6878396,25.6272586 C42.6981292,25.5638629 42.7092762,25.5004673 42.7195657,25.4370717 C42.7615813,25.2254673 42.7933073,25.0147196 42.8250334,24.8031153 L42.8250334,24.7816978 C42.867049,24.5178349 42.8987751,24.2428349 42.9202116,23.9678349 C42.9622272,23.6088785 42.9939532,23.238785 43.0051002,22.8686916 C43.0265367,22.4985981 43.0368263,22.1293614 43.0368263,21.7592679 C43.0368263,9.83917445 33.4015367,0.138785047 21.5771492,0.138785047 C21.2067261,0.138785047 20.8474499,0.149065421 20.4881737,0.170482866 L20.4667372,0.170482866 C20.107461,0.18076324 19.7473274,0.212461059 19.3880512,0.25529595 C19.0287751,0.286993769 18.6686414,0.328971963 18.3196548,0.392367601 C17.9603786,0.445482866 17.6105345,0.508878505 17.2624053,0.582554517 L17.2409688,0.582554517 C16.8919822,0.65623053 16.5532851,0.73076324 16.225735,0.825856698 C15.8767483,0.910669782 15.5380512,1.00576324 15.2002116,1.11113707 C15.189922,1.12141745 15.1787751,1.12141745 15.158196,1.12141745 C14.8409354,1.22679128 14.5236748,1.34330218 14.2064143,1.45981308 C13.8891537,1.57632399 13.5718931,1.70311526 13.2546325,1.82990654 C12.7787416,2.03037383 12.3242873,2.24197819 11.8689755,2.48528037 C11.3930846,2.72858255 10.9171938,2.98216511 10.4627394,3.27772586 C9.84965479,3.64781931 9.24600223,4.04875389 8.66464365,4.50366044 C8.42112472,4.68356698 8.18875278,4.87375389 7.96667038,5.06394081 C7.42732739,5.48629283 6.90942094,5.96176012 6.41209354,6.48006231 C6.16857461,6.72336449 5.93620267,6.97694704 5.70383073,7.2305296 C5.4714588,7.48411215 5.24937639,7.74797508 5.02729399,8.0126947 C4.61485523,8.49844237 4.24443207,9.00560748 3.90573497,9.52390966 C3.82170379,9.60872274 3.7685412,9.69267913 3.72566815,9.77749221 C3.57732739,10.0096573 3.4186971,10.2426791 3.28150334,10.4851246 C3.1966147,10.5904984 3.13316258,10.6855919 3.09114699,10.7918224 C2.96424276,10.9922897 2.84762806,11.1936137 2.73187082,11.4043614 L2.7104343,11.4574766 C2.31600223,12.1950935 1.9558686,12.9558411 1.64975501,13.7380062 Z" fill="#464354"></path>
                                    </g>
                                </g>
                                <path d="M220.122249,212.182632 C182.697506,212.182632 152.249922,181.76215 152.249922,144.370717 C152.249922,106.979283 182.697506,76.5588006 220.122249,76.5588006 C257.546993,76.5588006 287.994577,106.979283 287.994577,144.370717 C287.994577,181.76215 257.546993,212.182632 220.122249,212.182632 Z" id="Shape" stroke="#8D8C94" stroke-width="3.1538"></path>
                                <g transform="translate(259.810690, 44.548287)" fill-rule="nonzero" id="Rectangle-path">
                                    <rect fill="#8D8C94" transform="translate(4.861332, 20.865188) rotate(30.817346) translate(-4.861332, -20.865188) " x="2.94577476" y="15.9117893" width="3.83111427" height="9.90679776"></rect>
                                    <rect fill="#C3BBBB" transform="translate(9.421380, 13.227441) rotate(30.817346) translate(-9.421380, -13.227441) " x="5.13967269" y="7.48588416" width="8.563415" height="11.4831129"></rect>
                                    <rect fill="#EBE8E3" transform="translate(13.278213, 6.768455) rotate(30.817346) translate(-13.278213, -6.768455) " x="7.64429674" y="3.22131812" width="11.2678318" height="7.09427467"></rect>
                                </g>
                                <path d="M181.813463,120.860358 C177.525301,122.500935 172.809265,123.408178 167.858285,123.408178 C148.080089,123.408178 132.047283,108.925701 132.047283,91.061838 C132.047283,73.1979751 148.080089,58.7154984 167.858285,58.7154984 C187.636481,58.7154984 203.669287,73.1979751 203.669287,91.061838 C203.669287,97.6832555 201.46647,103.839486 197.687639,108.966822 L197.687639,130.588162 L181.813463,120.860358 Z" id="Shape" stroke="#464354" stroke-width="2.3654" stroke-linejoin="round" fill="#EBE8E3" fill-rule="nonzero"></path>
                                <g transform="translate(148.340757, 68.535826)" stroke="#464354" id="Shape" stroke-width="2.3654" stroke-linejoin="round">
                                    <path d="M26.0530958,33.292134 L26.0530958,30.4067757 L26.0539532,30.4067757 C29.4409243,28.2478972 31.6874722,24.4604361 31.6874722,20.148676 C31.6874722,13.4338785 26.2391648,7.99042056 19.5183853,7.99042056 C12.7976058,7.99042056 7.34929844,13.4338785 7.34929844,20.148676 C7.34929844,24.4604361 9.59584633,28.2478972 12.9828174,30.4067757 L12.9836748,30.4067757 L12.9836748,33.292134" fill="#FFFFFF" fill-rule="nonzero"></path>
                                    <g transform="translate(14.576837, 21.417445)">
                                        <path d="M9.45608018,0.595404984 C9.45608018,3.32741433 7.43504454,5.54197819 4.94069042,5.54197819 C2.44719376,5.54197819 0.425300668,3.32741433 0.425300668,0.595404984"></path>
                                        <path d="M4.94154788,5.54197819 L4.94154788,11.0308411"></path>
                                    </g>
                                    <path d="M25.0112806,38.0211059 L25.0112806,40.8953271 C25.0112806,43.2709502 23.0837082,45.1976636 20.7051114,45.1976636 L18.3308018,45.1976636 C15.9530624,45.1976636 14.0246325,43.2718069 14.0246325,40.8953271 L14.0246325,38.0211059" fill="#D2DBE0" fill-rule="nonzero"></path>
                                    <path d="M25.3191091,36.1629283 L13.7176615,36.1629283 C12.8842094,36.1629283 12.2085301,35.4878505 12.2085301,34.6551402 L12.2085301,33.9560748 C12.2085301,33.1233645 12.8842094,32.4482866 13.7176615,32.4482866 L25.3191091,32.4482866 C26.1525612,32.4482866 26.8282405,33.1233645 26.8282405,33.9560748 L26.8282405,34.6551402 C26.8282405,35.4878505 26.1525612,36.1629283 25.3191091,36.1629283 Z" fill="#D2DBE0" fill-rule="nonzero"></path>
                                    <path d="M25.3191091,39.8784268 L13.7176615,39.8784268 C12.8842094,39.8784268 12.2085301,39.2033489 12.2085301,38.3706386 L12.2085301,37.6715732 C12.2085301,36.8388629 12.8842094,36.163785 13.7176615,36.163785 L25.3191091,36.163785 C26.1525612,36.163785 26.8282405,36.8388629 26.8282405,37.6715732 L26.8282405,38.3706386 C26.8282405,39.2024922 26.1525612,39.8784268 25.3191091,39.8784268 Z" fill="#D2DBE0" fill-rule="nonzero"></path>
                                    <path d="M19.5183853,0.61682243 L19.5183853,4.66900312"></path>
                                    <g transform="translate(0.000000, 20.560748)">
                                        <path d="M35.0632962,0.080529595 L38.5180067,0.080529595"></path>
                                        <path d="M0.51876392,0.080529595 L3.97261693,0.080529595"></path>
                                    </g>
                                    <path d="M30.5101782,9.65926791 L32.9530846,7.21853583"></path>
                                    <path d="M8.52573497,9.65926791 L6.08368597,7.21853583"></path>
                                </g>
                                <g transform="translate(18.864143, 20.560748)" stroke="#464354" stroke-width="2.3654" stroke-linejoin="round">
                                    <path d="M24.5173831,59.8283489 L8.41340757,59.8283489 C4.08580178,59.8283489 0.577928731,56.3235981 0.577928731,51.9998442 L0.577928731,7.87819315 C0.577928731,3.55443925 4.08580178,0.0496884735 8.41340757,0.0496884735 L24.5182405,0.0496884735 C28.8458463,0.0496884735 32.3537194,3.55443925 32.3537194,7.87819315 L32.3537194,51.9998442 C32.3528619,56.3235981 28.8449889,59.8283489 24.5173831,59.8283489 Z" id="Shape" fill="#64B5F6" fill-rule="nonzero"></path>
                                    <path d="M0.577928731,8.98333333 L32.3528619,8.98333333" id="Shape"></path>
                                    <path d="M0.577928731,46.6566199 L32.3528619,46.6566199" id="Shape"></path>
                                    <ellipse id="Oval" cx="16.4658241" cy="53.1469626" rx="3.15459911" ry="3.15179128"></ellipse>
                                    <path d="M13.3103675,4.38372274 L19.6204232,4.38372274" id="Shape"></path>
                                </g>
                                <g transform="translate(36.013363, 104.517134)">
                                    <path d="M5.00071269,49.8024143 L53.4524053,49.8024143" id="Shape" stroke="#464354" stroke-width="2.3654" stroke-linejoin="round"></path>
                                    <rect id="Rectangle-path" fill="#464354" fill-rule="nonzero" x="27.2835523" y="43.1861371" width="3.88772829" height="12.9207165"></rect>
                                    <polygon id="Shape" stroke="#464354" stroke-width="2.3654" stroke-linejoin="round" fill="#8D8C94" fill-rule="nonzero" points="56.4655234 71.0330997 53.3023497 79.7157321 32.7061359 31.2977414 37.9966704 27.6156542"></polygon>
                                    <polygon id="Shape" stroke="#464354" stroke-width="2.3654" stroke-linejoin="round" fill="#8D8C94" fill-rule="nonzero" points="1.98845212 71.0330997 5.15162584 79.7157321 25.7469822 31.2977414 20.4573051 27.6156542"></polygon>
                                    <rect id="Rectangle-path" fill="#464354" fill-rule="nonzero" x="27.2835523" y="0.181619938" width="3.88772829" height="12.9207165"></rect>
                                    <g transform="translate(0.000000, 47.118380)" id="Shape" fill-rule="nonzero" fill="#8D8C94">
                                        <path d="M5.93105791,4.93543614 L3.00111359,4.93543614 C1.75608018,4.93543614 0.747706013,3.9271028 0.747706013,2.68403427 L0.747706013,2.68403427 C0.747706013,1.44010903 1.75693764,0.432632399 3.00111359,0.432632399 L5.93105791,0.432632399 L5.93105791,4.93543614 Z"></path>
                                        <path d="M52.5229176,4.93543614 L55.4528619,4.93543614 C56.6978953,4.93543614 57.7062695,3.9271028 57.7062695,2.68403427 L57.7062695,2.68403427 C57.7062695,1.44010903 56.6970379,0.432632399 55.4528619,0.432632399 L52.5229176,0.432632399 L52.5229176,4.93543614 Z"></path>
                                    </g>
                                    <ellipse id="Oval" stroke="#464354" stroke-width="2.3654" stroke-linejoin="round" fill="#64B5F6" fill-rule="nonzero" cx="29.226559" cy="23.2336449" rx="11.7189198" ry="11.7084891"></ellipse>
                                    <ellipse id="Oval" stroke="#464354" stroke-width="2.3654" stroke-linejoin="round" fill="#EBE8E3" fill-rule="nonzero" cx="29.226559" cy="23.2336449" rx="6.64875278" ry="6.64283489"></ellipse>
                                    <rect id="Rectangle-path" fill="#C3BBBB" fill-rule="nonzero" x="3.53616927" y="47.5510125" width="2.39488864" height="4.50280374"></rect>
                                    <rect id="Rectangle-path" fill="#C3BBBB" fill-rule="nonzero" x="52.5229176" y="47.5510125" width="2.39488864" height="4.50280374"></rect>
                                </g>
                                <g transform="translate(54.020045, 161.059190)" stroke="#464354" id="Shape" stroke-width="2.3654" stroke-linejoin="round">
                                    <path d="M0.63623608,63.0760903 L63.7282183,63.0760903 L63.7282183,0.0402647975 L0.63623608,63.0760903 Z M51.5608463,50.9195483 L30.0214254,50.9195483 L51.5608463,29.3992991 L51.5608463,50.9195483 Z" fill="#EBE8E3" fill-rule="nonzero"></path>
                                    <g transform="translate(57.449889, 14.563863)">
                                        <path d="M0.316403118,41.315109 L6.280902,41.315109"></path>
                                        <path d="M0.316403118,31.1829439 L6.280902,31.1829439"></path>
                                        <path d="M0.316403118,21.0507788 L6.280902,21.0507788"></path>
                                        <path d="M0.316403118,10.9186137 L6.280902,10.9186137"></path>
                                        <path d="M0.316403118,0.787305296 L6.280902,0.787305296"></path>
                                    </g>
                                </g>
                                <g transform="translate(323.262806, 20.560748)" stroke="#464354" id="Shape" stroke-width="2.3654" stroke-linejoin="round">
                                    <path d="M37.2180958,23.7536604 C51.4931069,23.7536604 54.8174833,17.7430685 54.8174833,17.7430685 L42.3199889,17.7430685 L42.3199889,0.743613707 L37.2189532,0.743613707 L37.2189532,23.7536604 L37.2180958,23.7536604 Z" fill="#C3BBBB" fill-rule="nonzero"></path>
                                    <polygon fill="#8D8C94" fill-rule="nonzero" points="0.471603563 12.4521028 24.3596102 0.743613707 42.162216 0.743613707 42.162216 111.520639 28.6409131 111.520639 28.6409131 17.1330997 0.471603563 17.1330997"></polygon>
                                    <polygon fill="#C3BBBB" fill-rule="nonzero" points="32.1342094 26.7718069 0.471603563 26.7718069 0.471603563 31.451947 20.0268597 41.0366822 20.0268597 76.9374611 32.1342094 76.9374611"></polygon>
                                    <path d="M37.2180958,29.5200935 C51.4931069,29.5200935 54.8174833,35.5306854 54.8174833,35.5306854 L42.3199889,35.5306854 L42.3199889,52.5301402 L37.2189532,52.5301402 L37.2189532,29.5200935 L37.2180958,29.5200935 Z" fill="#C3BBBB" fill-rule="nonzero"></path>
                                    <g transform="translate(25.723831, 30.841121)">
                                        <path d="M0.446737194,41.2774143 L6.41037862,41.2774143"></path>
                                        <path d="M0.446737194,31.1452492 L6.41037862,31.1452492"></path>
                                        <path d="M0.446737194,21.0130841 L6.41037862,21.0130841"></path>
                                        <path d="M0.446737194,10.880919 L6.41037862,10.880919"></path>
                                        <path d="M0.446737194,0.748753894 L6.41037862,0.748753894"></path>
                                    </g>
                                </g>
                            </g>
                        </g>
                    </g>
                </g>
            </g>
        </g>
    </g>
</svg>