<?xml version="1.0" encoding="UTF-8"?>
<svg width="357px" height="306px" viewBox="0 0 357 306" version="1.1" xmlns="http://www.w3.org/2000/svg" xmlns:xlink="http://www.w3.org/1999/xlink">
    <!-- Generator: Sketch 42 (36781) - http://www.bohemiancoding.com/sketch -->
    <title>Step2</title>
    <desc>Created with Sketch.</desc>
    <defs></defs>
    <g id="homepage" stroke="none" stroke-width="1" fill="none" fill-rule="evenodd">
        <g id="6steps" transform="translate(-862.000000, -1429.000000)">
            <g id="Group-2" transform="translate(829.000000, 630.000000)">
                <g id="Step2" transform="translate(34.000000, 800.000000)">
                    <g id="step_2">
                        <g id="artwork">
                            <g id="Group">
                                <g transform="translate(81.518519, 106.096399)">
                                    <g>
                                        <rect id="Rectangle-path" stroke="#464354" stroke-width="2.10226798" fill="#EBE8E3" fill-rule="nonzero" transform="translate(78.680732, 101.528763) rotate(16.307415) translate(-78.680732, -101.528763) " x="20.0203443" y="22.2183886" width="117.320775" height="158.620749"></rect>
                                        <polygon id="Shape" fill="#D2DBE0" fill-rule="nonzero" points="16.4062593 121.941766 99.3184815 24.9276013 157.230815 41.8844844 183.824259 102.102805 112.737481 194.120052 94.2275185 188.699376"></polygon>
                                        <g transform="translate(21.037037, 32.900433)" id="Shape" stroke="#464354" stroke-width="2.1022">
                                            <path d="M33.8209815,0.14831127 L114.584796,23.7958264"></path>
                                            <path d="M29.6819444,14.3086576 L110.447074,37.9561727"></path>
                                            <path d="M25.5429074,28.4703199 L106.308037,52.1178351"></path>
                                            <path d="M21.4051852,42.6319823 L102.169,66.2794974"></path>
                                            <path d="M17.2661481,56.7936446 L98.029963,80.4411598"></path>
                                            <path d="M13.1271111,70.9553069 L93.8909259,94.6028221"></path>
                                            <path d="M8.98807407,85.1156533 L89.7518889,108.764484"></path>
                                            <path d="M4.84903704,99.2773156 L85.6128519,122.924831"></path>
                                            <path d="M0.71,113.438978 L81.4738148,137.086493"></path>
                                        </g>
                                        <path d="M44.6327037,8.91561863 L157.230815,41.8844844" id="Shape" stroke="#464354" stroke-width="2.1022"></path>
                                        <rect id="Rectangle-path" stroke="#464354" stroke-width="2.10226798" transform="translate(78.680732, 101.528763) rotate(16.307415) translate(-78.680732, -101.528763) " x="20.0203443" y="22.2183886" width="117.320775" height="158.620749"></rect>
                                        <g transform="translate(24.981481, 0.000000)" stroke="#464354">
                                            <rect id="Rectangle-path" stroke-width="2.10214497" fill="#EBE8E3" fill-rule="nonzero" transform="translate(96.533005, 98.773406) rotate(40.648527) translate(-96.533005, -98.773406) " x="37.8760497" y="19.4676724" width="117.313911" height="158.611467"></rect>
                                            <path d="M80.6047222,52.6903026 L144.448185,107.559013" id="Shape" stroke-width="2.1022"></path>
                                            <path d="M70.6016111,64.351532 L134.445074,119.220242" id="Shape" stroke-width="2.1022"></path>
                                            <path d="M60.5985,76.0114455 L124.440648,130.881471" id="Shape" stroke-width="2.1022"></path>
                                            <path d="M50.5940741,87.6726749 L114.437537,142.541385" id="Shape" stroke-width="2.1022"></path>
                                            <path d="M40.590963,99.3339043 L104.434426,154.202614" id="Shape" stroke-width="2.1022"></path>
                                        </g>
                                    </g>
                                    <g transform="translate(113.074074, 17.108225)">
                                        <g transform="translate(29.740146, 28.137368)" id="Shape" stroke-width="2.1022">
                                            <path d="M7.53485389,0.748813853 L49.0343539,36.1536277" stroke="#64B5F6"></path>
                                            <path d="M0.0969464832,9.48190476 L41.5964465,44.8880346" stroke="#464354"></path>
                                        </g>
                                        <g>
                                            <ellipse id="Oval" fill="#64B5F6" fill-rule="nonzero" transform="translate(19.236685, 19.388886) rotate(-49.554697) translate(-19.236685, -19.388886) " cx="19.236685" cy="19.3888865" rx="13.6302264" ry="13.6426923"></ellipse>
                                            <polyline id="Shape" stroke="#464354" stroke-width="1.4015" stroke-linecap="round" stroke-linejoin="round" points="26.1411481 20.342597 15.5884444 21.183532 15.1098519 15.1706489"></polyline>
                                        </g>
                                    </g>
                                </g>
                                <g fill-rule="nonzero">
                                    <path d="M307.731093,14.9052121 L64.915037,14.9052121 C60.9495556,14.9052121 57.7348333,11.6875498 57.7348333,7.71844156 C57.7348333,3.74933333 60.9495556,0.531670996 64.915037,0.531670996 L307.731093,0.531670996 C311.696574,0.531670996 314.911296,3.74933333 314.911296,7.71844156 C314.911296,11.6875498 311.696574,14.9052121 307.731093,14.9052121 Z" id="Shape" stroke="#464354" stroke-width="2.8029" fill="#8D8C94"></path>
                                    <g transform="translate(261.648148, 0.000000)" stroke="#464354" stroke-width="2.8029">
                                        <path d="M82.2285185,167.625074 L46.2170556,7.7289697" id="Shape" fill="#D2DBE0"></path>
                                        <path d="M10.2055926,167.625074 L46.2170556,7.7289697" id="Shape" fill="#D2DBE0"></path>
                                        <ellipse id="Oval" fill="#C3BBBB" cx="46.2170556" cy="7.71844156" rx="7.04609259" ry="7.18677056"></ellipse>
                                        <path d="M82.2337778,167.625074 C76.3907407,181.815688 62.4352963,191.805576 46.1486852,191.805576 L46.1486852,191.805576 L46.1486852,191.805576 C29.9882963,191.805576 16.1235741,181.970978 10.2016481,167.95671" id="Shape" fill="#8D8C94"></path>
                                        <path d="M85.2131481,174.811844 L7.2327963,174.811844 C3.26731481,174.811844 0.0525925926,171.594182 0.0525925926,167.625074 C0.0525925926,163.655965 3.26731481,160.438303 7.2327963,160.438303 L85.2131481,160.438303 C89.1786296,160.438303 92.3933519,163.655965 92.3933519,167.625074 C92.3933519,171.594182 89.1786296,174.811844 85.2131481,174.811844 Z" id="Shape" fill="#C3BBBB"></path>
                                        <g transform="translate(5.259259, 48.191637)" id="Shape" fill="#D2DBE0">
                                            <g transform="translate(0.000000, 29.453385)">
                                                <polygon points="20.6636296 93.9123117 0.368148148 82.459013 0.368148148 0.296103896 20.6636296 11.7494026"></polygon>
                                                <polygon points="20.6636296 93.9123117 40.9577963 82.459013 40.9577963 20.7101645 20.6636296 11.7494026"></polygon>
                                                <polygon points="61.2532778 93.9123117 40.9577963 82.459013 40.9577963 20.7101645 61.2532778 11.7494026"></polygon>
                                                <polygon points="61.2532778 93.9123117 81.5487593 82.459013 81.5487593 0.296103896 61.2532778 11.7494026"></polygon>
                                            </g>
                                            <path d="M40.9643704,0.318077504 C25.2128889,0.318077504 12.446037,13.0966056 12.446037,28.8493329 C12.446037,44.6152204 24.8184444,62.3551338 40.9643704,72.1331424 C57.0971481,62.3551338 69.4695556,44.6152204 69.4695556,28.8493329 C69.4695556,13.0966056 56.7027037,0.318077504 40.9643704,0.318077504 Z M40.9643704,39.6801554 C34.7558148,39.6801554 29.8581296,34.0554974 31.0809074,27.6201727 C31.8264074,23.6971251 34.9688148,20.5281554 38.8817037,19.7411771 C45.3387593,18.443584 51.0227037,23.3496966 51.0227037,29.5994628 C51.0227037,35.166216 46.5128889,39.6801554 40.9643704,39.6801554 Z"></path>
                                        </g>
                                    </g>
                                    <g stroke="#464354" stroke-width="2.8029">
                                        <path d="M100.796333,167.625074 L64.7848704,7.7289697" id="Shape" fill="#D2DBE0"></path>
                                        <path d="M28.7734074,167.625074 L64.7848704,7.7289697" id="Shape" fill="#D2DBE0"></path>
                                        <ellipse id="Oval" fill="#C3BBBB" cx="64.7809259" cy="7.71844156" rx="7.04609259" ry="7.18677056"></ellipse>
                                        <g transform="translate(0.000000, 48.191637)" fill="#D2DBE0">
                                            <g transform="translate(30.240741, 0.000000)">
                                                <path d="M55.6692593,127.521679 L12.2027963,127.521679 C5.56692593,127.521679 0.188018519,122.137852 0.188018519,115.495913 L0.188018519,12.3385797 C0.188018519,5.69664027 5.56692593,0.312813435 12.2027963,0.312813435 L55.6692593,0.312813435 C62.3051296,0.312813435 67.684037,5.69664027 67.684037,12.3385797 L67.684037,115.495913 C67.684037,122.137852 62.3051296,127.521679 55.6692593,127.521679 Z" id="Shape"></path>
                                                <path d="M0.188018519,19.3226836 L67.684037,19.3226836" id="Shape"></path>
                                                <path d="M0.188018519,96.6176446 L67.684037,96.6176446" id="Shape"></path>
                                                <ellipse id="Oval" cx="33.9366852" cy="110.42793" rx="6.70161111" ry="6.70774026"></ellipse>
                                                <path d="M27.2350741,9.53546279 L40.6382963,9.53546279" id="Shape"></path>
                                            </g>
                                            <g>
                                                <path d="M42.081963,52.3020775 C38.5004074,53.6746836 34.562537,54.4340256 30.4287593,54.4340256 C13.9133704,54.4340256 0.524611111,42.3187701 0.524611111,27.3740775 C0.524611111,12.4293849 13.9133704,0.314129452 30.4287593,0.314129452 C46.9441481,0.314129452 60.3329074,12.4293849 60.3329074,27.3740775 C60.3329074,32.9131944 58.4934815,38.0640862 55.3379259,42.3529866 L55.3379259,60.4403286 L42.081963,52.3020775 Z" id="Shape"></path>
                                                <g transform="translate(11.833333, 26.320346)" id="Oval">
                                                    <ellipse cx="3.71566667" cy="4.05556668" rx="3.68016667" ry="3.68353247"></ellipse>
                                                    <ellipse cx="18.5954259" cy="4.05556668" rx="3.68016667" ry="3.68353247"></ellipse>
                                                    <ellipse cx="33.4765" cy="4.05556668" rx="3.68016667" ry="3.68353247"></ellipse>
                                                </g>
                                            </g>
                                        </g>
                                        <path d="M100.796333,167.625074 C94.9532963,181.815688 80.9978519,191.805576 64.7112407,191.805576 L64.7112407,191.805576 L64.7112407,191.805576 C48.5508519,191.805576 34.6861296,181.970978 28.7642037,167.95671" id="Shape" fill="#8D8C94"></path>
                                        <path d="M103.775704,174.811844 L25.7953519,174.811844 C21.8298704,174.811844 18.6151481,171.594182 18.6151481,167.625074 C18.6151481,163.655965 21.8298704,160.438303 25.7953519,160.438303 L103.775704,160.438303 C107.741185,160.438303 110.955907,163.655965 110.955907,167.625074 C110.955907,171.594182 107.741185,174.811844 103.775704,174.811844 Z" id="Shape" fill="#C3BBBB"></path>
                                    </g>
                                    <g transform="translate(124.907407, 14.476190)">
                                        <rect id="Rectangle-path" fill="#464354" x="57.5126296" y="0.429021645" width="7.1802037" height="17.9675844"></rect>
                                        <path d="M68.7017037,23.4501126 L68.7017037,199.784589 C68.7017037,203.753697 65.4869815,206.971359 61.5215,206.971359 C57.5560185,206.971359 54.3412963,203.753697 54.3412963,199.784589 L54.3412963,23.4501126 C54.3412963,19.4810043 57.5560185,16.263342 61.5215,16.263342 C65.4869815,16.262026 68.7017037,19.4810043 68.7017037,23.4501126 Z" id="Shape" stroke="#464354" stroke-width="2.8029" fill="#8D8C94"></path>
                                        <path d="M25.5047778,208.948017 C31.3478148,194.757403 45.3032593,184.767515 61.5898704,184.767515 L61.5898704,184.767515 L61.5898704,184.767515 C77.7502593,184.767515 91.6149815,194.602113 97.5369074,208.616381 L25.5047778,208.948017 Z" id="Shape" stroke="#464354" stroke-width="2.8029" fill="#C3BBBB"></path>
                                        <g transform="translate(0.000000, 200.034632)" id="Shape" stroke="#464354" stroke-width="2.8029">
                                            <path d="M114.998963,0.0486926407 L114.998963,9.32266667 C114.998963,13.9905801 111.217556,17.7754459 106.553907,17.7754459 L16.4877778,17.7754459 C11.8241296,17.7754459 8.04272222,13.9905801 8.04272222,9.32266667 L8.04272222,0.0486926407" fill="#8D8C94"></path>
                                            <path d="M118.719889,8.91338528 L4.3217963,8.91338528 C2.08266667,8.91338528 0.268222222,7.09728139 0.268222222,4.8561039 L0.268222222,4.10729004 C0.268222222,1.86611255 2.08266667,0.050008658 4.3217963,0.050008658 L118.719889,0.050008658 C120.959019,0.050008658 122.773463,1.86611255 122.773463,4.10729004 L122.773463,4.8561039 C122.774778,7.09596537 120.959019,8.91338528 118.719889,8.91338528 Z" fill="#C3BBBB"></path>
                                        </g>
                                    </g>
                                </g>
                            </g>
                        </g>
                    </g>
                </g>
            </g>
        </g>
    </g>
</svg>