<?xml version="1.0" encoding="UTF-8"?>
<svg width="60px" height="59px" viewBox="0 0 60 59" version="1.1" xmlns="http://www.w3.org/2000/svg" xmlns:xlink="http://www.w3.org/1999/xlink">
    <!-- Generator: Sketch 42 (36781) - http://www.bohemiancoding.com/sketch -->
    <title>githubfooter</title>
    <desc>Created with Sketch.</desc>
    <defs></defs>
    <g id="Symbols" stroke="none" stroke-width="1" fill="none" fill-rule="evenodd">
        <g id="footer-copy" transform="translate(-1217.000000, -315.000000)" fill="#FFFFFF">
            <g id="GithubGroup" transform="translate(1095.000000, 315.000000)">
                <path d="M152,0 C146.557264,0 141.537783,1.35180924 136.941406,4.05546828 C132.345029,6.75912732 128.705743,10.4273864 126.023438,15.0603555 C123.341132,19.6933246 122,24.752766 122,30.2388315 C122,36.8273598 123.907533,42.753009 127.722656,48.015957 C131.537779,53.2789049 136.466116,56.9209152 142.507812,58.9420972 C143.210941,59.0733428 143.731769,58.9814723 144.070313,58.6664829 C144.408856,58.3514935 144.578125,57.9577626 144.578125,57.4852785 C144.578125,57.3802821 144.571615,56.6650044 144.558594,55.339424 C144.545573,54.0138436 144.539062,52.8523376 144.539062,51.8548711 L143.640625,52.012365 C143.067705,52.1173615 142.345056,52.1632968 141.472656,52.1501722 C140.600256,52.1370477 139.695317,52.0451771 138.757812,51.8745579 C137.820308,51.7039386 136.947921,51.3102078 136.140625,50.6933535 C135.333329,50.0764993 134.760418,49.269351 134.421875,48.2718846 L134.03125,47.3662946 C133.770832,46.7625649 133.36068,46.0932225 132.800781,45.3582472 C132.240883,44.6232719 131.674482,44.1245462 131.101562,43.862055 L130.828125,43.6651876 C130.645832,43.533942 130.476563,43.3764497 130.320312,43.1927059 C130.164062,43.008962 130.046875,42.825221 129.96875,42.6414772 C129.890625,42.4577333 129.955728,42.3068032 130.164062,42.1886822 C130.372397,42.0705611 130.749997,42.0115015 131.296875,42.0115015 L132.078125,42.1296219 C132.598961,42.2346184 133.243486,42.5496031 134.011719,43.0745854 C134.779952,43.5995678 135.411456,44.2820346 135.90625,45.1220063 C136.505211,46.1982201 137.22786,47.0184927 138.074219,47.5828487 C138.920577,48.1472047 139.773433,48.4293785 140.632813,48.4293785 C141.492192,48.4293785 142.234372,48.3637567 142.859375,48.2325111 C143.484378,48.1012655 144.07031,47.9044001 144.617188,47.6419089 C144.877605,45.8832181 145.51562,44.5314089 146.53125,43.5864407 C145.046868,43.4289459 143.712246,43.1927074 142.527344,42.877718 C141.342442,42.5627286 140.118496,42.0508785 138.855469,41.3421524 C137.592442,40.6334262 136.544275,39.754094 135.710938,38.7041293 C134.8776,37.6541646 134.194013,36.2761067 133.660156,34.5699141 C133.126299,32.8637215 132.859375,30.8950673 132.859375,28.6638923 C132.859375,25.5402474 133.888011,22.8366289 135.945312,20.5529558 C134.981766,18.1642861 135.085932,15.4869164 136.257813,12.5207661 C136.986983,12.2845241 138.093743,12.461703 139.578125,13.0523081 C141.062507,13.6429132 142.149736,14.1482012 142.839844,14.568187 C143.529951,14.9881729 144.083331,15.3425307 144.5,15.6312709 C146.921887,14.9487939 149.421862,14.6075605 152,14.6075605 C154.578138,14.6075605 157.078113,14.9487939 159.5,15.6312709 L160.984375,14.6863075 C162.000005,14.0563287 163.19791,13.4788567 164.578125,12.9538744 C165.95834,12.4288921 167.013017,12.2845241 167.742187,12.5207661 C168.914068,15.4869164 169.018234,18.1642861 168.054688,20.5529558 C170.111989,22.8366289 171.140625,25.5402474 171.140625,28.6638923 C171.140625,30.8950673 170.873701,32.8702837 170.339844,34.5896008 C169.805987,36.308918 169.11589,37.6869759 168.269531,38.7238161 C167.423173,39.7606562 166.368496,40.6334262 165.105469,41.3421524 C163.842442,42.0508785 162.618496,42.5627286 161.433594,42.877718 C160.248692,43.1927074 158.91407,43.4289459 157.429688,43.5864407 C158.783861,44.7676509 159.460938,46.6313103 159.460938,49.1774746 C159.460938,50.7786707 159.454427,52.5438974 159.441406,54.4732074 C159.428385,56.4025175 159.421875,57.4065312 159.421875,57.4852785 C159.421875,57.9577626 159.591144,58.3514935 159.929688,58.6664829 C160.268231,58.9814723 160.789059,59.0733428 161.492188,58.9420972 C167.533884,56.9209152 172.462221,53.2789049 176.277344,48.015957 C180.092467,42.753009 182,36.8273598 182,30.2388315 C182,24.752766 180.658868,19.6933246 177.976563,15.0603555 C175.294257,10.4273864 171.654971,6.75912732 167.058594,4.05546828 C162.462217,1.35180924 157.442736,0 152,0 Z M133.367188,43.4289467 C133.445313,43.2452029 133.354168,43.0877106 133.09375,42.956465 C132.833332,42.8777176 132.664063,42.9039664 132.585938,43.035212 C132.507812,43.2189558 132.598957,43.3764481 132.859375,43.5076937 C133.093751,43.6651884 133.26302,43.6389397 133.367188,43.4289467 Z M134.578125,44.767645 C134.760418,44.6363994 134.734376,44.4264096 134.5,44.1376693 C134.239582,43.9014273 134.031251,43.8620542 133.875,44.0195489 C133.692707,44.1507945 133.718749,44.3607843 133.953125,44.6495246 C134.213543,44.9120157 134.421874,44.9513888 134.578125,44.767645 Z M135.75,46.5394515 C135.984376,46.3557077 135.984376,46.1063448 135.75,45.7913554 C135.541666,45.4501169 135.320314,45.3713708 135.085937,45.5551146 C134.851561,45.6863602 134.851561,45.9225987 135.085937,46.2638372 C135.320314,46.6050757 135.541666,46.6969462 135.75,46.5394515 Z M137.390625,48.1931376 C137.598959,47.9831447 137.546877,47.7337818 137.234375,47.4450415 C136.921873,47.1300521 136.661459,47.0906791 136.453125,47.3269211 C136.218749,47.536914 136.270832,47.7862769 136.609375,48.0750172 C136.921877,48.3900066 137.182291,48.4293797 137.390625,48.1931376 Z M139.617187,49.1774746 C139.695313,48.8887343 139.526044,48.6787445 139.109375,48.5474989 C138.718748,48.4425025 138.471355,48.534373 138.367187,48.8231133 C138.26302,49.1118536 138.432289,49.308719 138.875,49.4137155 C139.265627,49.5712102 139.51302,49.492464 139.617187,49.1774746 Z M142.078125,49.374342 C142.078125,49.0331035 141.856773,48.8887355 141.414062,48.9412337 C140.997394,48.9412337 140.789063,49.0856017 140.789063,49.374342 C140.789063,49.7155805 141.010414,49.8599485 141.453125,49.8074502 C141.869794,49.8074502 142.078125,49.6630823 142.078125,49.374342 Z M144.34375,48.9806072 C144.291666,48.6918669 144.057294,48.5737477 143.640625,48.6262459 C143.223956,48.7049932 143.041666,48.9018587 143.09375,49.2168481 C143.145834,49.5318375 143.380206,49.6368324 143.796875,49.5318359 C144.213544,49.4268394 144.395834,49.2430984 144.34375,48.9806072 Z" id="githubfooter"></path>
            </g>
        </g>
    </g>
</svg>