<?xml version="1.0" encoding="UTF-8"?>
<svg width="87px" height="73px" viewBox="0 0 87 73" version="1.1" xmlns="http://www.w3.org/2000/svg" xmlns:xlink="http://www.w3.org/1999/xlink">
    <!-- Generator: Sketch 42 (36781) - http://www.bohemiancoding.com/sketch -->
    <title>Combined Shape</title>
    <desc>Created with Sketch.</desc>
    <defs></defs>
    <g id="homepage" stroke="none" stroke-width="1" fill="none" fill-rule="evenodd">
        <g id="Artboard-v2.12" transform="translate(-144.000000, -3347.000000)" fill-rule="nonzero" fill="#FFFFFF">
            <g id="quotes" transform="translate(0.000000, 3236.000000)">
                <g id="Group-7" transform="translate(144.000000, 111.000000)">
                    <g id="Quote" transform="translate(43.500000, 36.500000) scale(-1, -1) translate(-43.500000, -36.500000) ">
                        <path d="M86.4482829,24.1748346 C86.4482829,40.8804869 81.1260409,56.0545693 61.154437,73 L49.4449164,63.3149717 C63.2269175,54.2229206 69.5067705,40.0543385 69.5067705,33.9278712 C61.154437,36.3131635 50.2361071,30.3976666 50.2361071,18.0976076 C50.2361071,8.63030539 57.9892427,0.73064092 68.0272869,0.73064092 C78.0653311,0.73064092 86.4482829,10.8118923 86.4482829,24.1748346 Z M37.2047064,24.1748346 C37.2047064,40.8804869 31.9170492,56.0545693 12.0752245,73 L0.441794409,63.3149717 C14.1342376,54.2229206 20.373283,40.0543385 20.373283,33.9278712 C12.0752245,36.3131635 1.22784378,30.3976666 1.22784378,18.0976076 C1.22784378,8.63030539 8.93059809,0.73064092 18.9034133,0.73064092 C28.8762285,0.73064092 37.2047064,10.8118923 37.2047064,24.1748346 Z" id="Combined-Shape"></path>
                    </g>
                </g>
            </g>
        </g>
    </g>
</svg>