<?xml version="1.0" encoding="UTF-8"?>
<svg width="70px" height="70px" viewBox="0 0 70 70" version="1.1" xmlns="http://www.w3.org/2000/svg" xmlns:xlink="http://www.w3.org/1999/xlink">
    <!-- Generator: Sketch 42 (36781) - http://www.bohemiancoding.com/sketch -->
    <title>tech1</title>
    <desc>Created with Sketch.</desc>
    <defs>
        <radialGradient cx="50.2096147%" cy="49.3349765%" fx="50.2096147%" fy="49.3349765%" r="69.1816661%" id="radialGradient-1">
            <stop stop-color="#B5CDCD" stop-opacity="0.1" offset="0%"></stop>
            <stop stop-color="#9FC4CD" stop-opacity="0.3768" offset="30.76%"></stop>
            <stop stop-color="#68AECD" stop-opacity="0.9487" offset="94.3%"></stop>
            <stop stop-color="#63ACCD" offset="100%"></stop>
        </radialGradient>
        <radialGradient cx="50.2095304%" cy="49.3349875%" fx="50.2095304%" fy="49.3349875%" r="69.1816124%" id="radialGradient-2">
            <stop stop-color="#B5CDCD" stop-opacity="0.1" offset="0%"></stop>
            <stop stop-color="#9FC4CD" stop-opacity="0.3768" offset="30.76%"></stop>
            <stop stop-color="#68AECD" stop-opacity="0.9487" offset="94.3%"></stop>
            <stop stop-color="#63ACCD" offset="100%"></stop>
        </radialGradient>
    </defs>
    <g id="homepage" stroke="none" stroke-width="1" fill="none" fill-rule="evenodd">
        <g id="Artboard-v2.11" transform="translate(-869.000000, -279.000000)">
            <g id="tech1" transform="translate(869.000000, 279.000000)">
                <g id="illustration_final_02_icon_25">
                    <g id="links" fill-rule="nonzero">
                        <g id="Group">
                            <circle id="Oval" fill="#464354" cx="34.7837079" cy="34.7837079" r="34.7829213"></circle>
                            <circle id="Oval" fill="url(#radialGradient-1)" opacity="0.3" cx="34.7837079" cy="34.7837079" r="34.7829213"></circle>
                            <circle id="Oval" fill="url(#radialGradient-2)" opacity="0.3" cx="34.7837079" cy="34.7837079" r="27.1017978"></circle>
                            <circle id="Oval" fill="#63ACCD" opacity="0.6" cx="34.7837079" cy="34.7837079" r="20.4793258"></circle>
                            <g transform="translate(22.808989, 21.235955)" id="Shape" fill="#D2DBE0">
                                <path d="M19.4025843,3.03280899 L14.9092135,3.03280899 C15.3866292,3.94359551 15.6406742,4.95820225 15.655618,6.01842697 L20.1489888,6.01842697 L20.1489888,20.9473034 L8.20573034,20.9473034 L8.20573034,13.5870787 C7.95168539,13.6020225 7.69842697,13.6169663 7.45932584,13.6169663 C7.2052809,13.6169663 6.95202247,13.6020225 6.71292135,13.5721348 L6.71292135,24.6793258 C6.71292135,25.9031461 7.71337079,26.9185393 8.95213483,26.9185393 L19.4025843,26.9185393 C20.627191,26.9185393 21.6417978,25.9031461 21.6417978,24.6793258 L21.6417978,5.27202247 C21.6417978,4.03247191 20.627191,3.03280899 19.4025843,3.03280899 Z M14.1777528,25.4257303 C13.3416854,25.4257303 12.6849438,24.7540449 12.6849438,23.9329213 C12.6849438,23.0968539 13.3424719,22.4401124 14.1777528,22.4401124 C14.9988764,22.4401124 15.6705618,23.0968539 15.6705618,23.9329213 C15.6705618,24.7540449 14.9988764,25.4257303 14.1777528,25.4257303 Z"></path>
                                <path d="M12.6770787,10.7461798 C12.6770787,11.8079775 13.2850562,12.7274157 14.1698876,13.1765169 L14.1698876,13.5485393 C13.9221348,13.5831461 13.6696629,13.6004494 13.4116854,13.6004494 C11.8244944,13.6004494 10.3946067,12.9342697 9.38235955,11.8685393 C8.77044944,12.0313483 8.12235955,12.1194382 7.45224719,12.1194382 C3.74224719,12.1194382 0.734606742,9.44606742 0.734606742,6.14820225 C0.734606742,2.85033708 3.74303371,0.176966292 7.45224719,0.176966292 C11.1614607,0.176966292 14.1698876,2.85033708 14.1698876,6.14820225 C14.1698876,7.43966292 13.7082022,8.63359551 12.9248315,9.61202247 C12.7651685,9.95808989 12.6770787,10.3419101 12.6770787,10.7477528 L12.6770787,10.7461798 L12.6770787,10.7461798 Z"></path>
                            </g>
                        </g>
                    </g>
                </g>
            </g>
        </g>
    </g>
</svg>