<?xml version="1.0" encoding="UTF-8"?>
<svg width="825px" height="584px" viewBox="0 0 825 584" version="1.1" xmlns="http://www.w3.org/2000/svg" xmlns:xlink="http://www.w3.org/1999/xlink">
    <!-- Generator: Sketch 42 (36781) - http://www.bohemiancoding.com/sketch -->
    <title>techIcons</title>
    <desc>Created with Sketch.</desc>
    <defs>
        <radialGradient cx="50.2095472%" cy="49.3350404%" fx="50.2095472%" fy="49.3350404%" r="69.1815379%" id="radialGradient-1">
            <stop stop-color="#B5CDCD" stop-opacity="0.1" offset="0%"></stop>
            <stop stop-color="#C0C8B8" stop-opacity="0.4354" offset="35.35%"></stop>
            <stop stop-color="#D5BE8E" stop-opacity="0.9649" offset="91.16%"></stop>
            <stop stop-color="#D6BD8B" offset="100%"></stop>
        </radialGradient>
        <radialGradient cx="50.2096119%" cy="49.3349821%" fx="50.2096119%" fy="49.3349821%" r="69.1815517%" id="radialGradient-2">
            <stop stop-color="#B5CDCD" stop-opacity="0.1" offset="0%"></stop>
            <stop stop-color="#C0C8B8" stop-opacity="0.4354" offset="35.35%"></stop>
            <stop stop-color="#D5BE8E" stop-opacity="0.9649" offset="91.16%"></stop>
            <stop stop-color="#D6BD8B" offset="100%"></stop>
        </radialGradient>
        <radialGradient cx="50.2096316%" cy="49.335108%" fx="50.2096316%" fy="49.335108%" r="69.1818924%" id="radialGradient-3">
            <stop stop-color="#B5CDCD" stop-opacity="0.1" offset="0%"></stop>
            <stop stop-color="#C0C8B8" stop-opacity="0.4354" offset="35.35%"></stop>
            <stop stop-color="#D5BE8E" stop-opacity="0.9649" offset="91.16%"></stop>
            <stop stop-color="#D6BD8B" offset="100%"></stop>
        </radialGradient>
        <radialGradient cx="50.209591%" cy="49.3350075%" fx="50.209591%" fy="49.3350075%" r="69.1804704%" id="radialGradient-4">
            <stop stop-color="#B5CDCD" stop-opacity="0.1" offset="0%"></stop>
            <stop stop-color="#C0C8B8" stop-opacity="0.4354" offset="35.35%"></stop>
            <stop stop-color="#D5BE8E" stop-opacity="0.9649" offset="91.16%"></stop>
            <stop stop-color="#D6BD8B" offset="100%"></stop>
        </radialGradient>
        <radialGradient cx="50.2096316%" cy="49.3349567%" fx="50.2096316%" fy="49.3349567%" r="69.1818924%" id="radialGradient-5">
            <stop stop-color="#B5CDCD" stop-opacity="0.1" offset="0%"></stop>
            <stop stop-color="#C0C8B8" stop-opacity="0.4354" offset="35.35%"></stop>
            <stop stop-color="#D5BE8E" stop-opacity="0.9649" offset="91.16%"></stop>
            <stop stop-color="#D6BD8B" offset="100%"></stop>
        </radialGradient>
        <radialGradient cx="50.2096147%" cy="49.3349765%" fx="50.2096147%" fy="49.3349765%" r="69.1816661%" id="radialGradient-6">
            <stop stop-color="#B5CDCD" stop-opacity="0.1" offset="0%"></stop>
            <stop stop-color="#9FC4CD" stop-opacity="0.3768" offset="30.76%"></stop>
            <stop stop-color="#68AECD" stop-opacity="0.9487" offset="94.3%"></stop>
            <stop stop-color="#63ACCD" offset="100%"></stop>
        </radialGradient>
        <radialGradient cx="50.2095304%" cy="49.3349875%" fx="50.2095304%" fy="49.3349875%" r="69.1816124%" id="radialGradient-7">
            <stop stop-color="#B5CDCD" stop-opacity="0.1" offset="0%"></stop>
            <stop stop-color="#9FC4CD" stop-opacity="0.3768" offset="30.76%"></stop>
            <stop stop-color="#68AECD" stop-opacity="0.9487" offset="94.3%"></stop>
            <stop stop-color="#63ACCD" offset="100%"></stop>
        </radialGradient>
        <radialGradient cx="50.2095485%" cy="49.3349536%" fx="50.2095485%" fy="49.3349536%" r="69.1812486%" id="radialGradient-8">
            <stop stop-color="#B5CDCD" stop-opacity="0.1" offset="0%"></stop>
            <stop stop-color="#BCBCB7" stop-opacity="0.2847" offset="20.52%"></stop>
            <stop stop-color="#CE9280" stop-opacity="0.6655" offset="62.83%"></stop>
            <stop stop-color="#DF694B" offset="100%"></stop>
        </radialGradient>
        <radialGradient cx="50.2095449%" cy="49.334985%" fx="50.2095449%" fy="49.334985%" r="69.180858%" id="radialGradient-9">
            <stop stop-color="#B5CDCD" stop-opacity="0.1" offset="0%"></stop>
            <stop stop-color="#BCBCB7" stop-opacity="0.2847" offset="20.52%"></stop>
            <stop stop-color="#CE9280" stop-opacity="0.6655" offset="62.83%"></stop>
            <stop stop-color="#DF694B" offset="100%"></stop>
        </radialGradient>
    </defs>
    <g id="homepage" stroke="none" stroke-width="1" fill="none" fill-rule="evenodd">
        <g id="Artboard-v2.11" transform="translate(-531.000000, -37.000000)">
            <g id="techIcons" transform="translate(531.000000, 37.000000)">
                <g id="c" transform="translate(766.000000, 225.000000)">
                    <g id="illustration_final_02_icon_01">
                        <g id="Layer_3" fill-rule="nonzero">
                            <g id="Group">
                                <circle id="Oval" fill="#464354" cx="27.3413462" cy="27.3413462" r="26.9873718"></circle>
                                <circle id="Oval" fill="url(#radialGradient-1)" opacity="0.3" cx="27.3413462" cy="27.3413462" r="26.9873718"></circle>
                                <ellipse id="Oval" fill="url(#radialGradient-2)" opacity="0.3" cx="27.3413462" cy="27.3413462" rx="23.0936538" ry="23.0936538"></ellipse>
                                <ellipse id="Oval" fill="#ECD6A4" opacity="0.6" cx="27.3413462" cy="27.3413462" rx="18.3601282" ry="18.3601282"></ellipse>
                                <path d="M27.3413462,39.3285256 C20.7230128,39.3285256 15.3541667,33.9596795 15.3541667,27.3413462 C15.3541667,20.7230128 20.7230128,15.3541667 27.3413462,15.3541667 C33.9596795,15.3541667 39.3285256,20.7230128 39.3285256,27.3413462 C39.3285256,33.9596795 33.9596795,39.3285256 27.3413462,39.3285256 Z M17.3517949,27.3413462 C17.3517949,32.8505128 21.8321795,37.3308974 27.3413462,37.3308974 C32.8505128,37.3308974 37.3308974,32.8505128 37.3308974,27.3413462 C37.3308974,21.8321795 32.8505128,17.3517949 27.3413462,17.3517949 C21.8321795,17.3517949 17.3517949,21.8321795 17.3517949,27.3413462 Z M33.3039103,31.8217308 C33.3039103,34.0224359 29.7923718,34.8333333 27.5916667,34.8333333 C23.314359,34.8333333 20.0982692,31.5714103 20.0982692,27.2637821 C20.0982692,23.0337179 23.2826282,19.849359 27.5126923,19.849359 C29.0583333,19.849359 33.1008333,20.3951282 33.1008333,22.8771795 L33.1008333,24.5786538 C33.1008333,24.7189744 32.9922436,24.8289744 32.8505128,24.8289744 L31.0094231,24.8289744 C30.8691026,24.8289744 30.7605128,24.7189744 30.7605128,24.5786538 L30.7605128,23.4857051 C30.7605128,22.5027564 28.8714744,22.0500641 27.5923718,22.0500641 C24.673141,22.0500641 22.6437821,24.1569872 22.6437821,27.1848077 C22.6437821,30.3233333 24.7669231,32.6164103 27.7157692,32.6164103 C28.8397436,32.6164103 30.9628846,32.1961538 30.9628846,31.2117949 L30.9628846,30.1188462 C30.9628846,29.9785256 31.0714744,29.8699359 31.1969872,29.8699359 L33.055,29.8699359 C33.1791026,29.8699359 33.3039103,29.9785256 33.3039103,30.1188462 L33.3039103,31.8217308 Z" id="Shape" fill="#EBE8E3"></path>
                            </g>
                        </g>
                    </g>
                </g>
                <g id="drupal" transform="translate(753.000000, 431.000000)">
                    <g id="illustration_final_02_icon_02">
                        <g id="Layer_3" fill-rule="nonzero">
                            <g id="Group">
                                <circle id="Oval" fill="#464354" cx="20.0358209" cy="20.0358209" r="19.7361194"></circle>
                                <circle id="Oval" fill="url(#radialGradient-3)" opacity="0.3" cx="20.0358209" cy="20.0358209" r="19.7361194"></circle>
                                <circle id="Oval" fill="#D2DBE0" opacity="0.6" cx="20.0358209" cy="20.0358209" r="15.5450746"></circle>
                                <path d="M20.1164179,30.1850746 C15.400597,30.1850746 11.158209,26.4740299 11.158209,21.4226866 C11.158209,16.3832836 15.0877612,14.0483582 15.8167164,13.6668657 C16.6835821,13.2041791 17.3074627,12.961194 18.2901493,12.1755224 C18.7761194,11.7946269 19.1802985,11.239403 19.3068657,9.88656716 C20.0125373,10.7313433 20.8561194,11.7128358 21.4573134,12.118209 C22.44,12.7653731 23.4214925,13.0191045 24.4507463,13.6674627 C25.0746269,14.0483582 28.9128358,16.3946269 28.9128358,21.5850746 C28.9134328,26.7635821 24.8214925,30.1850746 20.1164179,30.1850746 Z M27.0525373,21.8155224 C26.1271642,21.8155224 24.2549254,23.7343284 23.2722388,23.7456716 C22.1283582,23.7689552 20.5450746,21.481194 18.2561194,21.5038806 C16.4531343,21.5152239 15.0310448,22.9480597 15.0077612,24.4740299 C14.9964179,25.3295522 15.2740299,25.9647761 15.8632836,26.3695522 C16.2561194,26.6358209 16.6143284,26.7970149 17.7820896,26.7970149 C19.7235821,26.7970149 22.1856716,24.3934328 23.318209,24.4274627 C24.2202985,24.4626866 25.6179104,26.6698507 26.3235821,26.7164179 C26.878806,26.7629851 27.1671642,26.5080597 27.641194,25.8262687 C28.1038806,25.1331343 28.3002985,24.0465672 28.3002985,23.4334328 C28.3002985,22.8328358 28.0346269,21.8155224 27.0525373,21.8155224 Z M24.3707463,27.9540299 C23.9779104,28.2429851 23.0991045,28.601194 21.8513433,28.601194 C20.6023881,28.601194 20.0131343,28.3361194 19.6197015,28.0346269 C19.5623881,27.9880597 19.5856716,27.9880597 19.4692537,27.9880597 C19.3420896,27.9880597 19.2728358,28.0465672 19.1689552,28.1271642 C19.0764179,28.2077612 19.0298507,28.4041791 19.1689552,28.5432836 C20.0244776,29.3295522 21.4579104,29.2597015 22.5092537,29.1671642 C23.5725373,29.0632836 24.4746269,28.439403 24.5671642,28.3468657 C24.7050746,28.2077612 24.6710448,28.0931343 24.6477612,28.0113433 C24.6244776,27.9307463 24.5552239,27.8149254 24.3707463,27.9540299 Z M23.7456716,25.9773134 C23.5146269,25.8268657 23.1802985,25.8041791 22.8680597,25.8041791 C22.5558209,25.8041791 22.3820896,25.7808955 22.0477612,25.92 C21.7122388,26.0579104 21.3653731,26.3707463 21.1456716,26.5671642 C20.9259701,26.7635821 20.8919403,26.9140299 21.0065672,27.0752239 C21.1223881,27.2262687 21.2495522,27.1337313 21.5731343,26.8567164 C21.9086567,26.5904478 22.1283582,26.3480597 22.8095522,26.3480597 C23.4919403,26.3480597 23.6077612,26.601791 23.7456716,26.8567164 C23.8847761,27.1104478 23.8967164,27.1450746 24.0346269,27.0752239 C24.1970149,26.9946269 24.2776119,26.879403 24.1970149,26.6829851 C24.1158209,26.4859701 23.9773134,26.1397015 23.7456716,25.9773134 Z" id="Shape" fill="#EBE8E3"></path>
                            </g>
                        </g>
                    </g>
                </g>
                <g id="html5" transform="translate(639.000000, 368.000000)">
                    <g id="illustration_final_02_icon_03">
                        <g id="Layer_3" fill-rule="nonzero">
                            <g id="Group">
                                <circle id="Oval" fill="#464354" cx="24.9494048" cy="24.9494048" r="24.6511905"></circle>
                                <circle id="Oval" fill="url(#radialGradient-4)" opacity="0.3" cx="24.9494048" cy="24.9494048" r="24.6511905"></circle>
                                <circle id="Oval" fill="url(#radialGradient-5)" opacity="0.3" cx="24.9494048" cy="24.9494048" r="19.677381"></circle>
                                <circle id="Oval" fill="#D2DBE0" opacity="0.6" cx="24.9494048" cy="24.9494048" r="15.4988095"></circle>
                                <path d="M17.8065476,16.8494048 L19.1065476,31.4297619 L24.9404762,33.05 L30.789881,31.4279762 L32.0922619,16.8494048 L17.8077381,16.8494048 L17.8065476,16.8494048 Z M29.2625,21.6184524 L22.4196429,21.6184524 L22.5827381,23.45 L29.1005952,23.45 L28.6095238,28.939881 L24.9410714,29.9565476 L21.2779762,28.939881 L21.0279762,26.1309524 L22.8232143,26.1309524 L22.9505952,27.5583333 L24.9422619,28.0952381 L24.9464286,28.0940476 L26.9392857,27.5565476 L27.1458333,25.2380952 L20.947619,25.2380952 L20.4654762,19.8303571 L29.4232143,19.8303571 L29.2630952,21.6184524 L29.2625,21.6184524 L29.2625,21.6184524 Z" id="Shape" fill="#EBE8E3"></path>
                            </g>
                        </g>
                    </g>
                </g>
                <g id="twitter" transform="translate(732.000000, 332.000000)">
                    <g id="illustration_final_02_icon_22">
                        <g id="Layer_3" fill-rule="nonzero">
                            <g id="Group">
                                <circle id="Oval" fill="#464354" cx="20.1011236" cy="20.1011236" r="19.8759551"></circle>
                                <circle id="Oval" fill="url(#radialGradient-6)" opacity="0.3" cx="20.1011236" cy="20.1011236" r="19.8759551"></circle>
                                <circle id="Oval" fill="url(#radialGradient-7)" opacity="0.3" cx="20.1011236" cy="20.1011236" r="15.4867416"></circle>
                                <circle id="Oval" fill="#63ACCD" opacity="0.6" cx="20.1011236" cy="20.1011236" r="11.7024719"></circle>
                                <g id="Icons_7_" transform="translate(12.134831, 13.483146)" fill="#EBE8E3">
                                    <g id="Color-_7_">
                                        <path d="M15.6067416,1.75820225 C15.0453933,2.01393258 14.4408989,2.18696629 13.8067416,2.26426966 C14.454382,1.86696629 14.9510112,1.23685393 15.1851685,0.486292135 C14.5788764,0.854382022 13.908764,1.12179775 13.1932584,1.26516854 C12.6229213,0.640449438 11.8076404,0.250786517 10.9051685,0.250786517 C9.17483146,0.250786517 7.77123596,1.69033708 7.77123596,3.46516854 C7.77123596,3.71730337 7.79820225,3.96179775 7.85213483,4.19730337 C5.24674157,4.06292135 2.93707865,2.7847191 1.38966292,0.837303371 C1.11955056,1.31370787 0.965393258,1.86651685 0.965393258,2.4552809 C0.965393258,3.56988764 1.51865169,4.5541573 2.36,5.13078652 C1.84674157,5.11505618 1.36269663,4.96898876 0.939325843,4.72988764 L0.939325843,4.7694382 C0.939325843,6.32764045 2.02022472,7.62696629 3.4552809,7.92134831 C3.19235955,7.99685393 2.91550562,8.03460674 2.62921348,8.03460674 C2.42741573,8.03460674 2.23011236,8.0152809 2.03910112,7.97752809 C2.43820225,9.25393258 3.59505618,10.1838202 4.96764045,10.2089888 C3.89483146,11.0719101 2.54247191,11.5860674 1.0741573,11.5860674 C0.821123596,11.5860674 0.570786517,11.571236 0.326292135,11.5420225 C1.71370787,12.4525843 3.36224719,12.9851685 5.13213483,12.9851685 C10.8993258,12.9851685 14.0521348,8.08764045 14.0521348,3.83910112 C14.0521348,3.69932584 14.0494382,3.55955056 14.0440449,3.42247191 C14.6561798,2.96898876 15.1878652,2.40314607 15.6067416,1.75820225" id="Twitter_1_"></path>
                                    </g>
                                </g>
                            </g>
                        </g>
                    </g>
                </g>
                <g id="dashboard">
                    <g id="illustration_final_02_icon_05">
                        <g id="Layer_3" fill-rule="nonzero">
                            <g id="Group">
                                <circle id="Oval" fill="#464354" cx="15.3843284" cy="15.3843284" r="15.1534478"></circle>
                                <circle id="Oval" fill="url(#radialGradient-2)" opacity="0.3" cx="15.3843284" cy="15.3843284" r="15.1534478"></circle>
                                <circle id="Oval" fill="#ECD6A4" opacity="0.6" cx="15.3843284" cy="15.3843284" r="12.0474328"></circle>
                                <path d="M22.0123134,19.6239254 C21.9068209,19.7821642 21.7314627,19.8788657 21.5385224,19.8788657 L9.23013433,19.8788657 C9.03719403,19.8788657 8.86183582,19.7826269 8.75634328,19.6239254 C7.94895522,18.3603284 7.51865672,16.8945373 7.51865672,15.3843284 C7.51865672,11.0475672 11.0475672,7.51865672 15.3843284,7.51865672 C19.7210896,7.51865672 23.25,11.0475672 23.25,15.3843284 C23.25,16.8945373 22.8197015,18.3510746 22.0123134,19.6239254 Z M9.76592537,14.2604627 C9.14268657,14.2604627 8.6420597,14.7610896 8.6420597,15.3843284 C8.6420597,16.0075672 9.14268657,16.508194 9.76592537,16.508194 C10.3891642,16.508194 10.889791,16.0075672 10.889791,15.3843284 C10.889791,14.7610896 10.3891642,14.2604627 9.76592537,14.2604627 Z M11.4514925,10.3276269 C10.8282537,10.3276269 10.3276269,10.8282537 10.3276269,11.4514925 C10.3276269,12.0747313 10.8282537,12.5753582 11.4514925,12.5753582 C12.0747313,12.5753582 12.5753582,12.0747313 12.5753582,11.4514925 C12.5753582,10.8282537 12.0747313,10.3276269 11.4514925,10.3276269 Z M17.2188806,12.3204179 C17.289209,12.0219851 17.1133881,11.7147612 16.8149552,11.6361045 C16.5165224,11.5574478 16.2092985,11.7411343 16.1306418,12.0395672 L15.2436716,15.3931194 C14.5501045,15.4458657 13.9449104,15.9289104 13.7519701,16.6400597 C13.5146119,17.5441493 14.0587313,18.4662836 14.9544925,18.7027164 C15.8585821,18.9400746 16.7807164,18.3959552 17.0171493,17.500194 C17.2017612,16.7890448 16.9028657,16.0695672 16.3328358,15.6739701 L17.2188806,12.3204179 Z M15.3843284,8.64252239 C14.7610896,8.64252239 14.2604627,9.14314925 14.2604627,9.76638806 C14.2604627,10.3896269 14.7610896,10.8902537 15.3843284,10.8902537 C16.0075672,10.8902537 16.508194,10.3896269 16.508194,9.76638806 C16.508194,9.14314925 16.0075672,8.64252239 15.3843284,8.64252239 Z M19.3171642,10.3276269 C18.6939254,10.3276269 18.1932985,10.8282537 18.1932985,11.4514925 C18.1932985,12.0747313 18.6939254,12.5753582 19.3171642,12.5753582 C19.940403,12.5753582 20.4410299,12.0747313 20.4410299,11.4514925 C20.4410299,10.8282537 19.940403,10.3276269 19.3171642,10.3276269 Z M21.0027313,14.2604627 C20.3794925,14.2604627 19.8788657,14.7610896 19.8788657,15.3843284 C19.8788657,16.0075672 20.3794925,16.508194 21.0027313,16.508194 C21.6259701,16.508194 22.126597,16.0075672 22.126597,15.3843284 C22.126597,14.7610896 21.6259701,14.2604627 21.0027313,14.2604627 Z" id="Shape" fill="#EBE8E3"></path>
                            </g>
                        </g>
                    </g>
                </g>
                <g id="facebook" transform="translate(615.000000, 471.000000)">
                    <g id="illustration_final_02_icon_09">
                        <g id="Layer_3" fill-rule="nonzero">
                            <g id="Group">
                                <circle id="Oval" fill="#464354" cx="24.9714286" cy="24.9714286" r="24.6128571"></circle>
                                <circle id="Oval" fill="url(#radialGradient-7)" opacity="0.3" cx="24.9714286" cy="24.9714286" r="24.6128571"></circle>
                                <circle id="Oval" fill="#63ACCD" opacity="0.6" cx="24.9714286" cy="24.9714286" r="18.5985714"></circle>
                                <g id="Icons_12_" transform="translate(15.714286, 15.714286)" fill="#EBE8E3">
                                    <g id="Color-_12_">
                                        <path d="M9.84214286,17.8285714 L1.63142857,17.8285714 C1.10857143,17.8285714 0.685,17.405 0.685,16.8821429 L0.685,1.63142857 C0.685,1.10857143 1.10857143,0.685 1.63142857,0.685 L16.8821429,0.685 C17.4042857,0.685 17.8285714,1.10857143 17.8285714,1.63142857 L17.8285714,16.8821429 C17.8285714,17.405 17.405,17.8285714 16.8821429,17.8285714 L12.5135714,17.8285714 L12.5135714,11.19 L14.7421429,11.19 L15.0757143,8.60285714 L12.5135714,8.60285714 L12.5135714,6.95142857 C12.5135714,6.20214286 12.7214286,5.69214286 13.7957143,5.69214286 L15.1657143,5.69142857 L15.1657143,3.37714286 C14.9285714,3.34571429 14.1157143,3.275 13.1692857,3.275 C11.1942857,3.275 9.84142857,4.48071429 9.84142857,6.695 L9.84142857,8.60285714 L7.60714286,8.60285714 L7.60714286,11.19 L9.84142857,11.19 L9.84142857,17.8285714 L9.84214286,17.8285714 Z" id="Facebook_1_"></path>
                                    </g>
                                </g>
                            </g>
                        </g>
                    </g>
                </g>
                <g id="comment" transform="translate(511.000000, 534.000000)">
                    <g id="illustration_final_02_icon_10">
                        <g id="Layer_3" fill-rule="nonzero">
                            <g id="Group">
                                <circle id="Oval" fill="#464354" cx="24.8882979" cy="24.8882979" r="24.6223404"></circle>
                                <circle id="Oval" fill="url(#radialGradient-8)" opacity="0.3" cx="24.8882979" cy="24.8882979" r="24.6223404"></circle>
                                <circle id="Oval" fill="url(#radialGradient-9)" opacity="0.3" cx="24.8882979" cy="24.8882979" r="20.3962766"></circle>
                                <circle id="Oval" fill="#DF694B" opacity="0.6" cx="24.8882979" cy="24.8882979" r="16.3037234"></circle>
                                <path d="M23.381383,16.8510638 L23.381383,16.8510638 C27.5430851,16.8510638 30.9170213,19.5808511 30.9170213,22.9489362 C30.9170213,26.3170213 27.5425532,29.0462766 23.381383,29.0462766 C22.981383,29.0462766 22.5898936,29.0212766 22.2069149,28.9718085 C20.5882979,30.5845745 18.7196809,30.8728723 16.8505319,30.9159574 L16.8505319,30.5212766 C17.8590426,30.0287234 18.6723404,29.1329787 18.6723404,28.1079787 C18.6723404,27.9654255 18.6611702,27.8244681 18.6404255,27.687234 C16.9361702,26.5691489 15.8462766,24.8617021 15.8462766,22.9478723 C15.8462766,19.5797872 19.2202128,16.85 23.3819149,16.85 L23.3819149,16.8510638 L23.381383,16.8510638 Z M31.4824468,30.5191489 C31.4824468,31.3973404 32.0521277,32.1659574 32.9271277,32.587766 L32.9271277,32.9265957 C31.3085106,32.8904255 29.8223404,32.6420213 28.4191489,31.2606383 C28.087766,31.3015957 27.7468085,31.3239362 27.4015957,31.3239362 C25.9026596,31.3239362 24.5218085,30.9202128 23.4196809,30.2398936 C25.6914894,30.2319149 27.8356383,29.5042553 29.4611702,28.1882979 C30.2808511,27.525 30.9271277,26.7462766 31.3829787,25.8755319 C31.8664894,24.9510638 32.1106383,23.9664894 32.1106383,22.9489362 C32.1106383,22.7851064 32.1037234,22.6212766 32.0904255,22.4595745 C33.2297872,23.4 33.9308511,24.6829787 33.9308511,26.0968085 C33.9308511,27.737766 32.9861702,29.2005319 31.5095745,30.1590426 C31.4914894,30.2760638 31.4824468,30.3968085 31.4824468,30.5191489 Z" id="Shape" fill="#EBE8E3"></path>
                            </g>
                        </g>
                    </g>
                </g>
                <g id="wordpress" transform="translate(595.000000, 157.000000)">
                    <g id="illustration_final_02_icon_11">
                        <g id="Layer_3" fill-rule="nonzero">
                            <g id="Group">
                                <circle id="Oval" fill="#464354" cx="25.3528846" cy="25.3528846" r="25.0246538"></circle>
                                <circle id="Oval" fill="url(#radialGradient-1)" opacity="0.3" cx="25.3528846" cy="25.3528846" r="25.0246538"></circle>
                                <circle id="Oval" fill="url(#radialGradient-2)" opacity="0.3" cx="25.3528846" cy="25.3528846" r="21.4141154"></circle>
                                <circle id="Oval" fill="#ECD6A4" opacity="0.6" cx="25.3528846" cy="25.3528846" r="17.0248462"></circle>
                                <g id="Icons_11_" transform="translate(13.730769, 13.730769)" fill="#EBE8E3">
                                    <g id="Color-_11_">
                                        <path d="M0.506730769,11.6214615 C0.506730769,16.0211923 3.06326923,19.8233077 6.77123077,21.6246538 L1.46919231,7.0975 C0.852615385,8.47973077 0.506730769,10.0097308 0.506730769,11.6214615 Z M19.1256538,11.0611154 C19.1256538,9.68673077 18.632,8.73603846 18.2096154,7.99588462 C17.646,7.07984615 17.1176923,6.30438462 17.1176923,5.38834615 C17.1176923,4.36638462 17.8925,3.41503846 18.9844231,3.41503846 C19.0334615,3.41503846 19.0805385,3.42157692 19.1282692,3.42419231 C17.1510385,1.61238462 14.5160385,0.506076923 11.6221154,0.506076923 C7.73826923,0.506076923 4.32257692,2.49834615 2.33488462,5.51584615 C2.59642308,5.52434615 2.84226923,5.52892308 3.05019231,5.52892308 C4.21273077,5.52892308 6.01276923,5.38769231 6.01276923,5.38769231 C6.61169231,5.35238462 6.68230769,6.23311538 6.08338462,6.30307692 C6.08338462,6.30307692 5.48119231,6.37369231 4.81165385,6.40965385 L8.85896154,18.4495769 L11.2919231,11.1539615 L9.56053846,6.40965385 C8.96161538,6.37434615 8.39407692,6.30307692 8.39407692,6.30307692 C7.79515385,6.26776923 7.86511538,5.35173077 8.46469231,5.38769231 C8.46469231,5.38769231 10.3000385,5.52892308 11.3926154,5.52892308 C12.5551538,5.52892308 14.3551923,5.38769231 14.3551923,5.38769231 C14.9547692,5.35238462 15.0247308,6.23311538 14.4258077,6.30307692 C14.4258077,6.30307692 13.8229615,6.37369231 13.1540769,6.40965385 L17.1713077,18.3573846 L18.2808846,14.6533462 C18.7595,13.1161538 19.1256538,12.0118077 19.1256538,11.0611154 Z M21.3755385,6.28869231 C21.4232692,6.64307692 21.4507308,7.02230769 21.4507308,7.43161538 C21.4507308,8.55884615 21.2395385,9.82730769 20.6053077,11.4128846 L17.2098846,21.2290769 C20.5144231,19.3028462 22.7375,15.7217308 22.7375,11.6214615 C22.7375,9.68934615 22.2438462,7.87230769 21.3755385,6.28869231 Z M11.8169615,12.5937308 L8.48169231,22.2843846 C9.47815385,22.5773077 10.5308462,22.7375 11.6221154,22.7375 C12.9160769,22.7375 14.1577308,22.5138846 15.3130769,22.1071923 C15.2836538,22.0594615 15.2561923,22.0091154 15.2339615,21.9541923 L11.8169615,12.5937308 Z" id="Wordpress_1_"></path>
                                    </g>
                                </g>
                            </g>
                        </g>
                    </g>
                </g>
                <g id="cloud" transform="translate(609.000000, 253.000000)">
                    <g id="illustration_final_02_icon_04">
                        <g id="Layer_3" fill-rule="nonzero">
                            <g id="Group">
                                <circle id="Oval" fill="#464354" cx="25.1264045" cy="25.1264045" r="24.8449438"></circle>
                                <circle id="Oval" fill="url(#radialGradient-6)" opacity="0.3" cx="25.1264045" cy="25.1264045" r="24.8449438"></circle>
                                <circle id="Oval" fill="url(#radialGradient-7)" opacity="0.3" cx="25.1264045" cy="25.1264045" r="19.358427"></circle>
                                <circle id="Oval" fill="#63ACCD" opacity="0.6" cx="25.1264045" cy="25.1264045" r="14.6280899"></circle>
                                <path d="M30.8567416,32.1303371 L20.0325843,32.1303371 C17.5752809,32.1303371 15.5758427,30.1308989 15.5758427,27.6735955 C15.5758427,25.8926966 16.6308989,24.3511236 18.1426966,23.644382 C18.1325843,23.505618 18.1224719,23.355618 18.1224719,23.2168539 C18.1224719,20.4016854 20.4005618,18.1230337 23.2162921,18.1230337 C25.3449438,18.1230337 27.1657303,19.4269663 27.9314607,21.2865169 C28.3696629,20.8988764 28.9466292,20.6696629 29.5831461,20.6696629 C30.9859551,20.6696629 32.1297753,21.8140449 32.1297753,23.2162921 C32.1297753,23.7235955 31.9803371,24.191573 31.7219101,24.588764 C33.4123596,24.9876404 34.6764045,26.4988764 34.6764045,28.3101124 C34.6769663,30.4196629 32.9657303,32.1303371 30.8567416,32.1303371 Z" id="Shape" fill="#EBE8E3"></path>
                            </g>
                        </g>
                    </g>
                </g>
                <g id="email" transform="translate(714.000000, 517.000000)">
                    <g id="illustration_final_02_icon_14">
                        <g id="Layer_3" fill-rule="nonzero">
                            <g id="Group">
                                <circle id="Oval" fill="#464354" cx="19.8846154" cy="19.8846154" r="19.6271795"></circle>
                                <circle id="Oval" fill="url(#radialGradient-1)" opacity="0.3" cx="19.8846154" cy="19.8846154" r="19.6271795"></circle>
                                <circle id="Oval" fill="url(#radialGradient-2)" opacity="0.3" cx="19.8846154" cy="19.8846154" r="16.7953846"></circle>
                                <circle id="Oval" fill="#ECD6A4" opacity="0.6" cx="19.8846154" cy="19.8846154" r="13.3528205"></circle>
                                <path d="M26.9389744,17.2574359 C25.4210256,18.3087179 23.8933333,19.3594872 22.3851282,20.42 C21.7528205,20.8579487 20.6825641,21.7528205 19.894359,21.7528205 L19.8851282,21.7528205 L19.8758974,21.7528205 C19.0876923,21.7528205 18.0169231,20.8579487 17.3851282,20.42 C15.8769231,19.3594872 14.3487179,18.3082051 12.8410256,17.2574359 C12.1497436,16.7907692 11.1671795,15.6912821 11.1671795,14.805641 C11.1671795,13.8523077 11.6830769,13.0348718 12.7241026,13.0348718 L27.0466667,13.0348718 C27.8933333,13.0348718 28.6035897,13.7353846 28.6035897,14.5917949 C28.6025641,15.6815385 27.7948718,16.6641026 26.9389744,17.2574359 Z M28.6025641,25.1774359 C28.6025641,26.0333333 27.9020513,26.734359 27.045641,26.734359 L12.7235897,26.734359 C11.8676923,26.734359 11.1666667,26.0338462 11.1666667,25.1774359 L11.1666667,17.4523077 C11.4584615,17.7728205 11.7892308,18.0553846 12.1492308,18.2989744 C13.7646154,19.3984615 15.3994872,20.4979487 16.9851282,21.6553846 C17.8030769,22.2584615 18.814359,22.9984615 19.8753846,22.9984615 L19.8846154,22.9984615 L19.8938462,22.9984615 C20.9548718,22.9984615 21.9666667,22.2584615 22.7841026,21.6553846 C24.3697436,20.5076923 26.0046154,19.3984615 27.6292308,18.2989744 C27.9794872,18.0553846 28.3102564,17.7728205 28.6025641,17.4523077 L28.6025641,25.1774359 L28.6025641,25.1774359 Z" id="Shape" fill="#EBE8E3"></path>
                            </g>
                        </g>
                    </g>
                </g>
                <g id="github" transform="translate(224.000000, 240.000000)">
                    <g id="illustration_final_02_icon_16">
                        <g id="Layer_3" fill-rule="nonzero">
                            <g id="Group">
                                <circle id="Oval" fill="#464354" cx="20.4185256" cy="20.4185256" r="20.1557051"></circle>
                                <circle id="Oval" fill="url(#radialGradient-9)" opacity="0.3" cx="20.4185256" cy="20.4185256" r="20.1557051"></circle>
                                <circle id="Oval" fill="#DF694B" opacity="0.6" cx="20.4185256" cy="20.4185256" r="16.1114231"></circle>
                                <g id="Icons_13_" transform="translate(11.038462, 11.564103)" fill="#EBE8E3">
                                    <g id="Color-_13_">
                                        <path d="M9.37953846,0.104602564 C4.44534615,0.104602564 0.444166667,4.12102564 0.444166667,9.07624359 C0.444166667,13.0395769 3.00403846,16.4021026 6.55579487,17.5884744 C7.00258974,17.671 7.16553846,17.3939872 7.16553846,17.1563974 C7.16553846,16.9435128 7.15765385,16.3795 7.15344872,15.6304615 C4.66769231,16.1729231 4.14310256,14.4277949 4.14310256,14.4277949 C3.73730769,13.3917564 3.15121795,13.1157949 3.15121795,13.1157949 C2.33962821,12.559141 3.21271795,12.5701795 3.21271795,12.5701795 C4.1089359,12.6337821 4.58096154,13.4947821 4.58096154,13.4947821 C5.37835897,14.8656538 6.67248718,14.4698462 7.18183333,14.240141 C7.26278205,13.660359 7.4940641,13.2650769 7.749,13.0406282 C5.76470513,12.8140769 3.6784359,12.0445385 3.6784359,8.60684615 C3.6784359,7.62705128 4.02641026,6.8265 4.59830769,6.19888462 C4.50632051,5.97180769 4.19934615,5.05982051 4.6855641,3.82508974 C4.6855641,3.82508974 5.43617949,3.58382051 7.1429359,4.7444359 C7.85623077,4.54521795 8.61998718,4.44587179 9.3800641,4.44219231 C10.1390897,4.44587179 10.9033718,4.54521795 11.6171923,4.7444359 C13.3228974,3.58382051 14.0719359,3.82508974 14.0719359,3.82508974 C14.5592051,5.06034615 14.2527564,5.97180769 14.1607692,6.19888462 C14.7337179,6.8265 15.0795897,7.62705128 15.0795897,8.60684615 C15.0795897,12.0529487 12.9901667,12.8114487 10.9995641,13.0337949 C11.3202051,13.3108077 11.6061538,13.858 11.6061538,14.6953462 C11.6061538,15.894859 11.5951154,16.8620385 11.5951154,17.1563974 C11.5951154,17.3966154 11.7559615,17.6757308 12.2095897,17.5874231 C15.7576667,16.3989487 18.3154359,13.0385256 18.3154359,9.07624359 C18.3159615,4.12102564 14.3147821,0.104602564 9.37953846,0.104602564" id="Github_1_"></path>
                                    </g>
                                </g>
                            </g>
                        </g>
                    </g>
                </g>
                <g id="compass" transform="translate(669.000000, 5.000000)">
                    <g id="illustration_final_02_icon_13">
                        <g id="Layer_3" fill-rule="nonzero">
                            <g id="Group">
                                <circle id="Oval" fill="#464354" cx="18.5331343" cy="18.5331343" r="18.2559104"></circle>
                                <circle id="Oval" fill="url(#radialGradient-5)" opacity="0.3" cx="18.5331343" cy="18.5331343" r="18.2559104"></circle>
                                <circle id="Oval" fill="#D2DBE0" opacity="0.6" cx="18.5331343" cy="18.5331343" r="14.379194"></circle>
                                <path d="M18.5331343,9.14507463 C13.3487164,9.14507463 9.14507463,13.3487164 9.14507463,18.5331343 C9.14507463,23.7175522 13.3487164,27.921194 18.5331343,27.921194 C23.7175522,27.921194 27.921194,23.7175522 27.921194,18.5331343 C27.921194,13.3487164 23.7175522,9.14507463 18.5331343,9.14507463 Z M10.9050597,18.5331343 C10.9050597,14.3201045 14.3201045,10.9056119 18.5325821,10.9056119 C20.5416269,10.9056119 22.3689851,11.6826119 23.7313582,12.952209 L16.1861194,16.1861194 L12.9516567,23.7319104 C11.6820597,22.3695373 10.9050597,20.5421791 10.9050597,18.5331343 Z M19.8745224,19.8745224 L15.1793881,21.8868806 L17.1917463,17.1917463 L19.8745224,19.8745224 Z M18.5331343,26.1606567 C16.5240896,26.1606567 14.6967313,25.3836567 13.3343582,24.1140597 L20.8801493,20.8801493 L24.1146119,13.3343582 C25.384209,14.6967313 26.161209,16.5240896 26.161209,18.5331343 C26.1606567,22.7461642 22.7461642,26.1606567 18.5331343,26.1606567 Z" id="Shape" fill="#EBE8E3"></path>
                            </g>
                        </g>
                    </g>
                </g>
                <g id="apple" transform="translate(220.000000, 18.000000)">
                    <g id="illustration_final_02_icon_15">
                        <g id="Layer_3" fill-rule="nonzero">
                            <g id="Group">
                                <circle id="Oval" fill="#464354" cx="18.5331343" cy="18.5331343" r="18.2559104"></circle>
                                <circle id="Oval" fill="url(#radialGradient-5)" opacity="0.3" cx="18.5331343" cy="18.5331343" r="18.2559104"></circle>
                                <circle id="Oval" fill="#D2DBE0" opacity="0.6" cx="18.5331343" cy="18.5331343" r="14.379194"></circle>
                                <g id="Icons_8_" transform="translate(11.597015, 10.492537)" fill="#EBE8E3">
                                    <g id="Color-_8_">
                                        <path d="M9.09371642,2.80150746 C9.59956716,2.14820896 9.98337313,1.22486567 9.84476119,0.282746269 C9.01750746,0.340179104 8.05108955,0.869223881 7.48670149,1.55897015 C6.97256716,2.18410448 6.55010448,3.11352239 6.71467164,4.0158806 C7.61923881,4.04404478 8.55252239,3.50174627 9.09371642,2.80150746 L9.09371642,2.80150746 Z M13.5629851,11.666597 C13.2012687,12.4734179 13.0267612,12.8334776 12.5606716,13.5480746 C11.9106866,14.5454179 10.9934179,15.7868507 9.85635821,15.7962388 C8.84686567,15.8072836 8.58676119,15.1346567 7.21665672,15.1429403 C5.84655224,15.1501194 5.56049254,15.8089403 4.54934328,15.799 C3.41283582,15.7890597 2.54416418,14.6685672 1.8941791,13.6712239 C0.0751044776,10.8846269 -0.116522388,7.61426866 1.00562687,5.87416418 C1.80361194,4.63880597 3.06271642,3.91647761 4.2450597,3.91647761 C5.44838806,3.91647761 6.20550746,4.5808209 7.20229851,4.5808209 C8.16926866,4.5808209 8.75740299,3.9148209 10.149597,3.9148209 C11.2032687,3.9148209 12.3198955,4.49246269 13.1140149,5.48870149 C10.5096567,6.92452239 10.9310149,10.6659403 13.5629851,11.666597 L13.5629851,11.666597 Z" id="Apple_1_"></path>
                                    </g>
                                </g>
                            </g>
                        </g>
                    </g>
                </g>
                <g id="android" transform="translate(775.000000, 53.000000)">
                    <g id="illustration_final_02_icon_17">
                        <g id="Layer_3" fill-rule="nonzero">
                            <g id="Group">
                                <circle id="Oval" fill="#464354" cx="24.9714286" cy="24.9714286" r="24.6128571"></circle>
                                <circle id="Oval" fill="url(#radialGradient-7)" opacity="0.3" cx="24.9714286" cy="24.9714286" r="24.6128571"></circle>
                                <circle id="Oval" fill="#63ACCD" opacity="0.6" cx="24.9714286" cy="24.9714286" r="18.5985714"></circle>
                                <g id="Icons_10_" transform="translate(14.285714, 12.142857)" fill="#EBE8E3">
                                    <g id="Color-_10_">
                                        <path d="M13.5835714,5.54357143 C13.1828571,5.54357143 12.8585714,5.22785714 12.8585714,4.83785714 C12.8585714,4.44785714 13.1828571,4.13357143 13.5835714,4.13357143 C13.9842857,4.13357143 14.3085714,4.44785714 14.3085714,4.83785714 C14.3078571,5.22785714 13.9835714,5.54357143 13.5835714,5.54357143 L13.5835714,5.54357143 Z M7.78785714,5.54357143 C7.38714286,5.54357143 7.06285714,5.22785714 7.06285714,4.83785714 C7.06285714,4.44785714 7.38714286,4.13357143 7.78785714,4.13357143 C8.18857143,4.13357143 8.51285714,4.44785714 8.51285714,4.83785714 C8.51285714,5.22785714 8.18857143,5.54357143 7.78785714,5.54357143 L7.78785714,5.54357143 Z M14.0114286,2.71857143 L14.2814286,2.32142857 L14.5514286,1.93 L15.1528571,1.05071429 C15.2278571,0.942142857 15.1971429,0.796428571 15.0857143,0.725 C14.9757143,0.652142857 14.8242857,0.682142857 14.7528571,0.790714286 L13.8342857,2.12857143 L13.5585714,2.53142857 C12.6857143,2.20142857 11.7128571,2.01714286 10.6857143,2.01714286 C9.66,2.01714286 8.68571429,2.20142857 7.81285714,2.53142857 L7.53857143,2.12857143 L7.26714286,1.73285714 L6.62142857,0.790714286 C6.54642857,0.682142857 6.39714286,0.653571429 6.28571429,0.725 C6.17571429,0.796428571 6.145,0.942142857 6.21857143,1.05071429 L6.82,1.93 L7.09,2.32142857 L7.36142857,2.71857143 C5.31214286,3.64785714 3.92571429,5.40857143 3.92571429,7.42357143 L17.4471429,7.42357143 C17.4464286,5.40928571 16.06,3.64857143 14.0114286,2.71857143 Z M4.02928571,8.36357143 L3.925,8.36357143 L3.925,18.7042857 C3.925,19.525 4.61,20.1935714 5.455,20.1935714 L6.55857143,20.1935714 C6.52071429,20.3178571 6.5,20.4478571 6.5,20.585 L6.5,23.5621429 C6.5,24.34 7.15,24.9714286 7.94928571,24.9714286 C8.74857143,24.9714286 9.39857143,24.34 9.39857143,23.5621429 L9.39857143,20.585 C9.39857143,20.4478571 9.37642857,20.3178571 9.34,20.1935714 L12.0307143,20.1935714 C11.9942857,20.3178571 11.9735714,20.4478571 11.9735714,20.585 L11.9735714,23.5621429 C11.9735714,24.34 12.6221429,24.9714286 13.4214286,24.9714286 C14.2221429,24.9714286 14.8721429,24.34 14.8721429,23.5621429 L14.8721429,20.585 C14.8721429,20.4478571 14.85,20.3178571 14.8121429,20.1935714 L15.9171429,20.1935714 C16.7621429,20.1935714 17.4457143,19.525 17.4457143,18.7042857 L17.4457143,8.36357143 L4.02928571,8.36357143 Z M1.51,8.36357143 C0.709285714,8.36357143 0.0607142857,8.995 0.0607142857,9.77285714 L0.0607142857,15.8057143 C0.0607142857,16.5842857 0.709285714,17.215 1.51,17.215 C2.30928571,17.215 2.95785714,16.5835714 2.95785714,15.8057143 L2.95785714,9.77285714 C2.95857143,8.99428571 2.31,8.36357143 1.51,8.36357143 Z M19.8628571,8.36357143 C19.0621429,8.36357143 18.4135714,8.995 18.4135714,9.77285714 L18.4135714,15.8057143 C18.4135714,16.5842857 19.0621429,17.215 19.8628571,17.215 C20.6621429,17.215 21.3107143,16.5835714 21.3107143,15.8057143 L21.3107143,9.77285714 C21.3107143,8.99428571 20.6621429,8.36357143 19.8628571,8.36357143 Z" id="Android_1_"></path>
                                    </g>
                                </g>
                            </g>
                        </g>
                    </g>
                </g>
                <g id="youtube" transform="translate(696.000000, 119.000000)">
                    <g id="illustration_final_02_icon_18">
                        <g id="Layer_3" fill-rule="nonzero">
                            <g id="Group">
                                <circle id="Oval" fill="#464354" cx="32.3547872" cy="32.3547872" r="32.0090426"></circle>
                                <circle id="Oval" fill="url(#radialGradient-8)" opacity="0.3" cx="32.3547872" cy="32.3547872" r="32.0090426"></circle>
                                <circle id="Oval" fill="url(#radialGradient-9)" opacity="0.3" cx="32.3547872" cy="32.3547872" r="26.5151596"></circle>
                                <circle id="Oval" fill="#DF694B" opacity="0.6" cx="32.3547872" cy="32.3547872" r="21.1948404"></circle>
                                <g transform="translate(15.212766, 25.585106)" id="Shape" fill="#EBE8E3">
                                    <path d="M4.9787234,2.34207447 C4.98148936,2.33031915 4.98287234,2.32271277 4.98356383,2.31925532 L4.99670213,2.22175532 L4.38473404,2.21829787 C3.83223404,2.21484043 3.66281915,2.21829787 3.64760638,2.23212766 C3.64,2.23904255 3.44914894,2.96441489 3.10893617,4.27824468 C2.94712766,4.90542553 2.81021277,5.40606383 2.80537234,5.39085106 C2.80053191,5.3756383 2.60691489,4.6606383 2.37388298,3.80111702 C2.14154255,2.94159574 1.94585106,2.23420213 1.94031915,2.22867021 C1.93202128,2.22037234 1.19074468,2.21691489 0.590531915,2.22175532 C0.503404255,2.22244681 0.455,2.05234043 1.36638298,4.95106383 C1.49223404,5.35212766 1.68170213,5.92053191 1.78611702,6.2137234 C1.90712766,6.55117021 1.99287234,6.81255319 2.05164894,7.03037234 C2.15606383,7.44457447 2.15952128,7.70457447 2.13670213,8.0081383 C2.11042553,8.35803191 2.10696809,10.8314894 2.13255319,10.8729787 C2.15260638,10.9040957 3.31154255,10.9193085 3.42148936,10.8895745 C3.4387766,10.884734 3.45053191,10.8681383 3.45882979,10.7747872 C3.48579787,10.6945745 3.48856383,10.3744149 3.48856383,9.04606383 L3.48856383,7.34914894 L3.56324468,7.11473404 C3.61234043,6.96191489 3.73335106,6.5587766 3.83430851,6.21994681 C3.93526596,5.88111702 4.05696809,5.47521277 4.10468085,5.31824468 C4.54239362,3.89170213 4.9593617,2.49005319 4.97111702,2.40984043 L4.98010638,2.34414894 L4.9787234,2.34207447 Z"></path>
                                    <path d="M11.469734,4.4006383 L11.469734,4.48914894 L11.4559043,4.48914894 L11.4482979,6.93218085 L11.4406915,9.30053191 L11.2512234,9.49345745 C11.0389362,9.70920213 10.8688298,9.79218085 10.7153191,9.75345745 C10.5472872,9.7112766 10.5521277,9.77696809 10.5382979,6.97712766 L10.5251596,4.39994681 L9.30606383,4.39994681 L9.30606383,4.48845745 L9.29223404,4.48845745 L9.29223404,7.28484043 C9.29223404,10.2803723 9.29223404,10.2789894 9.4443617,10.5790957 C9.56537234,10.8190426 9.74239362,10.9359043 10.043883,10.9753191 L10.043883,10.9753191 C10.4414894,11.0285638 10.8709043,10.8480851 11.2692021,10.4608511 L11.4420745,10.2928191 L11.4420745,10.5832447 C11.4420745,10.8335638 11.4496809,10.8750532 11.4953191,10.8875 C11.57,10.9082447 12.4931383,10.9096277 12.5920213,10.888883 L12.675,10.8715957 L12.675,10.7858511 L12.6888298,10.7830851 L12.6888298,4.38335106 L11.471117,4.39994681 L11.469734,4.4006383 Z"></path>
                                    <path d="M8.37739362,5.66329787 C8.26191489,5.1675 8.04547872,4.83420213 7.6893617,4.60462766 C7.12994681,4.24297872 6.49031915,4.20425532 5.89840426,4.49675532 C5.46691489,4.71042553 5.18755319,5.06446809 5.04441489,5.5837766 C5.02712766,5.64601064 5.01468085,5.69787234 5.00569149,5.77462766 C4.96904255,5.95856383 4.96489362,6.23101064 4.95521277,7.50611702 C4.94,9.46994681 4.96351064,9.70297872 5.20898936,10.1489894 C5.45031915,10.5867021 5.95095745,10.9075532 6.49654255,10.9739362 C6.66042553,10.9939894 6.99303191,10.9628723 7.18457447,10.9096277 C7.61882979,10.788617 8.03579787,10.4456383 8.22042553,10.0556383 C8.29994681,9.88691489 8.34765957,9.77005319 8.37670213,9.55569149 C8.4306383,9.26388298 8.43478723,8.79021277 8.43478723,7.5856383 C8.43478723,6.04914894 8.42994681,5.88180851 8.3787766,5.6612234 L8.37739362,5.66329787 Z M6.98680851,9.66632979 C6.88446809,9.7437766 6.70537234,9.77835106 6.56085106,9.74723404 C6.44882979,9.72303191 6.29808511,9.54808511 6.25175532,9.38835106 C6.19367021,9.18920213 6.18952128,6.41494681 6.23930851,5.87143617 C6.32228723,5.59898936 6.5518617,5.45723404 6.80356383,5.525 C6.99994681,5.57824468 7.09952128,5.7006383 7.15691489,5.95787234 C7.19909574,6.1487234 7.20393617,6.38659574 7.19494681,7.78340426 C7.18941489,8.71 7.18595745,9.16361702 7.15553191,9.40632979 C7.12510638,9.55914894 7.07393617,9.6006383 6.9875,9.66702128 L6.9875,9.66632979 L6.98680851,9.66632979 Z"></path>
                                    <path d="M30.2671809,7.05664894 L30.8563298,7.05664894 L30.8473404,6.52281915 C30.8383511,6.03324468 30.8307447,5.97792553 30.7657447,5.84446809 C30.6620213,5.63494681 30.5098936,5.54159574 30.2685638,5.54159574 C29.9781383,5.54159574 29.7942021,5.68196809 29.707766,5.97031915 C29.6704255,6.09271277 29.6317021,6.9356383 29.6600532,7.00824468 C29.675266,7.04973404 29.7596277,7.05664894 30.2671809,7.05664894 Z"></path>
                                    <path d="M26.3298404,5.84308511 C26.2510106,5.68473404 26.1051064,5.60659574 25.935,5.61281915 C25.8029255,5.61765957 25.6563298,5.67297872 25.5145745,5.78085106 L25.4094681,5.86106383 L25.4094681,9.69468085 L25.5145745,9.77489362 C25.7531383,9.95675532 26.0145213,9.99478723 26.1943085,9.87446809 C26.2655319,9.82675532 26.3118617,9.76106383 26.3485106,9.65664894 C26.3955319,9.52111702 26.3996809,9.34617021 26.3941489,7.73292553 C26.387234,6.05260638 26.3844681,5.95303191 26.3298404,5.84308511 Z"></path>
                                    <path d="M33.6340426,4.11574468 C33.5164894,2.70856383 33.4231383,2.25218085 33.1334043,1.66510638 C32.7489362,0.88856383 32.1936702,0.478510638 31.4026064,0.388617021 C30.7913298,0.319468085 28.4900532,0.220585106 26.3609574,0.17356383 C22.6746277,0.0919680851 16.6144149,0.24962766 15.8399468,0.447393617 C15.4824468,0.539361702 15.2134574,0.694946809 14.9347872,0.971542553 C14.4459043,1.45765957 14.1540957,2.15606383 14.037234,3.12276596 C13.7703191,5.32792553 13.7640957,7.99223404 14.0213298,10.2776064 C14.1319681,11.2602128 14.3608511,11.8991489 14.788883,12.4253723 C15.0557979,12.7538298 15.5177128,13.0325 15.9298404,13.1161702 C16.2195745,13.1749468 17.6668617,13.2558511 19.7765957,13.3312234 C20.0912234,13.3429787 20.9223936,13.3616489 21.6256383,13.3740957 C23.0902128,13.3996809 25.7828723,13.3851596 27.3221277,13.3415957 C28.3579787,13.3125532 30.2457447,13.2357979 30.5990957,13.2081383 C30.6986702,13.2005319 30.9282447,13.1860106 31.1101064,13.1756383 C31.721383,13.1410638 32.11,13.0138298 32.4751064,12.7261702 C32.9473936,12.3548404 33.3131915,11.668883 33.4680851,10.8639894 C33.6146809,10.1026596 33.7121809,8.74734043 33.732234,7.20739362 C33.7488298,5.9212234 33.7267021,5.22765957 33.6340426,4.11228723 L33.6340426,4.11574468 L33.6340426,4.11574468 Z M18.9551064,3.60611702 L18.2698404,3.61441489 L18.2401064,10.9193085 L17.646117,10.9269149 C17.1869681,10.9338298 17.0472872,10.9262234 17.0362234,10.8971809 C17.0279255,10.8764362 17.0189362,9.22930851 17.0147872,7.23712766 L17.0071809,3.61441489 L15.6698404,3.59781915 L15.6698404,2.45617021 L19.6230851,2.47207447 L19.6396809,3.59712766 L18.9544149,3.60542553 L18.9544149,3.60611702 L18.9551064,3.60611702 Z M23.1552128,7.79308511 L23.1552128,10.9345213 L22.0730319,10.9345213 L22.0730319,10.6032979 C22.0730319,10.3543617 22.0640426,10.2720745 22.0343085,10.2720745 C22.0128723,10.2720745 21.9153723,10.3536702 21.8164894,10.4539362 C21.6021277,10.6717553 21.3490426,10.8460106 21.1326064,10.9269149 C20.6845213,11.0949468 20.2592553,10.9960638 20.0780851,10.6842021 C19.9121277,10.398617 19.9093617,10.3343085 19.9093617,7.3712766 L19.9093617,4.64957447 L20.9908511,4.64957447 L20.9991489,7.21223404 C21.0074468,9.7306383 21.0081383,9.77696809 21.0682979,9.87930851 C21.1485106,10.0148404 21.2702128,10.0521809 21.4638298,9.99824468 C21.5779255,9.96712766 21.6560638,9.91111702 21.84,9.72787234 L22.0730319,9.4962234 L22.0730319,4.64957447 L23.1552128,4.64957447 L23.1552128,7.79101064 L23.1552128,7.79308511 L23.1552128,7.79308511 Z M27.3760638,10.4857447 C27.2806383,10.6980319 27.0683511,10.9061702 26.8940957,10.9573404 C26.4397872,11.0914894 26.0753723,10.982234 25.6542553,10.5860106 C25.5235638,10.4629255 25.4018617,10.3633511 25.383883,10.3633511 C25.3617553,10.3633511 25.35,10.4594681 25.35,10.6489362 L25.35,10.9345213 L24.2678191,10.9345213 L24.2678191,2.4568617 L25.35,2.4568617 L25.35,3.83984043 C25.35,4.59978723 25.3596809,5.22281915 25.3721277,5.22281915 C25.3845745,5.22281915 25.4986702,5.1218617 25.6259043,4.99946809 C25.9190957,4.71734043 26.1625,4.59356383 26.4729787,4.57005319 C27.0261702,4.52787234 27.3567021,4.81345745 27.5067553,5.46345745 C27.5537766,5.66606383 27.5579255,5.89771277 27.5579255,7.77787234 C27.5579255,10.0673936 27.5579255,10.077766 27.3753723,10.4857447 L27.3760638,10.4857447 L27.3760638,10.4857447 Z M31.9551064,9.22861702 C31.9454255,9.46441489 31.9170745,9.73478723 31.8914894,9.83021277 C31.7407447,10.3875532 31.3403723,10.7830851 30.7615957,10.9455851 C29.9822872,11.1640957 29.1234574,10.8065957 28.7811702,10.1206383 C28.5889362,9.73617021 28.5820213,9.6587234 28.5820213,7.77856383 C28.5820213,6.24553191 28.5875532,6.05675532 28.6366489,5.84792553 C28.7756383,5.25670213 29.12,4.87361702 29.7029255,4.6606383 C29.8716489,4.59909574 30.0479787,4.56728723 30.2243085,4.56382979 C30.8535638,4.55069149 31.4772872,4.88882979 31.7400532,5.43994681 C31.916383,5.8112766 31.9385106,5.97101064 31.9557979,7.01861702 L31.9717021,7.95835106 L29.6642021,7.97425532 L29.6559043,8.60558511 C29.6434574,9.4962234 29.703617,9.77005319 29.9449468,9.9318617 C30.1468617,10.0680851 30.4580319,10.0577128 30.6267553,9.90973404 C30.7857979,9.77074468 30.8300532,9.62069149 30.8459574,9.1843617 L30.8597872,8.8012766 L31.9737766,8.8012766 L31.9551064,9.22861702 Z"></path>
                                </g>
                            </g>
                        </g>
                    </g>
                </g>
                <g id="linux" transform="translate(404.000000, 68.000000)">
                    <g id="illustration_final_02_icon_19" transform="translate(23.000000, 23.000000) rotate(-360.000000) translate(-23.000000, -23.000000) ">
                        <g id="Layer_3" fill-rule="nonzero">
                            <g id="Group">
                                <circle id="Oval" fill="#464354" cx="22.8673077" cy="22.8673077" r="22.5712564"></circle>
                                <circle id="Oval" fill="url(#radialGradient-1)" opacity="0.3" cx="22.8673077" cy="22.8673077" r="22.5712564"></circle>
                                <circle id="Oval" fill="url(#radialGradient-2)" opacity="0.3" cx="22.8673077" cy="22.8673077" r="19.3146923"></circle>
                                <circle id="Oval" fill="#ECD6A4" opacity="0.6" cx="22.8673077" cy="22.8673077" r="15.3557436"></circle>
                                <path d="M29.5709231,31.3277692 C28.9328205,31.6527179 28.0818205,32.3686667 27.7686667,32.6712051 C27.533359,32.8947179 26.5608718,33.0067692 26.0124103,32.726641 C25.3743077,32.4016923 25.7098718,31.8874359 24.7255897,31.8532308 C24.2331538,31.8426154 23.7519231,31.8426154 23.2706923,31.8426154 C22.8454872,31.8532308 22.4196923,31.875641 21.9838718,31.8874359 C20.5065641,31.9204615 20.3614872,32.8717179 19.4102308,32.8386923 C18.7615128,32.8162821 17.9447179,32.3008462 16.534641,32.0101026 C15.5491795,31.809 14.5991026,31.7523846 14.3968205,31.3165641 C14.1957179,30.8801538 14.6427436,30.3877179 14.6769487,29.9625128 C14.7099744,29.391641 14.2517436,28.6196667 14.5873077,28.3289231 C14.8780513,28.0712051 15.4937436,28.2616923 15.8965385,28.0381795 C16.3217436,27.7916667 16.5004359,27.6011795 16.5004359,27.0751282 C16.6573077,27.6129744 16.4898205,28.0487949 16.1424615,28.2616923 C15.9295641,28.3961538 15.5385641,28.4627949 15.2136154,28.4297692 C14.9570769,28.407359 14.7996154,28.4403846 14.7323846,28.5418205 C14.6321282,28.6644872 14.6651538,28.888 14.789,29.1787436 C14.9116667,29.4706667 15.0573333,29.6605641 15.0349231,30.0185385 C15.0231282,30.3765128 14.6209231,30.8011282 14.6875641,31.1036667 C14.7099744,31.2157179 14.8220256,31.3165641 15.1021538,31.3944103 C15.5491795,31.5170769 16.3665641,31.6409231 17.1609487,31.8308205 C18.0449744,32.0549231 18.9620256,32.4583077 19.5328974,32.3792821 C21.2343077,32.1451538 20.260641,30.3204872 19.9923077,29.8840769 C18.5480256,27.6235897 17.5967692,26.1462821 16.836,26.728359 C16.6455128,26.884641 16.6348974,26.3479744 16.6455128,26.1350769 C16.6797179,25.3967179 17.0483077,25.1283846 17.273,24.5575128 C17.6976154,23.4717949 18.0225641,22.2297949 18.6712821,21.5922821 C19.1525128,20.9647949 19.9132821,19.9474872 20.0589487,19.409641 C19.9362821,18.2454872 19.9026667,17.0152821 19.8802564,15.9407692 C19.8578462,14.7884103 20.0365385,13.7805385 21.3351538,13.0763846 C21.6483077,12.9083077 22.0623077,12.8410769 22.4993077,12.8410769 C23.2712821,12.8304615 24.1328974,13.0539744 24.6807692,13.4567692 C25.553,14.1054872 26.1014615,15.4825385 26.0348205,16.4668205 C25.99,17.2387949 26.1238718,18.0337692 26.3703846,18.8611795 C26.6611282,19.8348462 27.1199487,20.5177692 27.8583077,21.300359 C28.7423333,22.241 29.4358718,24.0868974 29.6381538,25.2616667 C29.8168462,26.3585897 29.5709231,27.0415128 29.3356154,27.0745385 C28.977641,27.1311538 28.7541282,28.2611026 27.6347949,28.2162821 C26.9188462,28.1832564 26.8516154,27.7574615 26.6493333,27.3876923 C26.3255641,26.8168205 26.0006154,26.9966923 25.877359,27.6005897 C25.8101282,27.9031282 25.8549487,28.3507436 25.9552051,28.6863077 C26.1568974,29.3910513 26.0896667,30.0515641 25.967,30.8677692 C25.7316923,32.4123077 27.0521282,32.7030513 27.9361538,31.9646923 C28.8095641,31.2375385 28.9994615,31.1254872 30.0963846,30.7451026 C31.7635897,30.1742308 31.2039231,29.6705897 30.3092821,29.368641 C29.5031026,29.1003077 29.4700769,27.7462564 29.7608205,27.4891282 C29.8280513,28.9440256 30.5882308,29.1557436 30.9025641,29.3574359 C32.2784359,30.2096154 30.3871282,30.9137692 29.5709231,31.3277692 Z M27.6908205,25.923359 C27.993359,24.9166667 27.8588974,24.5132821 27.6577949,23.5620256 C27.5009231,22.8460769 26.8404103,21.8724103 26.3261538,21.5704615 C26.4600256,21.6819231 26.7065385,22.0068718 26.9642564,22.4993077 C27.4112821,23.3385128 27.8588974,24.5805128 27.5681538,25.6096154 C27.4561026,26.0124103 27.1877692,26.0684359 27.0078974,26.079641 C26.2253077,26.1686923 26.6841282,25.139 26.3591795,23.7407179 C25.9905897,22.1737692 25.6096154,22.0617179 25.5199744,21.9384615 C25.0611538,19.9020769 24.5581026,20.1031795 24.4124359,19.3424103 C24.2897692,18.6600769 25.0057179,18.1004103 24.0320513,17.9099231 C23.7295128,17.8544872 23.3043077,17.5519487 23.1362308,17.5295385 C22.9681538,17.5071282 22.8785128,16.3995897 23.506,16.3665641 C24.1205128,16.3217436 24.2331538,17.0601026 24.1205128,17.3508462 C23.9418205,17.6415897 24.1323077,17.753641 24.4348462,17.6533846 C24.6807692,17.574359 24.5238974,16.925641 24.5805128,16.836 C24.423641,15.8965385 24.0320513,15.7614872 23.6292564,15.683641 C22.0847179,15.8063077 22.7782564,17.5071282 22.6225641,17.3508462 C22.3984615,17.1155385 21.7491538,17.3284359 21.7491538,17.1827692 C21.7609487,16.309359 21.4690256,15.8063077 21.0668205,15.7951026 C20.6192051,15.7833077 20.4393333,16.4107949 20.4169231,16.7687692 C20.3838974,17.1043333 20.6074103,17.8090769 20.7748974,17.7530513 C20.8869487,17.7188462 21.0774359,17.4953333 20.8763333,17.5065385 C20.7748974,17.5065385 20.6186154,17.2606154 20.5962051,16.9698718 C20.5844103,16.6791282 20.6964615,16.3883846 21.0774359,16.399 C21.5138462,16.4107949 21.5138462,17.2830256 21.4684359,17.3172308 C21.3227692,17.4174872 21.1446667,17.6079744 21.1222564,17.641 C20.9765897,17.8763077 20.6970513,17.9435385 20.5844103,18.0437949 C20.3939231,18.2448974 20.3502821,18.469 20.495359,18.5474359 C21.0096154,18.8381795 20.8415385,19.1737436 21.5580769,19.1961538 C22.0281026,19.2185641 22.3748718,19.1289231 22.6998205,19.0280769 C22.9457436,18.9502308 23.7407179,18.7821538 23.9087949,18.4914103 C23.986641,18.3687436 24.0768718,18.3687436 24.1323077,18.4017692 C24.244359,18.4572051 24.2667692,18.6701026 23.986641,18.7373333 C23.5944615,18.8493846 23.2028718,19.0622821 22.8448974,19.1961538 C22.4987179,19.3418205 22.3860769,19.3978462 22.0611282,19.4538718 C21.3227692,19.5883333 20.7743077,19.1855385 21.2667436,19.6667692 C21.4348205,19.8230513 21.5916923,19.9244872 22.0163077,19.9126923 C22.9569487,19.8796667 23.9972564,18.7497179 24.0981026,19.253359 C24.1199231,19.3648205 23.8061795,19.4992821 23.5602564,19.6219487 C22.6868462,20.0471538 22.0723333,20.8981538 21.5120769,20.6062308 C21.0084359,20.3378974 20.5053846,19.0958974 20.5165897,19.6549744 C20.5272051,20.5171795 19.3860513,21.277359 19.9115128,22.2628205 C19.5653333,22.3518718 18.7921795,23.9966667 18.6813077,24.8476667 C18.6140769,25.3401026 18.7261282,25.9445897 18.6022821,26.2801538 C18.4342051,26.7725897 17.6734359,25.8101282 17.9199487,24.635359 C17.9647692,24.4342564 17.9199487,24.3894359 17.8633333,24.4896923 C17.5619744,25.0381538 17.7294615,25.8101282 17.9753846,26.3473846 C18.075641,26.5826923 18.333359,26.6829487 18.5238462,26.8840513 C18.9160256,27.3316667 20.4593846,28.4734103 20.7277179,28.7535385 C21.0750769,29.0773077 20.9742308,29.8386667 20.2582821,29.9165128 C20.6268718,30.6100513 20.9854359,30.6772821 20.9742308,31.8084103 C21.3994359,31.5843077 21.2319487,31.0924615 21.0520769,30.7781282 C20.9294103,30.5546154 20.7719487,30.454359 20.8061538,30.3977436 C20.8285641,30.3647179 21.0520769,30.1742308 21.1747436,30.3198974 C21.5551282,30.7451026 22.2716667,30.8235385 23.0324359,30.7226923 C23.8044103,30.6330513 24.6324103,30.3647179 25.0133846,29.7490256 C25.1926667,29.4582821 25.3159231,29.3580256 25.3937692,29.4134615 C25.4834103,29.4582821 25.5164359,29.6599744 25.5058205,29.9961282 C25.4940256,30.3541026 25.3489487,30.7232821 25.2481026,31.0252308 C25.1478462,31.3714103 25.113641,31.6067179 25.4492051,31.6185128 C25.5388462,30.9910256 25.7187179,30.3765128 25.762359,29.7490256 C25.8189744,29.0330769 25.3035385,27.712641 25.8637949,27.0521282 C26.0094615,26.8734359 26.1875641,26.8510256 26.4346667,26.8510256 C26.4676923,25.9552051 27.8447436,26.0224359 28.3029744,26.3922051 C28.3059231,26.1916923 27.8701026,26.0012051 27.6908205,25.923359 Z M18.5598205,22.7004103 C18.4807949,22.8460769 18.2796923,22.9581282 18.4359744,22.9805385 C18.4925897,22.9911538 18.6488718,22.8578718 18.7161026,22.7004103 C18.7715385,22.5099231 18.8281538,22.4096667 18.7385128,22.3754615 C18.6382564,22.3424359 18.6606667,22.5435385 18.5598205,22.7004103 Z M21.1222564,16.6354872 C20.9877949,16.6024615 21.0102051,16.8035641 21.0774359,16.7811538 C21.1222564,16.7811538 21.1776923,16.8483846 21.1552821,16.9492308 C21.1328718,17.0836923 21.1446667,17.1727436 21.2449231,17.1727436 C21.2555385,17.1727436 21.2779487,17.1727436 21.2779487,17.1397179 C21.323359,16.859 21.1894872,16.6578974 21.1222564,16.6354872 Z M21.4247949,17.6651795 C21.3127436,17.6757949 21.3351538,17.4192564 21.6931282,17.4416667 C21.4684359,17.4640769 21.5474615,17.6651795 21.4247949,17.6651795 Z M22.3418462,17.4746923 C22.6667949,17.3290256 22.7782564,17.5525385 22.6667949,17.597359 C22.5541538,17.6315641 22.5429487,17.4192564 22.3418462,17.4746923 Z M23.6958974,16.5682564 C23.5502308,16.5800513 23.5944615,16.6461026 23.6616923,16.6685128 C23.7513333,16.6909231 23.8409744,16.8477949 23.8633846,17.0158718 C23.8633846,17.0382821 23.9748462,16.9934615 23.9748462,16.9592564 C23.986641,16.6909231 23.7519231,16.557641 23.6958974,16.5682564 Z M24.3446154,14.1514872 C24.2549744,14.0618462 24.1653333,13.9834103 24.0762821,13.9834103 C23.8521795,14.0058205 23.9642308,14.2411282 23.9306154,14.352 C23.8857949,14.4746667 23.7177179,14.5761026 23.8291795,14.6651538 C23.9306154,14.7441795 23.9972564,14.5424872 24.2095641,14.4640513 C24.2661795,14.441641 24.5227179,14.4746667 24.5793333,14.352 C24.5905385,14.2965641 24.4454615,14.2293333 24.3446154,14.1514872 Z M25.5872051,19.0970769 C25.3743077,18.9626154 25.3294872,18.7391026 25.251641,18.8169487 C25.0163333,19.0746667 25.5423846,19.6119231 25.7658974,19.6561538 C25.900359,19.6785641 26.0012051,19.4998718 25.9675897,19.343 C25.9227692,19.1306923 25.7653077,19.2097179 25.5872051,19.0970769 Z" id="Shape" fill="#EBE8E3"></path>
                            </g>
                        </g>
                    </g>
                </g>
                <g id="CSS3" transform="translate(231.000000, 359.000000)">
                    <g id="illustration_final_02_icon_20">
                        <g id="Layer_3" fill-rule="nonzero">
                            <g id="Group">
                                <circle id="Oval" fill="#464354" cx="17.5313433" cy="17.5313433" r="17.2691045"></circle>
                                <circle id="Oval" fill="url(#radialGradient-5)" opacity="0.3" cx="17.5313433" cy="17.5313433" r="17.2691045"></circle>
                                <circle id="Oval" fill="#D2DBE0" opacity="0.6" cx="17.5313433" cy="17.5313433" r="13.6019403"></circle>
                                <polygon id="Shape" fill="#EBE8E3" points="24.458209 11.2626866 22.3738806 21.7078358 16.0738806 23.8 10.6044776 21.7078358 11.1608209 18.9182836 13.4880597 18.9182836 13.2613433 20.0701493 16.5675373 21.331194 20.3757463 20.0701493 20.9085821 17.413806 11.4429104 17.413806 11.8973881 15.0865672 21.3708955 15.0865672 21.6686567 13.589403 12.2029851 13.589403 12.6652985 11.2621642 24.458209 11.2621642"></polygon>
                            </g>
                        </g>
                    </g>
                </g>
                <g id="database" transform="translate(155.000000, 146.000000)">
                    <g id="illustration_final_02_icon_21">
                        <g id="Layer_3" fill-rule="nonzero">
                            <g id="Group">
                                <circle id="Oval" fill="#464354" cx="24.1213483" cy="24.1213483" r="23.8511461"></circle>
                                <circle id="Oval" fill="url(#radialGradient-6)" opacity="0.3" cx="24.1213483" cy="24.1213483" r="23.8511461"></circle>
                                <circle id="Oval" fill="url(#radialGradient-7)" opacity="0.3" cx="24.1213483" cy="24.1213483" r="18.5840899"></circle>
                                <circle id="Oval" fill="#63ACCD" opacity="0.6" cx="24.1213483" cy="24.1213483" r="14.0429663"></circle>
                                <path d="M33.2898876,28.705618 C33.2898876,29.1106517 33.0622921,29.4897978 32.6917753,29.6661573 L28.9164944,31.5537978 C28.7644045,31.6384719 28.6042247,31.6719101 28.4359551,31.6719101 C28.2676854,31.6719101 28.1075056,31.6379326 27.9554157,31.5537978 L24.1801348,29.6661573 C24.1553258,29.6580674 24.1380674,29.6499775 24.1213483,29.6332584 C24.1046292,29.6499775 24.0873708,29.6580674 24.0625618,29.6661573 L20.2872809,31.5537978 C20.135191,31.6384719 19.9750112,31.6719101 19.8067416,31.6719101 C19.6384719,31.6719101 19.4782921,31.6379326 19.3262022,31.5537978 L15.5509213,29.6661573 C15.1804045,29.4897978 14.952809,29.1106517 14.952809,28.705618 L14.952809,25.2 C14.952809,24.7701573 15.214382,24.3829213 15.6102472,24.2060225 L19.2674157,22.6387416 L19.2674157,19.2674157 C19.2674157,18.837573 19.5289888,18.4503371 19.9248539,18.2734382 L23.7001348,16.6554607 C23.834427,16.5961348 23.9778876,16.5707865 24.1213483,16.5707865 C24.264809,16.5707865 24.4077303,16.5955955 24.5425618,16.6554607 L28.3178427,18.2734382 C28.7137079,18.4503371 28.9752809,18.837573 28.9752809,19.2674157 L28.9752809,22.6387416 L32.6324494,24.2060225 C33.0374831,24.3829213 33.2898876,24.7701573 33.2898876,25.2 L33.2898876,28.705618 Z M23.2109663,25.0398202 L19.8067416,23.5820225 L16.4025169,25.0398202 L19.8067416,26.497618 L23.2109663,25.0398202 Z M23.5820225,28.705618 L23.5820225,26.0596854 L20.3460674,27.4419775 L20.3460674,30.3235955 L23.5820225,28.705618 Z M27.8378427,19.2426067 L24.1213483,17.6494382 L20.4048539,19.2426067 L24.1213483,20.8346966 L27.8378427,19.2426067 Z M27.8966292,22.6387416 L27.8966292,20.396764 L24.6606742,21.7790562 L24.6606742,24.0291236 L27.8966292,22.6387416 Z M31.8401798,25.0398202 L28.4359551,23.5820225 L25.0317303,25.0398202 L28.4359551,26.497618 L31.8401798,25.0398202 Z M32.211236,28.705618 L32.211236,26.0596854 L28.9752809,27.4419775 L28.9752809,30.3235955 L32.211236,28.705618 Z" id="Shape" fill="#EBE8E3"></path>
                            </g>
                        </g>
                    </g>
                </g>
                <g id="QR" transform="translate(104.000000, 44.000000)">
                    <g id="illustration_final_02_icon_23">
                        <g id="Layer_3" fill-rule="nonzero">
                            <g id="Group">
                                <circle id="Oval" fill="#464354" cx="19.9106383" cy="19.9106383" r="19.6978723"></circle>
                                <circle id="Oval" fill="url(#radialGradient-8)" opacity="0.3" cx="19.9106383" cy="19.9106383" r="19.6978723"></circle>
                                <circle id="Oval" fill="url(#radialGradient-9)" opacity="0.3" cx="19.9106383" cy="19.9106383" r="16.3170213"></circle>
                                <circle id="Oval" fill="#DF694B" opacity="0.6" cx="19.9106383" cy="19.9106383" r="13.0429787"></circle>
                                <path d="M19.3302128,19.3302128 L13.5276596,19.3302128 L13.5276596,13.5276596 L19.3302128,13.5276596 L19.3302128,19.3302128 Z M19.3302128,26.293617 L13.5276596,26.293617 L13.5276596,20.4910638 L19.3302128,20.4910638 L19.3302128,26.293617 Z M18.1697872,18.1697872 L18.1697872,14.6880851 L14.6880851,14.6880851 L14.6880851,18.1697872 L18.1697872,18.1697872 Z M18.1697872,25.1242553 L18.1697872,21.6514894 L14.6880851,21.6514894 L14.6880851,25.1242553 L18.1697872,25.1242553 Z M17.0093617,17.0093617 L15.8489362,17.0093617 L15.8489362,15.8489362 L17.0093617,15.8489362 L17.0093617,17.0093617 Z M17.0093617,23.9723404 L15.8489362,23.9723404 L15.8489362,22.8119149 L17.0093617,22.8119149 L17.0093617,23.9723404 Z M26.293617,19.3302128 L20.4910638,19.3302128 L20.4910638,13.5276596 L26.293617,13.5276596 L26.293617,19.3302128 Z M26.293617,23.9723404 L22.8119149,23.9723404 L22.8119149,22.8119149 L21.6514894,22.8119149 L21.6514894,26.293617 L20.4910638,26.293617 L20.4910638,20.4910638 L23.972766,20.4910638 L23.972766,21.6514894 L25.1331915,21.6514894 L25.1331915,20.4910638 L26.293617,20.4910638 L26.293617,23.9723404 Z M25.1331915,18.1697872 L25.1331915,14.6880851 L21.6514894,14.6880851 L21.6514894,18.1697872 L25.1331915,18.1697872 Z M23.9723404,17.0093617 L22.8119149,17.0093617 L22.8119149,15.8489362 L23.9723404,15.8489362 L23.9723404,17.0093617 Z M23.9723404,26.293617 L22.8119149,26.293617 L22.8119149,25.1331915 L23.9723404,25.1331915 L23.9723404,26.293617 Z M26.293617,26.293617 L25.1331915,26.293617 L25.1331915,25.1331915 L26.293617,25.1331915 L26.293617,26.293617 Z" id="Shape" fill="#EBE8E3"></path>
                            </g>
                        </g>
                    </g>
                </g>
                <g id="wifi" transform="translate(533.000000, 48.000000)">
                    <g id="illustration_final_02_icon_06">
                        <g id="Layer_3" fill-rule="nonzero">
                            <g id="Group">
                                <circle id="Oval" fill="#464354" cx="24.9494048" cy="24.9494048" r="24.6511905"></circle>
                                <circle id="Oval" fill="url(#radialGradient-4)" opacity="0.3" cx="24.9494048" cy="24.9494048" r="24.6511905"></circle>
                                <circle id="Oval" fill="url(#radialGradient-5)" opacity="0.3" cx="24.9494048" cy="24.9494048" r="19.677381"></circle>
                                <circle id="Oval" fill="#D2DBE0" opacity="0.6" cx="24.9494048" cy="24.9494048" r="15.4988095"></circle>
                                <path d="M24.9482143,25.9714286 C26.6386905,25.9714286 28.172619,26.6595238 29.2833333,27.7696429 L27.8380952,29.214881 C27.0982143,28.475 26.0755952,28.0160714 24.9482143,28.0160714 C23.8208333,28.0160714 22.7982143,28.475 22.0583333,29.214881 L20.6130952,27.7696429 C21.7232143,26.6595238 23.2565476,25.9714286 24.9482143,25.9714286 Z M17.7202381,24.8767857 C19.6511905,22.9458333 22.2178571,21.8827381 24.9482143,21.8827381 C27.6785714,21.8827381 30.2452381,22.9458333 32.1761905,24.8767857 L30.7309524,26.3220238 C29.1863095,24.777381 27.1327381,23.9267857 24.9482143,23.9267857 C22.7636905,23.9267857 20.710119,24.777381 19.1654762,26.3220238 L17.7202381,24.8767857 Z M30.5196429,18.9190476 C32.2238095,19.639881 33.7541667,20.6720238 35.0684524,21.9857143 L35.0684524,21.9857143 L33.6232143,23.4309524 C31.3059524,21.1142857 28.2255952,19.8380952 24.9494048,19.8380952 C21.6732143,19.8380952 18.5922619,21.1136905 16.2755952,23.4309524 L14.8303571,21.9857143 C16.1440476,20.6720238 17.675,19.639881 19.3791667,18.9190476 C21.1446429,18.172619 23.0184524,17.7934524 24.9505952,17.7934524 C26.8827381,17.7934524 28.7565476,18.1714286 30.5220238,18.9190476 L30.5196429,18.9190476 Z M23.9261905,31.0827381 C23.9261905,30.5184524 24.3839286,30.0607143 24.9482143,30.0607143 C25.5125,30.0607143 25.9702381,30.5184524 25.9702381,31.0827381 C25.9702381,31.6470238 25.5125,32.1047619 24.9482143,32.1047619 C24.3839286,32.1047619 23.9261905,31.6470238 23.9261905,31.0827381 Z" id="Shape" fill="#EBE8E3"></path>
                            </g>
                        </g>
                    </g>
                </g>
                <g id="user" transform="translate(481.000000, 178.000000)">
                    <g id="illustration_final_02_icon_07">
                        <g id="Layer_3" fill-rule="nonzero">
                            <g id="Group">
                                <circle id="Oval" fill="#464354" cx="19.9106383" cy="19.9106383" r="19.6978723"></circle>
                                <circle id="Oval" fill="url(#radialGradient-8)" opacity="0.3" cx="19.9106383" cy="19.9106383" r="19.6978723"></circle>
                                <circle id="Oval" fill="url(#radialGradient-9)" opacity="0.3" cx="19.9106383" cy="19.9106383" r="16.3170213"></circle>
                                <circle id="Oval" fill="#DF694B" opacity="0.6" cx="19.9106383" cy="19.9106383" r="13.0429787"></circle>
                                <path d="M24.0268085,27.1446809 L15.7944681,27.1446809 C14.2970213,27.1446809 13.2795745,26.2314894 13.2795745,24.7055319 C13.2795745,22.5765957 13.7787234,19.3080851 16.5387234,19.3080851 C16.8310638,19.3080851 18.0646809,20.6174468 19.9110638,20.6174468 C21.7574468,20.6174468 22.9910638,19.3080851 23.2834043,19.3080851 C26.0429787,19.3080851 26.5425532,22.5770213 26.5425532,24.7055319 C26.5417021,26.2314894 25.5242553,27.1446809 24.0268085,27.1446809 Z M19.9106383,19.9106383 C17.9140426,19.9106383 16.293617,18.2902128 16.293617,16.293617 C16.293617,14.2970213 17.9140426,12.6765957 19.9106383,12.6765957 C21.907234,12.6765957 23.5276596,14.2970213 23.5276596,16.293617 C23.5276596,18.2902128 21.907234,19.9106383 19.9106383,19.9106383 Z" id="Shape" fill="#EBE8E3"></path>
                            </g>
                        </g>
                    </g>
                </g>
                <g id="google" transform="translate(281.000000, 91.000000)">
                    <g id="illustration_final_02_icon_08">
                        <g id="Layer_3" fill-rule="nonzero">
                            <g id="Group">
                                <circle id="Oval" fill="#464354" cx="30.6542135" cy="30.6542135" r="30.3108315"></circle>
                                <circle id="Oval" fill="url(#radialGradient-6)" opacity="0.3" cx="30.6542135" cy="30.6542135" r="30.3108315"></circle>
                                <circle id="Oval" fill="url(#radialGradient-7)" opacity="0.3" cx="30.6542135" cy="30.6542135" r="23.6172809"></circle>
                                <circle id="Oval" fill="#63ACCD" opacity="0.6" cx="30.6542135" cy="30.6542135" r="17.8462697"></circle>
                                <path d="M30.6542135,19.0025281 C24.2183708,19.0025281 19.0025281,24.2183708 19.0025281,30.6542135 C19.0025281,37.0900562 24.2183708,42.3058989 30.6542135,42.3058989 C37.0900562,42.3058989 42.3058989,37.0900562 42.3058989,30.6542135 C42.3058989,24.2183708 37.0900562,19.0025281 30.6542135,19.0025281 Z M30.827618,39.3929775 C25.9976517,39.3929775 22.0888539,35.4841798 22.0888539,30.6542135 C22.0888539,25.8242472 25.9976517,21.9154494 30.827618,21.9154494 C33.1853708,21.9154494 35.1606742,22.7763034 36.6808764,24.2005506 L34.3101011,26.4856517 C33.6589775,25.8619438 32.5260225,25.1381685 30.827618,25.1381685 C27.8420449,25.1381685 25.4109551,27.6096966 25.4109551,30.6535281 C25.4109551,33.6973596 27.8461573,36.1688876 30.827618,36.1688876 C34.2867978,36.1688876 35.5842472,33.6843371 35.7836966,32.3999101 L30.827618,32.3999101 L30.827618,29.405427 L39.0797528,29.405427 C39.1524045,29.8427079 39.2168315,30.2793034 39.2168315,30.8529775 C39.2209438,35.8460674 35.8755393,39.3922921 30.8289888,39.3922921 L30.827618,39.3922921 L30.827618,39.3929775 Z" id="Shape" fill="#EBE8E3"></path>
                            </g>
                        </g>
                    </g>
                </g>
            </g>
        </g>
    </g>
</svg>