<?xml version="1.0" encoding="utf-8"?>
<!-- Generator: Adobe Illustrator 21.0.2, SVG Export Plug-In . SVG Version: 6.00 Build 0)  -->
<svg version="1.1" id="Layer_1" xmlns="http://www.w3.org/2000/svg" xmlns:xlink="http://www.w3.org/1999/xlink" x="0px" y="0px"
	 viewBox="0 0 201.594 201.594" style="enable-background:new 0 0 201.594 201.594;" xml:space="preserve">
<style type="text/css">
	.st0{fill:#464354;}
	.st1{fill:#F3CBC1;}
	.st2{fill:#BADFD8;}
	.st3{fill:#BEE0D0;}
	.st4{fill:#D2DBE0;}
	.st5{fill:#EBE8E3;}
	.st6{fill:#211D1A;}
	.st7{fill:#DF694B;}
	.st8{fill:#8D8C94;}
	.st9{fill:#C3BBBB;}
	.st10{fill:#432229;}
	.st11{fill:#5B2C32;}
	.st12{fill:#9A5C37;}
	.st13{fill:#BD7346;}
	.st14{fill:#DD8D46;}
	.st15{fill:none;stroke:#BD7346;stroke-width:26;stroke-linecap:round;stroke-miterlimit:10;}
	.st16{fill:none;}
	.st17{fill:none;stroke:#C3BBBB;stroke-width:0.75;stroke-miterlimit:10;}
	.st18{fill:#F4E9D1;}
	.st19{fill:#ECD6A4;}
	.st20{fill:#17C6B3;}
	.st21{fill:none;stroke:#9A5C37;stroke-width:6;stroke-linecap:round;stroke-miterlimit:10;}
	.st22{fill:none;stroke:#DD8D44;stroke-width:20;stroke-linecap:round;stroke-miterlimit:10;}
	.st23{fill:#DD8D44;}
	.st24{fill:none;stroke:#9A5C37;stroke-width:26;stroke-linecap:round;stroke-miterlimit:10;}
	.st25{fill:none;stroke:#9A5C37;stroke-width:36;stroke-miterlimit:10;}
	.st26{fill:#FFFFFF;}
</style>
<rect x="-25.358" y="-25.358" class="st0" width="252.311" height="252.311"/>
<g>
	<path class="st12" d="M75.937,161.692c-2.605-10.516-3.265-17.854,0.697-26.505c4.078-8.904,12.981-18.787,26.981-32.848
		l4.761,4.74c-15.497,15.564-22.444,23.94-25.634,30.905c-3.176,6.936-2.622,12.65-0.283,22.092L75.937,161.692z"/>
</g>
<g>
	<path class="st12" d="M136.054,161.692l-6.521-1.615c2.339-9.442,2.893-15.156-0.284-22.092
		c-3.19-6.965-10.137-15.341-25.634-30.905l4.761-4.74c14,14.061,22.903,23.943,26.981,32.848
		C139.319,143.837,138.659,151.176,136.054,161.692z"/>
</g>
<g>
	<path class="st12" d="M105.996,138.211c-7.528,0-14.619-2.465-20.509-7.13c-5.711-4.523-9.82-10.887-11.57-17.919l6.52-1.623
		c1.394,5.599,4.669,10.669,9.222,14.275c4.69,3.715,10.34,5.678,16.337,5.678s11.647-1.963,16.337-5.678
		c4.553-3.606,7.828-8.676,9.222-14.275l6.52,1.623c-1.75,7.032-5.859,13.396-11.57,17.919
		C120.615,135.745,113.523,138.211,105.996,138.211z"/>
</g>
<g>
	<rect x="79.198" y="148.371" class="st12" width="53.727" height="12.512"/>
</g>
<g>
	<rect x="68.11" y="159.195" class="st13" width="76.203" height="11.278"/>
</g>
<g>
	<rect x="68.11" y="161.695" class="st13" width="76.203" height="8.778"/>
</g>
<g>
	
		<rect x="18.783" y="93.08" transform="matrix(0.9271 -0.3748 0.3748 0.9271 -32.7013 28.1556)" class="st12" width="74.489" height="10.122"/>
</g>
<g>
	
		<rect x="19.212" y="106.22" transform="matrix(-0.9271 0.3748 -0.3748 -0.9271 81.4952 209.2402)" class="st13" width="2.372" height="12.652"/>
</g>
<g>
	
		<ellipse transform="matrix(0.5255 -0.8508 0.8508 0.5255 -39.1721 140.0679)" class="st13" cx="105.996" cy="105.155" rx="6.532" ry="6.532"/>
</g>
<g>
	
		<rect x="35.995" y="72.298" transform="matrix(0.9271 -0.3748 0.3748 0.9271 -23.359 42.4946)" class="st12" width="123.128" height="17.994"/>
</g>
<g>
	
		<rect x="80.2" y="75.033" transform="matrix(0.3748 0.9271 -0.9271 0.3748 135.1286 -38.6185)" class="st13" width="31.997" height="11.703"/>
</g>
<g>
	
		<rect x="74.343" y="63.442" transform="matrix(0.9271 -0.3748 0.3748 0.9271 -18.2479 39.1908)" class="st12" width="34.556" height="6.124"/>
</g>
<g>
	
		<rect x="106.453" y="56.153" transform="matrix(0.9271 -0.3748 0.3748 0.9271 -14.6526 44.7227)" class="st13" width="2.372" height="7.749"/>
</g>
<g>
	
		<rect x="73.317" y="69.55" transform="matrix(-0.9271 0.3748 -0.3748 -0.9271 171.0969 113.5706)" class="st13" width="2.372" height="7.749"/>
</g>
<g>
	
		<rect x="152.36" y="48.582" transform="matrix(0.9271 -0.3748 0.3748 0.9271 -10.8093 61.8331)" class="st13" width="2.372" height="20.243"/>
</g>
<g>
	
		<rect x="40.384" y="93.761" transform="matrix(0.9271 -0.3748 0.3748 0.9271 -35.9076 23.1554)" class="st13" width="2.372" height="20.243"/>
</g>
</svg>
