<svg xmlns="http://www.w3.org/2000/svg" width="306" height="350" viewBox="0 0 306 350">
  <g fill="none" fill-rule="evenodd" transform="translate(0 -4)">
    <path fill="#ECD6A4" fill-rule="nonzero" d="M128.531157,128.287788 C123.918932,124.519992 119.494127,122.302037 118.568699,123.279209 L135.430688,137.053774 C136.20177,135.95064 133.143382,132.055584 128.531157,128.287788 Z"/>
    <ellipse cx="108.718" cy="211.966" fill="#ECD6A4" fill-rule="nonzero" rx="6.503" ry="28.646" transform="rotate(-49.112 108.718 211.966)"/>
    <rect width="245.61" height="50.931" x="61.273" y="99.018" fill="#DD8D46" fill-rule="nonzero" transform="rotate(-49.177 184.078 124.484)"/>
    <rect width="245.61" height="24.952" x="71.093" y="120.497" fill="#BD7346" fill-rule="nonzero" transform="rotate(-49.177 193.899 132.973)"/>
    <g transform="translate(168 223)">
      <g fill-rule="nonzero">
        <circle cx="64.996" cy="66.004" r="61.973" fill="#EBE8E3"/>
        <path fill="#9A5C37" d="M65.5,0 C29.3830823,0 0,29.3830823 0,65.5 C0,101.616918 29.3830823,131 65.5,131 C101.616918,131 131,101.616918 131,65.5 C131,29.3830823 101.61628,0 65.5,0 Z M65.5,126.742589 C31.7313831,126.742589 4.25741076,99.2686169 4.25741076,65.5 C4.25741076,31.7313831 31.7313831,4.25741076 65.5,4.25741076 C99.2686169,4.25741076 126.742589,31.7313831 126.742589,65.5 C126.742589,99.2686169 99.2686169,126.742589 65.5,126.742589 Z"/>
        <path fill="#BD7346" d="M64.9961538,4.03076923 C30.8247525,4.03076923 3.02307692,31.8324448 3.02307692,66.0038462 C3.02307692,100.175247 30.8247525,127.976923 64.9961538,127.976923 C99.1675552,127.976923 126.969231,100.175247 126.969231,66.0038462 C126.969231,31.8324448 99.1675552,4.03076923 64.9961538,4.03076923 Z M64.9961538,123.668731 C33.2010634,123.668731 7.33126911,97.7989366 7.33126911,66.0038462 C7.33126911,34.2087557 33.2010634,8.33896142 64.9961538,8.33896142 C96.7912443,8.33896142 122.661039,34.2087557 122.661039,66.0038462 C122.661039,97.7989366 96.7912443,123.668731 64.9961538,123.668731 Z"/>
      </g>
      <g transform="translate(7 8)">
        <circle cx="57.657" cy="57.657" r="57.657" fill="#432229" fill-rule="nonzero"/>
        <circle cx="57.133" cy="58.181" r="53.988" fill="#EBE8E3" fill-rule="nonzero"/>
        <path fill="#D2DBE0" fill-rule="nonzero" d="M112.168693,58.1809575 C112.168693,87.9977513 87.763082,112.168693 57.6568047,112.168693 L57.6568047,4.19322216 C87.763082,4.19322216 112.168693,28.3641637 112.168693,58.1809575 Z"/>
        <g fill="#432229" fill-rule="nonzero" transform="translate(24.111 56.608)">
          <polygon points="66.613 .944 40.2 .195 40.2 .944 40.2 1.692"/>
          <polygon points=".175 .944 26.588 .195 26.588 .944 26.588 1.692"/>
        </g>
        <g fill="#432229" fill-rule="nonzero" transform="translate(33.546 34.594)">
          <polygon points="46.43 .305 28.533 19.202 28.006 18.672 27.477 18.141"/>
          <polygon points=".085 46.504 19.037 28.668 18.51 28.138 17.982 27.607"/>
        </g>
        <g fill="#432229" fill-rule="nonzero" transform="translate(33.546 34.594)">
          <polygon points="46.43 46.504 28.533 27.607 28.006 28.138 27.477 28.668"/>
          <polygon points=".085 .305 19.037 18.141 18.51 18.672 17.982 19.202"/>
        </g>
        <g stroke="#C3BBBB" stroke-width=".75" transform="translate(24.111 24.111)">
          <path d="M45.5493851.581518228L21.2353692 66.5271195M21.2353692.581518228L45.5493851 66.5271195M66.3263433 21.3825295L.459062164 45.7254563M66.3263433 45.7254563L.459062164 21.3825295"/>
        </g>
        <circle cx="57.133" cy="58.181" r="35.118" stroke="#C3BBBB" stroke-width=".75"/>
        <g fill="#8D8C94" fill-rule="nonzero" transform="translate(7.338 8.386)">
          <path d="M8.34650907 46.6768079C8.21110424 46.6573487 8.07505154 46.6268626 7.94029459 46.584701 7.80488976 46.543188 7.66235836 46.4932427 7.51399613 46.4348651L7.51399613 46.1540038 9.68112125 46.1540038 9.68112125 46.4348651C9.46214119 46.5315125 9.22955586 46.6125925 8.98466101 46.6768079L7.36887326 52.9335927 6.76894565 53.0496993 5.21081832 47.7807938 3.68249302 52.9335927 3.09293133 53.0496993 1.37996308 46.6761593C1.25168482 46.6437273 1.1247023 46.6087007 1.00290274 46.5697823.879807445 46.5308638.761247237 46.485459.644630639 46.4342164L.644630639 46.1533552 3.15966194 46.1533552 3.15966194 46.4342164C3.03786238 46.4796213 2.9121756 46.5230802 2.7826016 46.5645931 2.65302761 46.6067548 2.5150313 46.6437273 2.36666907 46.6761593L3.32357304 50.5790282 3.53737014 51.8386878 3.55615837 51.8386878 3.89499437 50.559569 5.2004524 46.1527065 5.52892249 46.1527065 6.93156101 50.559569 7.21208872 51.8192286 7.23087695 51.8192286 7.45374422 50.5401098 8.34650907 46.6768079zM97.3100724 46.2084896C97.3035937 46.4666485 97.291932 46.7267532 97.2757353 46.9881553 97.2595385 47.2495573 97.2349194 47.5129053 97.2031738 47.7775506L96.9518003 47.7775506 96.5553038 46.7118345 94.446487 46.7118345 94.446487 49.2785044 96.0234026 49.2785044 96.4004629 48.5617568 96.6421184 48.5617568C96.6809906 49.2006675 96.6809906 49.8531997 96.6421184 50.5180561L96.4004629 50.5180561 96.0234026 49.7818493 94.446487 49.7818493 94.446487 52.4840849 96.6712726 52.4840849 97.1455134 51.3217214 97.3871689 51.3217214C97.4318719 51.5935017 97.4649133 51.867228 97.4837015 52.144846 97.5037855 52.4224641 97.506377 52.7033254 97.4934196 52.9874298L92.7244486 52.9874298 92.7244486 52.7065686C92.9505552 52.6034348 93.2148862 52.5255979 93.5180893 52.4743553L93.5180893 46.7306451C93.3885153 46.7053481 93.2563498 46.6709702 93.1215929 46.6288085 92.9855402 46.5866469 92.8533747 46.5399448 92.7250965 46.4880536L92.7250965 46.2071923 97.3100724 46.2071923 97.3100724 46.2084896zM48.899931 97.2934573C48.9776754 97.3712942 49.0774474 97.4374555 49.199247 97.4919413 49.3223423 97.5470757 49.5063373 97.5743186 49.7512322 97.5743186 49.9579027 97.5743186 50.150968 97.5470757 50.3323716 97.4919413 50.5131273 97.4368068 50.6686161 97.3557268 50.8007816 97.2499984 50.9329471 97.1429727 51.037902 97.0132447 51.1156464 96.8621115 51.1933908 96.7109783 51.2316151 96.5377913 51.2316151 96.3438478 51.2316151 96.085689 51.152575 95.8690431 50.9944947 95.6952075 50.8364144 95.5213719 50.639462 95.3663468 50.4042852 95.230781 50.1691083 95.0945665 49.9131997 94.9622439 49.6352635 94.8338131 49.358623 94.704085 49.1014186 94.5510059 48.8662418 94.3732785 48.631065 94.1961997 48.4347604 93.982797 48.2766801 93.7337191 48.117952 93.4859385 48.0395597 93.1739425 48.0395597 92.7990284 48.0395597 92.5285453 48.0875021 92.2866025 48.1840347 92.0725512 48.2812152 91.8597971 48.4185636 91.6788265 48.5947843 91.5302878 48.7723006 91.3817492 48.9841541 91.2675885 49.2284011 91.1858598 49.4739438 91.1054284 49.7479929 91.0645641 50.051196 91.0645641 50.4444531 91.0645641 50.8040209 91.0956988 51.1292517 91.1573196 51.4551303 91.2189405 51.7110389 91.2941828 51.8982733 91.3843438 51.8982733 91.493964 51.8904989 91.6217461 51.87495 91.7676902 51.8587533 91.912337 51.8393172 92.0628216 51.8166417 92.2178466 51.7939663 92.3728716 51.770643 92.5227076 51.7447282 92.668003 51.7181655 92.8139471 51.6928986 92.9410806 51.6669838 93.0513494L51.4149623 93.0513494 51.0288318 91.7242313C50.9115674 91.6723401 50.7632051 91.6334217 50.5850409 91.6081247 50.4055809 91.5828277 50.215755 91.5692063 50.0136195 91.5692063 49.6819101 91.5692063 49.4149877 91.6606645 49.2135001 91.845527 49.0113647 92.0290923 48.910297 92.2866025 48.910297 92.6154631 48.910297 92.8801084 48.9893371 93.102592 49.149361 93.2835627 49.3080891 93.465182 49.5076331 93.6260448 49.747345 93.768097 49.9870569 93.9107979 50.245557 94.0483097 50.5209018 94.1806323 50.7968944 94.3129549 51.0547466 94.466034 51.2944585 94.6405183 51.5341704 94.8150025 51.7337144 95.0219188 51.8937383 95.2599698 52.0524664 95.4993181 52.1315065 95.7963954 52.1315065 96.1512017 52.1315065 96.4424412 52.0783812 96.7070864 51.9721305 96.9457861 51.8665277 97.1851344 51.7123347 97.3881588 51.5127907 97.5561566 51.3125989 97.7248031 51.067704 97.8532339 50.7781061 97.9440436 50.4872125 98.0335559 50.1580946 98.0789608 49.7907523 98.0789608 49.3845378 98.0789608 49.019787 98.0309614 48.6977956 97.934314 48.3758042 97.8370179 48.1458104 97.7338841 48.0110534 97.6242639 48.0175321 97.5146437 48.0291938 97.382321 48.0447427 97.227296 48.0609394 97.072271 48.0797276 96.9120568 48.1024031 96.7479508 48.1250785 96.5831961 48.1496976 96.4236306 48.1749645 96.2686056 48.2002314 96.1135805 48.2267941 95.9819065 48.2527089 95.8716377L48.5040825 95.8716377 48.899931 97.2934573zM51.2406853.201727148L53.3307139.201727148 53.3307139.482588417C53.0592564.663559074 52.7949254.792638503 52.5370732.869826704L52.5370732 7.0980713 51.9850879 7.0980713 48.4736326 1.76105854 48.0965723 1.00604118 48.0674181 1.00604118 48.1542327 1.76105854 48.1542327 6.36186451C48.4185636 6.43321495 48.6673457 6.54607837 48.899931 6.70110341L48.899931 6.98196468 46.8099025 6.98196468 46.8099025 6.70110341C46.9258712 6.63040161 47.0496143 6.5674835 47.1824277 6.51234907 47.3145932 6.45721464 47.455181 6.40726934 47.6035432 6.36186451L47.6035432.812097713C47.4739692.760855126 47.3463388.705720696 47.220652.647343065 47.0949652.588965434 46.9770529.531236443 46.8675629.472858812L46.8675629.201727148 48.5027867.201727148 51.5503672 4.80253312 51.9954538 5.63538732 52.034326 5.63538732 51.9850879 4.80253312 51.9850879.869826704C51.8496831.811449073 51.7194612.75047688 51.5937745.685612846 51.4680877.621397451 51.3501753.553290215 51.2406853.481939777L51.2406853.201727148 51.2406853.201727148z"/>
        </g>
        <path fill="#5B2C32" fill-rule="nonzero" d="M59.9522572,62.4345168 C59.6107849,60.6704174 59.4490349,58.8973891 59.3778117,57.132652 C59.4497006,55.3685526 59.6114506,53.5955243 59.9522572,51.8307871 C60.2937295,50.0577588 60.7610073,48.2936594 61.1557306,46.5206311 C61.9458429,42.9835035 62.1169118,39.4463758 61.3800506,35.9086103 C61.0119528,34.135582 60.4368416,32.3714827 59.9695638,30.5984544 C59.4843137,28.8254261 59.1701326,27.0613267 58.9637849,25.2882984 C58.496507,21.7511707 58.1190903,18.2134052 58.110437,14.6762776 L57.2124914,14.6762776 C57.1945192,18.2134052 56.8264214,21.7511707 56.3591435,25.2882984 C56.1434768,27.0613267 55.8292957,28.8254261 55.3440457,30.5984544 C54.8767678,32.3714827 54.3109756,34.135582 53.9335588,35.9086103 C53.1966976,39.445738 53.3677666,42.9835035 54.1578788,46.5206311 C54.5532678,48.2936594 55.01988,50.0577588 55.3613523,51.8307871 C55.7114778,53.5948865 55.8645745,55.3679148 55.9451167,57.132652 C55.8639089,58.8967513 55.7114778,60.6697796 55.3613523,62.4345168 C55.01988,64.2075451 54.5532678,65.9716445 54.1578788,67.7446728 C53.3677666,71.2818005 53.1966976,74.8195659 53.9335588,78.3566936 C54.3109756,80.1297219 54.8767678,81.8938213 55.3440457,83.6668496 C55.8286301,85.4398779 56.1434768,87.2039772 56.3591435,88.9770055 C56.8264214,92.5141332 57.1945192,96.0518987 57.2124914,99.5890264 L58.110437,99.5890264 C58.1197559,96.0518987 58.4971726,92.5141332 58.9637849,88.9770055 C59.1701326,87.2039772 59.4843137,85.4398779 59.9695638,83.6668496 C60.4368416,81.8938213 61.0112872,80.1297219 61.3800506,78.3566936 C62.1162462,74.8195659 61.9458429,71.2818005 61.1557306,67.7446728 C60.7603417,65.9722823 60.2937295,64.2075451 59.9522572,62.4345168 Z"/>
        <path fill="#432229" fill-rule="nonzero" d="M61.155455,46.5206311 C61.9458809,42.9835035 62.1170178,39.4463758 61.379864,35.9086103 C61.0116201,34.135582 60.4362806,32.3714827 59.9688172,30.5984544 C59.4833745,28.8254261 59.1690687,27.0613267 58.962639,25.2882984 C58.4951756,21.7511707 58.1176091,18.2134052 58.1089523,14.6762776 L57.6568047,14.6762776 L57.6568047,99.5890264 L58.1089523,99.5890264 C58.118275,96.0518987 58.4958415,92.5141332 58.962639,88.9770055 C59.1690687,87.2039772 59.4833745,85.4398779 59.9688172,83.6668496 C60.4362806,81.8938213 61.0109542,80.1297219 61.379864,78.3566936 C62.1163519,74.8195659 61.9458809,71.2818005 61.155455,67.7446728 C60.7599091,65.9716445 60.2931116,64.2075451 59.9515038,62.4345168 C59.6098959,60.6704174 59.4480817,58.8973891 59.3768302,57.132652 C59.4487476,55.3685526 59.6105618,53.5955243 59.9515038,51.8307871 C60.2931116,50.0577588 60.7599091,48.2936594 61.155455,46.5206311 Z"/>
        <g fill-rule="nonzero" transform="translate(54.512 71.285)">
          <rect width="4.289" height="4.294" x=".929" y="1.336" fill="#EBE8E3" transform="rotate(45 3.073 3.483)"/>
          <polygon fill="#D2DBE0" points="3.073 6.523 3.073 .45 6.106 3.486"/>
        </g>
        <path fill="#BD7346" fill-rule="nonzero" d="M63.4114536,55.5285028 C63.7562922,56.3439908 63.946638,57.2396588 63.946638,58.1809575 C63.946638,61.9441969 60.8958913,64.9949435 57.132652,64.9949435 C53.3694126,64.9949435 50.3186659,61.9441969 50.3186659,58.1809575 C50.3186659,54.4177181 53.3694126,51.3669715 57.132652,51.3669715 C59.9552445,51.3669715 62.3769376,53.0826905 63.4114536,55.5285028"/>
        <circle cx="57.133" cy="58.181" r="4.717" fill="#F4E9D1" fill-rule="nonzero"/>
        <circle cx="57.133" cy="58.181" r="3.669" fill="#DD8D46" fill-rule="nonzero"/>
      </g>
    </g>
    <g fill="#BD7346" fill-rule="nonzero" transform="translate(159 163)">
      <path d="M15,127.25964 C15,80.6480337 38.7258851,37.6479825 78.0156784,13.9212655 C81.5614306,11.7800208 82.700009,7.16979895 80.5587643,3.62404673 C78.4175197,0.078294499 73.8072978,-1.06028385 70.2615456,1.0809608 C26.4271214,27.5521354 0,75.4478227 0,127.25964 C0,131.401775 3.35786438,134.75964 7.5,134.75964 C11.6421356,134.75964 15,131.401775 15,127.25964 Z"/>
      <path d="M80,128.25964 C80,81.6480337 103.725885,38.6479825 143.015678,14.9212655 C146.561431,12.7800208 147.700009,8.16979895 145.558764,4.62404673 C143.41752,1.0782945 138.807298,-0.0602838528 135.261546,2.0809608 C91.4271214,28.5521354 65,76.4478227 65,128.25964 C65,132.401775 68.3578644,135.75964 72.5,135.75964 C76.6421356,135.75964 80,132.401775 80,128.25964 Z" transform="matrix(-1 0 0 1 211.64 0)"/>
      <path d="M119.704192,26.6386713 C110.216975,42.5092736 92.7706027,52.5 73.5,52.5 C54.2293973,52.5 36.7830251,42.5092736 27.2958078,26.6386713 C24.8871125,22.6093079 19.6680347,21.2954968 15.6386713,23.7041922 C11.6093079,26.1128875 10.2954968,31.3319653 12.7041922,35.3613287 C25.2470546,56.3435383 48.221613,69.5 73.5,69.5 C98.778387,69.5 121.752945,56.3435383 134.295808,35.3613287 C136.704503,31.3319653 135.390692,26.1128875 131.361329,23.7041922 C127.331965,21.2954968 122.112888,22.6093079 119.704192,26.6386713 Z"/>
    </g>
    <g fill-rule="nonzero" transform="translate(5 87)">
      <rect width="123.6" height="17.508" x="126.736" y="52.143" fill="#DD8D46" transform="rotate(40.823 188.536 60.897)"/>
      <rect width="123.6" height="17.508" x="137.907" y="39.196" fill="#9A5C37" transform="rotate(40.823 199.707 47.95)"/>
      <rect width="108.498" height="29.444" x="143.912" y="42.932" fill="#BD7346" transform="rotate(40.823 198.161 57.654)"/>
      <rect width="136.92" height="25.466" x="-14.031" y="169.204" fill="#DD8D46" transform="rotate(-49.177 54.43 181.937)"/>
    </g>
    <polygon fill="#BD7346" fill-rule="nonzero" points="113.822 225.39 22.821 330.807 15.173 321.504 104.683 217.763"/>
    <g fill-rule="nonzero" transform="rotate(130.818 -58.893 170.517)">
      <rect width="6" height="26" x=".692" y="3.678" fill="#9A5C37"/>
      <rect width="5.962" height="31.833" x="3.871" y=".493" fill="#DD8D46"/>
      <rect width="1.59" height="31.833" x="8.243" y=".493" fill="#ECD6A4"/>
    </g>
    <rect width="34.576" height="2.785" x="143.638" y="107.01" fill="#9A5C37" fill-rule="nonzero" transform="rotate(-49.177 160.926 108.402)"/>
    <path fill="#9A5C37" fill-rule="nonzero" d="M171.513308,64.1755161 L169.449091,66.5681284 C170.232495,68.3134044 172.798012,71.1773971 176.219568,73.973215 L176.294147,74.0342477 C176.437468,74.1511188 176.580141,74.2614972 176.722814,74.3751219 C176.845383,74.4725145 176.9686,74.5725043 177.090521,74.6672998 C177.23903,74.7828724 177.385594,74.8932507 177.533455,75.0049276 C177.662509,75.1029695 177.792212,75.2036086 177.920617,75.2990533 C178.055508,75.3996924 178.188453,75.4944879 178.322696,75.5912312 C178.460829,75.6918703 178.600259,75.7944572 178.737095,75.8918498 C178.860313,75.9788539 178.980288,76.0606637 179.102208,76.1444214 C179.246827,76.2444112 179.392742,76.3469981 179.534767,76.4430921 C179.643717,76.5164613 179.750073,76.5839868 179.857726,76.6554081 C180.009478,76.7553979 180.162527,76.8573355 180.311037,76.952131 C180.407017,77.0131637 180.499105,77.0683528 180.59314,77.1267884 C180.749432,77.2241811 180.906372,77.3228723 181.059421,77.4144213 C181.144376,77.4650655 181.22544,77.5105154 181.309098,77.5592117 C181.466687,77.6514101 181.624924,77.744907 181.777973,77.8299632 C181.848661,77.8695696 181.915458,77.9033324 181.985498,77.9416401 C182.145032,78.0286442 182.305863,78.1162976 182.459561,78.194861 C182.523115,78.2273252 182.58213,78.2539458 182.644387,78.2851115 C182.798733,78.361727 182.953728,78.4396411 183.10094,78.5071667 C183.158658,78.5337873 183.211187,78.5545644 183.268256,78.5798865 C183.414172,78.6448149 183.560087,78.7103926 183.698221,78.7655818 C183.752047,78.7876575 183.800686,78.8032403 183.853864,78.8233681 C183.987457,78.8746615 184.1217,78.9266043 184.246863,78.9681585 C184.297447,78.9850399 184.342194,78.9954284 184.391481,79.010362 C184.407045,79.0149069 184.421313,79.0188026 184.437526,79.0233476 L186.251417,76.9209653 L171.513308,64.1755161 Z"/>
    <g fill-rule="nonzero" transform="translate(219 156)">
      <ellipse cx="13.911" cy="13.927" fill="#9A5C37" rx="13.911" ry="13.927"/>
      <ellipse cx="14.128" cy="14.142" fill="#BD7346" rx="11.128" ry="11.142"/>
      <path fill="#9A5C37" d="M14.7847325,5.68836319 L8.26454557,19.8965639 C7.5976416,21.3498206 8.23510646,23.0685505 9.68836319,23.7354544 C11.1416199,24.4023584 12.8603497,23.7648935 13.5272537,22.3116368 L20.0474406,8.1034361 C20.7143446,6.65017938 20.0768797,4.93144954 18.623623,4.26454557 C17.1703663,3.5976416 15.4516364,4.23510646 14.7847325,5.68836319 Z"/>
    </g>
    <path fill="#9A5C37" fill-rule="nonzero" d="M245.118248,14.781219 L239.140254,21.7097309 C241.586445,26.3618524 248.107893,33.4948888 256.630652,40.4565142 L256.8278,40.6175367 C265.350559,47.5518922 273.614562,52.4741159 278.606816,53.8830626 L283.616579,48.0765138 L245.118248,14.781219 Z"/>
    <g fill-rule="nonzero" transform="translate(241.304 .244)">
      <path fill="#17C6B3" d="M7.43779673,5.15077172 L0.612844878,13.5252396 C0.529186689,13.6278265 0.457201735,13.7401527 0.401429608,13.8654645 C-1.04799717,17.0859143 6.93195651,27.0894362 18.7731572,36.7624726 C30.6143579,46.4355089 42.0035449,52.2556926 44.8641362,50.1883717 C44.9750319,50.1085097 45.0710119,50.0156621 45.15467,49.9130752 L51.9796219,41.5386073 L7.43779673,5.15077172 Z"/>
      <path fill="#BD7346" d="M29.905533,23.5053873 L18.9703052,36.9228458 C30.7401694,46.4984894 42.0204062,52.2427069 44.8641362,50.1877224 C44.9750319,50.1078604 45.0710119,50.0150128 45.15467,49.9124259 L51.9796219,41.537958 L29.905533,23.5053873 Z"/>
      <path fill="#DD8D46" d="M7.43779673,5.15077172 L0.612844878,13.5252396 C0.529186689,13.6278265 0.457201735,13.7401527 0.401429608,13.8654645 C-1.04799717,17.0859143 6.93195651,27.0894362 18.7731572,36.7624726 L18.9703052,36.923495 L29.905533,23.5060366 L7.43779673,5.15077172 Z"/>
      <g transform="translate(2.393)">
        <ellipse cx="27.245" cy="23.43" fill="#ECD6A4" rx="6.503" ry="28.778" transform="rotate(-50.787 27.245 23.43)"/>
        <ellipse cx="27.796" cy="22.752" fill="#BADFD8" rx="4.833" ry="24.703" transform="rotate(-50.787 27.796 22.752)"/>
        <path fill="#9A5C37" d="M8.68057145,7.1349843 C8.51649764,7.33626241 8.43478499,7.59792395 8.43478499,7.91996892 C11.3414207,7.31029104 20.3538072,12.3974329 29.8882468,20.1868957 C39.4233349,27.9763585 46.209376,35.7950391 46.1957572,38.7681115 C46.5109346,38.7038324 46.7508844,38.5707291 46.9149582,38.369451 C48.6036863,36.2975851 41.4129731,27.6296407 30.8532343,19.0026013 C20.2934955,10.3755618 10.3692996,5.06311835 8.68057145,7.1349843 Z"/>
      </g>
    </g>
    <path fill="#9A5C37" fill-rule="nonzero" d="M94.056849,209.292487 L87.8505787,216.532656 C90.3343838,219.179787 93.321425,222.438915 96.514055,225.206164 C100.235872,228.432458 103.920733,230.882486 107.304026,233.156279 L113.193174,226.331004 L94.056849,209.292487 Z"/>
    <path fill="#DD8D46" fill-rule="nonzero" d="M130.346345,230.709127 L126.44943,235.2236 C124.09857,237.943452 112.507047,231.752527 100.55949,221.397742 C88.6171211,211.043607 80.8382065,200.441445 83.1890665,197.722242 L87.0859817,193.207769 C84.7351217,195.927621 92.5140363,206.523939 104.456405,216.878724 C116.403962,227.238054 127.995485,233.428979 130.346345,230.709127 Z"/>
    <path fill="#BD7346" fill-rule="nonzero" d="M130.348291,230.710426 L126.451375,235.224899 C124.119971,237.924623 112.681497,231.847322 100.827974,221.62694 L104.768988,217.146878 C116.608244,227.347783 128.017534,233.405605 130.348291,230.710426 Z"/>
    <path fill="#ECD6A4" fill-rule="nonzero" d="M130.348291 230.710426C127.992242 233.425083 116.405907 227.234158 104.458351 216.880023 92.5107938 206.525887 84.7325277 195.928919 87.0833877 193.209068L89.478995 195.286128C91.5976873 199.929159 97.8850218 207.32191 106.24695 214.600386 114.741823 221.997681 123.054464 227.249092 127.899505 228.589214L130.348291 230.710426zM130.348291 230.710426L87.0833877 193.209068"/>
    <g fill-rule="nonzero" transform="translate(115 58)">
      <rect width="80.678" height="19.497" x="-2.833" y="33.371" fill="#DD8D46" transform="rotate(-49.177 37.505 43.12)"/>
      <g transform="translate(55.616 .03)">
        <path fill="#17C6B3" d="M3.00780375,1.89785778 L0.422182027,5.07090976 C0.390404886,5.10986681 0.363167335,5.15207029 0.341766403,5.19946804 C-0.207524192,6.41947309 2.81649239,10.2099944 7.30225749,13.8745545 C11.7886711,17.5397639 16.1038773,19.7447331 17.1875427,18.9610471 C17.229696,18.9305307 17.2660127,18.8954694 17.2977899,18.8565123 L19.8834116,15.6834603 L3.00780375,1.89785778 Z"/>
        <path fill="#BD7346" d="M11.5201867,8.85169178 L7.3768365,13.9355872 C11.8360126,17.5637874 16.1103624,19.7401881 17.1875427,18.9616964 C17.229696,18.93118 17.2660127,18.8961187 17.2977899,18.8571616 L19.8834116,15.6841096 L11.5201867,8.85169178 Z"/>
        <path fill="#DD8D46" d="M3.00780375,1.89785778 L0.422182027,5.07090976 C0.390404886,5.10986681 0.363167335,5.15207029 0.341766403,5.19946804 C-0.207524192,6.41947309 2.81649239,10.2099944 7.30225749,13.8745545 L7.3768365,13.9355872 L11.5201867,8.85169178 L3.00780375,1.89785778 Z"/>
        <g transform="translate(1.297)">
          <ellipse cx="10.121" cy="8.823" fill="#ECD6A4" rx="2.464" ry="10.903" transform="rotate(-50.787 10.121 8.823)"/>
          <path fill="#DD8D46" d="M17.574705,14.4835831 C18.2147874,13.6985985 15.4903839,10.4145189 11.4890581,7.14602213 C7.48838075,3.87752536 3.72765329,1.864095 3.08821938,2.64907962 C3.05190264,2.69388023 3.02920468,2.74906939 3.01428888,2.80945282 C3.00974929,2.8269835 3.00910078,2.84711131 3.00650673,2.86658983 C3.00261565,2.89321049 2.995482,2.917234 2.995482,2.94645179 C2.99807606,2.94580251 3.00196713,2.94645179 3.0052097,2.94580251 C2.98964539,4.06581779 5.55516321,7.03044954 9.17451481,9.98664059 C12.7938664,12.9434809 16.2089364,14.8653622 17.301681,14.6251271 C17.301681,14.6277242 17.302978,14.6316199 17.302978,14.6348663 C17.3321611,14.6290228 17.353562,14.6166864 17.3795025,14.6075964 C17.3976609,14.6011035 17.4171163,14.5965586 17.4333291,14.5887671 C17.4891013,14.5614972 17.5383882,14.5283837 17.574705,14.4835831 Z"/>
        </g>
      </g>
      <g transform="translate(.492 64.96)">
        <path fill="#BD7346" d="M10.7153819,8.3322644 L7.43909376,12.351983 C11.8982698,15.9801832 16.1726197,18.1565839 17.2497999,17.3780922 C17.2919533,17.3475758 17.32827,17.3125144 17.3600471,17.2735574 L19.9456689,14.1005054 C19.9456689,14.1011547 12.8677969,11.9981231 10.7153819,8.3322644 Z"/>
        <path fill="#DD8D46" d="M3.0694125,0.314253563 L0.483790772,3.48730555 C0.45201363,3.5262626 0.42477608,3.56846607 0.403375148,3.61586382 C-0.145915447,4.83586887 2.87810113,8.62639015 7.36386624,12.2909503 L7.43844524,12.351983 L10.7147334,8.3322644 C7.56620232,7.09213154 3.0694125,0.314253563 3.0694125,0.314253563 Z"/>
        <path fill="#ECD6A4" d="M19.9385352,14.0966097 C19.9288075,14.106349 19.9288075,14.1212825 19.9190798,14.1310218 C19.0598,15.189355 14.5850596,12.9590638 9.92289893,9.15166109 C5.26527785,5.34425842 2.1835436,1.4031032 3.04282346,0.344769921 C3.05255116,0.335030658 3.06746696,0.329836384 3.07719465,0.320097121 L4.2179292,1.25441711 C5.19588695,3.02956017 7.56166273,5.6701991 10.6284812,8.26149242 C14.110348,11.1988542 17.5085566,13.2356588 19.3256903,13.5966609 C19.3308785,13.5966609 19.3308785,13.5966609 19.3308785,13.5966609 L19.9385352,14.0966097 Z"/>
      </g>
    </g>
  </g>
</svg>
