<svg xmlns="http://www.w3.org/2000/svg" width="57" height="52" viewBox="0 0 57 52">
  <path fill="#AF6455" d="M166.510739,188.949951 C166.510739,191.767859 165.345229,194.002949 162.856995,196.158767 L161.345421,197.468403 L163.964692,200.49155 L165.476265,199.181915 C168.791252,196.309793 170.510739,193.012346 170.510739,188.949951 L170.510739,186.949951 L166.510739,186.949951 L166.510739,188.949951 Z M154.794403,201.144569 C153.381992,201.857838 147.357555,204.767124 145.81812,205.537736 L144.029681,206.432994 L145.820198,210.009871 L147.608637,209.114613 C149.111783,208.362166 155.144745,205.448764 156.597529,204.715106 L158.382798,203.813543 L156.579672,200.243006 L154.794403,201.144569 Z M136.918027,210.443704 L138.61782,209.389804 L140.725621,212.789388 L139.025828,213.843289 C136.161597,215.619161 133.562142,217.485767 131.163611,219.526045 L129.640211,220.821904 L127.048492,217.775103 L128.571892,216.479244 C131.13064,214.302681 133.891199,212.32039 136.918027,210.443704 Z M114.139999,238.008303 L118.742751,217.150099 L131.322809,225.319685 L114.139999,238.008303 Z" transform="translate(-114 -186)"/>
</svg>
