<svg xmlns="http://www.w3.org/2000/svg" width="78" height="73" viewBox="0 0 78 73">
    <path fill="#AF6455" fill-rule="nonzero" d="M2.796 4.986c3.804 0 6.274.185 9.506.9l1.952.433.865-3.906-1.953-.432c-3.57-.79-6.3-.995-10.37-.995h-2v4h2zM21.35 9.002c2.7 1.244 5.523 2.807 8.49 4.724l1.68 1.086 2.17-3.36-1.679-1.085c-3.122-2.018-6.111-3.673-8.987-4.998l-1.817-.836-1.673 3.633 1.816.836zm16.442 10.459a144.003 144.003 0 0 1 7.505 6.398l1.48 1.347 2.692-2.958-1.479-1.347a147.99 147.99 0 0 0-7.715-6.576l-1.568-1.242-2.483 3.136 1.568 1.242zm14.602 13.258a118.393 118.393 0 0 1 6.563 7.323l1.268 1.546 3.093-2.536-1.268-1.547a122.38 122.38 0 0 0-6.784-7.571l-1.393-1.436-2.871 2.785 1.392 1.436zm19.74 20.726c-.941-2.295-2.27-4.854-4.05-7.666l-1.07-1.69-3.38 2.14 1.07 1.69c1.653 2.612 2.872 4.957 3.722 7.025l-5.18 2.092L77.693 72.77l-.539-21.353-5.02 2.028z"/>
</svg>
