<svg xmlns="http://www.w3.org/2000/svg" width="23" height="23" viewBox="0 0 23 23">
  <path fill="#DE694B" d="M16.4902681,27.6391731 L16.4902681,42.6391731 L31.4902681,42.6391731 L31.4902681,27.6391731 L16.4902681,27.6391731 Z M13.9902681,27.1299682 C13.9902681,26.0304824 14.8884804,25.1391731 15.9810632,25.1391731 L31.9994729,25.1391731 C33.0989587,25.1391731 33.9902681,26.0373855 33.9902681,27.1299682 L33.9902681,43.148378 C33.9902681,44.2478638 33.0920557,45.1391731 31.9994729,45.1391731 L15.9810632,45.1391731 C14.8815774,45.1391731 13.9902681,44.2409607 13.9902681,43.148378 L13.9902681,27.1299682 Z M30.2902681,32.3903989 C30.2902681,32.1891076 30.2198172,32.0180125 30.0789132,31.8771086 L29.0523326,30.8505279 C28.9114287,30.709624 28.7403336,30.6391731 28.5390423,30.6391731 C28.3377509,30.6391731 28.1666559,30.709624 28.0257519,30.8505279 L23.07401,35.8098183 L20.8547842,33.5830441 C20.7138803,33.4421401 20.5427852,33.3716892 20.3414939,33.3716892 C20.1402025,33.3716892 19.9691075,33.4421401 19.8282036,33.5830441 L18.8016229,34.6096247 C18.660719,34.7505286 18.5902681,34.9216237 18.5902681,35.122915 C18.5902681,35.3242064 18.660719,35.4953014 18.8016229,35.6362054 L22.5607197,39.3953021 C22.7016236,39.5362061 22.8727187,39.606657 23.07401,39.606657 C23.2753013,39.606657 23.4463964,39.5362061 23.5873003,39.3953021 L30.0789132,32.9036892 C30.2198172,32.7627853 30.2902681,32.5916902 30.2902681,32.3903989 Z" transform="rotate(-8 -149.593 111.69)"/>
</svg>
