<svg xmlns="http://www.w3.org/2000/svg" width="18" height="14" viewBox="0 0 18 14">
  <path fill="#BD7346" fill-rule="evenodd" d="M28.6495536,131.174107 C28.6495536,131.471728 28.5453879,131.724701 28.3370536,131.933036 L18.7388393,141.53125 C18.5305049,141.739584 18.2775312,141.84375 17.9799107,141.84375 C17.6822902,141.84375 17.4293165,141.739584 17.2209821,141.53125 L11.6629464,135.973214 C11.4546121,135.76488 11.3504464,135.511906 11.3504464,135.214286 C11.3504464,134.916665 11.4546121,134.663692 11.6629464,134.455357 L13.1808036,132.9375 C13.3891379,132.729166 13.6421116,132.625 13.9397321,132.625 C14.2373527,132.625 14.4903263,132.729166 14.6986607,132.9375 L17.9799107,136.229911 L25.3013393,128.897321 C25.5096737,128.688987 25.7626473,128.584821 26.0602679,128.584821 C26.3578884,128.584821 26.6108621,128.688987 26.8191964,128.897321 L28.3370536,130.415179 C28.5453879,130.623513 28.6495536,130.876487 28.6495536,131.174107 Z" transform="translate(-11 -128)"/>
</svg>
