<svg xmlns="http://www.w3.org/2000/svg" width="288" height="69" viewBox="0 0 288 69">
  <path fill="#343244" fill-rule="evenodd" d="M21.0345731,32.6238831 L21.0345731,0.983258136 L28.6986356,0.983258136 L32.0736356,22.0770081 L35.7123075,0.983258136 L43.1126981,0.983258136 L43.1126981,32.6238831 L38.4017606,32.6238831 L38.2611356,10.3699769 C37.9095713,12.6551446 37.2943431,16.3640918 36.4154325,21.49693 C35.5365218,26.6297682 34.9212936,30.3387155 34.5697293,32.6238831 L29.7884793,32.6238831 L25.9037137,10.2293519 L25.7630887,32.6238831 L21.0345731,32.6238831 Z M49.7396512,30.5672425 C49.7396512,29.0320786 49.4291074,26.7967494 48.8080106,23.8611878 C48.1869137,20.9256263 47.4662178,17.911008 46.6459012,14.8172425 C45.8255846,11.723477 45.3802766,10.0125567 45.3099637,9.68443001 L50.7064481,9.68443001 L52.8334012,22.481305 L54.6966825,9.68443001 L60.1283231,9.68443001 L55.1185575,33.2391175 C54.9427753,34.0359965 54.6732468,34.7303255 54.3099637,35.3221253 C53.9466806,35.9139252 53.5335988,36.3826705 53.0707059,36.7283753 C52.6078129,37.0740802 52.0511779,37.3523977 51.400784,37.5633363 C50.7503901,37.7742748 50.1058653,37.9148984 49.4671903,37.9852113 C48.8285152,38.0555241 48.0990303,38.09068 47.2787137,38.09068 L46.5228543,38.09068 L46.5228543,33.9949769 C47.6947352,33.9715393 48.5238285,33.6932217 49.010159,33.1600159 C49.4964896,32.6268102 49.7396512,31.762561 49.7396512,30.5672425 Z M69.5853543,24.7488831 L69.5853543,13.6395081 L67.8978543,13.6395081 L67.8978543,9.68443001 L69.5853543,9.68443001 L69.5853543,2.14341439 L75.5091825,2.14341439 L75.5091825,9.68443001 L78.3568387,9.68443001 L78.3568387,13.6395081 L75.5091825,13.6395081 L75.5091825,26.1727113 C75.5091825,26.8055269 75.6263688,27.2772019 75.860745,27.5877503 C76.0951211,27.8982988 76.5111326,28.0535706 77.1087918,28.0535706 C77.7884827,28.0535706 78.3626957,28.0184147 78.8314481,27.9481019 L78.8314481,32.5359925 C78.0580067,32.7703687 76.8099723,32.887555 75.0873075,32.887555 C74.3958977,32.887555 73.7718805,32.8055246 73.2152371,32.6414613 C72.6585937,32.4773979 72.1898484,32.2576736 71.8089871,31.9822816 C71.4281259,31.7068896 71.1000041,31.3582602 70.8246121,30.9363831 C70.5492201,30.514506 70.3324254,30.0838463 70.1742215,29.6443909 C70.0160176,29.2049356 69.892972,28.6922454 69.8050809,28.106305 C69.7171898,27.5203646 69.6585967,26.9754482 69.6292996,26.4715394 C69.6000026,25.9676306 69.5853543,25.3934176 69.5853543,24.7488831 Z M86.5658231,18.543805 L88.8685575,18.543805 L88.8685575,15.3797425 C88.8685575,14.2195805 88.4759833,13.6395081 87.6908231,13.6395081 C86.9408193,13.6395081 86.5658231,14.2195805 86.5658231,15.3797425 L86.5658231,18.543805 Z M80.641995,26.6648988 L80.641995,16.9090394 C80.641995,14.4715272 81.2220673,12.570179 82.3822293,11.2049378 C83.5423914,9.83969662 85.3119049,9.15708626 87.6908231,9.15708626 C90.08146,9.15708626 91.8539032,9.83676696 93.0082059,11.1961488 C94.1625085,12.5555306 94.7396512,14.4598084 94.7396512,16.9090394 L94.7396512,21.6551331 L86.5658231,21.6551331 L86.5658231,26.7352113 C86.5658231,28.0242802 86.9408193,28.668805 87.6908231,28.668805 C88.5111397,28.668805 88.9212918,27.9774057 88.9212918,26.5945863 L88.9212918,24.0809144 L94.7396512,24.0809144 L94.7396512,26.6648988 C94.7396512,28.5750646 94.0482519,30.1307131 92.6654325,31.3318909 C91.282613,32.5330688 89.6244265,33.1336488 87.6908231,33.1336488 C85.7572197,33.1336488 84.0990331,32.5301392 82.7162137,31.3231019 C81.3333943,30.1160646 80.641995,28.5633458 80.641995,26.6648988 Z M97.1654325,26.7527894 L97.1654325,16.9090394 C97.1654325,14.4715272 97.7455048,12.570179 98.9056668,11.2049378 C100.065829,9.83969662 101.835342,9.15708626 104.214261,9.15708626 C106.604898,9.15708626 108.377341,9.83676696 109.531643,11.1961488 C110.685946,12.5555306 111.263089,14.4598084 111.263089,16.9090394 L111.263089,18.9129456 L105.444729,18.9129456 L105.444729,16.293805 C105.444729,15.3797379 105.365629,14.7088462 105.207425,14.2811097 C105.049221,13.8533732 104.718169,13.6395081 104.214261,13.6395081 C103.464257,13.6395081 103.089261,14.2195805 103.089261,15.3797425 L103.089261,26.7352113 C103.089261,28.0242802 103.464257,28.668805 104.214261,28.668805 C104.495512,28.668805 104.721096,28.6102118 104.891018,28.4930238 C105.060941,28.3758357 105.183987,28.1766189 105.260159,27.8953675 C105.336331,27.6141161 105.386135,27.3240799 105.409573,27.0252503 C105.433011,26.7264207 105.444729,26.3074796 105.444729,25.7684144 L105.444729,23.325055 L111.263089,23.325055 L111.263089,26.7527894 C111.263089,28.0184207 110.934967,29.1463391 110.278714,30.1365784 C109.62246,31.1268178 108.761141,31.8738806 107.694729,32.3777894 C106.628318,32.8816982 105.468173,33.1336488 104.214261,33.1336488 C102.280657,33.1336488 100.622471,32.5447875 99.2396512,31.3670472 C97.8568318,30.1893069 97.1654325,28.6512364 97.1654325,26.7527894 Z M113.759182,32.6238831 L113.759182,0.983258136 L119.683011,0.983258136 L119.683011,11.3191956 C120.257232,10.6746612 120.939843,10.153182 121.730862,9.75474251 C122.521882,9.35630302 123.339256,9.15708626 124.183011,9.15708626 C124.991608,9.15708626 125.715234,9.41489618 126.353909,9.93052376 C126.992584,10.4461513 127.467189,11.0789575 127.777737,11.8289613 C128.088286,12.578965 128.243557,13.3523948 128.243557,14.1492738 L128.243557,32.6238831 L122.319729,32.6238831 L122.319729,15.6961488 C122.319729,15.6492735 122.322659,15.5467355 122.328518,15.3885316 C122.334378,15.2303277 122.334378,15.1014227 122.328518,15.0018128 C122.322659,14.902203 122.3168,14.773298 122.31094,14.6150941 C122.305081,14.4568902 122.284573,14.3309149 122.249417,14.2371644 C122.21426,14.1434139 122.167386,14.0438055 122.108792,13.9383363 C122.050198,13.832867 121.971097,13.7566959 121.871487,13.7098206 C121.771877,13.6629454 121.651761,13.6395081 121.511136,13.6395081 C121.276759,13.6395081 121.024809,13.7332572 120.755276,13.9207581 C120.485744,14.1082591 120.292386,14.2664606 120.175198,14.3953675 C120.05801,14.5242744 119.893949,14.7117725 119.683011,14.9578675 L119.683011,32.6238831 L113.759182,32.6238831 Z M138.649807,39.1453675 L138.649807,9.68443001 L144.573636,9.68443001 L144.573636,11.231305 C145.054107,10.6102082 145.62539,10.1092366 146.287503,9.72837532 C146.949615,9.34751404 147.649804,9.15708626 148.388089,9.15708626 C149.735752,9.15708626 150.8666,9.71372132 151.780667,10.8270081 C152.694734,11.940295 153.151761,13.2234852 153.151761,14.6766175 L153.151761,28.2293519 C153.151761,29.5418584 152.712312,30.6873548 151.833401,31.6658753 C150.954491,32.6443958 149.864658,33.1336488 148.56387,33.1336488 C147.77871,33.1336488 147.034577,32.934432 146.331448,32.5359925 C145.62832,32.137553 145.042388,31.5926366 144.573636,30.9012269 L144.573636,39.1453675 L138.649807,39.1453675 Z M147.227932,27.0164613 L147.227932,15.1512269 C147.227932,14.1434093 146.899811,13.6395081 146.243557,13.6395081 C145.798243,13.6395081 145.241608,14.0789569 144.573636,14.9578675 L144.573636,27.40318 C145.183014,28.2469342 145.739649,28.668805 146.243557,28.668805 C146.524809,28.668805 146.744533,28.5750559 146.902737,28.387555 C147.060941,28.2000541 147.15469,28.003767 147.183987,27.7986878 C147.213284,27.5936087 147.227932,27.3328691 147.227932,27.0164613 Z M156.192776,32.6238831 L156.192776,9.68443001 L162.081448,9.68443001 L162.081448,11.5477113 C162.983796,10.0828602 164.038473,9.35044564 165.245511,9.35044564 C165.585356,9.35044564 166.118554,9.4090388 166.84512,9.52622689 L166.84512,14.5184144 C165.755271,14.4012263 164.9877,14.3426331 164.542386,14.3426331 C163.733788,14.3426331 163.121489,14.5916541 162.705472,15.0897034 C162.289454,15.5877528 162.081448,16.2996598 162.081448,17.2254456 L162.081448,32.6238831 L156.192776,32.6238831 Z M176.952542,26.7352113 L176.952542,15.3797425 C176.952542,14.2195805 176.501374,13.6395081 175.599026,13.6395081 C174.790428,13.6395081 174.386136,14.2195805 174.386136,15.3797425 L174.386136,26.7352113 C174.386136,26.993025 174.394925,27.2068901 174.412503,27.3768128 C174.430081,27.5467355 174.474026,27.7459523 174.544339,27.9744691 C174.614652,28.2029858 174.737697,28.3758357 174.913479,28.4930238 C175.089261,28.6102118 175.317775,28.668805 175.599026,28.668805 C176.501374,28.668805 176.952542,28.0242802 176.952542,26.7352113 Z M168.462307,26.6648988 L168.462307,16.9090394 C168.462307,14.4598084 169.03945,12.5584602 170.193753,11.2049378 C171.348055,9.85141543 173.149795,9.17466439 175.599026,9.17466439 C178.048257,9.17466439 179.864645,9.85141543 181.048245,11.2049378 C182.231845,12.5584602 182.823636,14.4598084 182.823636,16.9090394 L182.823636,26.6648988 C182.823636,28.5750646 182.114658,30.1307131 180.696682,31.3318909 C179.278707,32.5330688 177.579505,33.1336488 175.599026,33.1336488 C174.321676,33.1336488 173.143953,32.8729092 172.065823,32.3514222 C170.987693,31.8299352 170.117584,31.0682241 169.455472,30.0662659 C168.793359,29.0643078 168.462307,27.9305301 168.462307,26.6648988 Z M186.708401,7.68052376 L186.708401,2.14341439 L192.597073,2.14341439 L192.597073,7.68052376 L186.708401,7.68052376 Z M183.825589,37.6160706 L183.825589,33.3270081 C184.481842,33.5145091 184.997462,33.6082581 185.372464,33.6082581 C186.263093,33.6082581 186.708401,32.957874 186.708401,31.6570863 L186.708401,9.68443001 L192.597073,9.68443001 L192.597073,32.1668519 C192.597073,34.0067048 192.113679,35.453956 191.146878,36.5086488 C190.180076,37.5633415 188.788488,38.09068 186.972073,38.09068 C186.093162,38.09068 185.044345,37.9324785 183.825589,37.6160706 Z M201.544339,18.543805 L203.847073,18.543805 L203.847073,15.3797425 C203.847073,14.2195805 203.454499,13.6395081 202.669339,13.6395081 C201.919335,13.6395081 201.544339,14.2195805 201.544339,15.3797425 L201.544339,18.543805 Z M195.620511,26.6648988 L195.620511,16.9090394 C195.620511,14.4715272 196.200583,12.570179 197.360745,11.2049378 C198.520907,9.83969662 200.290421,9.15708626 202.669339,9.15708626 C205.059976,9.15708626 206.832419,9.83676696 207.986722,11.1961488 C209.141024,12.5555306 209.718167,14.4598084 209.718167,16.9090394 L209.718167,21.6551331 L201.544339,21.6551331 L201.544339,26.7352113 C201.544339,28.0242802 201.919335,28.668805 202.669339,28.668805 C203.489655,28.668805 203.899807,27.9774057 203.899807,26.5945863 L203.899807,24.0809144 L209.718167,24.0809144 L209.718167,26.6648988 C209.718167,28.5750646 209.026767,30.1307131 207.643948,31.3318909 C206.261129,32.5330688 204.602942,33.1336488 202.669339,33.1336488 C200.735735,33.1336488 199.077549,32.5301392 197.694729,31.3231019 C196.31191,30.1160646 195.620511,28.5633458 195.620511,26.6648988 Z M212.143948,26.7527894 L212.143948,16.9090394 C212.143948,14.4715272 212.72402,12.570179 213.884182,11.2049378 C215.044345,9.83969662 216.813858,9.15708626 219.192776,9.15708626 C221.583413,9.15708626 223.355856,9.83676696 224.510159,11.1961488 C225.664462,12.5555306 226.241604,14.4598084 226.241604,16.9090394 L226.241604,18.9129456 L220.423245,18.9129456 L220.423245,16.293805 C220.423245,15.3797379 220.344144,14.7088462 220.18594,14.2811097 C220.027736,13.8533732 219.696685,13.6395081 219.192776,13.6395081 C218.442772,13.6395081 218.067776,14.2195805 218.067776,15.3797425 L218.067776,26.7352113 C218.067776,28.0242802 218.442772,28.668805 219.192776,28.668805 C219.474028,28.668805 219.699611,28.6102118 219.869534,28.4930238 C220.039457,28.3758357 220.162502,28.1766189 220.238675,27.8953675 C220.314847,27.6141161 220.364651,27.3240799 220.388089,27.0252503 C220.411526,26.7264207 220.423245,26.3074796 220.423245,25.7684144 L220.423245,23.325055 L226.241604,23.325055 L226.241604,26.7527894 C226.241604,28.0184207 225.913483,29.1463391 225.257229,30.1365784 C224.600976,31.1268178 223.739657,31.8738806 222.673245,32.3777894 C221.606833,32.8816982 220.446689,33.1336488 219.192776,33.1336488 C217.259173,33.1336488 215.600986,32.5447875 214.218167,31.3670472 C212.835347,30.1893069 212.143948,28.6512364 212.143948,26.7527894 Z M229.141995,24.7488831 L229.141995,13.6395081 L227.454495,13.6395081 L227.454495,9.68443001 L229.141995,9.68443001 L229.141995,2.14341439 L235.065823,2.14341439 L235.065823,9.68443001 L237.913479,9.68443001 L237.913479,13.6395081 L235.065823,13.6395081 L235.065823,26.1727113 C235.065823,26.8055269 235.183009,27.2772019 235.417386,27.5877503 C235.651762,27.8982988 236.067773,28.0535706 236.665432,28.0535706 C237.345123,28.0535706 237.919336,28.0184147 238.388089,27.9481019 L238.388089,32.5359925 C237.614647,32.7703687 236.366613,32.887555 234.643948,32.887555 C233.952538,32.887555 233.328521,32.8055246 232.771878,32.6414613 C232.215234,32.4773979 231.746489,32.2576736 231.365628,31.9822816 C230.984766,31.7068896 230.656645,31.3582602 230.381253,30.9363831 C230.105861,30.514506 229.889066,30.0838463 229.730862,29.6443909 C229.572658,29.2049356 229.449613,28.6922454 229.361722,28.106305 C229.27383,27.5203646 229.215237,26.9754482 229.18594,26.4715394 C229.156643,25.9676306 229.141995,25.3934176 229.141995,24.7488831 Z M247.704495,39.1453675 L247.704495,9.68443001 L253.628323,9.68443001 L253.628323,11.231305 C254.108794,10.6102082 254.680078,10.1092366 255.34219,9.72837532 C256.004303,9.34751404 256.704491,9.15708626 257.442776,9.15708626 C258.790439,9.15708626 259.921287,9.71372132 260.835354,10.8270081 C261.749421,11.940295 262.206448,13.2234852 262.206448,14.6766175 L262.206448,28.2293519 C262.206448,29.5418584 261.766999,30.6873548 260.888089,31.6658753 C260.009178,32.6443958 258.919345,33.1336488 257.618557,33.1336488 C256.833397,33.1336488 256.089264,32.934432 255.386136,32.5359925 C254.683007,32.137553 254.097075,31.5926366 253.628323,30.9012269 L253.628323,39.1453675 L247.704495,39.1453675 Z M256.28262,27.0164613 L256.28262,15.1512269 C256.28262,14.1434093 255.954498,13.6395081 255.298245,13.6395081 C254.85293,13.6395081 254.296295,14.0789569 253.628323,14.9578675 L253.628323,27.40318 C254.237701,28.2469342 254.794336,28.668805 255.298245,28.668805 C255.579496,28.668805 255.799221,28.5750559 255.957425,28.387555 C256.115629,28.2000541 256.209378,28.003767 256.238675,27.7986878 C256.267972,27.5936087 256.28262,27.3328691 256.28262,27.0164613 Z M265.28262,32.6238831 L265.28262,0.983258136 L271.206448,0.983258136 L271.206448,32.6238831 L265.28262,32.6238831 Z M282.597073,27.4383363 L282.597073,21.7957581 C280.651751,23.3660785 279.679104,25.0887175 279.679104,26.9637269 C279.679104,27.4324792 279.769924,27.8338424 279.951565,28.1678284 C280.133207,28.5018145 280.440821,28.668805 280.874417,28.668805 C281.120512,28.668805 281.363673,28.5897042 281.603909,28.4315003 C281.844145,28.2732964 282.016994,28.1356025 282.122464,28.0184144 C282.227933,27.9012263 282.386135,27.7078689 282.597073,27.4383363 Z M283.792386,32.6238831 L283.212307,30.2508363 C282.872462,31.3172478 282.315827,32.0643107 281.542386,32.4920472 C280.768944,32.9197837 279.808016,33.1336488 278.659573,33.1336488 C277.815819,33.1336488 277.077545,32.9695879 276.444729,32.6414613 C275.811914,32.3133346 275.316801,31.8709562 274.959378,31.3143128 C274.601954,30.7576694 274.338285,30.1600191 274.168362,29.5213441 C273.998439,28.882669 273.913479,28.2117773 273.913479,27.5086488 C273.913479,26.7117698 273.99551,25.9734959 274.159573,25.293805 C274.323636,24.6141141 274.531642,24.0135342 274.783597,23.4920472 C275.035551,22.9705602 275.38711,22.4695887 275.838284,21.9891175 C276.289458,21.5086464 276.728907,21.1014239 277.156643,20.7674378 C277.58438,20.4334518 278.132226,20.0877521 278.800198,19.7303284 C279.46817,19.3729048 280.06582,19.0740796 280.593167,18.8338441 C281.120513,18.5936085 281.782616,18.3094317 282.579495,17.981305 L282.579495,16.0477113 C282.579495,15.2391135 282.479887,14.6356039 282.280667,14.2371644 C282.081447,13.8387249 281.741607,13.6395081 281.261136,13.6395081 C280.933009,13.6395081 280.66641,13.7068903 280.461331,13.8416566 C280.256252,13.9764229 280.112698,14.1785693 280.030667,14.4481019 C279.948635,14.7176345 279.895901,14.9607961 279.872464,15.1775941 C279.849026,15.394392 279.837307,15.6844282 279.837307,16.0477113 L279.837307,17.3484925 L274.089261,17.3484925 C274.089261,14.7117606 274.751363,12.6873668 276.075589,11.2752503 C277.399814,9.86313389 279.32167,9.15708626 281.841214,9.15708626 C283.599035,9.15708626 285.140035,9.79575175 286.464261,11.0731019 C287.788486,12.350452 288.450589,13.868015 288.450589,15.6258363 L288.450589,26.5242738 C288.450589,28.4110019 288.702539,30.4441847 289.206448,32.6238831 L283.792386,32.6238831 Z M291.702542,32.6238831 L291.702542,9.68443001 L297.62637,9.68443001 L297.62637,11.3016175 C298.188873,10.657083 298.865624,10.1414632 299.656643,9.75474251 C300.447663,9.36802183 301.270897,9.17466439 302.12637,9.17466439 C302.934968,9.17466439 303.658593,9.42954465 304.297268,9.93931282 C304.935943,10.449081 305.410548,11.0760279 305.721097,11.8201722 C306.031645,12.5643165 306.186917,13.3348167 306.186917,14.1316956 L306.186917,32.6238831 L300.263089,32.6238831 L300.263089,15.168805 C300.263089,14.1492687 299.934967,13.6395081 299.278714,13.6395081 C299.208401,13.6395081 299.135159,13.6482971 299.058987,13.6658753 C298.982815,13.6834535 298.906644,13.7127501 298.830472,13.7537659 C298.754299,13.7947818 298.686917,13.8299377 298.628323,13.8592347 C298.569729,13.8885317 298.499417,13.9383359 298.417386,14.0086488 L298.232815,14.1668519 C298.191799,14.2020083 298.130277,14.2635311 298.048245,14.3514222 C297.966213,14.4393133 297.913479,14.4979064 297.890042,14.5272034 C297.866604,14.5565005 297.81973,14.612164 297.749417,14.6941956 L297.62637,14.8348206 L297.62637,32.6238831 L291.702542,32.6238831 Z" transform="rotate(-8 255.628 166.675)"/>
</svg>
