<svg xmlns="http://www.w3.org/2000/svg" width="631" height="631" viewBox="0 0 631 631">
  <defs>
    <linearGradient id="alidade_magnifying-glass-a" x1="86.541%" x2="30.935%" y1="17.751%" y2="52.436%">
      <stop offset="0%" stop-color="#63ACCD" stop-opacity=".6"/>
      <stop offset="99.31%" stop-color="#B5CDCD" stop-opacity=".2"/>
    </linearGradient>
  </defs>
  <g fill="none" transform="translate(-31 -32)">
    <g transform="translate(31.046 32.046)">
      <path fill="#BD7346" d="M315.086388,0 C141.068418,0 0,141.068418 0,315.085304 C0,489.10219 141.068418,630.170608 315.086388,630.170608 C489.103274,630.170608 630.171692,489.10219 630.171692,315.085304 C630.171692,141.068418 489.10219,0 315.086388,0 Z M421.818406,553.633949 C290.067871,612.585812 135.488523,553.558106 76.5366593,421.818406 C17.5956306,290.067871 76.6125025,135.488523 208.363037,76.5366593 C340.102737,17.5956306 494.69292,76.6125025 553.633949,208.363037 C612.585812,340.102737 553.558106,494.69292 421.818406,553.633949 Z"/>
      <path fill="#5B2C32" d="M314.990803,28 C156.489276,28 28,156.489276 28,314.990803 C28,473.49233 156.489276,601.981606 314.990803,601.981606 C473.49233,601.981606 601.981606,473.49233 601.981606,314.990803 C601.981606,156.489276 473.491247,28 314.990803,28 Z M421.722821,553.539448 C289.972286,612.491311 135.392938,553.463604 76.4410745,421.723904 C17.5000458,289.97337 76.5169177,135.394021 208.267452,76.4421579 C340.007152,17.5011293 494.597335,76.5180012 553.538364,208.268536 C612.490228,340.008236 553.462521,494.598419 421.722821,553.539448 Z"/>
      <path fill="#DD8D46" d="M315.498483,14 C149.805934,14 15,148.807017 15,314.498483 C15,480.189949 149.805934,614.998049 315.498483,614.998049 C481.191032,614.998049 615.996966,480.191032 615.996966,314.499566 C615.996966,148.808101 481.189949,14 315.498483,14 Z M315.498483,594.107572 C161.328688,594.107572 35.889394,468.669362 35.889394,314.498483 C35.889394,160.327604 161.327604,34.8904775 315.498483,34.8904775 C469.669362,34.8904775 595.106489,160.328688 595.106489,314.498483 C595.106489,468.668278 469.668278,594.107572 315.498483,594.107572 Z"/>
    </g>
    <circle cx="346.374" cy="346.371" r="261.618" fill="#63ACCD" opacity=".2" transform="rotate(-24.104 346.373 346.373)"/>
    <circle cx="348.194" cy="346.194" r="230.527" fill="#63ACCD" opacity=".27" transform="rotate(-24.104 348.194 346.194)"/>
    <path fill="url(#alidade_magnifying-glass-a)" d="M584.59855,239.95179 C643.606438,371.841248 584.524794,526.593916 452.636422,585.601804 L238.949621,107.988577 C370.837994,48.9806886 525.590662,108.062332 584.59855,239.95179 Z"/>
  </g>
</svg>
