<?xml version="1.0" encoding="utf-8"?>
<!-- Generator: Adobe Illustrator 21.0.0, SVG Export Plug-In . SVG Version: 6.00 Build 0)  -->
<svg version="1.1" xmlns="http://www.w3.org/2000/svg" xmlns:xlink="http://www.w3.org/1999/xlink" x="0px" y="0px"
	 viewBox="0 0 250.006 250.007" style="enable-background:new 0 0 250.006 250.007;" xml:space="preserve">
<style type="text/css">
	.st0{fill:#464354;}
	.st1{opacity:0.3;fill:url(#SVGID_1_);}
	.st2{opacity:0.6;fill:#DF694B;}
	.st3{fill:#EBE8E3;}
	.st4{opacity:0.3;fill:url(#SVGID_2_);}
	.st5{opacity:0.6;fill:#63ACCD;}
	.st6{opacity:0.3;fill:url(#SVGID_3_);}
	.st7{opacity:0.3;fill:url(#SVGID_4_);}
	.st8{opacity:0.6;fill:#ECD6A4;}
	.st9{opacity:0.3;fill:url(#SVGID_5_);}
	.st10{opacity:0.3;fill:url(#SVGID_6_);}
	.st11{opacity:0.6;fill:#D2DBE0;}
	.st12{opacity:0.3;fill:url(#SVGID_7_);}
	.st13{opacity:0.3;fill:url(#SVGID_8_);}
	.st14{opacity:0.3;fill:url(#SVGID_9_);}
	.st15{opacity:0.3;fill:url(#SVGID_10_);}
	.st16{opacity:0.3;fill:url(#SVGID_11_);}
	.st17{opacity:0.3;fill:url(#SVGID_12_);}
	.st18{opacity:0.3;fill:url(#SVGID_13_);}
	.st19{opacity:0.3;fill:url(#SVGID_14_);}
	.st20{opacity:0.3;fill:url(#SVGID_15_);}
	.st21{opacity:0.3;fill:url(#SVGID_16_);}
	.st22{opacity:0.3;fill:url(#SVGID_17_);}
	.st23{opacity:0.3;fill:url(#SVGID_18_);}
	.st24{opacity:0.3;fill:url(#SVGID_19_);}
	.st25{opacity:0.3;fill:url(#SVGID_20_);}
	.st26{opacity:0.3;fill:url(#SVGID_21_);}
	.st27{opacity:0.3;fill:url(#SVGID_22_);}
	.st28{opacity:0.3;fill:url(#SVGID_23_);}
	.st29{opacity:0.3;fill:url(#SVGID_24_);}
	.st30{opacity:0.3;fill:url(#SVGID_25_);}
	.st31{opacity:0.3;fill:url(#SVGID_26_);}
	.st32{opacity:0.3;fill:url(#SVGID_27_);}
	.st33{opacity:0.3;fill:url(#SVGID_28_);}
	.st34{opacity:0.3;fill:url(#SVGID_29_);}
	.st35{opacity:0.3;fill:url(#SVGID_30_);}
	.st36{opacity:0.3;fill:url(#SVGID_31_);}
	.st37{opacity:0.3;fill:url(#SVGID_32_);}
	.st38{opacity:0.3;fill:url(#SVGID_33_);}
	.st39{opacity:0.3;fill:url(#SVGID_34_);}
	.st40{opacity:0.3;fill:url(#SVGID_35_);}
	.st41{opacity:0.3;fill:url(#SVGID_36_);}
	.st42{opacity:0.3;fill:url(#SVGID_37_);}
	.st43{opacity:0.3;fill:url(#SVGID_38_);}
	.st44{fill:#ECD6A4;}
	.st45{fill:#DD8D46;}
	.st46{fill:#BD7346;}
	.st47{fill:#9A5C37;}
	.st48{fill:#17C6B3;}
	.st49{fill:none;stroke:#BD7346;stroke-width:26;stroke-linecap:round;stroke-miterlimit:10;}
	.st50{fill:none;stroke:#9A5C37;stroke-width:6;stroke-linecap:round;stroke-miterlimit:10;}
	.st51{fill:#432229;}
	.st52{fill:#D2DBE0;}
	.st53{fill:none;}
	.st54{fill:none;stroke:#C3BBBB;stroke-width:0.75;stroke-miterlimit:10;}
	.st55{fill:#8D8C94;}
	.st56{fill:#5B2C32;}
	.st57{fill:#F4E9D1;}
	.st58{fill:#BADFD8;}
	.st59{fill:#C3BBBB;}
	.st60{fill:#63ACCD;}
	.st61{fill:none;stroke:#63ACCD;stroke-width:3;stroke-miterlimit:10;}
	.st62{opacity:0.2;fill:#63ACCD;}
	.st63{opacity:0.27;fill:#63ACCD;}
	.st64{fill:url(#SVGID_39_);}
	.st65{fill:#B5CDCD;}
	.st66{fill:#D6BD8B;}
	.st67{fill:#FF917B;}
	.st68{fill:#E56A77;}
</style>
<g id="Layer_3">
</g>
<g id="artwork">
	<g>
		<g>
			<path class="st66" d="M164.151,243.683c-20.077,6.616-40.625,7.879-60.11,4.544c-44.118-7.545-82.71-38.608-97.713-84.075
				C-15.301,98.616,20.304,27.947,85.849,6.328c20.099-6.634,40.676-7.884,60.17-4.538c44.097,7.553,82.659,38.613,97.664,84.06
				C265.301,151.396,229.696,222.065,164.151,243.683z"/>
		</g>
		<g>
			<g>
				<path class="st60" d="M170.194,154.593H79.813c-4.418,0-8-3.582-8-8v-60.24c0-4.418,3.582-8,8-8h90.381c4.418,0,8,3.582,8,8
					v60.24C178.194,151.012,174.612,154.593,170.194,154.593z"/>
			</g>
			<g>
				<path class="st68" d="M178.191,137.253v9.34c0,4.42-3.58,8-8,8h-90.38c-4.42,0-8-3.58-8-8v-9.34H178.191z"/>
			</g>
			<g>
				<path class="st68" d="M178.193,137.249v3.156c0,7.837-6.348,14.184-14.184,14.184H85.996c-7.837,0-14.184-6.347-14.184-14.184
					v-3.156H178.193z"/>
			</g>
			<g>
				<path class="st55" d="M178.191,137.253v9.34c0,4.42-3.58,8-8,8h-90.38c-4.42,0-8-3.58-8-8v-9.34H178.191z"/>
			</g>
			<g>
				<g>
					<path class="st0" d="M116.374,130.264c0.68,0,1.361-0.26,1.88-0.779c1.039-1.039,1.039-2.722,0-3.761l-14.775-14.775
						c-1.039-1.039-2.722-1.039-3.761,0c-1.039,1.039-1.039,2.722,0,3.761l14.775,14.775
						C115.013,130.004,115.693,130.264,116.374,130.264z"/>
				</g>
				<g>
					<path class="st0" d="M116.395,130.264c-0.68,0-1.361-0.26-1.88-0.779c-1.039-1.039-1.039-2.722,0-3.761l32.014-32.013
						c1.039-1.039,2.722-1.039,3.761,0c1.039,1.039,1.039,2.722,0,3.761l-32.014,32.013
						C117.756,130.004,117.076,130.264,116.395,130.264z"/>
				</g>
			</g>
			<g>
				<g>
					<path class="st55" d="M100.486,170.874c-0.481-0.481-0.779-1.146-0.779-1.881c0-1.469,1.19-2.659,2.659-2.659l45.274,0.001
						c1.469,0,2.659,1.19,2.659,2.659s-1.19,2.659-2.659,2.659l-45.274-0.001C101.632,171.652,100.967,171.355,100.486,170.874z"/>
				</g>
				<g>
					<path class="st55" d="M125.004,170.55c-1.469,0-2.66-1.191-2.66-2.66v-14.184c0-1.468,1.19-2.66,2.66-2.66
						s2.66,1.191,2.66,2.66v14.184C127.663,169.359,126.473,170.55,125.004,170.55z"/>
				</g>
			</g>
		</g>
	</g>
</g>
<g id="links">
</g>
</svg>
