<svg xmlns="http://www.w3.org/2000/svg" width="80" height="80" viewBox="0 0 80 80">
  <g fill="none">
    <path fill="#D6BD8B" d="M52.3190438,77.6771429 C45.92,79.7774603 39.3708367,80.1784127 33.1604781,79.1196825 C19.0989641,76.7244444 6.7987251,66.8631746 2.01689243,52.4292063 C-4.87681275,31.624127 6.47139442,9.18952381 27.3622311,2.32634921 C33.7682869,0.22031746 40.3266932,-0.176507937 46.5399203,0.885714286 C60.594741,3.28349206 72.8854183,13.1438095 77.6678884,27.5714286 C84.5580876,48.3796825 73.2098805,70.8142857 52.3190438,77.6771429 Z"/>
    <path fill="#63ACCD" d="M54.2450996,49.3946032 L25.4384064,49.3946032 C24.0302789,49.3946032 22.8886056,48.2574603 22.8886056,46.8549206 L22.8886056,27.7311111 C22.8886056,26.3285714 24.0302789,25.1914286 25.4384064,25.1914286 L54.2450996,25.1914286 C55.6532271,25.1914286 56.7949004,26.3285714 56.7949004,27.7311111 L56.7949004,46.8549206 C56.7949004,48.2577778 55.6532271,49.3946032 54.2450996,49.3946032 Z"/>
    <path fill="#8D8C94" d="M40.6897211,49.3946032 L54.2441434,49.3946032 C55.6529084,49.3946032 56.7939442,48.2580952 56.7939442,46.8549206 L56.7939442,43.8898413 L22.8879681,43.8898413 L22.8879681,46.8549206 C22.8879681,48.2580952 24.029004,49.3946032 25.4377689,49.3946032 L38.9941036,49.3946032 L38.9941036,53.1220448 L32.6266135,53.1219048 C32.1584064,53.1219048 31.7791235,53.4996825 31.7791235,53.9660317 C31.7791235,54.1993651 31.8741036,54.4104762 32.0274104,54.5631746 C32.1807171,54.715873 32.3926693,54.8101587 32.6266135,54.8101587 L47.0565737,54.8104762 C47.5247809,54.8104762 47.9040637,54.4326984 47.9040637,53.9663492 C47.9040637,53.5 47.5247809,53.1222222 47.0565737,53.1222222 L40.6897211,53.1220822 L40.6897211,49.3946032 Z"/>
    <path fill="#464354" d="M37.0963347,41.6711095 C37.0968925,41.6711106 37.0974502,41.6711111 37.098008,41.6711111 C37.3150598,41.6711111 37.5317928,41.5885714 37.6975299,41.4238095 L47.9011952,31.2609524 C48.2323506,30.9311111 48.2323506,30.3968254 47.9011952,30.0669841 C47.5700398,29.7371429 47.0336255,29.7371429 46.7024701,30.0669841 L37.0946707,39.6363585 L32.9813546,35.5393651 C32.6501992,35.2095238 32.1137849,35.2095238 31.7826295,35.5393651 C31.4514741,35.8692063 31.4514741,36.4034921 31.7826295,36.7333333 L34.1372112,39.0785714 L36.4917928,41.4238095 C36.6575299,41.5885714 36.8742629,41.6711111 37.0913147,41.6711111 C37.092988,41.6711111 37.0946613,41.6711062 37.0963346,41.6710964 Z"/>
  </g>
</svg>
