<svg xmlns="http://www.w3.org/2000/svg" width="80" height="80" viewBox="0 0 80 80">
  <g fill="none">
    <path fill="#D6BD8B" d="M0.92512,31.48416 C2.36704,24.87488 5.36096,19.00704 9.44896,14.17952 C18.70368,3.248 33.54048,-2.33568 48.51072,0.92448 C70.0896,5.6224 83.7744,26.92832 79.072,48.50784 C77.63136,55.12576 74.62912,60.99968 70.53696,65.82816 C61.28352,76.75232 46.45216,82.32832 31.48704,79.072 C9.90784,74.36928 -3.77728,53.06336 0.92512,31.48416 Z"/>
    <path fill="#D2DBE0" d="M52.4928,53.90752 L24.7056,53.90752 C23.29184,53.90752 22.1456,52.76128 22.1456,51.34752 L22.1456,26.9648 C22.1456,25.55104 23.29184,24.4048 24.7056,24.4048 L52.4928,24.4048 C53.90656,24.4048 55.0528,25.55104 55.0528,26.9648 L55.0528,51.34784 C55.0528,52.7616 53.90656,53.90752 52.4928,53.90752 Z"/>
    <path fill="#8D8C94" d="M55.05344,26.96576 L55.05344,31.78176 L22.14464,31.78176 L22.14464,26.96576 C22.14464,25.55136 23.29344,24.40576 24.70464,24.40576 L52.49344,24.40576 C53.90784,24.40576 55.05344,25.55136 55.05344,26.96576 Z"/>
    <path fill="#464354" d="M27.6672,36.43104 C27.1354161,36.43104 26.70432,35.9999439 26.70432,35.46816 C26.70432,34.9363761 27.1354161,34.50528 27.6672,34.50528 C28.1989839,34.50528 28.63008,34.9363761 28.63008,35.46816 C28.63008,35.9999439 28.1989839,36.43104 27.6672,36.43104 Z M27.6672,41.5376 C27.1354161,41.5376 26.70432,41.1065039 26.70432,40.57472 C26.70432,40.0429361 27.1354161,39.61184 27.6672,39.61184 C28.1989839,39.61184 28.63008,40.0429361 28.63008,40.57472 C28.63008,41.1065039 28.1989839,41.5376 27.6672,41.5376 Z M27.6672,46.64384 C27.1354161,46.64384 26.70432,46.2127439 26.70432,45.68096 C26.70432,45.1491761 27.1354161,44.71808 27.6672,44.71808 C28.1989839,44.71808 28.63008,45.1491761 28.63008,45.68096 C28.63008,46.2127439 28.1989839,46.64384 27.6672,46.64384 Z M49.6432,36.31936 L31.7728,36.31936 C31.30272,36.31936 30.9216,35.93824 30.9216,35.46816 C30.9216,34.99808 31.3024,34.61696 31.7728,34.61696 L49.64288,34.61696 C50.11296,34.61696 50.49408,34.99808 50.49408,35.46816 C50.49408,35.93824 50.11328,36.31936 49.6432,36.31936 Z M49.6432,41.4256 L31.7728,41.4256 C31.30272,41.4256 30.9216,41.04448 30.9216,40.5744 C30.9216,40.10464 31.3024,39.7232 31.7728,39.7232 L49.64288,39.7232 C50.11296,39.7232 50.49408,40.10432 50.49408,40.5744 C50.49408,41.04448 50.11328,41.4256 49.6432,41.4256 Z M49.6432,46.53184 L31.7728,46.53184 C31.30272,46.53184 30.9216,46.15072 30.9216,45.68064 C30.9216,45.21056 31.3024,44.82944 31.7728,44.82944 L49.64288,44.82944 C50.11296,44.82944 50.49408,45.21056 50.49408,45.68064 C50.49408,46.15072 50.11328,46.53184 49.6432,46.53184 Z"/>
    <path fill="#63ACCD" d="M55.4543944,53.1347519 C52.2566247,56.3325216 47.0720156,56.3325216 43.874246,53.1347519 C40.6764763,49.9369823 40.6764763,44.7523732 43.874246,41.5546035 C47.0720156,38.3568338 52.2566247,38.3568338 55.4543944,41.5546035 C58.6521641,44.7523732 58.6521641,49.9369823 55.4543944,53.1347519 Z M61.48832,61.38624 C61.2032,61.38624 60.91808,61.27744 60.7008,61.06016 L55.2448,55.60416 C54.8096,55.16928 54.8096,54.464 55.2448,54.02912 C55.67968,53.59424 56.38528,53.59424 56.81984,54.02912 L62.27584,59.48512 C62.71104,59.92 62.71104,60.62528 62.27584,61.06016 C62.05824,61.27744 61.77312,61.38624 61.48832,61.38624 Z"/>
    <circle cx="49.664" cy="47.345" r="5.374" fill="#EBE8E3" transform="rotate(-45 49.664 47.345)"/>
  </g>
</svg>
