<svg xmlns="http://www.w3.org/2000/svg" width="80" height="80" viewBox="0 0 80 80">
  <g fill="none">
    <path fill="#D6BD8B" d="M6.87392,17.58144 C10.66688,11.98016 15.62528,7.6432 21.21344,4.6784 C33.86528,-2.03552 49.71456,-1.71136 62.40448,6.87392 C80.69664,19.24768 85.4928,44.11168 73.11456,62.40256 C69.31968,68.0128 64.35136,72.352 58.75872,75.31584 C46.11072,82.02368 30.26944,81.6944 17.58304,73.11456 C-0.70784,60.73632 -5.504,35.87232 6.87392,17.58144 Z"/>
    <path fill="#D2DBE0" d="M55.91744,41.47456 C55.91744,44.31712 55.17408,46.91008 53.86944,49.17952 L26.11936,49.17952 C24.82016,46.91008 24.07136,44.28864 24.07136,41.45184 C24.07136,41.33824 24.07136,41.23072 24.08256,41.12288 C24.08832,40.544 24.128,39.97664 24.2016,39.4208 C25.15488,31.93728 31.31648,26.13312 38.94176,25.64512 C39.28768,25.61696 39.63968,25.60544 39.99712,25.60544 C40.2128,25.60544 40.43392,25.6112 40.64384,25.6224 C48.45088,25.92864 54.80512,31.81216 55.78112,39.4208 C55.86048,39.97696 55.90048,40.54432 55.90592,41.12288 C55.91744,41.23616 55.91744,41.3552 55.91744,41.47456 Z"/>
    <path fill="#464354" d="M38.824,42.4176 L46.40256,32.54336 L41.25632,43.87712 C40.93024,44.5952 40.08384,44.91296 39.36608,44.58688 C38.648,44.2608 38.33024,43.41472 38.65632,42.69664 C38.70144,42.59776 38.76096,42.5008 38.824,42.4176 Z"/>
    <path fill="#8D8C94" d="M40.64384 25.6224L40.64384 28.64064C40.64384 29.10592 40.26368 29.49184 39.79264 29.49184 39.3216 29.49184 38.94144 29.10592 38.94144 28.64064L38.94144 25.6448 40.64384 25.6224zM27.87808 40.27168C27.87808 40.73696 27.49792 41.12288 27.02688 41.12288L24.08224 41.12288C24.088 40.544 24.12768 39.97664 24.20128 39.4208L27.02688 39.4208C27.49824 39.4208 27.87808 39.80064 27.87808 40.27168zM55.90592 41.12288L52.5584 41.12288C52.08736 41.12288 51.7072 40.73696 51.7072 40.27168 51.7072 39.80064 52.08736 39.42048 52.5584 39.42048L55.78112 39.42048C55.8608 39.97664 55.90048 40.544 55.90592 41.12288z"/>
  </g>
</svg>
