<svg xmlns="http://www.w3.org/2000/svg" width="825" height="584" viewBox="0 0 825 584"><defs><radialGradient id="a" cx="50.21%" cy="49.335%" r="69.182%" fx="50.21%" fy="49.335%"><stop offset="0%" stop-color="#B5CDCD" stop-opacity=".1"/><stop offset="35.35%" stop-color="#C0C8B8" stop-opacity=".435"/><stop offset="91.16%" stop-color="#D5BE8E" stop-opacity=".965"/><stop offset="100%" stop-color="#D6BD8B"/></radialGradient><radialGradient id="b" cx="50.21%" cy="49.335%" r="69.182%" fx="50.21%" fy="49.335%"><stop offset="0%" stop-color="#B5CDCD" stop-opacity=".1"/><stop offset="35.35%" stop-color="#C0C8B8" stop-opacity=".435"/><stop offset="91.16%" stop-color="#D5BE8E" stop-opacity=".965"/><stop offset="100%" stop-color="#D6BD8B"/></radialGradient><radialGradient id="c" cx="50.21%" cy="49.335%" r="69.182%" fx="50.21%" fy="49.335%"><stop offset="0%" stop-color="#B5CDCD" stop-opacity=".1"/><stop offset="35.35%" stop-color="#C0C8B8" stop-opacity=".435"/><stop offset="91.16%" stop-color="#D5BE8E" stop-opacity=".965"/><stop offset="100%" stop-color="#D6BD8B"/></radialGradient><radialGradient id="d" cx="50.21%" cy="49.335%" r="69.18%" fx="50.21%" fy="49.335%"><stop offset="0%" stop-color="#B5CDCD" stop-opacity=".1"/><stop offset="35.35%" stop-color="#C0C8B8" stop-opacity=".435"/><stop offset="91.16%" stop-color="#D5BE8E" stop-opacity=".965"/><stop offset="100%" stop-color="#D6BD8B"/></radialGradient><radialGradient id="e" cx="50.21%" cy="49.335%" r="69.182%" fx="50.21%" fy="49.335%"><stop offset="0%" stop-color="#B5CDCD" stop-opacity=".1"/><stop offset="35.35%" stop-color="#C0C8B8" stop-opacity=".435"/><stop offset="91.16%" stop-color="#D5BE8E" stop-opacity=".965"/><stop offset="100%" stop-color="#D6BD8B"/></radialGradient><radialGradient id="f" cx="50.21%" cy="49.335%" r="69.182%" fx="50.21%" fy="49.335%"><stop offset="0%" stop-color="#B5CDCD" stop-opacity=".1"/><stop offset="30.76%" stop-color="#9FC4CD" stop-opacity=".377"/><stop offset="94.3%" stop-color="#68AECD" stop-opacity=".949"/><stop offset="100%" stop-color="#63ACCD"/></radialGradient><radialGradient id="g" cx="50.21%" cy="49.335%" r="69.182%" fx="50.21%" fy="49.335%"><stop offset="0%" stop-color="#B5CDCD" stop-opacity=".1"/><stop offset="30.76%" stop-color="#9FC4CD" stop-opacity=".377"/><stop offset="94.3%" stop-color="#68AECD" stop-opacity=".949"/><stop offset="100%" stop-color="#63ACCD"/></radialGradient><radialGradient id="h" cx="50.21%" cy="49.335%" r="69.181%" fx="50.21%" fy="49.335%"><stop offset="0%" stop-color="#B5CDCD" stop-opacity=".1"/><stop offset="20.52%" stop-color="#BCBCB7" stop-opacity=".285"/><stop offset="62.83%" stop-color="#CE9280" stop-opacity=".665"/><stop offset="100%" stop-color="#DF694B"/></radialGradient><radialGradient id="i" cx="50.21%" cy="49.335%" r="69.181%" fx="50.21%" fy="49.335%"><stop offset="0%" stop-color="#B5CDCD" stop-opacity=".1"/><stop offset="20.52%" stop-color="#BCBCB7" stop-opacity=".285"/><stop offset="62.83%" stop-color="#CE9280" stop-opacity=".665"/><stop offset="100%" stop-color="#DF694B"/></radialGradient></defs><g fill="none"><g transform="translate(766 225)"><circle cx="27.341" cy="27.341" r="26.987" fill="#464354"/><circle cx="27.341" cy="27.341" r="26.987" fill="url(#a)" opacity=".3"/><circle cx="27.341" cy="27.341" r="23.094" fill="url(#b)" opacity=".3"/><circle cx="27.341" cy="27.341" r="18.36" fill="#ECD6A4" opacity=".6"/><path fill="#EBE8E3" d="M27.34 39.33c-6.617 0-11.986-5.37-11.986-11.99 0-6.617 5.37-11.986 11.987-11.986 6.62 0 11.99 5.37 11.99 11.987 0 6.62-5.37 11.99-11.99 11.99zm-9.988-11.99c0 5.51 4.48 9.99 9.99 9.99s9.99-4.48 9.99-9.99c0-5.508-4.48-9.988-9.99-9.988s-9.99 4.48-9.99 9.99zm15.952 4.482c0 2.2-3.512 3.01-5.712 3.01-4.278 0-7.494-3.26-7.494-7.568 0-4.23 3.185-7.415 7.415-7.415 1.545 0 5.588.54 5.588 3.02v1.7c0 .14-.1.25-.25.25h-1.84c-.14 0-.25-.11-.25-.25v-1.09c0-.99-1.89-1.44-3.16-1.44-2.92 0-4.95 2.1-4.95 5.13 0 3.14 2.13 5.43 5.07 5.43 1.13 0 3.25-.42 3.25-1.41V30.1c0-.14.11-.25.24-.25h1.86c.13 0 .25.11.25.25v1.7z"/></g><g transform="translate(753 431)"><circle cx="20.036" cy="20.036" r="19.736" fill="#464354"/><circle cx="20.036" cy="20.036" r="19.736" fill="url(#c)" opacity=".3"/><circle cx="20.036" cy="20.036" r="15.545" fill="#D2DBE0" opacity=".6"/><path fill="#EBE8E3" d="M20.116 30.185c-4.715 0-8.958-3.71-8.958-8.762 0-5.04 3.93-7.375 4.66-7.756.866-.463 1.49-.706 2.472-1.49.486-.382.89-.938 1.017-2.29.706.844 1.55 1.826 2.15 2.23.983.648 1.964.902 2.994 1.55.63.38 4.47 2.728 4.47 7.918 0 5.18-4.09 8.6-8.79 8.6zm6.937-8.37c-.926 0-2.798 1.92-3.78 1.93-1.145.024-2.728-2.264-5.017-2.24-1.803.01-3.225 1.443-3.248 2.97-.012.855.266 1.49.855 1.895.393.266.75.427 1.92.427 1.94 0 4.403-2.404 5.535-2.37.902.036 2.3 2.243 3.006 2.29.555.046.843-.21 1.317-.89.47-.694.66-1.78.66-2.394 0-.6-.26-1.617-1.24-1.617zm-2.682 6.14c-.39.288-1.27.646-2.52.646-1.24 0-1.83-.26-2.23-.56-.05-.04-.03-.04-.15-.04s-.19.06-.3.14c-.09.08-.14.28 0 .42.86.79 2.29.72 3.34.63 1.07-.1 1.97-.73 2.06-.82.14-.14.11-.25.08-.33-.02-.08-.09-.19-.27-.05zm-.62-1.978c-.23-.15-.56-.173-.88-.173-.31 0-.48-.023-.82.116-.33.138-.68.45-.9.647-.22.197-.25.347-.14.508.12.15.25.06.57-.218.34-.267.56-.51 1.24-.51s.8.255.94.51c.14.253.15.288.29.218.16-.08.25-.196.16-.392-.08-.197-.22-.543-.45-.706z"/></g><g transform="translate(639 368)"><circle cx="24.949" cy="24.949" r="24.651" fill="#464354"/><circle cx="24.949" cy="24.949" r="24.651" fill="url(#d)" opacity=".3"/><circle cx="24.949" cy="24.949" r="19.677" fill="url(#e)" opacity=".3"/><circle cx="24.949" cy="24.949" r="15.499" fill="#D2DBE0" opacity=".6"/><path fill="#EBE8E3" d="M17.807 16.85l1.3 14.58 5.833 1.62 5.85-1.622 1.302-14.58H17.808zm11.456 4.768H22.42l.163 1.832H29.1l-.49 5.49-3.67 1.017-3.662-1.017-.25-2.81h1.795l.128 1.428 2 .537h.01l2-.538.21-2.32h-6.2l-.48-5.407h8.96l-.16 1.788z"/></g><g transform="translate(732 332)"><circle cx="20.101" cy="20.101" r="19.876" fill="#464354"/><circle cx="20.101" cy="20.101" r="19.876" fill="url(#f)" opacity=".3"/><circle cx="20.101" cy="20.101" r="15.487" fill="url(#g)" opacity=".3"/><circle cx="20.101" cy="20.101" r="11.702" fill="#63ACCD" opacity=".6"/><path fill="#EBE8E3" d="M27.742 15.24c-.562.257-1.166.43-1.8.507.647-.397 1.144-1.027 1.378-1.778-.606.36-1.276.63-1.992.77-.57-.63-1.385-1.02-2.288-1.02-1.73 0-3.134 1.44-3.134 3.21 0 .25.027.49.08.73-2.604-.14-4.914-1.42-6.46-3.36-.27.47-.426 1.03-.426 1.61 0 1.11.554 2.1 1.395 2.67-.513-.02-.997-.16-1.42-.4v.04c0 1.56 1.08 2.86 2.515 3.15-.263.07-.54.11-.826.11-.202 0-.4-.02-.59-.06.4 1.27 1.556 2.2 2.93 2.23-1.074.86-2.427 1.38-3.895 1.38-.26 0-.51-.02-.75-.05 1.39.91 3.03 1.44 4.8 1.44 5.76 0 8.92-4.9 8.92-9.15 0-.14-.01-.28-.01-.42.61-.45 1.14-1.02 1.56-1.66"/></g><circle cx="15.384" cy="15.384" r="15.153" fill="#464354"/><circle cx="15.384" cy="15.384" r="15.153" fill="url(#b)" opacity=".3"/><circle cx="15.384" cy="15.384" r="12.047" fill="#ECD6A4" opacity=".6"/><path fill="#EBE8E3" d="M22.012 19.624c-.105.158-.28.255-.473.255H9.23c-.193 0-.368-.1-.474-.26-.807-1.27-1.237-2.73-1.237-4.24 0-4.34 3.52-7.87 7.86-7.87 4.33 0 7.86 3.53 7.86 7.86 0 1.51-.43 2.96-1.24 4.24zM9.766 14.26c-.623 0-1.124.5-1.124 1.124 0 .624.5 1.124 1.124 1.124.623 0 1.124-.5 1.124-1.124 0-.623-.5-1.124-1.124-1.124zm1.685-3.932c-.62 0-1.12.5-1.12 1.123 0 .63.5 1.13 1.13 1.13s1.13-.5 1.13-1.12c0-.62-.5-1.12-1.12-1.12zm5.77 1.992c.07-.298-.1-.605-.4-.684-.3-.08-.6.105-.68.404l-.88 3.353c-.69.053-1.3.536-1.49 1.247-.23.904.31 1.826 1.21 2.063.91.237 1.83-.307 2.06-1.203.19-.71-.11-1.43-.68-1.826l.89-3.354zm-1.83-3.677c-.62 0-1.12.5-1.12 1.123 0 .624.5 1.124 1.13 1.124.63 0 1.13-.5 1.13-1.124 0-.623-.5-1.123-1.12-1.123zm3.94 1.685c-.62 0-1.12.5-1.12 1.123 0 .63.5 1.13 1.13 1.13.62 0 1.12-.5 1.12-1.12 0-.62-.5-1.12-1.12-1.12zm1.69 3.932c-.62 0-1.12.5-1.12 1.124 0 .624.5 1.124 1.13 1.124s1.13-.5 1.13-1.124c0-.623-.5-1.124-1.12-1.124z"/><g transform="translate(615 471)"><circle cx="24.971" cy="24.971" r="24.613" fill="#464354"/><circle cx="24.971" cy="24.971" r="24.613" fill="url(#g)" opacity=".3"/><circle cx="24.971" cy="24.971" r="18.599" fill="#63ACCD" opacity=".6"/><path fill="#EBE8E3" d="M25.556 33.543h-8.21c-.523 0-.947-.424-.947-.947v-15.25c0-.523.42-.947.94-.947h15.25c.52 0 .95.42.95.94v15.25c0 .52-.43.95-.95.95h-4.37V26.9h2.22l.33-2.585h-2.56v-1.652c0-.75.2-1.26 1.28-1.26h1.37V19.09c-.24-.03-1.05-.1-2-.1-1.98 0-3.33 1.205-3.33 3.42v1.907H23.3v2.587h2.235v6.64z"/></g><g transform="translate(511 534)"><circle cx="24.888" cy="24.888" r="24.622" fill="#464354"/><circle cx="24.888" cy="24.888" r="24.622" fill="url(#h)" opacity=".3"/><circle cx="24.888" cy="24.888" r="20.396" fill="url(#i)" opacity=".3"/><circle cx="24.888" cy="24.888" r="16.304" fill="#DF694B" opacity=".6"/><path fill="#EBE8E3" d="M23.38 16.85c4.163 0 7.537 2.73 7.537 6.1 0 3.367-3.374 6.096-7.536 6.096-.4 0-.79-.025-1.17-.074-1.62 1.613-3.48 1.9-5.35 1.944v-.395c1.01-.49 1.82-1.38 1.82-2.41 0-.14-.01-.28-.03-.42-1.7-1.12-2.79-2.82-2.79-4.74 0-3.37 3.38-6.1 7.54-6.1zm8.102 13.67c0 .877.57 1.646 1.445 2.068v.34c-1.618-.038-3.105-.286-4.508-1.667-.34.05-.68.07-1.02.07-1.5 0-2.88-.4-3.98-1.08 2.27 0 4.41-.73 6.04-2.05.82-.66 1.46-1.44 1.92-2.31.48-.92.73-1.91.73-2.92 0-.16-.01-.33-.02-.49 1.14.94 1.84 2.23 1.84 3.64 0 1.64-.95 3.1-2.42 4.06-.02.12-.03.24-.03.36z"/></g><g transform="translate(595 157)"><circle cx="25.353" cy="25.353" r="25.025" fill="#464354"/><circle cx="25.353" cy="25.353" r="25.025" fill="url(#a)" opacity=".3"/><circle cx="25.353" cy="25.353" r="21.414" fill="url(#b)" opacity=".3"/><circle cx="25.353" cy="25.353" r="17.025" fill="#ECD6A4" opacity=".6"/><path fill="#EBE8E3" d="M14.237 25.35c0 4.4 2.556 8.203 6.264 10.005l-5.3-14.527c-.61 1.382-.96 2.912-.96 4.523zm18.62-.56c0-1.373-.495-2.324-.917-3.064-.564-.916-1.092-1.692-1.092-2.608 0-1.022.774-1.973 1.866-1.973.05 0 .097.007.144.01-1.977-1.813-4.612-2.92-7.506-2.92-3.884 0-7.3 1.993-9.287 5.01.26.01.507.014.715.014 1.163 0 2.963-.15 2.963-.15.6-.04.67.84.07.91 0 0-.602.07-1.27.1l4.046 12.04 2.43-7.3-1.73-4.74c-.6-.04-1.17-.11-1.17-.11-.6-.04-.53-.95.07-.92 0 0 1.83.14 2.93.14 1.16 0 2.96-.14 2.96-.14.6-.04.67.84.07.91 0 0-.61.07-1.27.1l4.02 11.95 1.11-3.71c.48-1.54.84-2.64.84-3.59zm2.25-4.77c.046.353.074.732.074 1.142 0 1.127-.21 2.395-.84 3.98l-3.4 9.818c3.31-1.927 5.53-5.508 5.53-9.61 0-1.93-.49-3.748-1.36-5.33zm-9.56 6.304l-3.335 9.69c.996.293 2.05.453 3.14.453 1.294 0 2.536-.223 3.69-.63-.028-.048-.056-.098-.078-.153l-3.417-9.36z"/></g><g transform="translate(609 253)"><circle cx="25.126" cy="25.126" r="24.845" fill="#464354"/><circle cx="25.126" cy="25.126" r="24.845" fill="url(#f)" opacity=".3"/><circle cx="25.126" cy="25.126" r="19.358" fill="url(#g)" opacity=".3"/><circle cx="25.126" cy="25.126" r="14.628" fill="#63ACCD" opacity=".6"/><path fill="#EBE8E3" d="M30.857 32.13H20.033c-2.458 0-4.457-2-4.457-4.456 0-1.78 1.055-3.323 2.567-4.03-.01-.138-.02-.288-.02-.427 0-2.815 2.278-5.094 5.093-5.094 2.13 0 3.95 1.304 4.715 3.164.44-.388 1.02-.617 1.66-.617 1.41 0 2.55 1.144 2.55 2.546 0 .508-.15.976-.4 1.373 1.69.39 2.96 1.91 2.96 3.72 0 2.11-1.71 3.82-3.82 3.82z"/></g><g transform="translate(714 517)"><circle cx="19.885" cy="19.885" r="19.627" fill="#464354"/><circle cx="19.885" cy="19.885" r="19.627" fill="url(#a)" opacity=".3"/><circle cx="19.885" cy="19.885" r="16.795" fill="url(#b)" opacity=".3"/><circle cx="19.885" cy="19.885" r="13.353" fill="#ECD6A4" opacity=".6"/><path fill="#EBE8E3" d="M26.94 17.257c-1.52 1.052-3.047 2.102-4.555 3.163-.632.438-1.702 1.333-2.49 1.333h-.02c-.787 0-1.858-.895-2.49-1.333-1.508-1.06-3.036-2.112-4.544-3.163-.69-.466-1.67-1.566-1.67-2.45 0-.955.52-1.772 1.56-1.772h14.32c.85 0 1.56.7 1.56 1.557 0 1.09-.81 2.072-1.66 2.665zm1.663 7.92c0 .856-.7 1.557-1.557 1.557H12.724c-.856 0-1.557-.7-1.557-1.557v-7.725c.29.32.622.603.982.847 1.61 1.09 3.25 2.19 4.83 3.35.82.6 1.83 1.34 2.89 1.34h.02c1.06 0 2.07-.74 2.89-1.35 1.58-1.14 3.22-2.25 4.84-3.35.35-.25.68-.53.97-.85v7.72z"/></g><g transform="translate(224 240)"><circle cx="20.419" cy="20.419" r="20.156" fill="#464354"/><circle cx="20.419" cy="20.419" r="20.156" fill="url(#i)" opacity=".3"/><circle cx="20.419" cy="20.419" r="16.111" fill="#DF694B" opacity=".6"/><path fill="#EBE8E3" d="M20.418 11.67c-4.935 0-8.936 4.015-8.936 8.97 0 3.964 2.56 7.326 6.112 8.512.447.083.61-.194.61-.432 0-.212-.008-.776-.013-1.526-2.48.543-3.01-1.202-3.01-1.202-.4-1.036-.99-1.312-.99-1.312-.81-.557.06-.546.06-.546.9.064 1.37.925 1.37.925.8 1.37 2.09.97 2.6.74.08-.58.32-.98.57-1.2-1.98-.23-4.07-1-4.07-4.44 0-.98.35-1.78.92-2.41-.09-.23-.4-1.14.09-2.38 0 0 .75-.25 2.46.91.72-.2 1.48-.3 2.24-.31.76 0 1.53.1 2.24.3 1.71-1.16 2.46-.92 2.46-.92.49 1.24.18 2.15.09 2.38.57.62.92 1.43.92 2.41 0 3.44-2.09 4.2-4.08 4.43.32.27.61.82.61 1.66 0 1.2-.01 2.16-.01 2.46 0 .24.16.52.62.43 3.55-1.19 6.11-4.55 6.11-8.51 0-4.96-4-8.97-8.93-8.97"/></g><g transform="translate(669 5)"><circle cx="18.533" cy="18.533" r="18.256" fill="#464354"/><circle cx="18.533" cy="18.533" r="18.256" fill="url(#e)" opacity=".3"/><circle cx="18.533" cy="18.533" r="14.379" fill="#D2DBE0" opacity=".6"/><path fill="#EBE8E3" d="M18.533 9.145c-5.184 0-9.388 4.204-9.388 9.388 0 5.185 4.204 9.388 9.388 9.388 5.185 0 9.388-4.2 9.388-9.38s-4.2-9.39-9.38-9.39zm-7.628 9.388c0-4.213 3.415-7.627 7.628-7.627 2.01 0 3.836.777 5.198 2.046l-7.54 3.234-3.23 7.546c-1.27-1.362-2.04-3.19-2.04-5.2zm8.97 1.342l-4.696 2.012 2.01-4.695 2.68 2.683zm-1.342 6.286c-2.01 0-3.836-.77-5.2-2.04l7.547-3.23 3.235-7.54c1.27 1.37 2.046 3.19 2.046 5.2 0 4.21-3.41 7.63-7.62 7.63z"/></g><g transform="translate(220 18)"><circle cx="18.533" cy="18.533" r="18.256" fill="#464354"/><circle cx="18.533" cy="18.533" r="18.256" fill="url(#e)" opacity=".3"/><circle cx="18.533" cy="18.533" r="14.379" fill="#D2DBE0" opacity=".6"/><path fill="#EBE8E3" d="M20.69 13.295c.507-.654.89-1.577.752-2.52-.827.058-1.794.587-2.358 1.277-.514.625-.937 1.555-.772 2.457.904.02 1.838-.52 2.38-1.22zm4.47 8.865c-.362.806-.536 1.166-1.002 1.88-.65.998-1.568 2.24-2.705 2.25-1.01.01-1.27-.662-2.64-.654-1.37.007-1.656.666-2.667.656-1.136-.01-2.005-1.13-2.655-2.128-1.81-2.786-2.01-6.057-.88-7.797.8-1.235 2.06-1.958 3.24-1.958 1.2 0 1.96.66 2.96.66.97 0 1.56-.67 2.95-.67 1.06 0 2.17.57 2.97 1.57-2.6 1.43-2.18 5.17.45 6.18z"/></g><g transform="translate(775 53)"><circle cx="24.971" cy="24.971" r="24.613" fill="#464354"/><circle cx="24.971" cy="24.971" r="24.613" fill="url(#g)" opacity=".3"/><circle cx="24.971" cy="24.971" r="18.599" fill="#63ACCD" opacity=".6"/><path fill="#EBE8E3" d="M27.87 17.687c-.4 0-.725-.316-.725-.706 0-.39.324-.7.725-.7.4 0 .725.32.725.71 0 .39-.325.71-.725.71zm-5.796 0c-.4 0-.725-.316-.725-.706 0-.39.32-.7.72-.7.4 0 .72.32.72.71 0 .39-.33.71-.73.71zm6.223-2.825l.27-.398.27-.39.602-.88c.07-.11.04-.255-.07-.326-.11-.073-.26-.043-.34.066l-.92 1.338-.28.402c-.88-.33-1.85-.514-2.88-.514s-2 .184-2.88.514l-.28-.402-.27-.396-.65-.942c-.08-.11-.23-.137-.34-.066-.11.07-.14.217-.07.326l.6.88.27.39.27.398c-2.05.93-3.44 2.69-3.44 4.705H31.7c0-2.015-1.39-3.775-3.437-4.705zm-9.982 5.645h-.104v10.34c0 .82.69 1.49 1.53 1.49h1.11c-.04.124-.06.254-.06.39v2.978c0 .778.65 1.41 1.45 1.41.8 0 1.45-.632 1.45-1.41v-2.977c0-.137-.02-.267-.06-.39h2.69c-.03.123-.05.253-.05.39v2.977c0 .778.65 1.41 1.45 1.41.8 0 1.45-.632 1.45-1.41v-2.977c0-.137-.02-.267-.06-.39h1.11c.85 0 1.53-.67 1.53-1.49v-10.34H18.32zm-2.52 0c-.8 0-1.448.63-1.448 1.41v6.032c0 .77.648 1.4 1.45 1.4.798 0 1.447-.63 1.447-1.41v-6.03c0-.78-.648-1.41-1.448-1.41zm18.354 0c-.81 0-1.45.63-1.45 1.41v6.032c0 .77.64 1.4 1.45 1.4.79 0 1.44-.63 1.44-1.41v-6.03c0-.78-.65-1.41-1.45-1.41z"/></g><g transform="translate(696 119)"><circle cx="32.355" cy="32.355" r="32.009" fill="#464354"/><circle cx="32.355" cy="32.355" r="32.009" fill="url(#h)" opacity=".3"/><circle cx="32.355" cy="32.355" r="26.515" fill="url(#i)" opacity=".3"/><circle cx="32.355" cy="32.355" r="21.195" fill="#DF694B" opacity=".6"/><g fill="#EBE8E3"><path d="M20.192 27.927l.005-.023.013-.097-.612-.004c-.553-.003-.722 0-.737.014 0 .007-.19.732-.53 2.046-.16.627-.3 1.128-.3 1.113l-.43-1.59c-.23-.86-.43-1.567-.43-1.572-.01-.01-.75-.012-1.35-.007-.08 0-.13-.17.78 2.73.13.4.32.97.42 1.262.12.33.21.59.27.81.11.41.11.67.09.98-.02.35-.03 2.82 0 2.86.02.03 1.18.04 1.29.01.02-.01.03-.02.04-.12.03-.08.03-.4.03-1.73v-1.69l.08-.24c.05-.16.17-.56.27-.9l.28-.9c.44-1.42.86-2.83.87-2.91l.01-.06zm6.49 2.06v.087h-.013l-.01 2.443-.01 2.37-.19.19c-.21.217-.38.3-.54.26-.17-.04-.17.025-.18-2.775l-.02-2.577H24.5v.088h-.01v2.797c0 2.995 0 2.994.153 3.294.12.24.297.357.6.396.396.054.826-.127 1.224-.514l.173-.168v.29c0 .25.01.292.06.305.075.02 1 .022 1.097 0l.082-.016v-.086h.01v-6.4l-1.22.02zm-3.092 1.26c-.115-.494-.332-.828-.688-1.057-.56-.362-1.2-.4-1.79-.108-.432.213-.71.567-.855 1.087-.017.06-.03.11-.038.19-.04.18-.05.45-.06 1.73-.02 1.96.01 2.19.25 2.64.24.44.74.76 1.29.82.16.02.49-.01.68-.07.43-.12.85-.47 1.03-.86.08-.17.13-.29.15-.5.05-.29.05-.77.05-1.97 0-1.54-.01-1.71-.06-1.93zM22.2 35.25c-.103.08-.282.114-.426.083-.112-.024-.263-.2-.31-.36-.057-.198-.06-2.972-.012-3.516.083-.272.313-.414.565-.346.196.06.296.18.353.44.042.19.047.43.038 1.83-.006.93-.01 1.38-.04 1.63-.03.16-.08.2-.168.26zm23.28-2.607h.59l-.01-.534c-.01-.49-.016-.55-.08-.68-.105-.21-.257-.3-.498-.3-.29 0-.475.14-.56.42-.04.12-.077.96-.05 1.04.016.04.1.05.608.05zm-3.937-1.214c-.08-.16-.225-.24-.395-.23-.132 0-.28.06-.42.16l-.106.08v3.83l.106.08c.238.18.5.22.68.1.07-.05.117-.12.154-.22.047-.14.05-.31.045-1.93-.007-1.68-.01-1.78-.064-1.89z"/><path d="M48.847 29.7c-.118-1.406-.21-1.863-.5-2.45-.385-.776-.94-1.186-1.73-1.276-.613-.07-2.914-.168-5.043-.215-3.686-.09-9.747.07-10.52.27-.36.09-.628.25-.906.52-.49.48-.78 1.18-.898 2.15-.267 2.2-.273 4.87-.016 7.15.11.98.34 1.62.768 2.14.267.33.73.6 1.14.69.29.06 1.738.14 3.848.21.314.01 1.145.03 1.85.04 1.463.02 4.156.01 5.695-.04 1.036-.03 2.924-.11 3.277-.14l.51-.03c.612-.04 1-.16 1.366-.45.472-.37.838-1.06.993-1.86.15-.77.25-2.12.27-3.66.02-1.29 0-1.98-.1-3.1zm-14.68-.51l-.684.01-.03 7.304-.594.008c-.46.007-.6 0-.61-.03-.01-.02-.02-1.668-.03-3.66V29.2l-1.34-.017V28.04l3.95.017.01 1.125-.69.008zm4.2 4.188v3.142h-1.08v-.332c0-.25-.01-.33-.04-.33-.02 0-.12.08-.218.18-.22.22-.47.393-.69.474-.45.168-.88.07-1.06-.243-.17-.29-.17-.35-.17-3.32v-2.72h1.09l.01 2.56c.01 2.52.01 2.56.07 2.67.08.13.2.17.39.12.11-.03.19-.09.37-.27l.24-.24v-4.84h1.08v3.14zm4.222 2.693c-.1.22-.31.42-.49.48-.46.14-.82.03-1.24-.37-.13-.12-.25-.22-.27-.22-.02 0-.04.1-.04.29v.29h-1.08v-8.48h1.08v1.39c0 .76.01 1.39.02 1.39s.13-.1.25-.22c.29-.28.53-.4.84-.43.55-.04.88.25 1.03.9.04.2.05.43.05 2.31 0 2.29 0 2.3-.19 2.71zm4.57-1.25c-.01.24-.04.51-.07.6-.15.56-.55.96-1.13 1.12-.78.22-1.64-.14-1.98-.82-.19-.38-.2-.46-.2-2.34 0-1.53 0-1.72.05-1.93.14-.59.48-.97 1.06-1.18.17-.06.34-.09.52-.1.63-.01 1.25.33 1.51.88.17.37.2.53.21 1.58l.01.94-2.31.02-.01.63c-.02.89.04 1.17.29 1.33.2.13.51.12.68-.02.16-.14.2-.29.22-.73l.01-.38h1.11l-.02.43z"/></g></g><g transform="translate(404 68)"><circle cx="22.867" cy="22.867" r="22.571" fill="#464354"/><circle cx="22.867" cy="22.867" r="22.571" fill="url(#a)" opacity=".3"/><circle cx="22.867" cy="22.867" r="19.315" fill="url(#b)" opacity=".3"/><circle cx="22.867" cy="22.867" r="15.356" fill="#ECD6A4" opacity=".6"/><path fill="#EBE8E3" d="M29.57 31.328c-.637.325-1.488 1.04-1.8 1.343-.237.23-1.21.34-1.758.06-.638-.32-.302-.84-1.286-.87-.493-.01-.974-.01-1.455-.01-.42.01-.85.04-1.28.05-1.47.04-1.62.99-2.57.95-.64-.02-1.46-.54-2.87-.83-.98-.2-1.93-.25-2.14-.69-.2-.44.25-.93.28-1.35.04-.57-.42-1.34-.09-1.63.29-.26.91-.07 1.31-.29.43-.24.61-.43.61-.96.16.54-.01.98-.35 1.19-.21.14-.6.2-.92.17-.26-.02-.41.01-.48.11-.1.13-.06.35.06.64.13.29.27.48.25.84-.01.36-.41.78-.35 1.08.03.11.14.22.42.29.45.13 1.27.25 2.06.44.89.23 1.8.63 2.37.55 1.71-.23.73-2.06.46-2.49-1.44-2.26-2.39-3.74-3.15-3.15-.19.16-.2-.38-.19-.59.04-.73.4-1 .63-1.57.43-1.08.75-2.33 1.4-2.96.49-.62 1.25-1.64 1.39-2.18-.12-1.16-.15-2.39-.18-3.47-.02-1.15.16-2.16 1.46-2.86.32-.16.73-.23 1.17-.23.77-.01 1.63.22 2.18.62.87.65 1.42 2.03 1.36 3.01-.042.78.09 1.57.338 2.4.29.98.75 1.66 1.49 2.44.89.94 1.58 2.79 1.78 3.97.18 1.1-.06 1.78-.3 1.82-.36.055-.58 1.185-1.7 1.14-.713-.03-.78-.46-.983-.83-.325-.57-.65-.39-.774.216-.07.3-.02.75.08 1.086.203.708.136 1.37.013 2.18-.235 1.55 1.085 1.84 1.97 1.1.87-.722 1.06-.84 2.16-1.22 1.667-.57 1.107-1.07.21-1.37-.805-.27-.84-1.62-.55-1.88.07 1.456.83 1.67 1.145 1.87 1.377.85-.514 1.556-1.33 1.97zm-1.88-5.405c.303-1.006.17-1.41-.032-2.36-.157-.717-.818-1.69-1.332-1.993.134.112.38.437.638.93.447.84.895 2.08.604 3.11-.112.402-.38.458-.56.47-.783.09-.324-.94-.65-2.34-.367-1.566-.748-1.678-.838-1.802-.46-2.036-.962-1.835-1.108-2.596-.122-.682.594-1.242-.38-1.432-.302-.056-.728-.358-.896-.38-.168-.023-.257-1.13.37-1.163.615-.045.727.693.615.984-.17.3.02.41.32.31.25-.08.09-.72.15-.81-.15-.94-.55-1.07-.95-1.15-1.54.13-.85 1.83-1 1.67-.22-.23-.87-.02-.87-.16.01-.87-.28-1.37-.68-1.38-.44-.01-.62.62-.65.97-.03.34.19 1.04.36.99.11-.03.3-.26.1-.24-.1 0-.25-.24-.28-.53-.01-.29.1-.58.48-.57.44.01.44.89.39.92-.14.1-.32.29-.34.33-.14.24-.42.3-.54.4-.19.2-.23.43-.09.51.52.29.35.63 1.07.65.47.02.82-.07 1.14-.17.25-.08 1.04-.24 1.21-.54.08-.12.17-.12.23-.09.11.06.14.27-.14.34-.39.12-.78.33-1.14.46-.34.15-.46.2-.78.26-.74.14-1.28-.27-.79.21.17.16.33.26.75.25.94-.04 1.98-1.17 2.08-.66.03.11-.29.24-.53.37-.88.42-1.49 1.27-2.05.98-.51-.27-1.01-1.51-1-.95.01.86-1.13 1.62-.6 2.607-.34.09-1.12 1.734-1.23 2.585-.07.495.05 1.1-.08 1.435-.17.49-.93-.47-.68-1.65.05-.2 0-.25-.05-.15-.3.546-.13 1.32.11 1.855.1.23.36.33.55.532.39.45 1.94 1.59 2.21 1.87.35.33.25 1.09-.47 1.17.37.69.73.76.72 1.89.43-.22.26-.714.08-1.03-.12-.22-.28-.32-.25-.38.03-.03.25-.22.37-.08.38.43 1.1.51 1.86.407.77-.09 1.6-.36 1.98-.97.18-.29.3-.39.38-.34.09.043.12.25.11.58-.01.36-.154.73-.26 1.03-.1.35-.13.58.2.6.09-.63.27-1.25.317-1.87.055-.72-.46-2.04.1-2.7.144-.18.323-.2.57-.2.033-.9 1.41-.83 1.87-.46 0-.2-.435-.39-.614-.47zM18.56 22.7c-.08.146-.28.258-.124.28.057.01.213-.122.28-.28.056-.19.112-.29.023-.325-.11-.033-.08.17-.18.325zm2.562-6.065c-.134-.033-.112.17-.045.146.045 0 .1.07.078.17-.022.14-.01.23.09.23.01 0 .033 0 .033-.03.045-.28-.09-.48-.156-.5zm.303 1.03c-.112.01-.09-.246.268-.223-.225.022-.146.223-.268.223zm.917-.19c.325-.146.436.078.325.122-.113.035-.124-.178-.325-.122zm1.354-.907c-.146.012-.102.078-.034.1.09.023.18.18.2.348 0 .022.113-.023.113-.057.012-.27-.223-.41-.28-.4zm.65-2.417c-.09-.08-.18-.16-.27-.16-.224.03-.112.26-.145.37-.04.12-.21.23-.1.31.1.08.17-.12.38-.2.06-.02.32.01.37-.11.01-.05-.13-.12-.23-.2zm1.24 4.95c-.212-.13-.257-.36-.334-.28-.236.26.29.8.514.84.134.02.235-.15.202-.31-.045-.21-.203-.13-.38-.24z"/></g><g transform="translate(231 359)"><circle cx="17.531" cy="17.531" r="17.269" fill="#464354"/><circle cx="17.531" cy="17.531" r="17.269" fill="url(#e)" opacity=".3"/><circle cx="17.531" cy="17.531" r="13.602" fill="#D2DBE0" opacity=".6"/><path fill="#EBE8E3" d="M24.458 11.263l-2.084 10.445-6.3 2.092-5.47-2.092.557-2.79h2.33l-.22 1.152 3.31 1.26 3.81-1.26.53-2.656h-9.47l.46-2.327h9.48l.3-1.498h-9.47l.46-2.33h11.79"/></g><g transform="translate(155 146)"><circle cx="24.121" cy="24.121" r="23.851" fill="#464354"/><circle cx="24.121" cy="24.121" r="23.851" fill="url(#f)" opacity=".3"/><circle cx="24.121" cy="24.121" r="18.584" fill="url(#g)" opacity=".3"/><circle cx="24.121" cy="24.121" r="14.043" fill="#63ACCD" opacity=".6"/><path fill="#EBE8E3" d="M33.29 28.706c0 .405-.228.784-.598.96l-3.776 1.888c-.152.084-.312.118-.48.118-.168 0-.328-.034-.48-.118l-3.776-1.888c-.025-.008-.042-.016-.06-.033-.015.017-.033.025-.057.033l-3.776 1.888c-.152.084-.312.118-.48.118-.17 0-.33-.034-.48-.118l-3.776-1.888c-.37-.176-.59-.555-.59-.96V25.2c0-.43.26-.817.66-.994l3.66-1.567v-3.38c0-.43.27-.82.66-1l3.78-1.62c.14-.06.28-.09.42-.09.15 0 .29.02.43.08l3.78 1.62c.4.17.66.56.66.99v3.37l3.66 1.57c.41.18.66.56.66.99v3.51zM23.21 25.04l-3.403-1.458-3.404 1.458 3.404 1.458 3.404-1.458zm.372 3.666V26.06l-3.236 1.382v2.882l3.236-1.618zm4.256-9.463L24.12 17.65l-3.715 1.593 3.716 1.592 3.72-1.592zm.06 3.396v-2.25l-3.238 1.39v2.25l3.237-1.39zm3.942 2.4l-3.404-1.46-3.404 1.46 3.404 1.45 3.404-1.46zm.37 3.66v-2.64l-3.235 1.38v2.88l3.235-1.62z"/></g><g transform="translate(104 44)"><circle cx="19.911" cy="19.911" r="19.698" fill="#464354"/><circle cx="19.911" cy="19.911" r="19.698" fill="url(#h)" opacity=".3"/><circle cx="19.911" cy="19.911" r="16.317" fill="url(#i)" opacity=".3"/><circle cx="19.911" cy="19.911" r="13.043" fill="#DF694B" opacity=".6"/><path fill="#EBE8E3" d="M19.33 19.33h-5.802v-5.802h5.802v5.802zm0 6.964h-5.802V20.49h5.802v5.804zm-1.16-8.124v-3.482h-3.482v3.482h3.482zm0 6.954V21.65h-3.482v3.474h3.482zm-1.16-8.115h-1.16v-1.16h1.16v1.16zm0 6.96h-1.16v-1.16h1.16v1.16zm9.284-4.64H20.49v-5.81h5.804v5.8zm0 4.64h-3.482v-1.16h-1.16v3.48h-1.16v-5.8h3.48v1.16h1.16v-1.16h1.162v3.48zm-1.16-5.8v-3.49H21.65v3.48h3.483zm-1.162-1.16h-1.16v-1.16h1.16v1.16zm0 9.28h-1.16v-1.16h1.16v1.16zm2.322 0h-1.16v-1.16h1.16v1.16z"/></g><g transform="translate(533 48)"><circle cx="24.949" cy="24.949" r="24.651" fill="#464354"/><circle cx="24.949" cy="24.949" r="24.651" fill="url(#d)" opacity=".3"/><circle cx="24.949" cy="24.949" r="19.677" fill="url(#e)" opacity=".3"/><circle cx="24.949" cy="24.949" r="15.499" fill="#D2DBE0" opacity=".6"/><path fill="#EBE8E3" d="M24.948 25.97c1.69 0 3.225.69 4.335 1.8l-1.445 1.445c-.74-.74-1.762-1.2-2.89-1.2-1.127 0-2.15.46-2.89 1.2l-1.445-1.445c1.11-1.11 2.644-1.8 4.335-1.8zm-7.228-1.093c1.93-1.93 4.498-2.994 7.228-2.994 2.73 0 5.297 1.063 7.228 2.994l-1.445 1.445c-1.54-1.545-3.59-2.395-5.78-2.395-2.18 0-4.24.85-5.78 2.395l-1.44-1.445zm12.8-5.958c1.704.72 3.234 1.75 4.548 3.06l-1.445 1.44c-2.317-2.32-5.397-3.6-8.674-3.6-3.28 0-6.36 1.27-8.68 3.59l-1.45-1.45c1.31-1.31 2.84-2.35 4.55-3.07 1.76-.75 3.63-1.13 5.57-1.13 1.93 0 3.8.38 5.57 1.12zm-6.594 12.16c0-.57.458-1.03 1.022-1.03.564 0 1.022.46 1.022 1.02s-.457 1.02-1.022 1.02c-.564 0-1.022-.46-1.022-1.03z"/></g><g transform="translate(481 178)"><circle cx="19.911" cy="19.911" r="19.698" fill="#464354"/><circle cx="19.911" cy="19.911" r="19.698" fill="url(#h)" opacity=".3"/><circle cx="19.911" cy="19.911" r="16.317" fill="url(#i)" opacity=".3"/><circle cx="19.911" cy="19.911" r="13.043" fill="#DF694B" opacity=".6"/><path fill="#EBE8E3" d="M24.027 27.145h-8.233c-1.497 0-2.514-.914-2.514-2.44 0-2.128.5-5.397 3.26-5.397.29 0 1.525 1.31 3.37 1.31 1.847 0 3.08-1.31 3.373-1.31 2.76 0 3.26 3.27 3.26 5.398 0 1.525-1.02 2.44-2.516 2.44zM19.91 19.91c-1.996 0-3.616-1.62-3.616-3.616 0-1.997 1.62-3.617 3.617-3.617 2 0 3.62 1.62 3.62 3.617 0 1.996-1.62 3.617-3.61 3.617z"/></g><g transform="translate(281 91)"><circle cx="30.654" cy="30.654" r="30.311" fill="#464354"/><circle cx="30.654" cy="30.654" r="30.311" fill="url(#f)" opacity=".3"/><circle cx="30.654" cy="30.654" r="23.617" fill="url(#g)" opacity=".3"/><circle cx="30.654" cy="30.654" r="17.846" fill="#63ACCD" opacity=".6"/><path fill="#EBE8E3" d="M30.654 19.003c-6.436 0-11.65 5.215-11.65 11.65 0 6.437 5.214 11.653 11.65 11.653s11.652-5.216 11.652-11.652c0-6.436-5.216-11.65-11.652-11.65zm.174 20.39c-4.83 0-8.74-3.91-8.74-8.74s3.91-8.738 8.74-8.738c2.357 0 4.333.86 5.853 2.286l-2.37 2.29c-.65-.62-1.78-1.35-3.48-1.35-2.98 0-5.41 2.47-5.41 5.52 0 3.05 2.44 5.52 5.42 5.52 3.46 0 4.76-2.48 4.96-3.77h-4.96v-3h8.26c.07.44.14.88.14 1.45 0 5-3.34 8.54-8.39 8.54z"/></g></g></svg>