<?xml version="1.0" encoding="utf-8"?>
<!-- Generator: Adobe Illustrator 21.0.2, SVG Export Plug-In . SVG Version: 6.00 Build 0)  -->
<svg version="1.1" id="artwork" xmlns="http://www.w3.org/2000/svg" xmlns:xlink="http://www.w3.org/1999/xlink" x="0px" y="0px"
	 viewBox="0 0 111.79 111.79" style="enable-background:new 0 0 111.79 111.79;" xml:space="preserve">
<style type="text/css">
	.st0{fill:#FFFFFF;stroke:#64B5F6;stroke-width:4;stroke-miterlimit:10;}
	.st1{fill:#EBE8E3;stroke:#464354;stroke-width:2.2522;stroke-miterlimit:10;}
	.st2{fill:#EBE8E3;}
	.st3{fill:none;stroke:#C3BBBB;stroke-width:2;stroke-linecap:round;stroke-miterlimit:10;stroke-dasharray:6,8;}
	.st4{fill:#D2DBE0;}
	.st5{fill:#EBE8E3;stroke:#464354;stroke-width:3;stroke-miterlimit:10;}
	.st6{fill:#D2DBE0;stroke:#D2DBE0;stroke-width:3;stroke-miterlimit:10;}
	.st7{fill:none;stroke:#464354;stroke-width:3;stroke-miterlimit:10;}
	.st8{fill:none;stroke:#64B5F6;stroke-width:3;stroke-miterlimit:10;}
	.st9{fill:#64B5F6;}
	.st10{fill:none;stroke:#464354;stroke-width:2;stroke-linecap:round;stroke-linejoin:round;stroke-miterlimit:10;}
	.st11{fill:#C3BBBB;}
	.st12{fill:#8D8C94;}
	.st13{fill:#C3BBBB;stroke:#464354;stroke-width:4;stroke-miterlimit:10;}
	.st14{fill:#EBE8E3;stroke:#EBE8E3;stroke-width:3;stroke-miterlimit:10;}
	.st15{fill:#464354;stroke:#464354;stroke-width:3;stroke-miterlimit:10;}
	.st16{fill:#464354;}
	.st17{fill:#EBE8E3;stroke:#C3BBBB;stroke-width:3;stroke-linejoin:round;stroke-miterlimit:10;}
	.st18{fill:#EBE8E3;stroke:#464354;stroke-width:4;stroke-miterlimit:10;}
	.st19{fill:none;stroke:#464354;stroke-width:4;stroke-miterlimit:10;}
	.st20{fill:#D2DBE0;stroke:#464354;stroke-width:4;stroke-miterlimit:10;}
	.st21{fill:#EBE8E3;stroke:#64B5F6;stroke-width:4;stroke-miterlimit:10;}
	.st22{fill:#149F84;}
	.st23{fill:#22313F;}
	.st24{fill:#D2DBE0;stroke:#464354;stroke-width:3;stroke-miterlimit:10;}
	.st25{fill:none;stroke:#4D4D4D;stroke-width:4;stroke-miterlimit:10;}
	.st26{fill:#DF694B;}
	.st27{fill:none;stroke:#D2DBE0;stroke-width:3;stroke-miterlimit:10;}
	.st28{fill:#EBE8E3;stroke:#464354;stroke-width:5.8823;stroke-miterlimit:10;}
	.st29{fill:none;stroke:#464354;stroke-width:5.8823;stroke-miterlimit:10;}
	.st30{fill:#D2DBE0;stroke:#D2DBE0;stroke-width:5.8823;stroke-miterlimit:10;}
	.st31{fill:none;stroke:#64B5F6;stroke-width:5.8823;stroke-miterlimit:10;}
	.st32{fill:none;stroke:#464354;stroke-width:3.9216;stroke-linecap:round;stroke-linejoin:round;stroke-miterlimit:10;}
	.st33{fill:none;stroke:#D2DBE0;stroke-width:5.8823;stroke-miterlimit:10;}
	.st34{fill:#EBE8E3;stroke:#464354;stroke-width:5.9536;stroke-miterlimit:10;}
	.st35{fill:#D2DBE0;stroke:#D2DBE0;stroke-width:5.9536;stroke-miterlimit:10;}
	.st36{fill:none;stroke:#464354;stroke-width:5.9536;stroke-miterlimit:10;}
	.st37{fill:none;stroke:#64B5F6;stroke-width:5.9536;stroke-miterlimit:10;}
	.st38{fill:none;stroke:#464354;stroke-width:3.9691;stroke-linecap:round;stroke-linejoin:round;stroke-miterlimit:10;}
	.st39{fill:none;stroke:#D2DBE0;stroke-width:5.9536;stroke-miterlimit:10;}
	.st40{fill:#FFFFFF;}
	.st41{fill:#D15627;}
	.st42{fill:#39BBA2;}
	.st43{fill:#EBE8E3;stroke:#464354;stroke-width:3;stroke-linejoin:round;stroke-miterlimit:10;}
	.st44{fill:none;stroke:#464354;stroke-width:3;stroke-linecap:round;stroke-linejoin:round;stroke-miterlimit:10;}
	.st45{fill:none;stroke:#C3BBBB;stroke-width:3;stroke-linecap:round;stroke-linejoin:round;stroke-miterlimit:10;}
	.st46{fill:none;stroke:#464354;stroke-width:3;stroke-linejoin:round;stroke-miterlimit:10;}
	.st47{clip-path:url(#SVGID_2_);}
	.st48{fill:#C3BBBB;stroke:#C3BBBB;stroke-width:3;stroke-miterlimit:10;}
	.st49{fill:#8D8C94;stroke:#8D8C94;stroke-width:3;stroke-miterlimit:10;}
	.st50{fill:none;stroke:#64B5F6;stroke-width:4;stroke-miterlimit:10;}
	.st51{fill:#EBE7E5;}
	.st52{fill:#FFFFFF;stroke:#FFFFFF;stroke-width:3;stroke-miterlimit:10;}
	.st53{fill:none;stroke:#8D8C94;stroke-width:2;stroke-miterlimit:10;}
	.st54{fill:#BBDEFB;stroke:#64B5F6;stroke-width:4;stroke-miterlimit:10;}
	.st55{clip-path:url(#SVGID_4_);}
	.st56{fill:none;stroke:#8D8C94;stroke-width:3;stroke-miterlimit:10;}
	.st57{clip-path:url(#SVGID_6_);}
	.st58{clip-path:url(#SVGID_8_);}
	.st59{fill:none;stroke:#8D8C94;stroke-width:4;stroke-miterlimit:10;}
	.st60{fill:#D2DBE0;stroke:#464354;stroke-width:3;stroke-linejoin:round;stroke-miterlimit:10;}
	.st61{fill:#FFFFFF;stroke:#464354;stroke-width:3;stroke-linejoin:round;stroke-miterlimit:10;}
	.st62{fill:#64B5F6;stroke:#464354;stroke-width:3;stroke-linejoin:round;stroke-miterlimit:10;}
	.st63{clip-path:url(#SVGID_10_);}
	.st64{fill:#8D8C94;stroke:#464354;stroke-width:3;stroke-linejoin:round;stroke-miterlimit:10;}
	.st65{fill:#C3BBBB;stroke:#464354;stroke-width:3;stroke-linejoin:round;stroke-miterlimit:10;}
	.st66{fill:none;stroke:#C3BBBB;stroke-width:1.5769;stroke-linecap:round;stroke-miterlimit:10;stroke-dasharray:9.4615;}
	.st67{fill:#C3BBBB;stroke:#464354;stroke-width:3.1538;stroke-miterlimit:10;}
	.st68{fill:none;stroke:#464354;stroke-width:3.1538;stroke-miterlimit:10;}
	.st69{clip-path:url(#SVGID_12_);}
	.st70{fill:#FFFFFF;stroke:#FFFFFF;stroke-width:2.3654;stroke-miterlimit:10;}
	.st71{fill:#464354;stroke:#464354;stroke-width:2.3654;stroke-miterlimit:10;}
	.st72{fill:none;stroke:#8D8C94;stroke-width:3.1538;stroke-miterlimit:10;}
	.st73{fill:#EBE8E3;stroke:#464354;stroke-width:2.3654;stroke-linejoin:round;stroke-miterlimit:10;}
	.st74{fill:#FFFFFF;stroke:#464354;stroke-width:2.3654;stroke-linejoin:round;stroke-miterlimit:10;}
	.st75{fill:none;stroke:#464354;stroke-width:2.3654;stroke-linejoin:round;stroke-miterlimit:10;}
	.st76{fill:#D2DBE0;stroke:#464354;stroke-width:2.3654;stroke-linejoin:round;stroke-miterlimit:10;}
	.st77{fill:#64B5F6;stroke:#464354;stroke-width:2.3654;stroke-linejoin:round;stroke-miterlimit:10;}
	.st78{fill:#8D8C94;stroke:#464354;stroke-width:2.3654;stroke-linejoin:round;stroke-miterlimit:10;}
	.st79{fill:#C3BBBB;stroke:#464354;stroke-width:2.3654;stroke-linejoin:round;stroke-miterlimit:10;}
	.st80{clip-path:url(#SVGID_14_);}
	.st81{fill:#8D8C94;stroke:#464354;stroke-width:4;stroke-miterlimit:10;}
	.st82{fill:#EBE8E3;stroke:#464354;stroke-width:2.1022;stroke-miterlimit:10;}
	.st83{fill:none;stroke:#464354;stroke-width:2.1022;stroke-miterlimit:10;}
	.st84{fill:none;stroke:#64B5F6;stroke-width:2.1022;stroke-miterlimit:10;}
	.st85{fill:none;stroke:#464354;stroke-width:1.4015;stroke-linecap:round;stroke-linejoin:round;stroke-miterlimit:10;}
	.st86{fill:#8D8C94;stroke:#464354;stroke-width:2.8029;stroke-miterlimit:10;}
	.st87{fill:#D2DBE0;stroke:#464354;stroke-width:2.8029;stroke-miterlimit:10;}
	.st88{fill:#C3BBBB;stroke:#464354;stroke-width:2.8029;stroke-miterlimit:10;}
	.st89{fill:#EBE8E3;stroke:#464354;stroke-width:2.8029;stroke-miterlimit:10;}
	.st90{fill:#8D8C94;stroke:#464354;stroke-width:3.0755;stroke-miterlimit:10;}
	.st91{fill:#D2DBE0;stroke:#464354;stroke-width:3.0755;stroke-miterlimit:10;}
	.st92{fill:#C3BBBB;stroke:#464354;stroke-width:3.0755;stroke-miterlimit:10;}
	.st93{fill:#EBE8E3;stroke:#464354;stroke-width:3.0755;stroke-miterlimit:10;}
	.st94{fill:#D2DBE0;stroke:#464354;stroke-width:3.076;stroke-linejoin:round;stroke-miterlimit:10;}
	.st95{fill:#8D8C94;stroke:#464354;stroke-width:3;stroke-miterlimit:10;}
	.st96{fill:#C3BBBB;stroke:#464354;stroke-width:3;stroke-miterlimit:10;}
	.st97{fill:#EBE8E3;stroke:#C3BBBB;stroke-width:3;stroke-miterlimit:10;}
	.st98{fill:none;stroke:#C3BBBB;stroke-width:3;stroke-miterlimit:10;}
	.st99{fill:#EBE8E3;stroke:#C3BBBB;stroke-width:4;stroke-linejoin:round;stroke-miterlimit:10;}
	.st100{fill:none;stroke:#C3BBBB;stroke-width:3;stroke-linejoin:round;stroke-miterlimit:10;}
	.st101{fill:none;stroke:#C3BBBB;stroke-width:1.58;stroke-linecap:round;stroke-miterlimit:10;stroke-dasharray:4.7401,6.3202;}
	.st102{fill:#EBE8E3;stroke:#C3BBBB;stroke-width:2.3701;stroke-miterlimit:10;}
	.st103{fill:#8D8C94;stroke:#464354;stroke-width:2.3701;stroke-miterlimit:10;}
	.st104{fill:#C3BBBB;stroke:#464354;stroke-width:2.3701;stroke-miterlimit:10;}
	.st105{fill:#EBE8E3;stroke:#464354;stroke-width:2.3701;stroke-miterlimit:10;}
	.st106{fill:none;stroke:#C3BBBB;stroke-width:2.3701;stroke-miterlimit:10;}
	.st107{fill:#FFFFFF;stroke:#FFFFFF;stroke-width:2.3701;stroke-miterlimit:10;}
	.st108{fill:#464354;stroke:#464354;stroke-width:2.3701;stroke-miterlimit:10;}
	.st109{fill:#EBE8E3;stroke:#C3BBBB;stroke-width:3.1601;stroke-linejoin:round;stroke-miterlimit:10;}
	.st110{fill:none;stroke:#C3BBBB;stroke-width:2.3701;stroke-linejoin:round;stroke-miterlimit:10;}
	.st111{fill:#EBE8E3;stroke:#464354;stroke-width:2.5653;stroke-miterlimit:10;}
	.st112{fill:none;stroke:#464354;stroke-width:2.5653;stroke-miterlimit:10;}
	.st113{fill:none;stroke:#64B5F6;stroke-width:2.5653;stroke-miterlimit:10;}
	.st114{fill:none;stroke:#464354;stroke-width:1.7102;stroke-linecap:round;stroke-linejoin:round;stroke-miterlimit:10;}
	.st115{fill:none;stroke:#8D8C94;stroke-width:5.9001;stroke-miterlimit:10;}
	.st116{fill:#D2DBE0;stroke:#464354;stroke-width:5.3301;stroke-miterlimit:10;}
	.st117{fill:#FFFFFF;stroke:#464354;stroke-width:5.3301;stroke-miterlimit:10;}
	.st118{fill:none;stroke:#464354;stroke-width:2;stroke-miterlimit:10;}
	.st119{fill:#EBE8E3;stroke:#464354;stroke-width:2;stroke-miterlimit:10;}
	.st120{fill:none;stroke:#64B5F6;stroke-width:3;stroke-linejoin:round;stroke-miterlimit:10;}
	.st121{fill:none;stroke:#D2DBE0;stroke-linejoin:round;stroke-miterlimit:10;}
	.st122{fill:#464354;stroke:#464354;stroke-width:3;stroke-linejoin:round;stroke-miterlimit:10;}
	.st123{clip-path:url(#SVGID_16_);}
	.st124{clip-path:url(#SVGID_18_);}
	.st125{clip-path:url(#SVGID_20_);}
	.st126{fill:#FFFFFF;stroke:#64B5F6;stroke-width:3;stroke-miterlimit:10;}
	.st127{clip-path:url(#SVGID_22_);}
	.st128{fill:#D2DBE0;stroke:#D2DBE0;stroke-width:1.7365;stroke-miterlimit:10;}
	.st129{fill:#464354;stroke:#464354;stroke-width:1.7365;stroke-miterlimit:10;}
	.st130{fill:#C3BBBB;stroke:#C3BBBB;stroke-width:1.7365;stroke-miterlimit:10;}
	.st131{fill:#8D8C94;stroke:#8D8C94;stroke-width:1.7365;stroke-miterlimit:10;}
	.st132{fill:none;stroke:#64B5F6;stroke-width:2.3154;stroke-miterlimit:10;}
	.st133{clip-path:url(#SVGID_24_);}
	.st134{fill:#EBE8E3;stroke:#464354;stroke-width:1.7365;stroke-miterlimit:10;}
	.st135{fill:#C3BBBB;stroke:#464354;stroke-width:2;stroke-linejoin:round;stroke-miterlimit:10;}
	.st136{fill:#8D8C94;stroke:#464354;stroke-width:2;stroke-linejoin:round;stroke-miterlimit:10;}
	.st137{fill:#464354;stroke:#464354;stroke-width:2;stroke-linejoin:round;stroke-miterlimit:10;}
	.st138{fill:#EBE8E3;stroke:#464354;stroke-width:2;stroke-linejoin:round;stroke-miterlimit:10;}
	.st139{fill:none;stroke:#464354;stroke-width:1.7365;stroke-miterlimit:10;}
	.st140{clip-path:url(#SVGID_26_);}
	.st141{fill:none;stroke:#64B5F6;stroke-width:2;stroke-miterlimit:10;}
	.st142{clip-path:url(#SVGID_28_);}
	.st143{clip-path:url(#SVGID_30_);}
	.st144{clip-path:url(#SVGID_32_);}
	.st145{fill:#FFFFFF;stroke:#64B5F6;stroke-width:15.0498;stroke-miterlimit:10;}
	.st146{clip-path:url(#SVGID_34_);}
	.st147{fill:#D2DBE0;stroke:#D2DBE0;stroke-width:11.2873;stroke-miterlimit:10;}
	.st148{fill:#464354;stroke:#464354;stroke-width:11.2873;stroke-miterlimit:10;}
	.st149{fill:#EBE8E3;stroke:#464354;stroke-width:11.2873;stroke-linejoin:round;stroke-miterlimit:10;}
	.st150{clip-path:url(#SVGID_36_);}
	.st151{clip-path:url(#SVGID_38_);}
	.st152{fill:none;stroke:#464354;stroke-width:2;stroke-linejoin:round;stroke-miterlimit:10;}
	.st153{fill:#D2DBE0;stroke:#64B5F6;stroke-width:4;stroke-miterlimit:10;}
	.st154{fill:#8D8C94;stroke:#464354;stroke-width:1.5878;stroke-linejoin:round;stroke-miterlimit:10;}
	.st155{fill:#8D8C94;stroke:#464354;stroke-width:2.0767;stroke-linejoin:round;stroke-miterlimit:10;}
	.st156{fill:#64B5F6;stroke:#464354;stroke-width:2.0033;stroke-miterlimit:10;}
	.st157{fill:none;stroke:#464354;stroke-width:2.0767;stroke-miterlimit:10;}
	.st158{fill:#EBE8E3;stroke:#464354;stroke-width:1.674;stroke-miterlimit:10;}
	.st159{fill:#64B5F6;stroke:#464354;stroke-width:1.674;stroke-miterlimit:10;}
	.st160{fill:#64B5F6;stroke:#464354;stroke-width:2.2522;stroke-miterlimit:10;}
	.st161{fill:#8D8C94;stroke:#464354;stroke-width:2.2937;stroke-linejoin:round;stroke-miterlimit:10;}
	.st162{fill:#64B5F6;stroke:#464354;stroke-width:3;stroke-miterlimit:10;}
	.st163{fill:none;stroke:#464354;stroke-width:2.2522;stroke-miterlimit:10;}
	.st164{fill:none;stroke:#464354;stroke-width:2.252;stroke-linecap:round;stroke-linejoin:round;stroke-miterlimit:10;}
	.st165{fill:none;stroke:#64B5F6;stroke-width:3;stroke-linecap:round;stroke-linejoin:round;stroke-miterlimit:10;}
	.st166{clip-path:url(#SVGID_40_);}
	.st167{clip-path:url(#SVGID_42_);}
	.st168{clip-path:url(#SVGID_44_);}
	.st169{fill:#EDC951;}
	.st170{fill:#81BDA4;}
	.st171{clip-path:url(#SVGID_46_);}
</style>
<g>
	<circle class="st4" cx="55.895" cy="55.895" r="48.896"/>
	<circle class="st50" cx="55.895" cy="55.895" r="48.896"/>
	<g>
		<g>
			<path class="st16" d="M42.895,60.395h-10c-4.136,0-7.5-3.364-7.5-7.5v-21c0-4.136,3.364-7.5,7.5-7.5h10
				c4.136,0,7.5,3.364,7.5,7.5v21C50.395,57.031,47.031,60.395,42.895,60.395z"/>
			<path class="st9" d="M32.895,27.395c-2.481,0-4.5,2.019-4.5,4.5v21c0,2.481,2.019,4.5,4.5,4.5h10c2.481,0,4.5-2.019,4.5-4.5v-21
				c0-2.481-2.019-4.5-4.5-4.5H32.895z"/>
			<path class="st16" d="M48.895,52.395h-22c-0.828,0-1.5-0.672-1.5-1.5v-19c0-0.828,0.672-1.5,1.5-1.5h22
				c0.828,0,1.5,0.672,1.5,1.5v19C50.395,51.723,49.723,52.395,48.895,52.395z"/>
			<rect x="28.395" y="33.395" class="st9" width="19" height="16"/>
			<g>
				<path class="st16" d="M39.395,55.395h-4c-0.553,0-1-0.447-1-1s0.447-1,1-1h4c0.553,0,1,0.447,1,1S39.948,55.395,39.395,55.395z"
					/>
			</g>
		</g>
		<g>
			<path class="st16" d="M78.895,87.395h-10c-4.136,0-7.5-3.364-7.5-7.5v-21c0-4.136,3.364-7.5,7.5-7.5h10
				c4.136,0,7.5,3.364,7.5,7.5v21C86.395,84.031,83.031,87.395,78.895,87.395z"/>
			<path class="st9" d="M68.895,54.395c-2.481,0-4.5,2.019-4.5,4.5v21c0,2.481,2.019,4.5,4.5,4.5h10c2.481,0,4.5-2.019,4.5-4.5v-21
				c0-2.481-2.019-4.5-4.5-4.5H68.895z"/>
			<path class="st16" d="M84.895,79.395h-22c-0.828,0-1.5-0.672-1.5-1.5v-19c0-0.828,0.672-1.5,1.5-1.5h22
				c0.828,0,1.5,0.672,1.5,1.5v19C86.395,78.723,85.723,79.395,84.895,79.395z"/>
			<rect x="64.395" y="60.395" class="st9" width="19" height="16"/>
			<g>
				<path class="st16" d="M75.395,82.395h-4c-0.553,0-1-0.447-1-1s0.447-1,1-1h4c0.553,0,1,0.447,1,1S75.948,82.395,75.395,82.395z"
					/>
			</g>
		</g>
		<g>
			<path class="st9" d="M55.395,81.395h-6c-0.828,0-1.5-0.672-1.5-1.5s0.672-1.5,1.5-1.5h6c0.828,0,1.5,0.672,1.5,1.5
				S56.223,81.395,55.395,81.395z M43.395,81.395h-6c-0.828,0-1.5-0.672-1.5-1.5s0.672-1.5,1.5-1.5h6c0.828,0,1.5,0.672,1.5,1.5
				S44.223,81.395,43.395,81.395z M31.395,81.395h-1.5c-0.828,0-1.5-0.672-1.5-1.5v-4.5c0-0.828,0.672-1.5,1.5-1.5
				s1.5,0.672,1.5,1.5v3c0.828,0,1.5,0.672,1.5,1.5S32.223,81.395,31.395,81.395z M29.895,70.895c-0.828,0-1.5-0.672-1.5-1.5v-6
				c0-0.828,0.672-1.5,1.5-1.5s1.5,0.672,1.5,1.5v6C31.395,70.223,30.723,70.895,29.895,70.895z"/>
		</g>
	</g>
	<g>
		<g>
			<path class="st16" d="M72.478,69.283c0.058,0.587,0.155,1.023,0.297,1.333c0.198,0.43,0.581,0.667,1.077,0.667
				c0.485,0,0.869-0.238,1.08-0.67c0.159-0.324,0.258-0.756,0.302-1.318l0.365-4.183c0.042-0.402,0.062-0.798,0.062-1.188
				c0-0.715-0.096-1.261-0.296-1.671c-0.173-0.354-0.559-0.776-1.412-0.776c-0.54,0-0.987,0.185-1.325,0.548
				c-0.332,0.354-0.501,0.836-0.501,1.431c0,0.352,0.025,0.932,0.077,1.74L72.478,69.283z"/>
		</g>
		<g>
			<path class="st16" d="M72.641,72.316c-0.335,0.334-0.513,0.762-0.513,1.239c0,0.539,0.192,0.99,0.554,1.306
				c0.348,0.3,0.758,0.453,1.221,0.453c0.46,0,0.869-0.155,1.214-0.462c0.357-0.317,0.545-0.765,0.545-1.296
				c0-0.479-0.181-0.909-0.522-1.241C74.449,71.637,73.315,71.639,72.641,72.316z"/>
		</g>
	</g>
	<g>
		<g>
			<path class="st16" d="M34.546,46.244c-0.384,0-0.768-0.146-1.061-0.439c-0.586-0.586-0.586-1.535,0-2.121l6.699-6.698
				c0.586-0.586,1.535-0.586,2.121,0s0.586,1.535,0,2.121l-6.699,6.698C35.313,46.098,34.929,46.244,34.546,46.244z"/>
		</g>
		<g>
			<path class="st16" d="M41.244,46.244c-0.384,0-0.768-0.146-1.061-0.439l-6.699-6.698c-0.586-0.586-0.586-1.535,0-2.121
				s1.535-0.586,2.121,0l6.699,6.698c0.586,0.586,0.586,1.535,0,2.121C42.012,46.098,41.628,46.244,41.244,46.244z"/>
		</g>
	</g>
</g>
</svg>
