<?xml version="1.0" encoding="utf-8"?>
<!-- Generator: Adobe Illustrator 21.0.2, SVG Export Plug-In . SVG Version: 6.00 Build 0)  -->
<svg version="1.1" id="artwork" xmlns="http://www.w3.org/2000/svg" xmlns:xlink="http://www.w3.org/1999/xlink" x="0px" y="0px"
	 viewBox="0 0 111.79 111.79" style="enable-background:new 0 0 111.79 111.79;" xml:space="preserve">
<style type="text/css">
	.st0{fill:#FFFFFF;stroke:#64B5F6;stroke-width:4;stroke-miterlimit:10;}
	.st1{fill:#EBE8E3;stroke:#464354;stroke-width:2.2522;stroke-miterlimit:10;}
	.st2{fill:#EBE8E3;}
	.st3{fill:none;stroke:#C3BBBB;stroke-width:2;stroke-linecap:round;stroke-miterlimit:10;stroke-dasharray:6,8;}
	.st4{fill:#D2DBE0;}
	.st5{fill:#EBE8E3;stroke:#464354;stroke-width:3;stroke-miterlimit:10;}
	.st6{fill:#D2DBE0;stroke:#D2DBE0;stroke-width:3;stroke-miterlimit:10;}
	.st7{fill:none;stroke:#464354;stroke-width:3;stroke-miterlimit:10;}
	.st8{fill:none;stroke:#64B5F6;stroke-width:3;stroke-miterlimit:10;}
	.st9{fill:#64B5F6;}
	.st10{fill:none;stroke:#464354;stroke-width:2;stroke-linecap:round;stroke-linejoin:round;stroke-miterlimit:10;}
	.st11{fill:#C3BBBB;}
	.st12{fill:#8D8C94;}
	.st13{fill:#C3BBBB;stroke:#464354;stroke-width:4;stroke-miterlimit:10;}
	.st14{fill:#EBE8E3;stroke:#EBE8E3;stroke-width:3;stroke-miterlimit:10;}
	.st15{fill:#464354;stroke:#464354;stroke-width:3;stroke-miterlimit:10;}
	.st16{fill:#464354;}
	.st17{fill:#EBE8E3;stroke:#C3BBBB;stroke-width:3;stroke-linejoin:round;stroke-miterlimit:10;}
	.st18{fill:#EBE8E3;stroke:#464354;stroke-width:4;stroke-miterlimit:10;}
	.st19{fill:none;stroke:#464354;stroke-width:4;stroke-miterlimit:10;}
	.st20{fill:#D2DBE0;stroke:#464354;stroke-width:4;stroke-miterlimit:10;}
	.st21{fill:#EBE8E3;stroke:#64B5F6;stroke-width:4;stroke-miterlimit:10;}
	.st22{fill:#149F84;}
	.st23{fill:#22313F;}
	.st24{fill:#D2DBE0;stroke:#464354;stroke-width:3;stroke-miterlimit:10;}
	.st25{fill:none;stroke:#4D4D4D;stroke-width:4;stroke-miterlimit:10;}
	.st26{fill:#DF694B;}
	.st27{fill:none;stroke:#D2DBE0;stroke-width:3;stroke-miterlimit:10;}
	.st28{fill:#EBE8E3;stroke:#464354;stroke-width:5.8823;stroke-miterlimit:10;}
	.st29{fill:none;stroke:#464354;stroke-width:5.8823;stroke-miterlimit:10;}
	.st30{fill:#D2DBE0;stroke:#D2DBE0;stroke-width:5.8823;stroke-miterlimit:10;}
	.st31{fill:none;stroke:#64B5F6;stroke-width:5.8823;stroke-miterlimit:10;}
	.st32{fill:none;stroke:#464354;stroke-width:3.9216;stroke-linecap:round;stroke-linejoin:round;stroke-miterlimit:10;}
	.st33{fill:none;stroke:#D2DBE0;stroke-width:5.8823;stroke-miterlimit:10;}
	.st34{fill:#EBE8E3;stroke:#464354;stroke-width:5.9536;stroke-miterlimit:10;}
	.st35{fill:#D2DBE0;stroke:#D2DBE0;stroke-width:5.9536;stroke-miterlimit:10;}
	.st36{fill:none;stroke:#464354;stroke-width:5.9536;stroke-miterlimit:10;}
	.st37{fill:none;stroke:#64B5F6;stroke-width:5.9536;stroke-miterlimit:10;}
	.st38{fill:none;stroke:#464354;stroke-width:3.9691;stroke-linecap:round;stroke-linejoin:round;stroke-miterlimit:10;}
	.st39{fill:none;stroke:#D2DBE0;stroke-width:5.9536;stroke-miterlimit:10;}
	.st40{fill:#FFFFFF;}
	.st41{fill:#D15627;}
	.st42{fill:#39BBA2;}
	.st43{fill:#EBE8E3;stroke:#464354;stroke-width:3;stroke-linejoin:round;stroke-miterlimit:10;}
	.st44{fill:none;stroke:#464354;stroke-width:3;stroke-linecap:round;stroke-linejoin:round;stroke-miterlimit:10;}
	.st45{fill:none;stroke:#C3BBBB;stroke-width:3;stroke-linecap:round;stroke-linejoin:round;stroke-miterlimit:10;}
	.st46{fill:none;stroke:#464354;stroke-width:3;stroke-linejoin:round;stroke-miterlimit:10;}
	.st47{clip-path:url(#SVGID_2_);}
	.st48{fill:#C3BBBB;stroke:#C3BBBB;stroke-width:3;stroke-miterlimit:10;}
	.st49{fill:#8D8C94;stroke:#8D8C94;stroke-width:3;stroke-miterlimit:10;}
	.st50{fill:none;stroke:#64B5F6;stroke-width:4;stroke-miterlimit:10;}
	.st51{fill:#EBE7E5;}
	.st52{fill:#FFFFFF;stroke:#FFFFFF;stroke-width:3;stroke-miterlimit:10;}
	.st53{fill:none;stroke:#8D8C94;stroke-width:2;stroke-miterlimit:10;}
	.st54{fill:#BBDEFB;stroke:#64B5F6;stroke-width:4;stroke-miterlimit:10;}
	.st55{clip-path:url(#SVGID_4_);}
	.st56{fill:none;stroke:#8D8C94;stroke-width:3;stroke-miterlimit:10;}
	.st57{clip-path:url(#SVGID_6_);}
	.st58{clip-path:url(#SVGID_8_);}
	.st59{fill:none;stroke:#8D8C94;stroke-width:4;stroke-miterlimit:10;}
	.st60{fill:#D2DBE0;stroke:#464354;stroke-width:3;stroke-linejoin:round;stroke-miterlimit:10;}
	.st61{fill:#FFFFFF;stroke:#464354;stroke-width:3;stroke-linejoin:round;stroke-miterlimit:10;}
	.st62{fill:#64B5F6;stroke:#464354;stroke-width:3;stroke-linejoin:round;stroke-miterlimit:10;}
	.st63{clip-path:url(#SVGID_10_);}
	.st64{fill:#8D8C94;stroke:#464354;stroke-width:3;stroke-linejoin:round;stroke-miterlimit:10;}
	.st65{fill:#C3BBBB;stroke:#464354;stroke-width:3;stroke-linejoin:round;stroke-miterlimit:10;}
	.st66{fill:none;stroke:#C3BBBB;stroke-width:1.5769;stroke-linecap:round;stroke-miterlimit:10;stroke-dasharray:9.4615;}
	.st67{fill:#C3BBBB;stroke:#464354;stroke-width:3.1538;stroke-miterlimit:10;}
	.st68{fill:none;stroke:#464354;stroke-width:3.1538;stroke-miterlimit:10;}
	.st69{clip-path:url(#SVGID_12_);}
	.st70{fill:#FFFFFF;stroke:#FFFFFF;stroke-width:2.3654;stroke-miterlimit:10;}
	.st71{fill:#464354;stroke:#464354;stroke-width:2.3654;stroke-miterlimit:10;}
	.st72{fill:none;stroke:#8D8C94;stroke-width:3.1538;stroke-miterlimit:10;}
	.st73{fill:#EBE8E3;stroke:#464354;stroke-width:2.3654;stroke-linejoin:round;stroke-miterlimit:10;}
	.st74{fill:#FFFFFF;stroke:#464354;stroke-width:2.3654;stroke-linejoin:round;stroke-miterlimit:10;}
	.st75{fill:none;stroke:#464354;stroke-width:2.3654;stroke-linejoin:round;stroke-miterlimit:10;}
	.st76{fill:#D2DBE0;stroke:#464354;stroke-width:2.3654;stroke-linejoin:round;stroke-miterlimit:10;}
	.st77{fill:#64B5F6;stroke:#464354;stroke-width:2.3654;stroke-linejoin:round;stroke-miterlimit:10;}
	.st78{fill:#8D8C94;stroke:#464354;stroke-width:2.3654;stroke-linejoin:round;stroke-miterlimit:10;}
	.st79{fill:#C3BBBB;stroke:#464354;stroke-width:2.3654;stroke-linejoin:round;stroke-miterlimit:10;}
	.st80{clip-path:url(#SVGID_14_);}
	.st81{fill:#8D8C94;stroke:#464354;stroke-width:4;stroke-miterlimit:10;}
	.st82{fill:#EBE8E3;stroke:#464354;stroke-width:2.1022;stroke-miterlimit:10;}
	.st83{fill:none;stroke:#464354;stroke-width:2.1022;stroke-miterlimit:10;}
	.st84{fill:none;stroke:#64B5F6;stroke-width:2.1022;stroke-miterlimit:10;}
	.st85{fill:none;stroke:#464354;stroke-width:1.4015;stroke-linecap:round;stroke-linejoin:round;stroke-miterlimit:10;}
	.st86{fill:#8D8C94;stroke:#464354;stroke-width:2.8029;stroke-miterlimit:10;}
	.st87{fill:#D2DBE0;stroke:#464354;stroke-width:2.8029;stroke-miterlimit:10;}
	.st88{fill:#C3BBBB;stroke:#464354;stroke-width:2.8029;stroke-miterlimit:10;}
	.st89{fill:#EBE8E3;stroke:#464354;stroke-width:2.8029;stroke-miterlimit:10;}
	.st90{fill:#8D8C94;stroke:#464354;stroke-width:3.0755;stroke-miterlimit:10;}
	.st91{fill:#D2DBE0;stroke:#464354;stroke-width:3.0755;stroke-miterlimit:10;}
	.st92{fill:#C3BBBB;stroke:#464354;stroke-width:3.0755;stroke-miterlimit:10;}
	.st93{fill:#EBE8E3;stroke:#464354;stroke-width:3.0755;stroke-miterlimit:10;}
	.st94{fill:#D2DBE0;stroke:#464354;stroke-width:3.076;stroke-linejoin:round;stroke-miterlimit:10;}
	.st95{fill:#8D8C94;stroke:#464354;stroke-width:3;stroke-miterlimit:10;}
	.st96{fill:#C3BBBB;stroke:#464354;stroke-width:3;stroke-miterlimit:10;}
	.st97{fill:#EBE8E3;stroke:#C3BBBB;stroke-width:3;stroke-miterlimit:10;}
	.st98{fill:none;stroke:#C3BBBB;stroke-width:3;stroke-miterlimit:10;}
	.st99{fill:#EBE8E3;stroke:#C3BBBB;stroke-width:4;stroke-linejoin:round;stroke-miterlimit:10;}
	.st100{fill:none;stroke:#C3BBBB;stroke-width:3;stroke-linejoin:round;stroke-miterlimit:10;}
	.st101{fill:none;stroke:#C3BBBB;stroke-width:1.58;stroke-linecap:round;stroke-miterlimit:10;stroke-dasharray:4.7401,6.3202;}
	.st102{fill:#EBE8E3;stroke:#C3BBBB;stroke-width:2.3701;stroke-miterlimit:10;}
	.st103{fill:#8D8C94;stroke:#464354;stroke-width:2.3701;stroke-miterlimit:10;}
	.st104{fill:#C3BBBB;stroke:#464354;stroke-width:2.3701;stroke-miterlimit:10;}
	.st105{fill:#EBE8E3;stroke:#464354;stroke-width:2.3701;stroke-miterlimit:10;}
	.st106{fill:none;stroke:#C3BBBB;stroke-width:2.3701;stroke-miterlimit:10;}
	.st107{fill:#FFFFFF;stroke:#FFFFFF;stroke-width:2.3701;stroke-miterlimit:10;}
	.st108{fill:#464354;stroke:#464354;stroke-width:2.3701;stroke-miterlimit:10;}
	.st109{fill:#EBE8E3;stroke:#C3BBBB;stroke-width:3.1601;stroke-linejoin:round;stroke-miterlimit:10;}
	.st110{fill:none;stroke:#C3BBBB;stroke-width:2.3701;stroke-linejoin:round;stroke-miterlimit:10;}
	.st111{fill:#EBE8E3;stroke:#464354;stroke-width:2.5653;stroke-miterlimit:10;}
	.st112{fill:none;stroke:#464354;stroke-width:2.5653;stroke-miterlimit:10;}
	.st113{fill:none;stroke:#64B5F6;stroke-width:2.5653;stroke-miterlimit:10;}
	.st114{fill:none;stroke:#464354;stroke-width:1.7102;stroke-linecap:round;stroke-linejoin:round;stroke-miterlimit:10;}
	.st115{fill:none;stroke:#8D8C94;stroke-width:5.9001;stroke-miterlimit:10;}
	.st116{fill:#D2DBE0;stroke:#464354;stroke-width:5.3301;stroke-miterlimit:10;}
	.st117{fill:#FFFFFF;stroke:#464354;stroke-width:5.3301;stroke-miterlimit:10;}
	.st118{fill:none;stroke:#464354;stroke-width:2;stroke-miterlimit:10;}
	.st119{fill:#EBE8E3;stroke:#464354;stroke-width:2;stroke-miterlimit:10;}
	.st120{fill:none;stroke:#64B5F6;stroke-width:3;stroke-linejoin:round;stroke-miterlimit:10;}
	.st121{fill:none;stroke:#D2DBE0;stroke-linejoin:round;stroke-miterlimit:10;}
	.st122{fill:#464354;stroke:#464354;stroke-width:3;stroke-linejoin:round;stroke-miterlimit:10;}
	.st123{clip-path:url(#SVGID_16_);}
	.st124{clip-path:url(#SVGID_18_);}
	.st125{clip-path:url(#SVGID_20_);}
	.st126{fill:#FFFFFF;stroke:#64B5F6;stroke-width:3;stroke-miterlimit:10;}
	.st127{clip-path:url(#SVGID_22_);}
	.st128{fill:#D2DBE0;stroke:#D2DBE0;stroke-width:1.7365;stroke-miterlimit:10;}
	.st129{fill:#464354;stroke:#464354;stroke-width:1.7365;stroke-miterlimit:10;}
	.st130{fill:#C3BBBB;stroke:#C3BBBB;stroke-width:1.7365;stroke-miterlimit:10;}
	.st131{fill:#8D8C94;stroke:#8D8C94;stroke-width:1.7365;stroke-miterlimit:10;}
	.st132{fill:none;stroke:#64B5F6;stroke-width:2.3154;stroke-miterlimit:10;}
	.st133{clip-path:url(#SVGID_24_);}
	.st134{fill:#EBE8E3;stroke:#464354;stroke-width:1.7365;stroke-miterlimit:10;}
	.st135{fill:#C3BBBB;stroke:#464354;stroke-width:2;stroke-linejoin:round;stroke-miterlimit:10;}
	.st136{fill:#8D8C94;stroke:#464354;stroke-width:2;stroke-linejoin:round;stroke-miterlimit:10;}
	.st137{fill:#464354;stroke:#464354;stroke-width:2;stroke-linejoin:round;stroke-miterlimit:10;}
	.st138{fill:#EBE8E3;stroke:#464354;stroke-width:2;stroke-linejoin:round;stroke-miterlimit:10;}
	.st139{fill:none;stroke:#464354;stroke-width:1.7365;stroke-miterlimit:10;}
	.st140{clip-path:url(#SVGID_26_);}
	.st141{fill:none;stroke:#64B5F6;stroke-width:2;stroke-miterlimit:10;}
	.st142{clip-path:url(#SVGID_28_);}
	.st143{clip-path:url(#SVGID_30_);}
	.st144{clip-path:url(#SVGID_32_);}
	.st145{fill:#FFFFFF;stroke:#64B5F6;stroke-width:15.0498;stroke-miterlimit:10;}
	.st146{clip-path:url(#SVGID_34_);}
	.st147{fill:#D2DBE0;stroke:#D2DBE0;stroke-width:11.2873;stroke-miterlimit:10;}
	.st148{fill:#464354;stroke:#464354;stroke-width:11.2873;stroke-miterlimit:10;}
	.st149{fill:#EBE8E3;stroke:#464354;stroke-width:11.2873;stroke-linejoin:round;stroke-miterlimit:10;}
	.st150{clip-path:url(#SVGID_36_);}
	.st151{clip-path:url(#SVGID_38_);}
	.st152{fill:none;stroke:#464354;stroke-width:2;stroke-linejoin:round;stroke-miterlimit:10;}
	.st153{fill:#D2DBE0;stroke:#64B5F6;stroke-width:4;stroke-miterlimit:10;}
	.st154{fill:#8D8C94;stroke:#464354;stroke-width:1.5878;stroke-linejoin:round;stroke-miterlimit:10;}
	.st155{fill:#8D8C94;stroke:#464354;stroke-width:2.0767;stroke-linejoin:round;stroke-miterlimit:10;}
	.st156{fill:#64B5F6;stroke:#464354;stroke-width:2.0033;stroke-miterlimit:10;}
	.st157{fill:none;stroke:#464354;stroke-width:2.0767;stroke-miterlimit:10;}
	.st158{fill:#EBE8E3;stroke:#464354;stroke-width:1.674;stroke-miterlimit:10;}
	.st159{fill:#64B5F6;stroke:#464354;stroke-width:1.674;stroke-miterlimit:10;}
	.st160{fill:#64B5F6;stroke:#464354;stroke-width:2.2522;stroke-miterlimit:10;}
	.st161{fill:#8D8C94;stroke:#464354;stroke-width:2.2937;stroke-linejoin:round;stroke-miterlimit:10;}
	.st162{fill:#64B5F6;stroke:#464354;stroke-width:3;stroke-miterlimit:10;}
	.st163{fill:none;stroke:#464354;stroke-width:2.2522;stroke-miterlimit:10;}
	.st164{fill:none;stroke:#464354;stroke-width:2.252;stroke-linecap:round;stroke-linejoin:round;stroke-miterlimit:10;}
	.st165{fill:none;stroke:#64B5F6;stroke-width:3;stroke-linecap:round;stroke-linejoin:round;stroke-miterlimit:10;}
	.st166{clip-path:url(#SVGID_40_);}
	.st167{clip-path:url(#SVGID_42_);}
	.st168{clip-path:url(#SVGID_44_);}
	.st169{fill:#EDC951;}
	.st170{fill:#81BDA4;}
	.st171{clip-path:url(#SVGID_46_);}
</style>
<g>
	<circle class="st153" cx="55.895" cy="55.895" r="48.896"/>
	<g>
		<g>
			<path class="st1" d="M55.988,25.298h-0.772c-0.239-0.873-0.587-1.707-1.027-2.487l0.541-0.541c0.888-0.888,0.888-2.325,0-3.213
				l-1.297-1.297c-0.888-0.881-2.325-0.881-3.205,0l-0.541,0.541c-0.78-0.433-1.614-0.78-2.495-1.027v-0.765
				c0-1.259-1.012-2.271-2.271-2.271h-1.83c-1.259,0-2.271,1.012-2.271,2.271v0.765c-0.88,0.239-1.714,0.595-2.495,1.027
				l-0.541-0.541c-0.881-0.881-2.317-0.881-3.205,0l-1.297,1.297c-0.888,0.888-0.888,2.325,0,3.213l0.541,0.541
				c-0.44,0.78-0.788,1.614-1.027,2.487h-0.772c-1.251,0-2.263,1.019-2.263,2.271v1.838c0,1.251,1.012,2.263,2.263,2.263h0.772
				c0.239,0.88,0.595,1.714,1.027,2.495l-0.541,0.541c-0.888,0.888-0.888,2.325,0,3.205l1.297,1.298
				c0.888,0.888,2.325,0.888,3.205,0l0.541-0.541c0.78,0.432,1.614,0.788,2.495,1.027v0.772c0,1.251,1.012,2.271,2.271,2.271h1.83
				c1.259,0,2.271-1.019,2.271-2.271v-0.772c0.88-0.247,1.714-0.595,2.495-1.027l0.541,0.541c0.881,0.888,2.317,0.888,3.205,0
				l1.297-1.298c0.888-0.88,0.888-2.317,0-3.205l-0.541-0.541c0.432-0.78,0.788-1.614,1.027-2.495h0.772
				c1.251,0,2.263-1.012,2.263-2.263v-1.838C58.251,26.317,57.239,25.298,55.988,25.298z M44.002,32.89
				c-2.425,0-4.394-1.969-4.394-4.402c0-2.433,1.969-4.402,4.394-4.402c2.433,0,4.402,1.969,4.402,4.402
				C48.404,30.92,46.435,32.89,44.002,32.89z"/>
		</g>
		<g>
			<path class="st1" d="M85.767,31.881h-0.772c-0.239-0.873-0.587-1.707-1.027-2.487l0.541-0.541c0.888-0.888,0.888-2.325,0-3.213
				l-1.297-1.297c-0.888-0.881-2.325-0.881-3.205,0l-0.541,0.541c-0.78-0.433-1.614-0.78-2.495-1.027v-0.765
				c0-1.259-1.012-2.271-2.271-2.271h-1.83c-1.259,0-2.271,1.012-2.271,2.271v0.765c-0.88,0.239-1.714,0.595-2.495,1.027
				l-0.541-0.541c-0.881-0.881-2.317-0.881-3.205,0l-1.297,1.297c-0.888,0.888-0.888,2.325,0,3.213l0.541,0.541
				c-0.44,0.78-0.788,1.614-1.027,2.487h-0.772c-1.251,0-2.263,1.019-2.263,2.271v1.838c0,1.251,1.012,2.263,2.263,2.263h0.772
				c0.239,0.88,0.595,1.714,1.027,2.495l-0.541,0.541c-0.888,0.888-0.888,2.325,0,3.205l1.297,1.298
				c0.888,0.888,2.325,0.888,3.205,0l0.541-0.541c0.78,0.432,1.614,0.788,2.495,1.027v0.772c0,1.251,1.012,2.271,2.271,2.271h1.83
				c1.259,0,2.271-1.019,2.271-2.271v-0.772c0.88-0.247,1.714-0.595,2.495-1.027l0.541,0.541c0.881,0.888,2.317,0.888,3.205,0
				l1.297-1.298c0.888-0.88,0.888-2.317,0-3.205l-0.541-0.541c0.432-0.78,0.788-1.614,1.027-2.495h0.772
				c1.251,0,2.263-1.012,2.263-2.263v-1.838C88.03,32.901,87.018,31.881,85.767,31.881z M73.781,39.473
				c-2.425,0-4.394-1.969-4.394-4.402c0-2.433,1.969-4.402,4.394-4.402c2.433,0,4.402,1.969,4.402,4.402
				C78.183,37.504,76.213,39.473,73.781,39.473z"/>
		</g>
	</g>
	<g>
		<rect x="20.798" y="30.306" class="st160" width="70.194" height="54.053"/>
		<line class="st163" x1="20.798" y1="38.061" x2="90.957" y2="38.061"/>
		<circle class="st16" cx="25.407" cy="34.071" r="1.583"/>
		<circle class="st16" cx="30.448" cy="34.071" r="1.583"/>
		<circle class="st16" cx="35.488" cy="34.071" r="1.583"/>
		<g>
			<path class="st16" d="M38.044,61.95v-2.073c0-0.173,0.099-0.297,0.247-0.346l10.715-4.197c0.148-0.05,0.247,0,0.247,0.147v2.691
				c0,0.173-0.074,0.247-0.247,0.321l-6.542,2.395v0.05l6.542,2.395c0.173,0.074,0.247,0.148,0.247,0.321v2.69
				c0,0.148-0.099,0.197-0.247,0.148l-10.715-4.197C38.143,62.247,38.044,62.123,38.044,61.95z"/>
			<path class="st16" d="M56.981,50.914c0.049-0.173,0.147-0.246,0.32-0.246h2.691c0.148,0,0.223,0.099,0.173,0.246l-5.382,16.838
				c-0.05,0.173-0.148,0.247-0.321,0.247h-2.666c-0.148,0-0.223-0.099-0.173-0.247L56.981,50.914z"/>
			<path class="st16" d="M62.537,63.654c0-0.173,0.05-0.247,0.247-0.321l6.543-2.395v-0.05l-6.543-2.395
				c-0.197-0.074-0.247-0.148-0.247-0.321v-2.691c0-0.147,0.099-0.197,0.247-0.147l10.715,4.197
				c0.148,0.049,0.247,0.173,0.247,0.346v2.073c0,0.173-0.099,0.297-0.247,0.346l-10.715,4.197c-0.148,0.049-0.247,0-0.247-0.148
				V63.654z"/>
		</g>
	</g>
	<g>
		<polygon class="st1" points="63.887,90.834 54.683,94.469 58.23,85.177 94.087,49.32 99.744,54.977 		"/>
		<line class="st164" x1="58.23" y1="85.177" x2="63.887" y2="90.834"/>
		<line class="st164" x1="90.663" y1="52.743" x2="96.32" y2="58.4"/>
	</g>
</g>
</svg>
