<?xml version="1.0" encoding="utf-8"?>
<!-- Generator: Adobe Illustrator 21.0.2, SVG Export Plug-In . SVG Version: 6.00 Build 0)  -->
<svg version="1.1" id="artwork" xmlns="http://www.w3.org/2000/svg" xmlns:xlink="http://www.w3.org/1999/xlink" x="0px" y="0px"
	 viewBox="0 0 136.25 128.71" style="enable-background:new 0 0 136.25 128.71;" xml:space="preserve">
<style type="text/css">
	.st0{fill:#FFFFFF;stroke:#64B5F6;stroke-width:4;stroke-miterlimit:10;}
	.st1{fill:#EBE8E3;stroke:#464354;stroke-width:2.2522;stroke-miterlimit:10;}
	.st2{fill:#EBE8E3;}
	.st3{fill:none;stroke:#C3BBBB;stroke-width:2;stroke-linecap:round;stroke-miterlimit:10;stroke-dasharray:6,8;}
	.st4{fill:#D2DBE0;}
	.st5{fill:#EBE8E3;stroke:#464354;stroke-width:3;stroke-miterlimit:10;}
	.st6{fill:#D2DBE0;stroke:#D2DBE0;stroke-width:3;stroke-miterlimit:10;}
	.st7{fill:none;stroke:#464354;stroke-width:3;stroke-miterlimit:10;}
	.st8{fill:none;stroke:#64B5F6;stroke-width:3;stroke-miterlimit:10;}
	.st9{fill:#64B5F6;}
	.st10{fill:none;stroke:#464354;stroke-width:2;stroke-linecap:round;stroke-linejoin:round;stroke-miterlimit:10;}
	.st11{fill:#C3BBBB;}
	.st12{fill:#8D8C94;}
	.st13{fill:#C3BBBB;stroke:#464354;stroke-width:4;stroke-miterlimit:10;}
	.st14{fill:#EBE8E3;stroke:#EBE8E3;stroke-width:3;stroke-miterlimit:10;}
	.st15{fill:#464354;stroke:#464354;stroke-width:3;stroke-miterlimit:10;}
	.st16{fill:#464354;}
	.st17{fill:#EBE8E3;stroke:#C3BBBB;stroke-width:3;stroke-linejoin:round;stroke-miterlimit:10;}
	.st18{fill:#EBE8E3;stroke:#464354;stroke-width:4;stroke-miterlimit:10;}
	.st19{fill:none;stroke:#464354;stroke-width:4;stroke-miterlimit:10;}
	.st20{fill:#D2DBE0;stroke:#464354;stroke-width:4;stroke-miterlimit:10;}
	.st21{fill:#EBE8E3;stroke:#64B5F6;stroke-width:4;stroke-miterlimit:10;}
	.st22{fill:#149F84;}
	.st23{fill:#22313F;}
	.st24{fill:#D2DBE0;stroke:#464354;stroke-width:3;stroke-miterlimit:10;}
	.st25{fill:none;stroke:#4D4D4D;stroke-width:4;stroke-miterlimit:10;}
	.st26{fill:#DF694B;}
	.st27{fill:none;stroke:#D2DBE0;stroke-width:3;stroke-miterlimit:10;}
	.st28{fill:#EBE8E3;stroke:#464354;stroke-width:5.8823;stroke-miterlimit:10;}
	.st29{fill:none;stroke:#464354;stroke-width:5.8823;stroke-miterlimit:10;}
	.st30{fill:#D2DBE0;stroke:#D2DBE0;stroke-width:5.8823;stroke-miterlimit:10;}
	.st31{fill:none;stroke:#64B5F6;stroke-width:5.8823;stroke-miterlimit:10;}
	.st32{fill:none;stroke:#464354;stroke-width:3.9216;stroke-linecap:round;stroke-linejoin:round;stroke-miterlimit:10;}
	.st33{fill:none;stroke:#D2DBE0;stroke-width:5.8823;stroke-miterlimit:10;}
	.st34{fill:#EBE8E3;stroke:#464354;stroke-width:5.9536;stroke-miterlimit:10;}
	.st35{fill:#D2DBE0;stroke:#D2DBE0;stroke-width:5.9536;stroke-miterlimit:10;}
	.st36{fill:none;stroke:#464354;stroke-width:5.9536;stroke-miterlimit:10;}
	.st37{fill:none;stroke:#64B5F6;stroke-width:5.9536;stroke-miterlimit:10;}
	.st38{fill:none;stroke:#464354;stroke-width:3.9691;stroke-linecap:round;stroke-linejoin:round;stroke-miterlimit:10;}
	.st39{fill:none;stroke:#D2DBE0;stroke-width:5.9536;stroke-miterlimit:10;}
	.st40{fill:#FFFFFF;}
	.st41{fill:#D15627;}
	.st42{fill:#39BBA2;}
	.st43{fill:#EBE8E3;stroke:#464354;stroke-width:3;stroke-linejoin:round;stroke-miterlimit:10;}
	.st44{fill:none;stroke:#464354;stroke-width:3;stroke-linecap:round;stroke-linejoin:round;stroke-miterlimit:10;}
	.st45{fill:none;stroke:#C3BBBB;stroke-width:3;stroke-linecap:round;stroke-linejoin:round;stroke-miterlimit:10;}
	.st46{fill:none;stroke:#464354;stroke-width:3;stroke-linejoin:round;stroke-miterlimit:10;}
	.st47{clip-path:url(#SVGID_2_);}
	.st48{fill:#C3BBBB;stroke:#C3BBBB;stroke-width:3;stroke-miterlimit:10;}
	.st49{fill:#8D8C94;stroke:#8D8C94;stroke-width:3;stroke-miterlimit:10;}
	.st50{fill:none;stroke:#64B5F6;stroke-width:4;stroke-miterlimit:10;}
	.st51{fill:#EBE7E5;}
	.st52{fill:#FFFFFF;stroke:#FFFFFF;stroke-width:3;stroke-miterlimit:10;}
	.st53{fill:none;stroke:#8D8C94;stroke-width:2;stroke-miterlimit:10;}
	.st54{fill:#BBDEFB;stroke:#64B5F6;stroke-width:4;stroke-miterlimit:10;}
	.st55{clip-path:url(#SVGID_4_);}
	.st56{fill:none;stroke:#8D8C94;stroke-width:3;stroke-miterlimit:10;}
	.st57{clip-path:url(#SVGID_6_);}
	.st58{clip-path:url(#SVGID_8_);}
	.st59{fill:none;stroke:#8D8C94;stroke-width:4;stroke-miterlimit:10;}
	.st60{fill:#D2DBE0;stroke:#464354;stroke-width:3;stroke-linejoin:round;stroke-miterlimit:10;}
	.st61{fill:#FFFFFF;stroke:#464354;stroke-width:3;stroke-linejoin:round;stroke-miterlimit:10;}
	.st62{fill:#64B5F6;stroke:#464354;stroke-width:3;stroke-linejoin:round;stroke-miterlimit:10;}
	.st63{clip-path:url(#SVGID_10_);}
	.st64{fill:#8D8C94;stroke:#464354;stroke-width:3;stroke-linejoin:round;stroke-miterlimit:10;}
	.st65{fill:#C3BBBB;stroke:#464354;stroke-width:3;stroke-linejoin:round;stroke-miterlimit:10;}
	.st66{fill:none;stroke:#C3BBBB;stroke-width:1.5769;stroke-linecap:round;stroke-miterlimit:10;stroke-dasharray:9.4615;}
	.st67{fill:#C3BBBB;stroke:#464354;stroke-width:3.1538;stroke-miterlimit:10;}
	.st68{fill:none;stroke:#464354;stroke-width:3.1538;stroke-miterlimit:10;}
	.st69{clip-path:url(#SVGID_12_);}
	.st70{fill:#FFFFFF;stroke:#FFFFFF;stroke-width:2.3654;stroke-miterlimit:10;}
	.st71{fill:#464354;stroke:#464354;stroke-width:2.3654;stroke-miterlimit:10;}
	.st72{fill:none;stroke:#8D8C94;stroke-width:3.1538;stroke-miterlimit:10;}
	.st73{fill:#EBE8E3;stroke:#464354;stroke-width:2.3654;stroke-linejoin:round;stroke-miterlimit:10;}
	.st74{fill:#FFFFFF;stroke:#464354;stroke-width:2.3654;stroke-linejoin:round;stroke-miterlimit:10;}
	.st75{fill:none;stroke:#464354;stroke-width:2.3654;stroke-linejoin:round;stroke-miterlimit:10;}
	.st76{fill:#D2DBE0;stroke:#464354;stroke-width:2.3654;stroke-linejoin:round;stroke-miterlimit:10;}
	.st77{fill:#64B5F6;stroke:#464354;stroke-width:2.3654;stroke-linejoin:round;stroke-miterlimit:10;}
	.st78{fill:#8D8C94;stroke:#464354;stroke-width:2.3654;stroke-linejoin:round;stroke-miterlimit:10;}
	.st79{fill:#C3BBBB;stroke:#464354;stroke-width:2.3654;stroke-linejoin:round;stroke-miterlimit:10;}
	.st80{clip-path:url(#SVGID_14_);}
	.st81{fill:#8D8C94;stroke:#464354;stroke-width:4;stroke-miterlimit:10;}
	.st82{fill:#EBE8E3;stroke:#464354;stroke-width:2.1022;stroke-miterlimit:10;}
	.st83{fill:none;stroke:#464354;stroke-width:2.1022;stroke-miterlimit:10;}
	.st84{fill:none;stroke:#64B5F6;stroke-width:2.1022;stroke-miterlimit:10;}
	.st85{fill:none;stroke:#464354;stroke-width:1.4015;stroke-linecap:round;stroke-linejoin:round;stroke-miterlimit:10;}
	.st86{fill:#8D8C94;stroke:#464354;stroke-width:2.8029;stroke-miterlimit:10;}
	.st87{fill:#D2DBE0;stroke:#464354;stroke-width:2.8029;stroke-miterlimit:10;}
	.st88{fill:#C3BBBB;stroke:#464354;stroke-width:2.8029;stroke-miterlimit:10;}
	.st89{fill:#EBE8E3;stroke:#464354;stroke-width:2.8029;stroke-miterlimit:10;}
	.st90{fill:#8D8C94;stroke:#464354;stroke-width:3.0755;stroke-miterlimit:10;}
	.st91{fill:#D2DBE0;stroke:#464354;stroke-width:3.0755;stroke-miterlimit:10;}
	.st92{fill:#C3BBBB;stroke:#464354;stroke-width:3.0755;stroke-miterlimit:10;}
	.st93{fill:#EBE8E3;stroke:#464354;stroke-width:3.0755;stroke-miterlimit:10;}
	.st94{fill:#D2DBE0;stroke:#464354;stroke-width:3.076;stroke-linejoin:round;stroke-miterlimit:10;}
	.st95{fill:#8D8C94;stroke:#464354;stroke-width:3;stroke-miterlimit:10;}
	.st96{fill:#C3BBBB;stroke:#464354;stroke-width:3;stroke-miterlimit:10;}
	.st97{fill:#EBE8E3;stroke:#C3BBBB;stroke-width:3;stroke-miterlimit:10;}
	.st98{fill:none;stroke:#C3BBBB;stroke-width:3;stroke-miterlimit:10;}
	.st99{fill:#EBE8E3;stroke:#C3BBBB;stroke-width:4;stroke-linejoin:round;stroke-miterlimit:10;}
	.st100{fill:none;stroke:#C3BBBB;stroke-width:3;stroke-linejoin:round;stroke-miterlimit:10;}
	.st101{fill:none;stroke:#C3BBBB;stroke-width:1.58;stroke-linecap:round;stroke-miterlimit:10;stroke-dasharray:4.7401,6.3202;}
	.st102{fill:#EBE8E3;stroke:#C3BBBB;stroke-width:2.3701;stroke-miterlimit:10;}
	.st103{fill:#8D8C94;stroke:#464354;stroke-width:2.3701;stroke-miterlimit:10;}
	.st104{fill:#C3BBBB;stroke:#464354;stroke-width:2.3701;stroke-miterlimit:10;}
	.st105{fill:#EBE8E3;stroke:#464354;stroke-width:2.3701;stroke-miterlimit:10;}
	.st106{fill:none;stroke:#C3BBBB;stroke-width:2.3701;stroke-miterlimit:10;}
	.st107{fill:#FFFFFF;stroke:#FFFFFF;stroke-width:2.3701;stroke-miterlimit:10;}
	.st108{fill:#464354;stroke:#464354;stroke-width:2.3701;stroke-miterlimit:10;}
	.st109{fill:#EBE8E3;stroke:#C3BBBB;stroke-width:3.1601;stroke-linejoin:round;stroke-miterlimit:10;}
	.st110{fill:none;stroke:#C3BBBB;stroke-width:2.3701;stroke-linejoin:round;stroke-miterlimit:10;}
	.st111{fill:#EBE8E3;stroke:#464354;stroke-width:2.5653;stroke-miterlimit:10;}
	.st112{fill:none;stroke:#464354;stroke-width:2.5653;stroke-miterlimit:10;}
	.st113{fill:none;stroke:#64B5F6;stroke-width:2.5653;stroke-miterlimit:10;}
	.st114{fill:none;stroke:#464354;stroke-width:1.7102;stroke-linecap:round;stroke-linejoin:round;stroke-miterlimit:10;}
	.st115{fill:none;stroke:#8D8C94;stroke-width:5.9001;stroke-miterlimit:10;}
	.st116{fill:#D2DBE0;stroke:#464354;stroke-width:5.3301;stroke-miterlimit:10;}
	.st117{fill:#FFFFFF;stroke:#464354;stroke-width:5.3301;stroke-miterlimit:10;}
	.st118{fill:none;stroke:#464354;stroke-width:2;stroke-miterlimit:10;}
	.st119{fill:#EBE8E3;stroke:#464354;stroke-width:2;stroke-miterlimit:10;}
	.st120{fill:none;stroke:#64B5F6;stroke-width:3;stroke-linejoin:round;stroke-miterlimit:10;}
	.st121{fill:none;stroke:#D2DBE0;stroke-linejoin:round;stroke-miterlimit:10;}
	.st122{fill:#464354;stroke:#464354;stroke-width:3;stroke-linejoin:round;stroke-miterlimit:10;}
	.st123{clip-path:url(#SVGID_16_);}
	.st124{clip-path:url(#SVGID_18_);}
	.st125{clip-path:url(#SVGID_20_);}
	.st126{fill:#FFFFFF;stroke:#64B5F6;stroke-width:3;stroke-miterlimit:10;}
	.st127{clip-path:url(#SVGID_22_);}
	.st128{fill:#D2DBE0;stroke:#D2DBE0;stroke-width:1.7365;stroke-miterlimit:10;}
	.st129{fill:#464354;stroke:#464354;stroke-width:1.7365;stroke-miterlimit:10;}
	.st130{fill:#C3BBBB;stroke:#C3BBBB;stroke-width:1.7365;stroke-miterlimit:10;}
	.st131{fill:#8D8C94;stroke:#8D8C94;stroke-width:1.7365;stroke-miterlimit:10;}
	.st132{fill:none;stroke:#64B5F6;stroke-width:2.3154;stroke-miterlimit:10;}
	.st133{clip-path:url(#SVGID_24_);}
	.st134{fill:#EBE8E3;stroke:#464354;stroke-width:1.7365;stroke-miterlimit:10;}
	.st135{fill:#C3BBBB;stroke:#464354;stroke-width:2;stroke-linejoin:round;stroke-miterlimit:10;}
	.st136{fill:#8D8C94;stroke:#464354;stroke-width:2;stroke-linejoin:round;stroke-miterlimit:10;}
	.st137{fill:#464354;stroke:#464354;stroke-width:2;stroke-linejoin:round;stroke-miterlimit:10;}
	.st138{fill:#EBE8E3;stroke:#464354;stroke-width:2;stroke-linejoin:round;stroke-miterlimit:10;}
	.st139{fill:none;stroke:#464354;stroke-width:1.7365;stroke-miterlimit:10;}
	.st140{clip-path:url(#SVGID_26_);}
	.st141{fill:none;stroke:#64B5F6;stroke-width:2;stroke-miterlimit:10;}
	.st142{clip-path:url(#SVGID_28_);}
	.st143{clip-path:url(#SVGID_30_);}
	.st144{clip-path:url(#SVGID_32_);}
	.st145{fill:#FFFFFF;stroke:#64B5F6;stroke-width:15.0498;stroke-miterlimit:10;}
	.st146{clip-path:url(#SVGID_34_);}
	.st147{fill:#D2DBE0;stroke:#D2DBE0;stroke-width:11.2873;stroke-miterlimit:10;}
	.st148{fill:#464354;stroke:#464354;stroke-width:11.2873;stroke-miterlimit:10;}
	.st149{fill:#EBE8E3;stroke:#464354;stroke-width:11.2873;stroke-linejoin:round;stroke-miterlimit:10;}
	.st150{clip-path:url(#SVGID_36_);}
	.st151{clip-path:url(#SVGID_38_);}
	.st152{fill:none;stroke:#464354;stroke-width:2;stroke-linejoin:round;stroke-miterlimit:10;}
	.st153{fill:#D2DBE0;stroke:#64B5F6;stroke-width:4;stroke-miterlimit:10;}
	.st154{fill:#8D8C94;stroke:#464354;stroke-width:1.5878;stroke-linejoin:round;stroke-miterlimit:10;}
	.st155{fill:#8D8C94;stroke:#464354;stroke-width:2.0767;stroke-linejoin:round;stroke-miterlimit:10;}
	.st156{fill:#64B5F6;stroke:#464354;stroke-width:2.0033;stroke-miterlimit:10;}
	.st157{fill:none;stroke:#464354;stroke-width:2.0767;stroke-miterlimit:10;}
	.st158{fill:#EBE8E3;stroke:#464354;stroke-width:1.674;stroke-miterlimit:10;}
	.st159{fill:#64B5F6;stroke:#464354;stroke-width:1.674;stroke-miterlimit:10;}
	.st160{fill:#64B5F6;stroke:#464354;stroke-width:2.2522;stroke-miterlimit:10;}
	.st161{fill:#8D8C94;stroke:#464354;stroke-width:2.2937;stroke-linejoin:round;stroke-miterlimit:10;}
	.st162{fill:#64B5F6;stroke:#464354;stroke-width:3;stroke-miterlimit:10;}
	.st163{fill:none;stroke:#464354;stroke-width:2.2522;stroke-miterlimit:10;}
	.st164{fill:none;stroke:#464354;stroke-width:2.252;stroke-linecap:round;stroke-linejoin:round;stroke-miterlimit:10;}
	.st165{fill:none;stroke:#64B5F6;stroke-width:3;stroke-linecap:round;stroke-linejoin:round;stroke-miterlimit:10;}
	.st166{clip-path:url(#SVGID_40_);}
	.st167{clip-path:url(#SVGID_42_);}
	.st168{clip-path:url(#SVGID_44_);}
	.st169{fill:#EDC951;}
	.st170{fill:#81BDA4;}
	.st171{clip-path:url(#SVGID_46_);}
</style>
<g>
	<circle class="st4" cx="71.54" cy="72.517" r="48.896"/>
	<g>
		<defs>
			<path id="SVGID_41_" d="M71.54,123.017c-27.846,0-50.5-22.654-50.5-50.5s22.654-50.5,50.5-50.5s50.5,22.654,50.5,50.5
				S99.386,123.017,71.54,123.017z"/>
		</defs>
		<clipPath id="SVGID_2_">
			<use xlink:href="#SVGID_41_"  style="overflow:visible;"/>
		</clipPath>
		<g class="st47">
			
				<rect x="65.405" y="82.343" transform="matrix(-1 4.466015e-11 -4.466015e-11 -1 142.3766 176.8915)" class="st52" width="11.567" height="12.205"/>
			<path class="st15" d="M100.5,103.377v59.132H88.877v6.485H54.204v-6.485H42.58v-59.132c0-6.382,5.241-11.623,11.623-11.623
				h34.673C95.259,91.754,100.5,96.995,100.5,103.377z"/>
			<g>
				<g>
					<path class="st40" d="M55.221,70.525c0,8.877,7.161,16.101,15.967,16.101c6.957,0,12.89-4.517,15.07-10.789
						c0.063-0.173,0.126-0.354,0.181-0.527l0.094-0.331c0.016-0.047,0.024-0.094,0.039-0.142c0.039-0.134,0.071-0.268,0.102-0.401
						c0.047-0.181,0.086-0.362,0.126-0.551c0.039-0.157,0.071-0.315,0.095-0.48c0.008-0.047,0.016-0.094,0.024-0.142
						c0.032-0.157,0.055-0.315,0.079-0.472c0,0,0-0.008,0-0.016c0.032-0.197,0.055-0.401,0.071-0.606
						c0.032-0.268,0.055-0.543,0.063-0.818c0.016-0.275,0.024-0.551,0.024-0.826c0-8.877-7.169-16.101-15.967-16.101
						c-0.275,0-0.543,0.008-0.81,0.024h-0.016c-0.268,0.008-0.535,0.031-0.803,0.063c-0.268,0.024-0.535,0.055-0.795,0.102
						c-0.268,0.039-0.527,0.087-0.787,0.142c0,0-0.008,0-0.016,0c-0.26,0.055-0.512,0.11-0.755,0.181
						c-0.26,0.063-0.512,0.134-0.763,0.212c-0.008,0.008-0.016,0.008-0.032,0.008c-0.236,0.079-0.472,0.165-0.708,0.252
						c-0.236,0.087-0.472,0.181-0.708,0.275c-0.354,0.149-0.693,0.307-1.031,0.488c-0.362,0.181-0.708,0.378-1.047,0.59
						c-0.456,0.275-0.905,0.574-1.338,0.913c-0.181,0.134-0.354,0.275-0.519,0.417c-0.401,0.315-0.787,0.669-1.157,1.054
						c-0.181,0.181-0.354,0.37-0.527,0.559c-0.173,0.189-0.338,0.386-0.504,0.582c-0.299,0.362-0.574,0.74-0.834,1.125
						c-0.063,0.063-0.102,0.126-0.134,0.189c-0.11,0.173-0.228,0.346-0.33,0.527c-0.063,0.079-0.11,0.15-0.142,0.228
						c-0.094,0.165-0.189,0.331-0.283,0.496c-0.291,0.551-0.559,1.117-0.787,1.7C55.622,66.401,55.221,68.416,55.221,70.525z"/>
				</g>
				<g>
					<path class="st16" d="M56.362,64.552h21.893c0.032,2.227,0.417,6.886,2.841,9.451c1.149,1.212,2.597,1.834,4.305,1.834h0.889
						l0.149-0.527l0.094-0.331c0.016-0.047,0.024-0.094,0.039-0.142c0.039-0.134,0.071-0.268,0.102-0.401
						c0.047-0.181,0.086-0.362,0.126-0.551c0.039-0.157,0.071-0.315,0.095-0.48c0.008-0.047,0.016-0.094,0.024-0.142
						c0.032-0.157,0.055-0.315,0.079-0.472c0,0,0-0.008,0-0.016c0.032-0.197,0.055-0.401,0.071-0.606
						c0.032-0.268,0.055-0.543,0.063-0.818c0.016-0.275,0.024-0.551,0.024-0.826c0-8.877-7.169-16.101-15.967-16.101
						c-0.275,0-0.543,0.008-0.81,0.024h-0.016c-0.268,0.008-0.535,0.031-0.803,0.063c-0.268,0.024-0.535,0.055-0.795,0.102
						c-0.268,0.039-0.527,0.087-0.787,0.142c0,0-0.008,0-0.016,0c-0.26,0.055-0.512,0.11-0.755,0.181
						c-0.26,0.063-0.512,0.134-0.763,0.212c-0.008,0.008-0.016,0.008-0.032,0.008c-0.236,0.079-0.472,0.165-0.708,0.252
						c-0.236,0.087-0.472,0.181-0.708,0.275c-0.354,0.149-0.693,0.307-1.031,0.488c-0.354,0.181-0.708,0.37-1.047,0.59
						c-0.456,0.275-0.905,0.574-1.338,0.913c-0.181,0.134-0.354,0.275-0.519,0.417c-0.401,0.315-0.787,0.669-1.157,1.054
						c-0.181,0.181-0.354,0.37-0.527,0.559c-0.173,0.189-0.338,0.386-0.504,0.582c-0.307,0.362-0.582,0.74-0.834,1.125
						c-0.063,0.063-0.102,0.126-0.134,0.189c-0.11,0.173-0.228,0.346-0.33,0.527c-0.063,0.079-0.11,0.15-0.142,0.228
						c-0.094,0.15-0.181,0.299-0.268,0.456l-0.016,0.039C56.858,63.403,56.59,63.969,56.362,64.552z"/>
				</g>
			</g>
		</g>
	</g>
	<circle class="st9" cx="45.654" cy="61.039" r="3.5"/>
	<circle class="st9" cx="93.072" cy="53.874" r="4.951"/>
	<circle class="st50" cx="71.353" cy="72.517" r="48.896"/>
	<g>
		<ellipse class="st9" cx="106.432" cy="27.437" rx="24.818" ry="22.437"/>
		<path class="st9" d="M109.526,43.454h-6.189c-3.341,0-6.05-2.709-6.05-6.05V16.918c0-3.341,2.709-6.05,6.05-6.05h6.189
			c3.341,0,6.05,2.709,6.05,6.05v20.487C115.576,40.746,112.867,43.454,109.526,43.454z"/>
		<g>
			<g>
				<path class="st16" d="M110.359,44.006h-7.855c-2.876,0-5.216-2.34-5.216-5.216V16.085c0-2.877,2.34-5.217,5.216-5.217h7.855
					c2.877,0,5.217,2.34,5.217,5.217v22.704C115.576,41.665,113.236,44.006,110.359,44.006z M102.504,12.339
					c-2.065,0-3.745,1.68-3.745,3.746v22.704c0,2.065,1.68,3.745,3.745,3.745h7.855c2.065,0,3.746-1.68,3.746-3.745V16.085
					c0-2.065-1.68-3.746-3.746-3.746H102.504z"/>
			</g>
			<g>
				<rect x="98.023" y="15.6" class="st16" width="16.817" height="1.471"/>
			</g>
			<g>
				<rect x="98.023" y="35.557" class="st16" width="16.817" height="1.471"/>
			</g>
			<g>
				<path class="st16" d="M106.432,42.136c-1.327,0-2.405-1.079-2.405-2.405s1.079-2.405,2.405-2.405
					c1.326,0,2.405,1.079,2.405,2.405S107.758,42.136,106.432,42.136z M106.432,38.796c-0.515,0-0.934,0.419-0.934,0.934
					s0.419,0.934,0.934,0.934c0.515,0,0.934-0.419,0.934-0.934S106.947,38.796,106.432,38.796z"/>
			</g>
			<g>
				<rect x="104.762" y="13.164" class="st16" width="3.34" height="1.471"/>
			</g>
		</g>
		<g>
			<path class="st2" d="M102.783,25.162c0-0.163-0.057-0.288-0.172-0.375s-0.322-0.179-0.621-0.276
				c-0.299-0.097-0.535-0.192-0.71-0.286c-0.475-0.257-0.713-0.602-0.713-1.037c0-0.226,0.064-0.428,0.191-0.605
				c0.127-0.177,0.31-0.316,0.549-0.415c0.238-0.1,0.506-0.149,0.803-0.149c0.299,0,0.565,0.054,0.799,0.162
				c0.234,0.108,0.415,0.261,0.544,0.458c0.129,0.197,0.194,0.421,0.194,0.672h-0.862c0-0.192-0.06-0.34-0.181-0.447
				c-0.121-0.106-0.29-0.159-0.509-0.159c-0.211,0-0.374,0.045-0.491,0.134c-0.117,0.089-0.175,0.206-0.175,0.352
				c0,0.136,0.068,0.25,0.205,0.342c0.137,0.092,0.339,0.178,0.605,0.259c0.49,0.147,0.848,0.33,1.072,0.549
				c0.224,0.218,0.336,0.49,0.336,0.816c0,0.362-0.137,0.646-0.411,0.852c-0.274,0.206-0.643,0.309-1.106,0.309
				c-0.322,0-0.615-0.059-0.879-0.177s-0.466-0.279-0.605-0.484s-0.208-0.442-0.208-0.713h0.865c0,0.462,0.276,0.692,0.828,0.692
				c0.205,0,0.365-0.042,0.48-0.125C102.725,25.428,102.783,25.311,102.783,25.162z"/>
			<path class="st2" d="M105.357,22.076l1.075,3.034l1.069-3.034h1.132v4.184h-0.865v-1.144l0.086-1.974l-1.129,3.118h-0.592
				l-1.126-3.115l0.086,1.971v1.144h-0.862v-4.184H105.357z"/>
			<path class="st2" d="M111.555,25.162c0-0.163-0.057-0.288-0.172-0.375c-0.115-0.087-0.322-0.179-0.621-0.276
				c-0.299-0.097-0.535-0.192-0.71-0.286c-0.475-0.257-0.713-0.602-0.713-1.037c0-0.226,0.064-0.428,0.191-0.605
				c0.127-0.177,0.31-0.316,0.549-0.415c0.238-0.1,0.506-0.149,0.803-0.149c0.299,0,0.565,0.054,0.799,0.162
				c0.234,0.108,0.415,0.261,0.544,0.458s0.194,0.421,0.194,0.672h-0.862c0-0.192-0.06-0.34-0.181-0.447
				c-0.121-0.106-0.29-0.159-0.509-0.159c-0.211,0-0.374,0.045-0.491,0.134c-0.117,0.089-0.175,0.206-0.175,0.352
				c0,0.136,0.068,0.25,0.205,0.342c0.137,0.092,0.339,0.178,0.605,0.259c0.49,0.147,0.848,0.33,1.072,0.549
				c0.224,0.218,0.336,0.49,0.336,0.816c0,0.362-0.137,0.646-0.411,0.852s-0.643,0.309-1.106,0.309
				c-0.322,0-0.615-0.059-0.879-0.177s-0.466-0.279-0.605-0.484c-0.139-0.205-0.208-0.442-0.208-0.713h0.865
				c0,0.462,0.276,0.692,0.828,0.692c0.205,0,0.365-0.042,0.48-0.125C111.497,25.428,111.555,25.311,111.555,25.162z"/>
		</g>
	</g>
	<g>
		<ellipse class="st9" cx="26.453" cy="43.627" rx="21.452" ry="19.394"/>
		<g>
			<g>
				
					<rect x="13.752" y="35.501" transform="matrix(-1 0.0017 -0.0017 -1 52.9791 87.2087)" class="st138" width="25.402" height="16.252"/>
				<polyline class="st152" points="13.738,35.522 26.453,43.558 39.14,35.479 				"/>
			</g>
		</g>
	</g>
</g>
</svg>
