<?xml version="1.0" encoding="utf-8"?>
<!-- Generator: Adobe Illustrator 21.0.2, SVG Export Plug-In . SVG Version: 6.00 Build 0)  -->
<svg version="1.1" id="artwork" xmlns="http://www.w3.org/2000/svg" xmlns:xlink="http://www.w3.org/1999/xlink" x="0px" y="0px"
	 viewBox="0 0 514.58 328.59" style="enable-background:new 0 0 514.58 328.59;" xml:space="preserve">
<style type="text/css">
	.st0{fill:#FFFFFF;stroke:#64B5F6;stroke-width:4;stroke-miterlimit:10;}
	.st1{fill:#EBE8E3;stroke:#464354;stroke-width:2.2522;stroke-miterlimit:10;}
	.st2{fill:#EBE8E3;}
	.st3{fill:none;stroke:#C3BBBB;stroke-width:2;stroke-linecap:round;stroke-miterlimit:10;stroke-dasharray:6,8;}
	.st4{fill:#D2DBE0;}
	.st5{fill:#EBE8E3;stroke:#464354;stroke-width:3;stroke-miterlimit:10;}
	.st6{fill:#D2DBE0;stroke:#D2DBE0;stroke-width:3;stroke-miterlimit:10;}
	.st7{fill:none;stroke:#464354;stroke-width:3;stroke-miterlimit:10;}
	.st8{fill:none;stroke:#64B5F6;stroke-width:3;stroke-miterlimit:10;}
	.st9{fill:#64B5F6;}
	.st10{fill:none;stroke:#464354;stroke-width:2;stroke-linecap:round;stroke-linejoin:round;stroke-miterlimit:10;}
	.st11{fill:#C3BBBB;}
	.st12{fill:#8D8C94;}
	.st13{fill:#C3BBBB;stroke:#464354;stroke-width:4;stroke-miterlimit:10;}
	.st14{fill:#EBE8E3;stroke:#EBE8E3;stroke-width:3;stroke-miterlimit:10;}
	.st15{fill:#464354;stroke:#464354;stroke-width:3;stroke-miterlimit:10;}
	.st16{fill:#464354;}
	.st17{fill:#EBE8E3;stroke:#C3BBBB;stroke-width:3;stroke-linejoin:round;stroke-miterlimit:10;}
	.st18{fill:#EBE8E3;stroke:#464354;stroke-width:4;stroke-miterlimit:10;}
	.st19{fill:none;stroke:#464354;stroke-width:4;stroke-miterlimit:10;}
	.st20{fill:#D2DBE0;stroke:#464354;stroke-width:4;stroke-miterlimit:10;}
	.st21{fill:#EBE8E3;stroke:#64B5F6;stroke-width:4;stroke-miterlimit:10;}
	.st22{fill:#149F84;}
	.st23{fill:#22313F;}
	.st24{fill:#D2DBE0;stroke:#464354;stroke-width:3;stroke-miterlimit:10;}
	.st25{fill:none;stroke:#4D4D4D;stroke-width:4;stroke-miterlimit:10;}
	.st26{fill:#DF694B;}
	.st27{fill:none;stroke:#D2DBE0;stroke-width:3;stroke-miterlimit:10;}
	.st28{fill:#EBE8E3;stroke:#464354;stroke-width:5.8823;stroke-miterlimit:10;}
	.st29{fill:none;stroke:#464354;stroke-width:5.8823;stroke-miterlimit:10;}
	.st30{fill:#D2DBE0;stroke:#D2DBE0;stroke-width:5.8823;stroke-miterlimit:10;}
	.st31{fill:none;stroke:#64B5F6;stroke-width:5.8823;stroke-miterlimit:10;}
	.st32{fill:none;stroke:#464354;stroke-width:3.9216;stroke-linecap:round;stroke-linejoin:round;stroke-miterlimit:10;}
	.st33{fill:none;stroke:#D2DBE0;stroke-width:5.8823;stroke-miterlimit:10;}
	.st34{fill:#EBE8E3;stroke:#464354;stroke-width:5.9536;stroke-miterlimit:10;}
	.st35{fill:#D2DBE0;stroke:#D2DBE0;stroke-width:5.9536;stroke-miterlimit:10;}
	.st36{fill:none;stroke:#464354;stroke-width:5.9536;stroke-miterlimit:10;}
	.st37{fill:none;stroke:#64B5F6;stroke-width:5.9536;stroke-miterlimit:10;}
	.st38{fill:none;stroke:#464354;stroke-width:3.9691;stroke-linecap:round;stroke-linejoin:round;stroke-miterlimit:10;}
	.st39{fill:none;stroke:#D2DBE0;stroke-width:5.9536;stroke-miterlimit:10;}
	.st40{fill:#FFFFFF;}
	.st41{fill:#D15627;}
	.st42{fill:#39BBA2;}
	.st43{fill:#EBE8E3;stroke:#464354;stroke-width:3;stroke-linejoin:round;stroke-miterlimit:10;}
	.st44{fill:none;stroke:#464354;stroke-width:3;stroke-linecap:round;stroke-linejoin:round;stroke-miterlimit:10;}
	.st45{fill:none;stroke:#C3BBBB;stroke-width:3;stroke-linecap:round;stroke-linejoin:round;stroke-miterlimit:10;}
	.st46{fill:none;stroke:#464354;stroke-width:3;stroke-linejoin:round;stroke-miterlimit:10;}
	.st47{clip-path:url(#SVGID_2_);}
	.st48{fill:#C3BBBB;stroke:#C3BBBB;stroke-width:3;stroke-miterlimit:10;}
	.st49{fill:#8D8C94;stroke:#8D8C94;stroke-width:3;stroke-miterlimit:10;}
	.st50{fill:none;stroke:#64B5F6;stroke-width:4;stroke-miterlimit:10;}
	.st51{fill:#EBE7E5;}
	.st52{fill:#FFFFFF;stroke:#FFFFFF;stroke-width:3;stroke-miterlimit:10;}
	.st53{fill:none;stroke:#8D8C94;stroke-width:2;stroke-miterlimit:10;}
	.st54{fill:#BBDEFB;stroke:#64B5F6;stroke-width:4;stroke-miterlimit:10;}
	.st55{clip-path:url(#SVGID_4_);}
	.st56{fill:none;stroke:#8D8C94;stroke-width:3;stroke-miterlimit:10;}
	.st57{clip-path:url(#SVGID_6_);}
	.st58{clip-path:url(#SVGID_8_);}
	.st59{fill:none;stroke:#8D8C94;stroke-width:4;stroke-miterlimit:10;}
	.st60{fill:#D2DBE0;stroke:#464354;stroke-width:3;stroke-linejoin:round;stroke-miterlimit:10;}
	.st61{fill:#FFFFFF;stroke:#464354;stroke-width:3;stroke-linejoin:round;stroke-miterlimit:10;}
	.st62{fill:#64B5F6;stroke:#464354;stroke-width:3;stroke-linejoin:round;stroke-miterlimit:10;}
	.st63{clip-path:url(#SVGID_10_);}
	.st64{fill:#8D8C94;stroke:#464354;stroke-width:3;stroke-linejoin:round;stroke-miterlimit:10;}
	.st65{fill:#C3BBBB;stroke:#464354;stroke-width:3;stroke-linejoin:round;stroke-miterlimit:10;}
	.st66{fill:none;stroke:#C3BBBB;stroke-width:1.5769;stroke-linecap:round;stroke-miterlimit:10;stroke-dasharray:9.4615;}
	.st67{fill:#C3BBBB;stroke:#464354;stroke-width:3.1538;stroke-miterlimit:10;}
	.st68{fill:none;stroke:#464354;stroke-width:3.1538;stroke-miterlimit:10;}
	.st69{clip-path:url(#SVGID_12_);}
	.st70{fill:#FFFFFF;stroke:#FFFFFF;stroke-width:2.3654;stroke-miterlimit:10;}
	.st71{fill:#464354;stroke:#464354;stroke-width:2.3654;stroke-miterlimit:10;}
	.st72{fill:none;stroke:#8D8C94;stroke-width:3.1538;stroke-miterlimit:10;}
	.st73{fill:#EBE8E3;stroke:#464354;stroke-width:2.3654;stroke-linejoin:round;stroke-miterlimit:10;}
	.st74{fill:#FFFFFF;stroke:#464354;stroke-width:2.3654;stroke-linejoin:round;stroke-miterlimit:10;}
	.st75{fill:none;stroke:#464354;stroke-width:2.3654;stroke-linejoin:round;stroke-miterlimit:10;}
	.st76{fill:#D2DBE0;stroke:#464354;stroke-width:2.3654;stroke-linejoin:round;stroke-miterlimit:10;}
	.st77{fill:#64B5F6;stroke:#464354;stroke-width:2.3654;stroke-linejoin:round;stroke-miterlimit:10;}
	.st78{fill:#8D8C94;stroke:#464354;stroke-width:2.3654;stroke-linejoin:round;stroke-miterlimit:10;}
	.st79{fill:#C3BBBB;stroke:#464354;stroke-width:2.3654;stroke-linejoin:round;stroke-miterlimit:10;}
	.st80{clip-path:url(#SVGID_14_);}
	.st81{fill:#8D8C94;stroke:#464354;stroke-width:4;stroke-miterlimit:10;}
	.st82{fill:#EBE8E3;stroke:#464354;stroke-width:2.1022;stroke-miterlimit:10;}
	.st83{fill:none;stroke:#464354;stroke-width:2.1022;stroke-miterlimit:10;}
	.st84{fill:none;stroke:#64B5F6;stroke-width:2.1022;stroke-miterlimit:10;}
	.st85{fill:none;stroke:#464354;stroke-width:1.4015;stroke-linecap:round;stroke-linejoin:round;stroke-miterlimit:10;}
	.st86{fill:#8D8C94;stroke:#464354;stroke-width:2.8029;stroke-miterlimit:10;}
	.st87{fill:#D2DBE0;stroke:#464354;stroke-width:2.8029;stroke-miterlimit:10;}
	.st88{fill:#C3BBBB;stroke:#464354;stroke-width:2.8029;stroke-miterlimit:10;}
	.st89{fill:#EBE8E3;stroke:#464354;stroke-width:2.8029;stroke-miterlimit:10;}
	.st90{fill:#8D8C94;stroke:#464354;stroke-width:3.0755;stroke-miterlimit:10;}
	.st91{fill:#D2DBE0;stroke:#464354;stroke-width:3.0755;stroke-miterlimit:10;}
	.st92{fill:#C3BBBB;stroke:#464354;stroke-width:3.0755;stroke-miterlimit:10;}
	.st93{fill:#EBE8E3;stroke:#464354;stroke-width:3.0755;stroke-miterlimit:10;}
	.st94{fill:#D2DBE0;stroke:#464354;stroke-width:3.076;stroke-linejoin:round;stroke-miterlimit:10;}
	.st95{fill:#8D8C94;stroke:#464354;stroke-width:3;stroke-miterlimit:10;}
	.st96{fill:#C3BBBB;stroke:#464354;stroke-width:3;stroke-miterlimit:10;}
	.st97{fill:#EBE8E3;stroke:#C3BBBB;stroke-width:3;stroke-miterlimit:10;}
	.st98{fill:none;stroke:#C3BBBB;stroke-width:3;stroke-miterlimit:10;}
	.st99{fill:#EBE8E3;stroke:#C3BBBB;stroke-width:4;stroke-linejoin:round;stroke-miterlimit:10;}
	.st100{fill:none;stroke:#C3BBBB;stroke-width:3;stroke-linejoin:round;stroke-miterlimit:10;}
	.st101{fill:none;stroke:#C3BBBB;stroke-width:1.58;stroke-linecap:round;stroke-miterlimit:10;stroke-dasharray:4.7401,6.3202;}
	.st102{fill:#EBE8E3;stroke:#C3BBBB;stroke-width:2.3701;stroke-miterlimit:10;}
	.st103{fill:#8D8C94;stroke:#464354;stroke-width:2.3701;stroke-miterlimit:10;}
	.st104{fill:#C3BBBB;stroke:#464354;stroke-width:2.3701;stroke-miterlimit:10;}
	.st105{fill:#EBE8E3;stroke:#464354;stroke-width:2.3701;stroke-miterlimit:10;}
	.st106{fill:none;stroke:#C3BBBB;stroke-width:2.3701;stroke-miterlimit:10;}
	.st107{fill:#FFFFFF;stroke:#FFFFFF;stroke-width:2.3701;stroke-miterlimit:10;}
	.st108{fill:#464354;stroke:#464354;stroke-width:2.3701;stroke-miterlimit:10;}
	.st109{fill:#EBE8E3;stroke:#C3BBBB;stroke-width:3.1601;stroke-linejoin:round;stroke-miterlimit:10;}
	.st110{fill:none;stroke:#C3BBBB;stroke-width:2.3701;stroke-linejoin:round;stroke-miterlimit:10;}
	.st111{fill:#EBE8E3;stroke:#464354;stroke-width:2.5653;stroke-miterlimit:10;}
	.st112{fill:none;stroke:#464354;stroke-width:2.5653;stroke-miterlimit:10;}
	.st113{fill:none;stroke:#64B5F6;stroke-width:2.5653;stroke-miterlimit:10;}
	.st114{fill:none;stroke:#464354;stroke-width:1.7102;stroke-linecap:round;stroke-linejoin:round;stroke-miterlimit:10;}
	.st115{fill:none;stroke:#8D8C94;stroke-width:5.9001;stroke-miterlimit:10;}
	.st116{fill:#D2DBE0;stroke:#464354;stroke-width:5.3301;stroke-miterlimit:10;}
	.st117{fill:#FFFFFF;stroke:#464354;stroke-width:5.3301;stroke-miterlimit:10;}
	.st118{fill:none;stroke:#464354;stroke-width:2;stroke-miterlimit:10;}
	.st119{fill:#EBE8E3;stroke:#464354;stroke-width:2;stroke-miterlimit:10;}
	.st120{fill:none;stroke:#64B5F6;stroke-width:3;stroke-linejoin:round;stroke-miterlimit:10;}
	.st121{fill:none;stroke:#D2DBE0;stroke-linejoin:round;stroke-miterlimit:10;}
	.st122{fill:#464354;stroke:#464354;stroke-width:3;stroke-linejoin:round;stroke-miterlimit:10;}
	.st123{clip-path:url(#SVGID_16_);}
	.st124{clip-path:url(#SVGID_18_);}
	.st125{clip-path:url(#SVGID_20_);}
	.st126{fill:#FFFFFF;stroke:#64B5F6;stroke-width:3;stroke-miterlimit:10;}
	.st127{clip-path:url(#SVGID_22_);}
	.st128{fill:#D2DBE0;stroke:#D2DBE0;stroke-width:1.7365;stroke-miterlimit:10;}
	.st129{fill:#464354;stroke:#464354;stroke-width:1.7365;stroke-miterlimit:10;}
	.st130{fill:#C3BBBB;stroke:#C3BBBB;stroke-width:1.7365;stroke-miterlimit:10;}
	.st131{fill:#8D8C94;stroke:#8D8C94;stroke-width:1.7365;stroke-miterlimit:10;}
	.st132{fill:none;stroke:#64B5F6;stroke-width:2.3154;stroke-miterlimit:10;}
	.st133{clip-path:url(#SVGID_24_);}
	.st134{fill:#EBE8E3;stroke:#464354;stroke-width:1.7365;stroke-miterlimit:10;}
	.st135{fill:#C3BBBB;stroke:#464354;stroke-width:2;stroke-linejoin:round;stroke-miterlimit:10;}
	.st136{fill:#8D8C94;stroke:#464354;stroke-width:2;stroke-linejoin:round;stroke-miterlimit:10;}
	.st137{fill:#464354;stroke:#464354;stroke-width:2;stroke-linejoin:round;stroke-miterlimit:10;}
	.st138{fill:#EBE8E3;stroke:#464354;stroke-width:2;stroke-linejoin:round;stroke-miterlimit:10;}
	.st139{fill:none;stroke:#464354;stroke-width:1.7365;stroke-miterlimit:10;}
	.st140{clip-path:url(#SVGID_26_);}
	.st141{fill:none;stroke:#64B5F6;stroke-width:2;stroke-miterlimit:10;}
	.st142{clip-path:url(#SVGID_28_);}
	.st143{clip-path:url(#SVGID_30_);}
	.st144{clip-path:url(#SVGID_32_);}
	.st145{fill:#FFFFFF;stroke:#64B5F6;stroke-width:15.0498;stroke-miterlimit:10;}
	.st146{clip-path:url(#SVGID_34_);}
	.st147{fill:#D2DBE0;stroke:#D2DBE0;stroke-width:11.2873;stroke-miterlimit:10;}
	.st148{fill:#464354;stroke:#464354;stroke-width:11.2873;stroke-miterlimit:10;}
	.st149{fill:#EBE8E3;stroke:#464354;stroke-width:11.2873;stroke-linejoin:round;stroke-miterlimit:10;}
	.st150{clip-path:url(#SVGID_36_);}
	.st151{clip-path:url(#SVGID_38_);}
	.st152{fill:none;stroke:#464354;stroke-width:2;stroke-linejoin:round;stroke-miterlimit:10;}
	.st153{fill:#D2DBE0;stroke:#64B5F6;stroke-width:4;stroke-miterlimit:10;}
	.st154{fill:#8D8C94;stroke:#464354;stroke-width:1.5878;stroke-linejoin:round;stroke-miterlimit:10;}
	.st155{fill:#8D8C94;stroke:#464354;stroke-width:2.0767;stroke-linejoin:round;stroke-miterlimit:10;}
	.st156{fill:#64B5F6;stroke:#464354;stroke-width:2.0033;stroke-miterlimit:10;}
	.st157{fill:none;stroke:#464354;stroke-width:2.0767;stroke-miterlimit:10;}
	.st158{fill:#EBE8E3;stroke:#464354;stroke-width:1.674;stroke-miterlimit:10;}
	.st159{fill:#64B5F6;stroke:#464354;stroke-width:1.674;stroke-miterlimit:10;}
	.st160{fill:#64B5F6;stroke:#464354;stroke-width:2.2522;stroke-miterlimit:10;}
	.st161{fill:#8D8C94;stroke:#464354;stroke-width:2.2937;stroke-linejoin:round;stroke-miterlimit:10;}
	.st162{fill:#64B5F6;stroke:#464354;stroke-width:3;stroke-miterlimit:10;}
	.st163{fill:none;stroke:#464354;stroke-width:2.2522;stroke-miterlimit:10;}
	.st164{fill:none;stroke:#464354;stroke-width:2.252;stroke-linecap:round;stroke-linejoin:round;stroke-miterlimit:10;}
	.st165{fill:none;stroke:#64B5F6;stroke-width:3;stroke-linecap:round;stroke-linejoin:round;stroke-miterlimit:10;}
	.st166{clip-path:url(#SVGID_40_);}
	.st167{clip-path:url(#SVGID_42_);}
	.st168{fill:#EDC951;}
	.st169{fill:#81BDA4;}
	.st170{clip-path:url(#SVGID_44_);}
</style>
<g>
	<path class="st8" d="M277.082,207.566v69.346c0,16.839,13.65,30.489,30.489,30.489h0v0.031c11.406-0.568,22.812-1.136,34.785-13.11
		c23.948-23.948,2.272-45.624,26.221-69.572c23.949-23.949,47.384-0.635,69.574-26.223c14.89-17.169,11.817-73.237,11.817-73.237"/>
	<path class="st126" d="M449.968,125.291c-32.042,0-58.111-26.069-58.111-58.111s26.069-58.111,58.111-58.111
		s58.111,26.069,58.111,58.111S482.01,125.291,449.968,125.291z"/>
	<g>
		<path class="st126" d="M277.082,258.85c-32.042,0-58.111-26.069-58.111-58.111s26.069-58.111,58.111-58.111
			s58.111,26.069,58.111,58.111S309.124,258.85,277.082,258.85z"/>
		<g>
			<defs>
				<path id="SVGID_27_" d="M277.082,258.85c-32.042,0-58.111-26.069-58.111-58.111s26.069-58.111,58.111-58.111
					s58.111,26.069,58.111,58.111S309.124,258.85,277.082,258.85z"/>
			</defs>
			<clipPath id="SVGID_2_">
				<use xlink:href="#SVGID_27_"  style="overflow:visible;"/>
			</clipPath>
			<g class="st47">
				<g>
					<g>
						
							<rect x="287.281" y="200.816" transform="matrix(-1 4.468280e-11 -4.468280e-11 -1 583.0704 410.6093)" class="st128" width="8.508" height="8.977"/>
						<path class="st129" d="M313.095,216.288v43.494h-8.549v4.77h-25.504v-4.77h-8.549v-43.494c0-4.694,3.855-8.549,8.549-8.549
							h25.504C309.24,207.738,313.095,211.593,313.095,216.288z"/>
						<g>
							<g>
								<path class="st4" d="M279.791,192.123c0,6.529,5.267,11.843,11.745,11.843c5.117,0,9.481-3.323,11.085-7.936
									c0.046-0.127,0.093-0.26,0.133-0.388l0.069-0.243c0.012-0.035,0.017-0.069,0.029-0.104c0.029-0.098,0.052-0.197,0.075-0.295
									c0.035-0.133,0.064-0.266,0.093-0.405c0.029-0.116,0.052-0.232,0.07-0.353c0.006-0.035,0.012-0.069,0.017-0.104
									c0.023-0.116,0.04-0.232,0.058-0.347c0,0,0-0.006,0-0.012c0.023-0.145,0.041-0.295,0.052-0.446
									c0.023-0.197,0.04-0.399,0.046-0.602c0.012-0.203,0.017-0.405,0.017-0.608c0-6.529-5.273-11.843-11.745-11.843
									c-0.203,0-0.399,0.006-0.596,0.017h-0.012c-0.197,0.006-0.394,0.023-0.59,0.046c-0.197,0.017-0.394,0.041-0.585,0.075
									c-0.197,0.029-0.388,0.064-0.579,0.104c0,0-0.006,0-0.012,0c-0.191,0.041-0.376,0.081-0.556,0.133
									c-0.191,0.046-0.376,0.098-0.561,0.156c-0.006,0.006-0.012,0.006-0.023,0.006c-0.174,0.058-0.347,0.122-0.521,0.185
									c-0.174,0.064-0.347,0.133-0.521,0.203c-0.26,0.11-0.509,0.226-0.758,0.359c-0.266,0.133-0.521,0.278-0.77,0.434
									c-0.336,0.203-0.666,0.423-0.984,0.671c-0.133,0.098-0.26,0.203-0.382,0.307c-0.295,0.232-0.579,0.492-0.851,0.776
									c-0.133,0.133-0.26,0.272-0.388,0.411c-0.127,0.139-0.249,0.284-0.37,0.428c-0.22,0.266-0.423,0.544-0.614,0.828
									c-0.046,0.046-0.075,0.093-0.098,0.139c-0.081,0.127-0.168,0.255-0.243,0.388c-0.046,0.058-0.081,0.11-0.104,0.168
									c-0.069,0.122-0.139,0.243-0.208,0.365c-0.214,0.405-0.411,0.822-0.579,1.25
									C280.086,189.09,279.791,190.572,279.791,192.123z"/>
							</g>
							<g>
								<path class="st16" d="M280.63,187.73h16.103c0.023,1.638,0.307,5.065,2.09,6.952c0.845,0.891,1.91,1.349,3.166,1.349h0.654
									l0.11-0.388l0.069-0.243c0.012-0.035,0.017-0.069,0.029-0.104c0.029-0.098,0.052-0.197,0.075-0.295
									c0.035-0.133,0.064-0.266,0.093-0.405c0.029-0.116,0.052-0.232,0.07-0.353c0.006-0.035,0.012-0.069,0.017-0.104
									c0.023-0.116,0.04-0.232,0.058-0.347c0,0,0-0.006,0-0.012c0.023-0.145,0.041-0.295,0.052-0.446
									c0.023-0.197,0.04-0.399,0.046-0.602c0.012-0.203,0.017-0.405,0.017-0.608c0-6.529-5.273-11.843-11.745-11.843
									c-0.203,0-0.399,0.006-0.596,0.017h-0.012c-0.197,0.006-0.394,0.023-0.59,0.046c-0.197,0.017-0.394,0.041-0.585,0.075
									c-0.197,0.029-0.388,0.064-0.579,0.104c0,0-0.006,0-0.012,0c-0.191,0.041-0.376,0.081-0.556,0.133
									c-0.191,0.046-0.376,0.098-0.561,0.156c-0.006,0.006-0.012,0.006-0.023,0.006c-0.174,0.058-0.347,0.122-0.521,0.185
									c-0.174,0.064-0.347,0.133-0.521,0.203c-0.26,0.11-0.509,0.226-0.758,0.359c-0.26,0.133-0.521,0.272-0.77,0.434
									c-0.336,0.203-0.666,0.423-0.984,0.671c-0.133,0.098-0.26,0.203-0.382,0.307c-0.295,0.232-0.579,0.492-0.851,0.776
									c-0.133,0.133-0.26,0.272-0.388,0.411c-0.127,0.139-0.249,0.284-0.37,0.428c-0.226,0.266-0.428,0.544-0.614,0.828
									c-0.046,0.046-0.075,0.093-0.098,0.139c-0.081,0.127-0.168,0.255-0.243,0.388c-0.046,0.058-0.081,0.11-0.104,0.168
									c-0.069,0.11-0.133,0.22-0.197,0.336l-0.012,0.029C280.994,186.885,280.798,187.301,280.63,187.73z"/>
							</g>
						</g>
					</g>
					<g>
						<rect x="230.301" y="200.816" class="st128" width="8.508" height="8.977"/>
						<path class="st130" d="M212.995,216.288v43.494h8.549v4.77h25.504v-4.77h8.549v-43.494c0-4.694-3.855-8.549-8.549-8.549
							h-25.504C216.85,207.738,212.995,211.593,212.995,216.288z"/>
						<g>
							<g>
								<path class="st4" d="M246.3,192.123c0,6.529-5.267,11.843-11.745,11.843c-5.117,0-9.481-3.323-11.085-7.936
									c-0.046-0.127-0.093-0.26-0.133-0.388l-0.069-0.243c-0.012-0.035-0.017-0.069-0.029-0.104
									c-0.029-0.098-0.052-0.197-0.075-0.295c-0.035-0.133-0.064-0.266-0.093-0.405c-0.029-0.116-0.052-0.232-0.07-0.353
									c-0.006-0.035-0.012-0.069-0.017-0.104c-0.023-0.116-0.04-0.232-0.058-0.347c0,0,0-0.006,0-0.012
									c-0.023-0.145-0.041-0.295-0.052-0.446c-0.023-0.197-0.04-0.399-0.046-0.602c-0.012-0.203-0.017-0.405-0.017-0.608
									c0-6.529,5.273-11.843,11.745-11.843c0.203,0,0.399,0.006,0.596,0.017h0.012c0.197,0.006,0.394,0.023,0.59,0.046
									c0.197,0.017,0.394,0.041,0.585,0.075c0.197,0.029,0.388,0.064,0.579,0.104c0,0,0.006,0,0.012,0
									c0.191,0.041,0.376,0.081,0.556,0.133c0.191,0.046,0.376,0.098,0.561,0.156c0.006,0.006,0.012,0.006,0.023,0.006
									c0.174,0.058,0.347,0.122,0.521,0.185c0.174,0.064,0.347,0.133,0.521,0.203c0.26,0.11,0.509,0.226,0.758,0.359
									c0.266,0.133,0.521,0.278,0.77,0.434c0.336,0.203,0.666,0.423,0.984,0.671c0.133,0.098,0.26,0.203,0.382,0.307
									c0.295,0.232,0.579,0.492,0.851,0.776c0.133,0.133,0.26,0.272,0.388,0.411c0.127,0.139,0.249,0.284,0.37,0.428
									c0.22,0.266,0.423,0.544,0.614,0.828c0.046,0.046,0.075,0.093,0.098,0.139c0.081,0.127,0.168,0.255,0.243,0.388
									c0.046,0.058,0.081,0.11,0.104,0.168c0.069,0.122,0.139,0.243,0.208,0.365c0.214,0.405,0.411,0.822,0.579,1.25
									C246.005,189.09,246.3,190.572,246.3,192.123z"/>
							</g>
							<g>
								<path class="st16" d="M245.46,187.73h-16.103c-0.023,1.638-0.307,5.065-2.09,6.952c-0.845,0.891-1.91,1.349-3.166,1.349
									h-0.654l-0.11-0.388l-0.069-0.243c-0.012-0.035-0.017-0.069-0.029-0.104c-0.029-0.098-0.052-0.197-0.075-0.295
									c-0.035-0.133-0.064-0.266-0.093-0.405c-0.029-0.116-0.052-0.232-0.07-0.353c-0.006-0.035-0.012-0.069-0.017-0.104
									c-0.023-0.116-0.04-0.232-0.058-0.347c0,0,0-0.006,0-0.012c-0.023-0.145-0.041-0.295-0.052-0.446
									c-0.023-0.197-0.04-0.399-0.046-0.602c-0.012-0.203-0.017-0.405-0.017-0.608c0-6.529,5.273-11.843,11.745-11.843
									c0.203,0,0.399,0.006,0.596,0.017h0.012c0.197,0.006,0.394,0.023,0.59,0.046c0.197,0.017,0.394,0.041,0.585,0.075
									c0.197,0.029,0.388,0.064,0.579,0.104c0,0,0.006,0,0.012,0c0.191,0.041,0.376,0.081,0.556,0.133
									c0.191,0.046,0.376,0.098,0.561,0.156c0.006,0.006,0.012,0.006,0.023,0.006c0.174,0.058,0.347,0.122,0.521,0.185
									c0.174,0.064,0.347,0.133,0.521,0.203c0.26,0.11,0.509,0.226,0.758,0.359c0.26,0.133,0.521,0.272,0.77,0.434
									c0.336,0.203,0.666,0.423,0.984,0.671c0.133,0.098,0.26,0.203,0.382,0.307c0.295,0.232,0.579,0.492,0.851,0.776
									c0.133,0.133,0.26,0.272,0.388,0.411c0.127,0.139,0.249,0.284,0.37,0.428c0.226,0.266,0.428,0.544,0.614,0.828
									c0.046,0.046,0.075,0.093,0.098,0.139c0.081,0.127,0.168,0.255,0.243,0.388c0.046,0.058,0.081,0.11,0.104,0.168
									c0.069,0.11,0.133,0.22,0.197,0.336l0.012,0.029C245.096,186.885,245.293,187.301,245.46,187.73z"/>
							</g>
						</g>
					</g>
					<g>
						
							<rect x="313.033" y="200.81" transform="matrix(-1 4.532451e-11 -4.532451e-11 -1 634.5737 410.5964)" class="st128" width="8.508" height="8.977"/>
						<g>
							<path class="st130" d="M312.22,207.739h10.135c6.128,0,11.097,4.968,11.097,11.098v20.509v25.198h-32.329v-25.198v-20.509
								C301.123,212.708,306.091,207.739,312.22,207.739z"/>
						</g>
						<g>
							<g>
								<circle class="st128" cx="317.285" cy="192.028" r="10.877"/>
							</g>
							<g>
								<path class="st129" d="M316.197,185.113c0.54-1.474,1.342-2.773,2.322-3.884c0.838,0.097,1.678,0.281,2.506,0.584
									c5.641,2.066,8.54,8.313,6.474,13.955c-0.779,2.127-2.154,3.863-3.866,5.091l-0.153-0.048
									C317.134,198.488,313.873,191.459,316.197,185.113z"/>
							</g>
							<g>
								<path class="st129" d="M321.026,181.813c1.539,0.564,2.865,1.446,3.951,2.535c-3.135,4.305-8.843,6.211-14.092,4.289
									c-1.172-0.429-2.236-1.02-3.181-1.735C310.217,182.192,315.87,179.925,321.026,181.813z"/>
							</g>
						</g>
						<line class="st118" x1="321.761" y1="259.782" x2="321.761" y2="219.732"/>
					</g>
					<g>
						<rect x="258.163" y="200.816" class="st128" width="8.508" height="8.977"/>
						<path class="st131" d="M283.459,216.288v43.494h-8.549v4.77h-25.504v-4.77h-8.549v-43.494c0-4.694,3.855-8.549,8.549-8.549
							h25.504C279.604,207.738,283.459,211.593,283.459,216.288z"/>
						<line class="st118" x1="249.406" y1="259.782" x2="249.406" y2="219.732"/>
						<g>
							<g>
								<path class="st4" d="M274.162,191.945c0,6.529-5.267,11.843-11.745,11.843c-5.117,0-9.481-3.323-11.085-7.936
									c-0.046-0.127-0.093-0.26-0.133-0.388l-0.069-0.243c-0.012-0.035-0.017-0.069-0.029-0.104
									c-0.029-0.098-0.052-0.197-0.075-0.295c-0.035-0.133-0.064-0.266-0.093-0.405c-0.029-0.116-0.052-0.232-0.07-0.353
									c-0.006-0.035-0.012-0.069-0.017-0.104c-0.023-0.116-0.04-0.232-0.058-0.347c0,0,0-0.006,0-0.012
									c-0.023-0.145-0.041-0.295-0.052-0.446c-0.023-0.197-0.04-0.399-0.046-0.602c-0.012-0.203-0.017-0.405-0.017-0.608
									c0-6.529,5.273-11.843,11.745-11.843c0.203,0,0.399,0.006,0.596,0.017h0.012c0.197,0.006,0.394,0.023,0.59,0.046
									c0.197,0.017,0.394,0.041,0.585,0.075c0.197,0.029,0.388,0.064,0.579,0.104c0,0,0.006,0,0.012,0
									c0.191,0.041,0.376,0.081,0.556,0.133c0.191,0.046,0.376,0.098,0.561,0.156c0.006,0.006,0.012,0.006,0.023,0.006
									c0.174,0.058,0.347,0.122,0.521,0.185c0.174,0.064,0.347,0.133,0.521,0.203c0.26,0.11,0.509,0.226,0.758,0.359
									c0.266,0.133,0.521,0.278,0.77,0.434c0.336,0.203,0.666,0.423,0.984,0.671c0.133,0.098,0.26,0.203,0.382,0.307
									c0.295,0.232,0.579,0.492,0.851,0.776c0.133,0.133,0.26,0.272,0.388,0.411c0.127,0.139,0.249,0.284,0.37,0.428
									c0.22,0.266,0.423,0.544,0.614,0.828c0.046,0.046,0.075,0.093,0.098,0.139c0.081,0.127,0.168,0.255,0.243,0.388
									c0.046,0.058,0.081,0.11,0.104,0.168c0.069,0.122,0.139,0.243,0.208,0.365c0.214,0.405,0.411,0.822,0.579,1.25
									C273.867,188.912,274.162,190.394,274.162,191.945z"/>
							</g>
							<g>
								<path class="st16" d="M273.323,187.552H257.22c-0.023,1.638-0.307,5.065-2.09,6.952c-0.845,0.891-1.91,1.349-3.166,1.349
									h-0.654l-0.11-0.388l-0.069-0.243c-0.012-0.035-0.017-0.069-0.029-0.104c-0.029-0.098-0.052-0.197-0.075-0.295
									c-0.035-0.133-0.064-0.266-0.093-0.405c-0.029-0.116-0.052-0.232-0.07-0.353c-0.006-0.035-0.012-0.069-0.017-0.104
									c-0.023-0.116-0.04-0.232-0.058-0.347c0,0,0-0.006,0-0.012c-0.023-0.145-0.041-0.295-0.052-0.446
									c-0.023-0.197-0.04-0.399-0.046-0.602c-0.012-0.203-0.017-0.405-0.017-0.608c0-6.529,5.273-11.843,11.745-11.843
									c0.203,0,0.399,0.006,0.596,0.017h0.012c0.197,0.006,0.394,0.023,0.59,0.046c0.197,0.017,0.394,0.041,0.585,0.075
									c0.197,0.029,0.388,0.064,0.579,0.104c0,0,0.006,0,0.012,0c0.191,0.041,0.376,0.081,0.556,0.133
									c0.191,0.046,0.376,0.098,0.561,0.156c0.006,0.006,0.012,0.006,0.023,0.006c0.174,0.058,0.347,0.122,0.521,0.185
									c0.174,0.064,0.347,0.133,0.521,0.203c0.26,0.11,0.509,0.226,0.758,0.359c0.26,0.133,0.521,0.272,0.77,0.434
									c0.336,0.203,0.666,0.423,0.984,0.671c0.133,0.098,0.26,0.203,0.382,0.307c0.295,0.232,0.579,0.492,0.851,0.776
									c0.133,0.133,0.26,0.272,0.388,0.411c0.127,0.139,0.249,0.284,0.37,0.428c0.226,0.266,0.428,0.544,0.614,0.828
									c0.046,0.046,0.075,0.093,0.098,0.139c0.081,0.127,0.168,0.255,0.243,0.388c0.046,0.058,0.081,0.11,0.104,0.168
									c0.069,0.11,0.133,0.22,0.197,0.336l0.012,0.029C272.958,186.707,273.155,187.124,273.323,187.552z"/>
							</g>
						</g>
					</g>
				</g>
			</g>
		</g>
		<path class="st132" d="M277.082,258.85c-32.042,0-58.111-26.069-58.111-58.111s26.069-58.111,58.111-58.111
			s58.111,26.069,58.111,58.111S309.124,258.85,277.082,258.85z"/>
	</g>
	<g>
		<path class="st126" d="M164.447,122.72c-32.042,0-58.111-26.069-58.111-58.111s26.069-58.111,58.111-58.111
			s58.111,26.069,58.111,58.111S196.489,122.72,164.447,122.72z"/>
		<g>
			<defs>
				<path id="SVGID_29_" d="M164.447,122.72c-32.042,0-58.111-26.069-58.111-58.111s26.069-58.111,58.111-58.111
					s58.111,26.069,58.111,58.111S196.489,122.72,164.447,122.72z"/>
			</defs>
			<clipPath id="SVGID_4_">
				<use xlink:href="#SVGID_29_"  style="overflow:visible;"/>
			</clipPath>
			<g class="st55">
				<g>
					<g>
						
							<rect x="165.701" y="57.1" transform="matrix(-1 4.478983e-11 -4.478983e-11 -1 339.9093 123.1773)" class="st128" width="8.508" height="8.977"/>
						<path class="st131" d="M191.515,72.572v51.674h-42.603V72.572c0-4.694,3.855-8.549,8.549-8.549h25.504
							C187.66,64.022,191.515,67.877,191.515,72.572z"/>
						<g>
							<g>
								<path class="st4" d="M158.21,48.407c0,6.529,5.267,11.843,11.745,11.843c5.117,0,9.481-3.323,11.085-7.936
									c0.046-0.127,0.093-0.26,0.133-0.388l0.069-0.243c0.012-0.035,0.017-0.069,0.029-0.104c0.029-0.098,0.052-0.197,0.075-0.295
									c0.035-0.133,0.064-0.266,0.093-0.405c0.029-0.116,0.052-0.232,0.07-0.353c0.006-0.035,0.012-0.069,0.017-0.104
									c0.023-0.116,0.04-0.232,0.058-0.347c0,0,0-0.006,0-0.012c0.023-0.145,0.041-0.295,0.052-0.446
									c0.023-0.197,0.04-0.399,0.046-0.602c0.012-0.203,0.017-0.405,0.017-0.608c0-6.529-5.273-11.843-11.745-11.843
									c-0.203,0-0.399,0.006-0.596,0.017h-0.012c-0.197,0.006-0.394,0.023-0.59,0.046c-0.197,0.017-0.394,0.041-0.585,0.075
									c-0.197,0.029-0.388,0.064-0.579,0.104c0,0-0.006,0-0.012,0c-0.191,0.041-0.376,0.081-0.556,0.133
									c-0.191,0.046-0.376,0.098-0.561,0.156c-0.006,0.006-0.012,0.006-0.023,0.006c-0.174,0.058-0.347,0.122-0.521,0.185
									c-0.174,0.064-0.347,0.133-0.521,0.203c-0.26,0.11-0.509,0.226-0.758,0.359c-0.266,0.133-0.521,0.278-0.77,0.434
									c-0.336,0.203-0.666,0.423-0.984,0.671c-0.133,0.098-0.26,0.203-0.382,0.307c-0.295,0.232-0.579,0.492-0.851,0.776
									c-0.133,0.133-0.26,0.272-0.388,0.411c-0.127,0.139-0.249,0.284-0.37,0.428c-0.22,0.266-0.423,0.544-0.614,0.828
									c-0.046,0.046-0.075,0.093-0.098,0.139c-0.081,0.127-0.168,0.255-0.243,0.388c-0.046,0.058-0.081,0.11-0.104,0.168
									c-0.069,0.122-0.139,0.243-0.208,0.365c-0.214,0.405-0.411,0.822-0.579,1.25C158.505,45.374,158.21,46.856,158.21,48.407z"
									/>
							</g>
							<g>
								<path class="st16" d="M159.049,44.014h16.103c0.023,1.638,0.307,5.065,2.09,6.952c0.845,0.891,1.91,1.349,3.166,1.349h0.654
									l0.11-0.388l0.069-0.243c0.012-0.035,0.017-0.069,0.029-0.104c0.029-0.098,0.052-0.197,0.075-0.295
									c0.035-0.133,0.064-0.266,0.093-0.405c0.029-0.116,0.052-0.232,0.07-0.353c0.006-0.035,0.012-0.069,0.017-0.104
									c0.023-0.116,0.04-0.232,0.058-0.347c0,0,0-0.006,0-0.012c0.023-0.145,0.041-0.295,0.052-0.446
									c0.023-0.197,0.04-0.399,0.046-0.602c0.012-0.203,0.017-0.405,0.017-0.608c0-6.529-5.273-11.843-11.745-11.843
									c-0.203,0-0.399,0.006-0.596,0.017h-0.012c-0.197,0.006-0.394,0.023-0.59,0.046c-0.197,0.017-0.394,0.041-0.585,0.075
									c-0.197,0.029-0.388,0.064-0.579,0.104c0,0-0.006,0-0.012,0c-0.191,0.041-0.376,0.081-0.556,0.133
									c-0.191,0.046-0.376,0.098-0.561,0.156c-0.006,0.006-0.012,0.006-0.023,0.006c-0.174,0.058-0.347,0.122-0.521,0.185
									c-0.174,0.064-0.347,0.133-0.521,0.203c-0.26,0.11-0.509,0.226-0.758,0.359c-0.26,0.133-0.521,0.272-0.77,0.434
									c-0.336,0.203-0.666,0.423-0.984,0.671c-0.133,0.098-0.26,0.203-0.382,0.307c-0.295,0.232-0.579,0.492-0.851,0.776
									c-0.133,0.133-0.26,0.272-0.388,0.411c-0.127,0.139-0.249,0.284-0.37,0.428c-0.226,0.266-0.428,0.544-0.614,0.828
									c-0.046,0.046-0.075,0.093-0.098,0.139c-0.081,0.127-0.168,0.255-0.243,0.388c-0.046,0.058-0.081,0.11-0.104,0.168
									c-0.069,0.11-0.133,0.22-0.197,0.336l-0.012,0.029C159.414,43.169,159.217,43.585,159.049,44.014z"/>
							</g>
						</g>
					</g>
					<g>
						
							<rect x="193.609" y="64.68" transform="matrix(-1 4.532451e-11 -4.532451e-11 -1 395.7271 138.3366)" class="st128" width="8.508" height="8.977"/>
						<g>
							<path class="st130" d="M192.796,71.609h10.135c6.128,0,11.097,4.968,11.097,11.098v20.509v25.198h-32.329v-25.198V82.707
								C181.699,76.578,186.668,71.609,192.796,71.609z"/>
						</g>
						<g>
							<g>
								<circle class="st128" cx="197.862" cy="55.898" r="10.877"/>
							</g>
							<g>
								<path class="st129" d="M196.774,48.983c0.54-1.474,1.342-2.773,2.322-3.884c0.838,0.097,1.678,0.281,2.506,0.584
									c5.641,2.066,8.54,8.313,6.474,13.955c-0.779,2.127-2.154,3.863-3.866,5.091l-0.153-0.048
									C197.711,62.358,194.45,55.329,196.774,48.983z"/>
							</g>
							<g>
								<path class="st129" d="M201.602,45.684c1.539,0.564,2.865,1.446,3.951,2.535c-3.135,4.305-8.843,6.211-14.092,4.289
									c-1.172-0.429-2.236-1.02-3.181-1.735C190.794,46.062,196.446,43.795,201.602,45.684z"/>
							</g>
						</g>
						<line class="st118" x1="202.337" y1="123.652" x2="202.337" y2="83.602"/>
					</g>
					<g>
						<rect x="128.104" y="64.686" class="st128" width="8.508" height="8.977"/>
						<circle class="st4" cx="132.358" cy="55.914" r="11.745"/>
						<path class="st16" d="M142.588,50.153h-11.895c-1.43,0-2.587,1.163-2.587,2.593v14.21c0,0.145-0.006,0.284-0.023,0.423
							c0.017,0.179,0.023,0.359,0.023,0.538v5.568c0,4.139-3.357,7.49-7.49,7.49c-4.139,0-7.496-3.352-7.496-7.49v-5.568
							c0-2.067,0.839-3.936,2.194-5.296c0.776-0.77,1.719-1.378,2.767-1.748v-0.012c1.476-0.504,2.535-1.899,2.535-3.543
							l0.058-2.535c0.104-1.14,0.376-2.234,0.793-3.253v-0.012c0.006,0,0.006-0.006,0.006-0.006c0.185-0.469,0.405-0.92,0.654-1.36
							c2.014-3.566,5.84-5.985,10.234-5.985C136.748,44.167,140.574,46.587,142.588,50.153z"/>
						<path class="st130" d="M153.399,80.158v43.494h-8.549v4.77h-25.504v-4.77h-8.549V80.158c0-4.694,3.855-8.549,8.549-8.549
							h25.504C149.544,71.608,153.399,75.463,153.399,80.158z"/>
						<line class="st118" x1="119.346" y1="123.652" x2="119.346" y2="83.602"/>
					</g>
				</g>
			</g>
		</g>
		<path class="st132" d="M164.447,122.72c-32.042,0-58.111-26.069-58.111-58.111s26.069-58.111,58.111-58.111
			s58.111,26.069,58.111,58.111S196.489,122.72,164.447,122.72z"/>
	</g>
	<g>
		
			<rect x="6.185" y="185.341" transform="matrix(-1.836970e-16 1 -1 -1.836970e-16 329.7764 160.0578)" class="st16" width="157.349" height="119.153"/>
		<rect x="30.414" y="171.373" class="st134" width="108.89" height="147.088"/>
		<line class="st7" x1="45.807" y1="200.449" x2="123.912" y2="200.449"/>
		<line class="st7" x1="45.807" y1="208.661" x2="123.912" y2="208.661"/>
		<line class="st7" x1="45.807" y1="216.872" x2="123.912" y2="216.872"/>
		<line class="st7" x1="45.807" y1="225.084" x2="123.912" y2="225.084"/>
		<line class="st7" x1="45.807" y1="233.295" x2="123.912" y2="233.295"/>
		<line class="st7" x1="45.807" y1="241.507" x2="123.912" y2="241.507"/>
		<line class="st7" x1="45.807" y1="249.719" x2="123.912" y2="249.719"/>
		<line class="st7" x1="45.807" y1="257.93" x2="123.912" y2="257.93"/>
		<line class="st7" x1="45.807" y1="266.142" x2="123.912" y2="266.142"/>
		<line class="st7" x1="45.807" y1="274.354" x2="123.912" y2="274.354"/>
		<line class="st7" x1="45.807" y1="282.565" x2="123.912" y2="282.565"/>
		<line class="st7" x1="45.807" y1="290.777" x2="123.912" y2="290.777"/>
		<path class="st24" d="M84.859,176.709H51.916c-2.032,0-3.68-1.647-3.68-3.68v-6.925c0-2.032,1.647-3.68,3.68-3.68l12.864-0.001
			c1.118,0,2.175-0.508,2.873-1.381l3.65-4.563c0.698-0.873,1.756-1.381,2.873-1.381h10.683h10.684c1.118,0,2.175,0.508,2.873,1.381
			l3.65,4.563c0.698,0.873,1.755,1.381,2.873,1.381l12.864,0.001c2.032,0,3.68,1.648,3.68,3.68v6.925c0,2.032-1.647,3.68-3.68,3.68
			H84.859z"/>
		<g>
			<path class="st135" d="M163.479,205.805l-3.852-3.502c-2.457-2.234-6.26-2.053-8.494,0.405l-6.863,7.549l12.751,11.592
				l6.863-7.549C166.117,211.841,165.936,208.038,163.479,205.805z"/>
			
				<rect x="100.388" y="229.668" transform="matrix(0.6727 -0.7399 0.7399 0.6727 -133.6223 174.5131)" class="st136" width="60.092" height="17.232"/>
			<polygon class="st137" points="100.875,270.786 107.55,268.887 102.128,263.958 			"/>
			<polygon class="st138" points="103.848,254.721 103.827,254.702 102.128,263.958 107.55,268.887 116.599,266.313 			"/>
			<line class="st139" x1="144.269" y1="210.256" x2="157.02" y2="221.848"/>
			<line class="st118" x1="147.679" y1="206.506" x2="160.43" y2="218.097"/>
			<line class="st118" x1="148.521" y1="214.12" x2="108.099" y2="258.584"/>
			<line class="st118" x1="152.771" y1="217.984" x2="112.35" y2="262.448"/>
		</g>
	</g>
	<g>
		<defs>
			<path id="SVGID_31_" d="M449.968,125.291c-32.042,0-58.111-26.069-58.111-58.111s26.069-58.111,58.111-58.111
				s58.111,26.069,58.111,58.111S482.01,125.291,449.968,125.291z"/>
		</defs>
		<clipPath id="SVGID_6_">
			<use xlink:href="#SVGID_31_"  style="overflow:visible;"/>
		</clipPath>
		<g class="st57">
			<g>
				<line class="st46" x1="429.885" y1="109.262" x2="469.577" y2="109.262"/>
				<polygon class="st64" points="481.637,127.515 473.665,127.513 454.014,81.274 460.164,76.99 				"/>
				<polygon class="st64" points="418.298,127.515 426.27,127.515 445.922,81.274 439.771,76.99 				"/>
			</g>
			<rect x="409.055" y="35.093" class="st5" width="81.826" height="63.011"/>
			<line class="st118" x1="415.618" y1="91.978" x2="484.317" y2="91.978"/>
			<polyline class="st141" points="473.296,52.168 454.918,70.546 444.143,59.77 426.64,77.273 			"/>
			<polyline class="st141" points="473.296,60.545 473.296,52.168 464.918,52.168 			"/>
		</g>
	</g>
	<circle class="st9" cx="222.558" cy="64.609" r="6.287"/>
	<circle class="st9" cx="218.971" cy="200.739" r="6.287"/>
	<circle class="st9" cx="141.252" cy="304.056" r="6.287"/>
	<circle class="st9" cx="277.082" cy="258.85" r="6.287"/>
	<circle class="st9" cx="106.336" cy="64.609" r="6.287"/>
	<path class="st132" d="M449.968,125.291c-32.042,0-58.111-26.069-58.111-58.111s26.069-58.111,58.111-58.111
		s58.111,26.069,58.111,58.111S482.01,125.291,449.968,125.291z"/>
	<circle class="st9" cx="391.857" cy="64.609" r="6.287"/>
	<circle class="st9" cx="449.968" cy="125.291" r="6.287"/>
	<path class="st8" d="M85.113,155.933L85.113,155.933c0-16.839-13.65-30.489-30.489-30.489H36.99
		c-16.839,0-30.489-13.65-30.489-30.489v0c0-16.839,13.65-30.489,30.489-30.489h69.346"/>
	<path class="st132" d="M218.777,200.478L218.777,200.478c-22.186,0-40.172,17.986-40.172,40.172v23.234
		c0,22.186-17.986,40.172-40.172,40.172"/>
	<path class="st8" d="M391.857,64.609h-33.522c-33.869,0-33.869-43.351-67.738-43.351c-33.867,0-33.867,43.351-67.735,43.351"/>
</g>
</svg>
